<svg width="16" height="16" viewBox="0 0 16 16" fill="none" xmlns="http://www.w3.org/2000/svg">
<path d="M0.0372314 13H1.55623L2.29123 10.725H6.42823L7.17723 13H8.69623L5.42023 2.92001H3.31323L0.0372314 13ZM2.73923 9.35301L4.34923 4.38301L5.98023 9.35301H2.73923Z" fill="#07AD3E"/>
<path d="M11.3871 13.21C12.6121 13.21 13.4871 12.79 14.1101 11.901V13H15.4051V8.34501C15.4051 7.71501 15.3771 7.16901 15.1391 6.67201C14.6701 5.67801 13.6201 5.23001 12.2691 5.23001C10.5191 5.23001 9.46908 6.05601 9.10508 7.35101L10.4701 7.77101C10.7291 6.93101 11.4571 6.58101 12.2551 6.58101C13.4381 6.58101 13.9141 7.07101 13.9631 8.11401C12.7381 8.28201 11.4921 8.44301 10.6171 8.70201C9.44808 9.07301 8.83208 9.80101 8.83208 10.942C8.83208 12.174 9.71408 13.21 11.3871 13.21ZM10.2811 10.928C10.2811 10.333 10.7221 10.011 11.3241 9.80801C11.9611 9.61901 12.8081 9.50001 13.9491 9.33201C13.9421 9.68201 13.9141 10.165 13.7951 10.515C13.6271 11.25 12.8921 12.013 11.6461 12.013C10.7081 12.013 10.2811 11.516 10.2811 10.928Z" fill="#07AD3E"/>
</svg>
