<svg width="16" height="16" viewBox="0 0 16 16" fill="none" xmlns="http://www.w3.org/2000/svg">
<path fill-rule="evenodd" clip-rule="evenodd" d="M7.5 0.288668C7.8094 0.110035 8.19059 0.110035 8.5 0.288668L14.4282 3.71132C14.7376 3.88995 14.9282 4.22008 14.9282 4.57734V11.4226C14.9282 11.7799 14.7376 12.11 14.4282 12.2887L8.5 15.7113C8.19059 15.89 7.8094 15.89 7.5 15.7113L1.57179 12.2887C1.26239 12.11 1.07179 11.7799 1.07179 11.4226V4.57734C1.07179 4.22008 1.26239 3.88995 1.57179 3.71132L7.5 0.288668ZM3.34785 4.41796L8 1.73204L12.6521 4.41796L8 7.13172L3.34785 4.41796ZM2.57179 5.70182V11.134L7.25 13.8349V8.43077L2.57179 5.70182ZM8.75 13.8349L13.4282 11.134V5.70182L8.75 8.43077V13.8349Z" fill="#110529"/>
</svg>
