<svg width="16" height="16" viewBox="0 0 16 16" fill="none" xmlns="http://www.w3.org/2000/svg">
<path fill-rule="evenodd" clip-rule="evenodd" d="M8.75 1.5H7.25C6.83579 1.5 6.5 1.83579 6.5 2.25C6.5 2.66421 6.83579 3 7.25 3H8.75C9.16421 3 9.5 2.66421 9.5 2.25C9.5 1.83579 9.16421 1.5 8.75 1.5ZM7.25 0C6.00736 0 5 1.00736 5 2.25C5 3.49264 6.00736 4.5 7.25 4.5H8.75C9.99264 4.5 11 3.49264 11 2.25C11 1.00736 9.99264 0 8.75 0H7.25ZM3.5 1.54147C2.08114 1.77951 1 3.0135 1 4.49999V13C1 14.6568 2.34315 16 4 16H12C13.6569 16 15 14.6568 15 13V4.49999C15 3.0135 13.9189 1.77951 12.5 1.54147V3.08535C13.0826 3.29127 13.5 3.84688 13.5 4.49999V13C13.5 13.8284 12.8284 14.5 12 14.5H4C3.17157 14.5 2.5 13.8284 2.5 13V4.49999C2.5 3.84688 2.9174 3.29127 3.5 3.08535V1.54147ZM5 8.25H11V6.75H5V8.25ZM11 11.25H5V9.75H11V11.25Z" fill="#110529"/>
</svg>
