<svg width="16" height="16" viewBox="0 0 16 16" fill="none" xmlns="http://www.w3.org/2000/svg">
<path fill-rule="evenodd" clip-rule="evenodd" d="M3.5 1.54147C2.08114 1.77951 1 3.0135 1 4.49999V13C1 14.6568 2.34315 16 4 16H12C13.6569 16 15 14.6568 15 13V8.99999H13.5V13C13.5 13.8284 12.8284 14.5 12 14.5H4C3.17157 14.5 2.5 13.8284 2.5 13V4.49999C2.5 3.84688 2.9174 3.29127 3.5 3.08535V1.54147Z" fill="#110529"/>
<rect x="5.75" y="0.75" width="4.5" height="3" rx="1.5" stroke="#110529" stroke-width="1.5"/>
<path d="M7.79942 11.5438L15.0222 4.5366L13.9777 3.45999L7.80054 9.4528L5.52279 7.23833L4.47717 8.31382L7.79942 11.5438Z" fill="#110529"/>
</svg>
