<svg width="16" height="16" viewBox="0 0 16 16" fill="none" xmlns="http://www.w3.org/2000/svg">
<path fill-rule="evenodd" clip-rule="evenodd" d="M6.40057 4.30094C7.08923 3.33207 8.22079 2.7 9.49999 2.7C11.5987 2.7 13.3 4.40132 13.3 6.5C13.3 7.7792 12.6679 8.91076 11.6991 9.59942C11.6997 9.56636 11.7 9.53322 11.7 9.5C11.7 6.62812 9.37187 4.3 6.49999 4.3C6.46677 4.3 6.43363 4.30032 6.40057 4.30094ZM4.64182 4.64183C5.38972 2.68764 7.2828 1.3 9.49999 1.3C12.3719 1.3 14.7 3.62812 14.7 6.5C14.7 8.71719 13.3123 10.6103 11.3582 11.3582C10.6103 13.3124 8.71717 14.7 6.49999 14.7C3.62811 14.7 1.29999 12.3719 1.29999 9.5C1.29999 7.28282 2.68763 5.38973 4.64182 4.64183ZM9.59941 11.6991C8.91075 12.6679 7.77918 13.3 6.49999 13.3C4.40131 13.3 2.69999 11.5987 2.69999 9.5C2.69999 8.22081 3.33206 7.08924 4.30092 6.40058C4.3003 6.43365 4.29999 6.46679 4.29999 6.5C4.29999 9.37188 6.62811 11.7 9.49999 11.7C9.5332 11.7 9.56634 11.6997 9.59941 11.6991ZM10.2299 10.23C9.99371 10.2759 9.74966 10.3 9.49999 10.3C7.40131 10.3 5.69999 8.59869 5.69999 6.5C5.69999 6.25033 5.72407 6.00628 5.77003 5.77005C6.00626 5.72408 6.25031 5.7 6.49999 5.7C8.59867 5.7 10.3 7.40132 10.3 9.5C10.3 9.74968 10.2759 9.99373 10.2299 10.23Z" fill="#07AD3E"/>
</svg>
