<svg width="16" height="16" viewBox="0 0 16 16" fill="none" xmlns="http://www.w3.org/2000/svg">
<g clip-path="url(#clip0_5527_55430)">
<path fill-rule="evenodd" clip-rule="evenodd" d="M1.5 4.5H11.5V14.5H1.5V4.5ZM0 4.5C0 3.67157 0.671573 3 1.5 3H11.5C12.3284 3 13 3.67157 13 4.5V14.5C13 15.3284 12.3284 16 11.5 16H1.5C0.671574 16 0 15.3284 0 14.5V4.5ZM9.5 1.5H3V0H9.5H14.5C15.3284 0 16 0.671573 16 1.5V6.5L16 13H14.5L14.5 6.5V1.5H9.5Z" fill="#110529"/>
</g>
<defs>
<clipPath id="clip0_5527_55430">
<rect width="16" height="16" fill="white"/>
</clipPath>
</defs>
</svg>
