<svg width="16" height="16" viewBox="0 0 16 16" fill="none" xmlns="http://www.w3.org/2000/svg">
<path fill-rule="evenodd" clip-rule="evenodd" d="M14.5 8C14.5 11.5899 11.5899 14.5 8 14.5C4.41015 14.5 1.5 11.5899 1.5 8C1.5 4.41015 4.41015 1.5 8 1.5C11.5899 1.5 14.5 4.41015 14.5 8ZM16 8C16 12.4183 12.4183 16 8 16C3.58172 16 0 12.4183 0 8C0 3.58172 3.58172 0 8 0C12.4183 0 16 3.58172 16 8ZM11.5303 5.53033L9.06066 8L11.5303 10.4697L10.4697 11.5303L8 9.06066L5.53033 11.5303L4.46967 10.4697L6.93934 8L4.46967 5.53033L5.53033 4.46967L8 6.93933L10.4697 4.46967L11.5303 5.53033Z" fill="#110529"/>
</svg>
