<svg width="16" height="17" viewBox="0 0 16 17" fill="none" xmlns="http://www.w3.org/2000/svg">
<path fill-rule="evenodd" clip-rule="evenodd" d="M8 3.00006H15V4.50006L13.5 4.50006H12L4 4.50004H2.5L1 4.5V3L8 3.00006Z" fill="#110529"/>
<path d="M12 4.50006V8H13.5V4.50006H12Z" fill="#110529"/>
<path fill-rule="evenodd" clip-rule="evenodd" d="M4 12.25C4 13.4926 5.00736 14.5 6.25 14.5H8V16H6.25C4.17893 16 2.5 14.3211 2.5 12.25V4.50004H4V12.25Z" fill="#110529"/>
<path fill-rule="evenodd" clip-rule="evenodd" d="M11.6897 13.0303L9.72 11.0607L10.7807 10L12.7503 11.9697L14.72 10L15.7807 11.0607L13.811 13.0303L15.7807 15L14.72 16.0607L12.7503 14.091L10.7807 16.0607L9.72 15L11.6897 13.0303Z" fill="#110529"/>
<rect x="4" width="8" height="1.5" fill="#110529"/>
</svg>
