<svg width="16" height="16" viewBox="0 0 16 16" fill="none" xmlns="http://www.w3.org/2000/svg">
<g clip-path="url(#clip0_6965_712)">
<path d="M7.25 14H8.75V15.5H7.25V14Z" fill="#110529"/>
<path d="M5 8C5 6.5 6 5 8 5C10 5 11.0148 6.5 11 8C10.9865 9.3695 10.1641 10.739 8.49898 10.9669C8.22539 11.0044 8 11.2238 8 11.5C8 11.9782 8 12.5 8 12.5" stroke="#110529" stroke-width="1.5"/>
<path fill-rule="evenodd" clip-rule="evenodd" d="M11.5 13.4782C13.3042 12.3231 14.5 10.3012 14.5 8C14.5 4.41015 11.5899 1.5 8 1.5C4.41015 1.5 1.5 4.41015 1.5 8C1.5 10.3012 2.69584 12.3231 4.5 13.4782V15.1958C1.83576 13.8975 0 11.1631 0 8C0 3.58172 3.58172 0 8 0C12.4183 0 16 3.58172 16 8C16 11.1631 14.1642 13.8975 11.5 15.1958V13.4782Z" fill="#110529"/>
</g>
<defs>
<clipPath id="clip0_6965_712">
<rect width="16" height="16" rx="8" fill="white"/>
</clipPath>
</defs>
</svg>
