<svg width="16" height="16" viewBox="0 0 16 16" fill="none" xmlns="http://www.w3.org/2000/svg">
<g clip-path="url(#clip0_6965_711)">
<path d="M7.25 0H8.75V1.5H7.25V0Z" fill="#110529"/>
<path d="M7 4.5L7.579 4.307C8.00214 4.16595 8.42578 4.51952 8.36271 4.96106L7.63729 10.0389C7.57422 10.4805 7.99786 10.834 8.421 10.693L9 10.5" stroke="#110529" stroke-width="1.5" stroke-linecap="square"/>
<path fill-rule="evenodd" clip-rule="evenodd" d="M4.5 0.80426C1.83576 2.10255 0 4.83691 0 8.00003C0 12.4183 3.58172 16 8 16C12.4183 16 16 12.4183 16 8.00003C16 4.83691 14.1642 2.10255 11.5 0.80426V2.52185C13.3042 3.67691 14.5 5.69882 14.5 8.00003C14.5 11.5899 11.5899 14.5 8 14.5C4.41015 14.5 1.5 11.5899 1.5 8.00003C1.5 5.69882 2.69584 3.67691 4.5 2.52185V0.80426Z" fill="#110529"/>
</g>
<defs>
<clipPath id="clip0_6965_711">
<rect width="16" height="16" rx="8" fill="white"/>
</clipPath>
</defs>
</svg>
