<svg width="16" height="16" viewBox="0 0 16 16" fill="none" xmlns="http://www.w3.org/2000/svg">
<path d="M7.68627 9.58873L8.86999 8.40502C9.87884 7.39617 9.87884 5.76049 8.86999 4.75164C7.86113 3.74278 6.22546 3.74278 5.2166 4.75164L2.38818 7.58006C1.37932 8.58892 1.37932 10.2246 2.38818 11.2334C2.94545 11.7907 3.69398 12.0402 4.42247 11.9818L5.6655 13.2248C4.20913 13.7772 2.50035 13.4669 1.32752 12.2941C-0.267126 10.6995 -0.267121 8.11404 1.32752 6.5194L4.15594 3.69098C5.75058 2.09634 8.33601 2.09633 9.93065 3.69098C11.5253 5.28562 11.5253 7.87104 9.93065 9.46568L8.74694 10.6494L7.68627 9.58873Z" fill="#110529"/>
<path d="M11.8164 12.2941C10.2218 13.8888 7.63635 13.8888 6.04171 12.2941C4.44707 10.6995 4.44707 8.11405 6.04171 6.51941L7.21478 5.34635L8.27544 6.40701L7.10237 7.58007C6.09352 8.58893 6.09351 10.2246 7.10237 11.2335C8.11122 12.2423 9.7469 12.2423 10.7558 11.2335L13.5842 8.40504C14.593 7.39618 14.593 5.7605 13.5842 4.75165C13.0219 4.18937 12.2649 3.94047 11.5302 4.00496L10.2915 2.76617C11.7512 2.20575 13.4679 2.51402 14.6448 3.69099C16.2395 5.28563 16.2395 7.87106 14.6448 9.4657L11.8164 12.2941Z" fill="#110529"/>
</svg>
