<svg width="16" height="16" viewBox="0 0 16 16" fill="none" xmlns="http://www.w3.org/2000/svg">
<path fill-rule="evenodd" clip-rule="evenodd" d="M3.97167 11.9787C4.22887 12.4741 4.56532 12.9391 4.98103 13.3548C4.99873 13.3725 5.01653 13.39 5.0344 13.4075C3.73632 13.6721 2.33441 13.301 1.32751 12.2941C-0.267132 10.6995 -0.267127 8.11404 1.32751 6.5194L4.15594 3.69097C5.26126 2.58566 6.8426 2.24649 8.24005 2.67346C8.8587 2.86248 9.44131 3.20165 9.93063 3.69097C10.13 3.8903 10.3044 4.10511 10.4539 4.33154C11.2195 5.49111 11.3316 6.95521 10.7902 8.20398L10.7903 8.20398C10.5917 8.66208 10.3051 9.0912 9.93064 9.46568L8.74693 10.6494L7.68627 9.58873L8.86998 8.40502C9.87884 7.39617 9.87884 5.76049 8.86998 4.75163C7.86113 3.74278 6.22545 3.74278 5.2166 4.75163L2.38817 7.58006C1.37932 8.58891 1.37932 10.2246 2.38817 11.2334C2.83068 11.676 3.39377 11.9244 3.97167 11.9787ZM6.18728 12.4328C7.40203 13.5352 9.12039 13.7755 10.5547 13.1537C11.0128 12.9551 11.4419 12.6686 11.8164 12.2941L14.6448 9.46569C16.2395 7.87105 16.2395 5.28563 14.6448 3.69099C13.6379 2.68409 12.236 2.31297 10.9379 2.57764C10.9558 2.59505 10.9736 2.61261 10.9913 2.63031C11.407 3.04603 11.7435 3.51099 12.0007 4.00641C12.5786 4.06073 13.1417 4.30914 13.5842 4.75165C14.593 5.7605 14.593 7.39618 13.5842 8.40503L10.7557 11.2335C9.74689 12.2423 8.11122 12.2423 7.10236 11.2335C6.09351 10.2246 6.09351 8.58893 7.10237 7.58007L8.27543 6.40701L7.21477 5.34635L6.04171 6.51941C4.44706 8.11405 4.44706 10.6995 6.0417 12.2941C6.08936 12.3418 6.1379 12.388 6.18728 12.4328Z" fill="#110529"/>
</svg>
