<svg width="16" height="16" viewBox="0 0 16 16" fill="none" xmlns="http://www.w3.org/2000/svg">
<path fill-rule="evenodd" clip-rule="evenodd" d="M8.00003 2.5C6.48125 2.5 5.5 3.73121 5.5 5.24999V6H10.5V5.25C10.5 3.73121 9.51881 2.5 8.00003 2.5ZM4 5.24999V6L3.50003 6C2.6716 6 2.00003 6.67157 2.00003 7.5L2 13.5C2 14.3284 2.67157 15 3.5 15H12.5C13.3284 15 14 14.3284 14 13.5L14 7.5C14 6.67157 13.3285 6 12.5 6L12 6V5.24999C12 2.90279 10.3472 1 8.00003 1C5.65282 1 4 2.90278 4 5.24999ZM3.5 7.5H12.5V13.5H3.5V7.5ZM7.25 9V12H8.75V9H7.25Z" fill="#110529"/>
</svg>
