<svg width="16" height="16" viewBox="0 0 16 16" fill="none" xmlns="http://www.w3.org/2000/svg">
<path d="M7.68627 9.58876L8.86998 8.40505C9.87884 7.3962 9.87884 5.76052 8.86998 4.75167C7.86113 3.74281 6.22545 3.74281 5.2166 4.75167L2.38817 7.58009C1.37932 8.58895 1.37932 10.2246 2.38817 11.2335C2.94544 11.7907 3.69397 12.0402 4.42246 11.9818L5.66549 13.2248C4.20912 13.7772 2.50034 13.467 1.32751 12.2941C-0.267132 10.6995 -0.267127 8.11407 1.32751 6.51943L4.15594 3.69101C5.75058 2.09637 8.336 2.09636 9.93064 3.69101C11.5253 5.28565 11.5253 7.87107 9.93064 9.46571L8.74693 10.6494L7.68627 9.58876Z" fill="#110529"/>
<path d="M11.8164 12.2942C10.2218 13.8888 7.63634 13.8888 6.0417 12.2942C4.44706 10.6995 4.44706 8.11409 6.04171 6.51944L7.21477 5.34638L8.27543 6.40704L7.10237 7.5801C6.09351 8.58896 6.09351 10.2246 7.10236 11.2335C8.11122 12.2423 9.74689 12.2423 10.7557 11.2335L13.5842 8.40507C14.593 7.39621 14.593 5.76053 13.5842 4.75168C13.0219 4.1894 12.2649 3.9405 11.5302 4.00499L10.2914 2.7662C11.7512 2.20578 13.4679 2.51405 14.6448 3.69102C16.2395 5.28566 16.2395 7.87109 14.6448 9.46573L11.8164 12.2942Z" fill="#110529"/>
</svg>
