<svg width="16" height="16" viewBox="0 0 16 16" fill="none" xmlns="http://www.w3.org/2000/svg">
<path fill-rule="evenodd" clip-rule="evenodd" d="M7.99998 1.73206L13.4282 4.86603V11.134L7.99998 14.268L2.57178 11.134V4.86603L7.99998 1.73206ZM7.24998 0.433018C7.71408 0.165068 8.28588 0.165068 8.74998 0.433018L14.1782 3.56699C14.6423 3.83494 14.9282 4.33013 14.9282 4.86603V11.134C14.9282 11.6699 14.6423 12.1651 14.1782 12.433L8.74998 15.567C8.28588 15.8349 7.71408 15.8349 7.24998 15.567L1.82178 12.433C1.35768 12.1651 1.07178 11.6699 1.07178 11.134V4.86603C1.07178 4.33013 1.35768 3.83494 1.82178 3.56699L7.24998 0.433018ZM9.49998 8C9.49998 8.82843 8.82841 9.5 7.99998 9.5C7.17156 9.5 6.49998 8.82843 6.49998 8C6.49998 7.17157 7.17156 6.5 7.99998 6.5C8.82841 6.5 9.49998 7.17157 9.49998 8ZM11 8C11 9.65685 9.65684 11 7.99998 11C6.34313 11 4.99998 9.65685 4.99998 8C4.99998 6.34315 6.34313 5 7.99998 5C9.65684 5 11 6.34315 11 8Z" fill="#110529"/>
</svg>
