<svg width="16" height="16" viewBox="0 0 24 24" fill="none" xmlns="http://www.w3.org/2000/svg">
<path fill-rule="evenodd" clip-rule="evenodd" d="M11.25 1.25H12.75V3.03081C13.8461 3.12123 14.8865 3.40807 15.8359 3.85604L16.7255 2.31526L18.0245 3.06526L17.1343 4.6072C18.0146 5.21971 18.7803 5.98544 19.3928 6.86574L20.9348 5.97548L21.6848 7.27452L20.144 8.16412C20.5919 9.11352 20.8788 10.1539 20.9692 11.2499L22.75 11.25V12.75H21.9723C21.9723 12.75 21.9723 12.75 21.9723 12.75L17.9536 12.7499C17.9536 12.7499 17.9536 12.7499 17.9536 12.7499L14.9055 12.7499C14.5725 14.0439 13.3979 15 12 15C11.7218 15 11.4524 14.9621 11.1967 14.8912L8.91735 18.8392C9.85769 19.2637 10.9013 19.5 12 19.5C15.1714 19.5 17.8831 17.5316 18.9799 14.7498H20.5722C20.4525 15.1231 20.3092 15.4857 20.144 15.8359L21.6848 16.7255L20.9348 18.0245L19.3928 17.1343C18.7803 18.0146 18.0146 18.7803 17.1343 19.3928L18.0245 20.9348L16.7255 21.6848L15.8359 20.144C14.8865 20.5919 13.8461 20.8788 12.75 20.9692V22.75H11.25V20.9692C10.1539 20.8788 9.11354 20.5919 8.16412 20.144L7.27452 21.6848L5.97546 20.9347L9.89808 14.1405C9.3438 13.5962 9 12.8383 9 12C9 10.3431 10.3431 9 12 9C13.3979 9 14.5724 9.95605 14.9055 11.2499H19.463C19.0866 7.45998 15.889 4.5 12 4.5C11.6236 4.5 11.2538 4.52772 10.8923 4.58124L10.0959 3.20182C10.4724 3.12072 10.8576 3.06318 11.25 3.03081V1.25ZM13.5 12C13.5 12.8284 12.8284 13.5 12 13.5C11.1716 13.5 10.5 12.8284 10.5 12C10.5 11.1716 11.1716 10.5 12 10.5C12.8284 10.5 13.5 11.1716 13.5 12Z" fill="#110529"/>
<path d="M8.16413 3.85602C8.16412 3.85603 8.16415 3.85602 8.16413 3.85602L7.2745 2.3152L5.97546 3.0652L6.86572 4.6072C5.98542 5.21971 5.21971 5.98542 4.6072 6.86572L3.06525 5.97548L2.31525 7.27452L3.85604 8.16409C3.40807 9.11352 3.12123 10.1539 3.03081 11.25H1.25V12.75H3.03081C3.12123 13.8461 3.40807 14.8865 3.85604 15.8359L2.31525 16.7255L3.06525 18.0245L4.60719 17.1343C4.82971 17.4541 5.07245 17.7588 5.33356 18.0465L6.1294 16.668C5.10947 15.387 4.5 13.7647 4.5 12C4.5 9.49325 5.7298 7.27374 7.61899 5.91189L9.89808 9.85938C10.2554 9.50848 10.7002 9.24634 11.1967 9.10869L8.91738 5.16076C8.91736 5.16077 8.91739 5.16076 8.91738 5.16076L8.16413 3.85602Z" fill="#110529"/>
</svg>
