<svg width="16" height="16" viewBox="0 0 16 16" fill="none" xmlns="http://www.w3.org/2000/svg">
<g clip-path="url(#clip0_5855_11729)">
<path d="M7.99998 1.75C4.54821 1.75 1.74998 4.54822 1.74998 8C1.74998 11.4518 4.54821 14.25 7.99998 14.25C11.4518 14.25 14.25 11.4518 14.25 8C14.25 7.68358 14.2265 7.37265 14.1811 7.06887L15.4371 5.81288C15.6407 6.5065 15.75 7.24049 15.75 8C15.75 12.2802 12.2802 15.75 7.99998 15.75C3.71978 15.75 0.249985 12.2802 0.249985 8C0.249985 3.71979 3.71978 0.25 7.99998 0.25C9.51273 0.25 10.9242 0.683415 12.1171 1.43284L11.0221 2.5279C10.1264 2.03219 9.09615 1.75 7.99998 1.75Z" fill="#110529"/>
<path d="M14.6606 3.79999L13.6 2.73933L7.29997 9.03933L4.84997 6.58933L3.78931 7.64999L7.29997 11.1607L14.6606 3.79999Z" fill="#110529"/>
</g>
<defs>
<clipPath id="clip0_5855_11729">
<rect width="16" height="16" fill="white"/>
</clipPath>
</defs>
</svg>
