<svg width="16" height="16" viewBox="0 0 16 16" fill="none" xmlns="http://www.w3.org/2000/svg">
<g clip-path="url(#clip0_5855_11729)">
<path fill-rule="evenodd" clip-rule="evenodd" d="M12.7627 3.57657L13.6 2.73932L14.6606 3.79998L13.6596 4.80101L7.29998 11.1606L3.78932 7.64998L4.84998 6.58932L7.29998 9.03932L12.7627 3.57657ZM14.5 8C14.5 7.61962 14.4673 7.24687 14.4046 6.88441L15.6469 5.64217C15.8764 6.38752 16 7.17933 16 8C16 12.4183 12.4183 16 8 16C3.58172 16 0 12.4183 0 8C0 3.58172 3.58172 0 8 0C9.5719 0 11.0379 0.453354 12.2744 1.23644L11.1808 2.3301C10.2405 1.80149 9.15547 1.5 8 1.5C4.41015 1.5 1.5 4.41015 1.5 8C1.5 11.5899 4.41015 14.5 8 14.5C11.5899 14.5 14.5 11.5899 14.5 8Z" fill="#110529"/>
</g>
<defs>
<clipPath id="clip0_5855_11729">
<rect width="16" height="16" fill="white"/>
</clipPath>
</defs>
</svg>
