<svg width="16" height="16" viewBox="0 0 16 16" fill="none" xmlns="http://www.w3.org/2000/svg">
<path fill-rule="evenodd" clip-rule="evenodd" d="M8 1.73206L13.4282 4.86603V11.134L8 14.268L2.57179 11.134V4.86603L8 1.73206ZM7.25 0.433018C7.7141 0.165068 8.28589 0.165068 8.75 0.433018L14.1782 3.56699C14.6423 3.83494 14.9282 4.33013 14.9282 4.86603V11.134C14.9282 11.6699 14.6423 12.1651 14.1782 12.433L8.75 15.567C8.28589 15.8349 7.7141 15.8349 7.25 15.567L1.82179 12.433C1.35769 12.1651 1.07179 11.6699 1.07179 11.134V4.86603C1.07179 4.33013 1.35769 3.83494 1.82179 3.56699L7.25 0.433018ZM9.5 8C9.5 8.82843 8.82843 9.5 8 9.5C7.17157 9.5 6.5 8.82843 6.5 8C6.5 7.17157 7.17157 6.5 8 6.5C8.82843 6.5 9.5 7.17157 9.5 8ZM11 8C11 9.65685 9.65685 11 8 11C6.34315 11 5 9.65685 5 8C5 6.34315 6.34315 5 8 5C9.65685 5 11 6.34315 11 8Z" fill="#110529"/>
</svg>
