<svg width="24" height="24" viewBox="0 0 24 24" fill="none" xmlns="http://www.w3.org/2000/svg">
<path d="M14.4648 5.46972C14.7577 5.17685 15.2325 5.17683 15.5254 5.46972L19.4219 9.36621C19.6229 9.50072 19.7548 9.73025 19.7549 9.99023C19.7549 10.1621 19.6949 10.3188 19.5977 10.4453C19.581 10.4678 19.5624 10.4889 19.543 10.5098C19.539 10.5139 19.5353 10.5184 19.5312 10.5225C19.529 10.5248 19.5277 10.528 19.5254 10.5303L15.5254 14.5303C15.2325 14.8231 14.7577 14.8231 14.4648 14.5303C14.172 14.2374 14.172 13.7626 14.4648 13.4697L17.1943 10.7402H9C7.20243 10.7403 5.74522 12.1975 5.74512 13.9951C5.74516 15.7927 7.20239 17.2499 9 17.25H10.5049C10.9189 17.2501 11.2547 17.586 11.2549 18C11.2548 18.4141 10.919 18.7499 10.5049 18.75H9C6.37396 18.7499 4.24516 16.6212 4.24512 13.9951C4.24522 11.3691 6.374 9.24033 9 9.24023H17.1748L14.4648 6.53027L14.4131 6.47363C14.1728 6.17905 14.1902 5.74433 14.4648 5.46972Z" fill="#110529"/>
</svg>
