<svg width="24" height="24" viewBox="0 0 24 24" fill="none" xmlns="http://www.w3.org/2000/svg">
<path fill-rule="evenodd" clip-rule="evenodd" d="M12.7119 2.6894C12.4173 2.32119 11.9056 2.20879 11.4838 2.41966L2.80279 6.76012C2.464 6.92951 2.25 7.27578 2.25 7.65455L2.25 12.5365L2.66459 12.3292L3.75 11.7865L3.75 7.96357L11.7931 3.94207L15.2985 8.32379C15.5737 8.66783 16.0417 8.79121 16.4508 8.62757L20.25 7.10783V10.9923L20.7215 10.8037L21.75 10.3923V6.3693C21.75 5.66184 21.0355 5.17807 20.3786 5.44083L16.2381 7.0971L12.7119 2.6894Z" fill="#07AD3E"/>
<path fill-rule="evenodd" clip-rule="evenodd" d="M11.4838 9.41954C11.9056 9.20866 12.4173 9.32107 12.7119 9.68927L16.2381 14.097L20.3786 12.4408C21.0355 12.178 21.75 12.6618 21.75 13.3692V20.75C21.75 21.3023 21.3023 21.75 20.75 21.75H3.25C2.69772 21.75 2.25 21.3023 2.25 20.75V14.6545C2.25 14.2757 2.464 13.9295 2.80279 13.7601L11.4838 9.41954ZM11.7931 10.9419L3.75 14.9635V20.25H20.25V14.1078L16.4507 15.6275C16.0417 15.7911 15.5737 15.6677 15.2985 15.3237L11.7931 10.9419Z" fill="#110529"/>
</svg>
