<svg width="24" height="24" viewBox="0 0 24 24" fill="none" xmlns="http://www.w3.org/2000/svg">
<path fill-rule="evenodd" clip-rule="evenodd" d="M6.5 8.5V9.5H11.25H12.75H17.5V8.5H12.75H11.25H6.5ZM6 7C5.44772 7 5 7.44772 5 8V10C5 10.5523 5.44772 11 6 11H18C18.5523 11 19 10.5523 19 10V8C19 7.44772 18.5523 7 18 7H6Z" fill="#110529"/>
<path fill-rule="evenodd" clip-rule="evenodd" d="M8.5 14.5V15.5H11.25H12.75H15.5V14.5H12.75H11.25H8.5ZM8 13C7.44772 13 7 13.4477 7 14V16C7 16.5523 7.44772 17 8 17H16C16.5523 17 17 16.5523 17 16V14C17 13.4477 16.5523 13 16 13H8Z" fill="#110529"/>
<path fill-rule="evenodd" clip-rule="evenodd" d="M11.25 14.5V9.5H12.75V14.5H11.25ZM11.25 15.5V21H12.75V15.5H11.25ZM12.75 8.5H11.25V3H12.75V8.5Z" fill="#110529"/>
</svg>
