<svg width="24" height="24" viewBox="0 0 24 24" fill="none" xmlns="http://www.w3.org/2000/svg">
<path fill-rule="evenodd" clip-rule="evenodd" d="M8.5 8.5V9.5H19.5V8.5H8.5ZM8 7C7.44772 7 7 7.44772 7 8V10C7 10.5523 7.44772 11 8 11H20C20.5523 11 21 10.5523 21 10V8C21 7.44772 20.5523 7 20 7H8Z" fill="#110529"/>
<path fill-rule="evenodd" clip-rule="evenodd" d="M8.5 14.5V15.5H15.5V14.5H8.5ZM8 13C7.44772 13 7 13.4477 7 14V16C7 16.5523 7.44772 17 8 17H16C16.5523 17 17 16.5523 17 16V14C17 13.4477 16.5523 13 16 13H8Z" fill="#110529"/>
<path fill-rule="evenodd" clip-rule="evenodd" d="M3.25 21V3H4.75V21H3.25Z" fill="#110529"/>
</svg>
