<svg width="24" height="24" viewBox="0 0 24 24" fill="none" xmlns="http://www.w3.org/2000/svg">
<path fill-rule="evenodd" clip-rule="evenodd" d="M8.33081 11.7206C6.42262 14.0207 4.75 16.8465 4.75 22H3.25C3.25 16.4392 5.08458 13.2842 7.17638 10.7629C8.21946 9.50558 9.26339 8.59635 10.0502 7.99923C10.4439 7.70042 10.7743 7.47899 11.0094 7.33051C11.1271 7.25624 11.221 7.20014 11.2873 7.16168C11.3204 7.14244 11.3467 7.1276 11.3655 7.1171L11.3882 7.10457L11.3953 7.10073L11.3977 7.09941L11.3987 7.0989C11.3987 7.0989 11.3994 7.09849 11.7536 7.7596C12.1078 8.42071 12.1083 8.4204 12.1083 8.4204L12.1074 8.42093L12.0958 8.42735C12.0843 8.43372 12.0657 8.44425 12.0402 8.45902C11.9893 8.48856 11.9114 8.53501 11.8103 8.59885C11.6079 8.7266 11.3133 8.92369 10.957 9.19409C10.2438 9.73535 9.28773 10.5672 8.33081 11.7206Z" fill="#110529"/>
<path fill-rule="evenodd" clip-rule="evenodd" d="M18.2338 2.01395C18.9218 2.00233 19.5101 2.56018 19.5 3.27091C19.4665 5.63823 19.2036 7.31801 18.9411 8.42109C18.8099 8.97254 18.6789 9.37934 18.5771 9.65534C18.5262 9.79331 18.4826 9.8985 18.4499 9.97265C18.4336 10.0097 18.42 10.039 18.4097 10.0608L18.3966 10.0877L18.3919 10.097L18.3901 10.1006L18.3893 10.1021C18.3893 10.1021 18.3886 10.1035 17.722 9.75971L18.3886 10.1035C18.2599 10.353 18.0027 10.5097 17.722 10.5097L15.7101 10.5097L16.4557 12.496C16.5606 12.7754 16.4899 13.0904 16.2756 13.2981C14.1056 15.4018 11.124 16.9748 7.87319 17.5L7.63394 16.0192C10.3979 15.5726 12.9535 14.2836 14.8752 12.5539L13.9252 10.0233C13.8388 9.79292 13.8708 9.53482 14.0109 9.33258C14.151 9.13033 14.3814 9.00967 14.6274 9.00967L17.2149 9.00971C17.2903 8.79118 17.3847 8.48192 17.4818 8.07387C17.7075 7.12526 17.9479 5.64084 17.9952 3.51943C12.5391 3.66287 9.48404 5.35817 7.7614 7.57694C5.98455 9.86554 5.50361 12.8617 5.5036 15.7596L5.50359 16.5096L4.00359 16.5096L4.0036 15.7596C4.00361 12.7431 4.49437 9.33894 6.57658 6.65705C8.68542 3.94084 12.3062 2.1141 18.2338 2.01395Z" fill="#110529"/>
<path fill-rule="evenodd" clip-rule="evenodd" d="M16 22H7V20.5H16V22ZM18 20.5H21V22H18V20.5Z" fill="#07AD3E"/>
</svg>
