<svg width="24" height="24" viewBox="0 0 24 24" fill="none" xmlns="http://www.w3.org/2000/svg">
<path fill-rule="evenodd" clip-rule="evenodd" d="M12.7119 2.68933C12.4173 2.32113 11.9056 2.20872 11.4838 2.4196L2.80279 6.76006C2.464 6.92945 2.25 7.27572 2.25 7.65449L2.25 12.5365L2.66459 12.3292L3.75 11.7865L3.75 7.96351L11.7931 3.94201L15.2985 8.32373C15.5737 8.66777 16.0417 8.79114 16.4508 8.62751L20.25 7.10777V10.9922L20.7215 10.8036L21.75 10.3922V6.36924C21.75 5.66178 21.0355 5.17801 20.3786 5.44077L16.2381 7.09703L12.7119 2.68933Z" fill="#07AD3E"/>
<path fill-rule="evenodd" clip-rule="evenodd" d="M11.4838 9.4196C11.9056 9.20872 12.4173 9.32113 12.7119 9.68933L16.2381 14.097L20.3786 12.4408C21.0355 12.1781 21.75 12.6618 21.75 13.3693V20.75C21.75 21.3023 21.3023 21.75 20.75 21.75H3.25C2.69772 21.75 2.25 21.3023 2.25 20.75V14.6545C2.25 14.2758 2.464 13.9295 2.80279 13.7601L11.4838 9.4196ZM11.7931 10.942L3.75 14.9636V20.25H20.25V14.1078L16.4507 15.6275C16.0417 15.7911 15.5737 15.6678 15.2985 15.3237L11.7931 10.942Z" fill="#110529"/>
</svg>
