<svg width="24" height="24" viewBox="0 0 24 24" fill="none" xmlns="http://www.w3.org/2000/svg">
<path fill-rule="evenodd" clip-rule="evenodd" d="M18.4103 7.43302L12 3.73206L5.58975 7.43302L12 11.134L18.4103 7.43302ZM4.83975 8.73206L4.83975 16.134L11.25 19.8349L11.25 12.433L4.83975 8.73206ZM12.75 19.8349L19.1603 16.134V8.73207L12.75 12.433L12.75 19.8349ZM11.25 2.43302C11.7141 2.16507 12.2859 2.16507 12.75 2.43302L19.9103 6.56699C20.3744 6.83494 20.6603 7.33013 20.6603 7.86603V16.134C20.6603 16.6699 20.3744 17.1651 19.9103 17.433L12.75 21.567C12.2859 21.8349 11.7141 21.8349 11.25 21.567L4.08975 17.433C3.62565 17.1651 3.33975 16.6699 3.33975 16.134V7.86603C3.33975 7.33013 3.62565 6.83494 4.08975 6.56699L11.25 2.43302Z" fill="#110529"/>
</svg>
