<svg width="24" height="24" viewBox="0 0 24 24" fill="none" xmlns="http://www.w3.org/2000/svg">
<path fill-rule="evenodd" clip-rule="evenodd" d="M4.25 1.25V2.75H6.25L6.25 5H4C3.44772 5 3 5.44772 3 6V16C3 16.5523 3.44772 17 4 17H6.25L6.25 21.25H4.25V22.75H9.75V21.25H7.75V17H10C10.5523 17 11 16.5523 11 16V6C11 5.44771 10.5523 5 10 5H7.75V2.75H9.75V1.25H4.25ZM4.5 10.75H9.5V15.5H4.5V10.75ZM9.5 9.25H4.5V6.5H9.5V9.25Z" fill="#110529"/>
<path fill-rule="evenodd" clip-rule="evenodd" d="M14.25 7C14.25 5.75736 15.2574 4.75 16.5 4.75C17.7426 4.75 18.75 5.75736 18.75 7C18.75 7.08866 18.7449 7.17613 18.7349 7.26211C19.8671 7.37957 20.75 8.33668 20.75 9.5C20.75 10.6633 19.8671 11.6204 18.7349 11.7379C18.7449 11.8239 18.75 11.9113 18.75 12C18.75 13.2426 17.7426 14.25 16.5 14.25C15.2574 14.25 14.25 13.2426 14.25 12C14.25 11.9113 14.2551 11.8239 14.2651 11.7379C13.1329 11.6204 12.25 10.6633 12.25 9.5C12.25 8.33668 13.1329 7.37957 14.2651 7.26211C14.2551 7.17613 14.25 7.08866 14.25 7ZM16.5 6.25C16.0858 6.25 15.75 6.58579 15.75 7C15.75 7.41421 16.0858 7.75 16.5 7.75C16.9142 7.75 17.25 7.41421 17.25 7C17.25 6.58579 16.9142 6.25 16.5 6.25ZM13.75 9.5C13.75 9.08579 14.0858 8.75 14.5 8.75C14.9142 8.75 15.25 9.08579 15.25 9.5C15.25 9.91421 14.9142 10.25 14.5 10.25C14.0858 10.25 13.75 9.91421 13.75 9.5ZM18.5 8.75C18.0858 8.75 17.75 9.08579 17.75 9.5C17.75 9.91421 18.0858 10.25 18.5 10.25C18.9142 10.25 19.25 9.91421 19.25 9.5C19.25 9.08579 18.9142 8.75 18.5 8.75ZM15.75 12C15.75 11.5858 16.0858 11.25 16.5 11.25C16.9142 11.25 17.25 11.5858 17.25 12C17.25 12.4142 16.9142 12.75 16.5 12.75C16.0858 12.75 15.75 12.4142 15.75 12Z" fill="#07AD3E"/>
<path fill-rule="evenodd" clip-rule="evenodd" d="M14.25 18.5C14.25 17.2574 15.2574 16.25 16.5 16.25C17.7426 16.25 18.75 17.2574 18.75 18.5C18.75 19.7426 17.7426 20.75 16.5 20.75C15.2574 20.75 14.25 19.7426 14.25 18.5ZM16.5 17.75C16.0858 17.75 15.75 18.0858 15.75 18.5C15.75 18.9142 16.0858 19.25 16.5 19.25C16.9142 19.25 17.25 18.9142 17.25 18.5C17.25 18.0858 16.9142 17.75 16.5 17.75Z" fill="#07AD3E"/>
</svg>
