<svg width="24" height="24" viewBox="0 0 24 24" fill="none" xmlns="http://www.w3.org/2000/svg">
<path d="M11.9998 3.25C9.65273 3.25 7.95205 4.29341 6.85282 5.59C5.98696 6.61133 5.47615 7.81075 5.31011 8.81312C3.27025 9.1788 1.0498 11.1171 1.0498 14.2C1.0498 17.6143 3.78583 19.75 6 19.75V18.25C4.61417 18.25 2.5498 16.7857 2.5498 14.2C2.5498 11.6358 4.59225 10.25 6 10.25H6.75V9.5C6.75 8.79913 7.12219 7.59186 7.99698 6.56C8.84766 5.55659 10.1469 4.75 11.9998 4.75C13.8527 4.75 15.1521 5.55659 16.0028 6.56003C16.8777 7.5919 17.25 8.79917 17.25 9.5V10.25H18C19.4077 10.25 21.4498 11.6358 21.4498 14.2C21.4498 16.7858 19.3857 18.25 18 18.25V19.75C20.2143 19.75 22.9498 17.6142 22.9498 14.2C22.9498 11.1172 20.7297 9.17881 18.6899 8.81312C18.5238 7.81073 18.0129 6.61129 17.147 5.58997C16.0476 4.29341 14.3469 3.25 11.9998 3.25Z" fill="#110529"/>
<path d="M12 10.9393L7.46967 15.4697L8.53033 16.5303L11.25 13.8107V22H12.75V13.8107L15.4697 16.5303L16.5303 15.4697L12 10.9393Z" fill="#110529"/>
</svg>
