<svg width="24" height="24" viewBox="0 0 24 24" fill="none" xmlns="http://www.w3.org/2000/svg">
<path fill-rule="evenodd" clip-rule="evenodd" d="M16.5 9.25C16.8494 9.25 17.1921 9.21723 17.5249 9.1544C17.7139 10.6771 18.9562 11.8731 20.5 11.9905L20.5 12C20.5 16.6944 16.6944 20.5 12 20.5C7.30558 20.5 3.5 16.6944 3.5 12C3.5 7.64275 6.77854 4.05126 11.0033 3.55782C11.0011 3.62165 11 3.68572 11 3.75C11 6.78757 13.4624 9.25 16.5 9.25ZM19.007 8.59265C19.0347 8.28172 18.9657 7.95214 18.7455 7.7308C18.5049 7.48884 18.138 7.41636 17.8157 7.52856C17.4037 7.67203 16.9609 7.75 16.5 7.75C14.2909 7.75 12.5 5.95914 12.5 3.75C12.5 3.44886 12.5333 3.15548 12.5964 2.87336C12.6899 2.45495 12.4287 2 12 2C6.47715 2 2 6.47715 2 12C2 17.5228 6.47715 22 12 22C17.5228 22 22 17.5228 22 12C22 11.5983 21.9763 11.202 21.9302 10.8127C21.8903 10.4748 21.5172 10.3002 21.1948 10.4091C21.0399 10.4614 20.8811 10.5 20.75 10.5C19.7835 10.5 19 9.7165 19 8.75C19 8.69697 19.0024 8.64448 19.007 8.59265ZM13 18V17H12V18H13ZM21 4H22V5H21V4ZM10 11V12H11V11H10ZM18 14.5C18 15.3284 17.3284 16 16.5 16C15.6716 16 15 15.3284 15 14.5C15 13.6716 15.6716 13 16.5 13C17.3284 13 18 13.6716 18 14.5ZM16.5 5C17.3284 5 18 4.32843 18 3.5C18 2.67157 17.3284 2 16.5 2C15.6716 2 15 2.67157 15 3.5C15 4.32843 15.6716 5 16.5 5ZM10.5 8C10.5 8.82843 9.82843 9.5 9 9.5C8.17157 9.5 7.5 8.82843 7.5 8C7.5 7.17157 8.17157 6.5 9 6.5C9.82843 6.5 10.5 7.17157 10.5 8ZM8 17C8.82843 17 9.5 16.3284 9.5 15.5C9.5 14.6716 8.82843 14 8 14C7.17157 14 6.5 14.6716 6.5 15.5C6.5 16.3284 7.17157 17 8 17Z" fill="#110529"/>
</svg>
