<svg width="24" height="24" viewBox="0 0 24 24" fill="none" xmlns="http://www.w3.org/2000/svg">
<path d="M4 17L7.393 6.56H9.57525L12.9683 17H11.395L10.6193 14.6437H6.3345L5.57325 17H4ZM6.7985 13.2227H10.1553L8.466 8.07525L6.7985 13.2227Z" fill="#07AD3E"/>
<path d="M15.9002 17.2175C14.1674 17.2175 13.2539 16.1445 13.2539 14.8685C13.2539 13.6867 13.8919 12.9327 15.1027 12.5485C16.0089 12.2802 17.2994 12.1135 18.5682 11.9395C18.5174 10.8592 18.0244 10.3517 16.7992 10.3517C15.9727 10.3517 15.2187 10.7142 14.9504 11.5842L13.5367 11.1492C13.9137 9.808 15.0012 8.9525 16.8137 8.9525C18.2129 8.9525 19.3004 9.4165 19.7862 10.446C20.0327 10.9607 20.0617 11.5262 20.0617 12.1787V17H18.7204V15.8617C18.0752 16.7825 17.1689 17.2175 15.9002 17.2175ZM14.7547 14.854C14.7547 15.463 15.1969 15.9777 16.1684 15.9777C17.4589 15.9777 18.2202 15.1875 18.3942 14.4262C18.5174 14.0637 18.5464 13.5635 18.5537 13.201C17.3719 13.375 16.4947 13.4982 15.8349 13.694C15.2114 13.9042 14.7547 14.2377 14.7547 14.854Z" fill="#07AD3E"/>
</svg>
