<svg width="24" height="24" viewBox="0 0 24 24" fill="none" xmlns="http://www.w3.org/2000/svg">
<path fill-rule="evenodd" clip-rule="evenodd" d="M7.75 3H11.25V1H12.75V3H16.25V1H17.75V3.0168C19.4588 3.18166 20.8183 4.54118 20.9832 6.25H23V7.75H21V11.25H23V12.75H21V16.25H23V17.75H20.9832C20.8183 19.4588 19.4588 20.8183 17.75 20.9832V23H16.25V21H12.75V23H11.25V21H7.75V23H6.25V20.9832C4.54118 20.8183 3.18166 19.4588 3.0168 17.75H1V16.25H3V12.75H1V11.25H3V7.75H1V6.25H3.0168C3.18166 4.54118 4.54118 3.18166 6.25 3.0168V1H7.75V3ZM17.4 4.5H6.6C5.4402 4.5 4.5 5.4402 4.5 6.6V17.4C4.5 18.5598 5.4402 19.5 6.6 19.5H17.4C18.5598 19.5 19.5 18.5598 19.5 17.4V6.6C19.5 5.4402 18.5598 4.5 17.4 4.5ZM8.5 8.5H15.5V15.5H8.5V8.5ZM7 8.5C7 7.67157 7.67157 7 8.5 7H15.5C16.3284 7 17 7.67157 17 8.5V15.5C17 16.3284 16.3284 17 15.5 17H8.5C7.67157 17 7 16.3284 7 15.5V8.5Z" fill="#110529"/>
</svg>
