<svg width="24" height="24" viewBox="0 0 24 24" fill="none" xmlns="http://www.w3.org/2000/svg">
<path d="M6 3.5H5.8125C4.2592 3.5 3 4.7592 3 6.3125V18C3 19.6569 4.34315 21 6 21H18C19.6569 21 21 19.6569 21 18V12H19.5V18C19.5 18.8284 18.8284 19.5 18 19.5H6C5.17157 19.5 4.5 18.8284 4.5 18V6.3125C4.5 5.58763 5.08763 5 5.8125 5H6V3.5Z" fill="#110529"/>
<path d="M21.0303 6.53033L19.9697 5.46967L11.5 13.9393L8.53033 10.9697L7.46967 12.0303L11.5 16.0607L21.0303 6.53033Z" fill="#110529"/>
<path fill-rule="evenodd" clip-rule="evenodd" d="M13.5 3.5H10.5C9.94772 3.5 9.5 3.94772 9.5 4.5C9.5 5.05228 9.94772 5.5 10.5 5.5H13.5C14.0523 5.5 14.5 5.05228 14.5 4.5C14.5 3.94772 14.0523 3.5 13.5 3.5ZM10.5 2C9.11929 2 8 3.11929 8 4.5C8 5.88071 9.11929 7 10.5 7H13.5C14.8807 7 16 5.88071 16 4.5C16 3.11929 14.8807 2 13.5 2H10.5Z" fill="#110529"/>
</svg>
