<svg width="24" height="24" viewBox="0 0 24 24" fill="none" xmlns="http://www.w3.org/2000/svg">
<path fill-rule="evenodd" clip-rule="evenodd" d="M20.25 12.75V15H21.75V12.75H24V11.25H21.75V9H20.25V11.25H18V12.75H20.25Z" fill="#110529"/>
<path fill-rule="evenodd" clip-rule="evenodd" d="M2.25 18C2.25 20.0711 3.92893 21.75 6 21.75H18C20.0711 21.75 21.75 20.0711 21.75 18H20.25C20.25 19.2426 19.2426 20.25 18 20.25H12.75L12.75 3.75H18C19.2426 3.75 20.25 4.75736 20.25 6H21.75C21.75 3.92893 20.0711 2.25 18 2.25H6C3.92893 2.25 2.25 3.92893 2.25 6V18ZM6 20.25C4.75736 20.25 3.75 19.2426 3.75 18L3.75 6C3.75 4.75736 4.75736 3.75 6 3.75H11.25L11.25 20.25H6Z" fill="#110529"/>
</svg>
