<svg width="24" height="24" viewBox="0 0 24 24" fill="none" xmlns="http://www.w3.org/2000/svg">
<path fill-rule="evenodd" clip-rule="evenodd" d="M7 3.5V2H8.5V3.5H11.25V2H12.75V3.5H15.5V2H17V3.5H17.5C19.1569 3.5 20.5 4.84315 20.5 6.5V7H22V8.5H20.5V11.25H22V12.75H20.5V15.5H22V17H20.5V17.5C20.5 19.1569 19.1569 20.5 17.5 20.5H17V22H15.5V20.5H12.75V22H11.25V20.5H8.5V22H7V20.5H6.5C4.84315 20.5 3.5 19.1569 3.5 17.5V17H2V15.5H3.5L3.5 12.75H2V11.25H3.5L3.5 8.5H2V7H3.5V6.5C3.5 4.84315 4.84315 3.5 6.5 3.5H7ZM17 5H15.5H12.75H11.25H8.5H7H6.5C5.67157 5 5 5.67157 5 6.5L5 11.25V12.75L5 17.5C5 18.3284 5.67157 19 6.5 19H7H8.5H11.25H12.75H15.5H17H17.5C18.3284 19 19 18.3284 19 17.5V17V15.5V12.75V11.25V8.5V7V6.5C19 5.67157 18.3284 5 17.5 5H17ZM8.5 8.5V15.5H15.5V8.5H8.5ZM8 7C7.44772 7 7 7.44772 7 8V16C7 16.5523 7.44772 17 8 17H16C16.5523 17 17 16.5523 17 16V8C17 7.44772 16.5523 7 16 7H8Z" fill="#110529"/>
</svg>
