<svg width="24" height="24" viewBox="0 0 24 24" fill="none" xmlns="http://www.w3.org/2000/svg">
<path fill-rule="evenodd" clip-rule="evenodd" d="M10.95 9.55C11.25 9.85 11.625 10 12 10C12.375 10 12.75 9.85 13.05 9.55L15.3 7.3C15.6 7 15.75 6.625 15.75 6.25C15.75 5.875 15.6 5.5 15.3 5.2L13.05 2.95C12.75 2.65 12.375 2.5 12 2.5C11.625 2.5 11.25 2.65 10.95 2.95L8.7 5.2C8.4 5.5 8.25 5.875 8.25 6.25C8.25 6.625 8.4 7 8.7 7.3L10.95 9.55ZM9.75 6.25L12 4L14.25 6.25L12 8.5L9.75 6.25ZM16.7 15.3C17 15.6 17.375 15.75 17.75 15.75C18.125 15.75 18.5 15.6 18.8 15.3L21.05 13.05C21.35 12.75 21.5 12.375 21.5 12C21.5 11.625 21.35 11.25 21.05 10.95L18.8 8.7C18.5 8.4 18.125 8.25 17.75 8.25C17.375 8.25 17 8.4 16.7 8.7L14.45 10.95C14.15 11.25 14 11.625 14 12C14 12.375 14.15 12.75 14.45 13.05L16.7 15.3ZM15.5 12L17.75 9.75L20 12L17.75 14.25L15.5 12ZM12 21.5C11.625 21.5 11.25 21.35 10.95 21.05L8.7 18.8C8.4 18.5 8.25 18.125 8.25 17.75C8.25 17.375 8.4 17 8.7 16.7L10.95 14.45C11.25 14.15 11.625 14 12 14C12.375 14 12.75 14.15 13.05 14.45L15.3 16.7C15.6 17 15.75 17.375 15.75 17.75C15.75 18.125 15.6 18.5 15.3 18.8L13.05 21.05C12.75 21.35 12.375 21.5 12 21.5ZM12 15.5L9.75 17.75L12 20L14.25 17.75L12 15.5ZM5.2 15.3C5.5 15.6 5.875 15.75 6.25 15.75C6.625 15.75 7 15.6 7.3 15.3L9.55 13.05C9.85 12.75 10 12.375 10 12C10 11.625 9.85 11.25 9.55 10.95L7.3 8.7C7 8.4 6.625 8.25 6.25 8.25C5.875 8.25 5.5 8.4 5.2 8.7L2.95 10.95C2.65 11.25 2.5 11.625 2.5 12C2.5 12.375 2.65 12.75 2.95 13.05L5.2 15.3ZM4 12L6.25 9.75L8.5 12L6.25 14.25L4 12Z" fill="#110529"/>
</svg>
