<svg width="24" height="24" viewBox="0 0 24 24" fill="none" xmlns="http://www.w3.org/2000/svg">
<path fill-rule="evenodd" clip-rule="evenodd" d="M7.5 3.75002C7.5 3.05967 8.05964 2.50002 8.75 2.50002L15.25 2.5C15.9404 2.5 16.5 3.05964 16.5 3.75V5.50004L20.5 5.50006V7.00006L19 7.00006H17.5L6.5 7.00004H5L3.5 7V5.5L7.5 5.50006V3.75002ZM9 5.50006L15 5.50004V4L9 4.00002V5.50006Z" fill="#110529"/>
<path d="M17.5 7.00006V12.5H19V7.00006H17.5Z" fill="#110529"/>
<path fill-rule="evenodd" clip-rule="evenodd" d="M6.5 17.75C6.5 18.9926 7.50736 20 8.75 20H12V21.5H8.75C6.67893 21.5 5 19.8211 5 17.75V8.50006H6.5V17.75Z" fill="#110529"/>
<path d="M6.5 7.00004H5V8.50006H6.5V7.00004Z" fill="#110529"/>
<path fill-rule="evenodd" clip-rule="evenodd" d="M17.1893 18L14.2197 15.0303L15.2803 13.9697L18.25 16.9393L21.2197 13.9697L22.2803 15.0303L19.3107 18L22.2803 20.9697L21.2197 22.0303L18.25 19.0607L15.2803 22.0303L14.2197 20.9697L17.1893 18Z" fill="#07AD3E"/>
</svg>
