<svg width="24" height="24" viewBox="0 0 24 24" fill="none" xmlns="http://www.w3.org/2000/svg">
<path fill-rule="evenodd" clip-rule="evenodd" d="M5.75 7.25V18C5.75 19.2426 6.75736 20.25 8 20.25H16C17.2426 20.25 18.25 19.2426 18.25 18V7.25H19.75V18C19.75 20.0711 18.0711 21.75 16 21.75H8C5.92893 21.75 4.25 20.0711 4.25 18V7.25H5.75Z" fill="#110529"/>
<path fill-rule="evenodd" clip-rule="evenodd" d="M8.25 2.5C8.25 1.80964 8.80964 1.25 9.5 1.25H14.5C15.1904 1.25 15.75 1.80964 15.75 2.5V4.25H21V5.75H3V4.25H8.25V2.5ZM9.75 4.25H14.25V2.75H9.75V4.25Z" fill="#110529"/>
<path fill-rule="evenodd" clip-rule="evenodd" d="M15.5303 10.5303L9.53033 16.5303L8.46967 15.4697L14.4697 9.46967L15.5303 10.5303Z" fill="#110529"/>
<path fill-rule="evenodd" clip-rule="evenodd" d="M15.5303 15.4697L9.53033 9.46967L8.46967 10.5303L14.4697 16.5303L15.5303 15.4697Z" fill="#110529"/>
</svg>
