<svg width="24" height="24" viewBox="0 0 24 24" fill="none" xmlns="http://www.w3.org/2000/svg">
<path fill-rule="evenodd" clip-rule="evenodd" d="M16 8L18.25 8V9.5H15.75C15.0596 9.5 14.5 8.94036 14.5 8.25V5.25C14.5 4.55964 15.0596 4 15.75 4H18.25V5.5H16V8Z" fill="#110529"/>
<path fill-rule="evenodd" clip-rule="evenodd" d="M12 7.5L15.25 7.5V6H11.75C11.0596 6 10.5 6.55964 10.5 7.25V11.25C10.5 11.9404 11.0596 12.5 11.75 12.5L18.25 12.5V11L12 11L12 7.5Z" fill="#110529"/>
<path fill-rule="evenodd" clip-rule="evenodd" d="M3.75 18.5C3.05964 18.5 2.5 17.9404 2.5 17.25L2.5 9.75C2.5 9.05964 3.05964 8.5 3.75 8.5L11.25 8.5V10H4L4 17H7.25V18.5H3.75Z" fill="#110529"/>
<path fill-rule="evenodd" clip-rule="evenodd" d="M20 23V1.5L21.5 1.5V23H20Z" fill="#110529"/>
<path fill-rule="evenodd" clip-rule="evenodd" d="M4 17L4 13.5L2.5 13.5L2.5 17.25C2.5 17.9404 3.05964 18.5 3.75 18.5H7.25V17L4 17Z" fill="#07AD3E"/>
<path fill-rule="evenodd" clip-rule="evenodd" d="M8 16.5L18.25 16.5V15L7.75 15C7.05965 15 6.5 15.5596 6.5 16.25V19.25C6.5 19.9404 7.05965 20.5 7.75 20.5L18.25 20.5V19L8 19V16.5Z" fill="#07AD3E"/>
</svg>
