<svg width="24" height="24" viewBox="0 0 24 24" fill="none" xmlns="http://www.w3.org/2000/svg">
<path d="M7.3081 7C7.01288 6.48433 6.76766 5.90709 6.58787 5.25L15.8435 5.25C15.9948 4.80961 16.1101 4.31425 16.1785 3.75L6.31217 3.75C6.27139 3.35769 6.25 2.94181 6.25 2.5H4.75C4.75 5.4604 5.61845 7.52184 6.9601 9.09823C7.98748 10.3054 9.27521 11.2032 10.5567 12C10.8948 12.2102 11.2324 12.4134 11.5648 12.6134L11.6618 12.6718C12.293 13.0517 12.9048 13.422 13.4822 13.8096C13.5354 13.8453 13.5883 13.8811 13.6408 13.9171C14.3434 14.3981 14.992 14.909 15.5593 15.5H10.7211C10.453 15.6987 10.2016 15.9007 9.96652 16.1108C9.70611 16.3436 9.46568 16.5865 9.24468 16.8462C9.20183 16.8965 9.15951 16.9478 9.11777 17H16.6919C16.9871 17.5157 17.2323 18.0929 17.4121 18.75H8.1565C8.00515 19.1904 7.88991 19.6857 7.82144 20.25H17.6878C17.7286 20.6423 17.75 21.0582 17.75 21.5H19.25C19.25 18.5396 18.3816 16.4782 17.0399 14.9018C16.7665 14.5806 16.4748 14.2813 16.1696 14C15.9481 13.7959 15.7195 13.6012 15.4859 13.4145C15.2718 13.2434 15.0534 13.0791 14.8322 12.9203C14.7483 12.86 14.664 12.8005 14.5793 12.7418C14.3702 12.5968 14.1591 12.4562 13.9472 12.3191C13.9393 12.3141 13.9315 12.309 13.9237 12.3039C13.7801 12.2113 13.6363 12.1203 13.4925 12.0306C13.4925 12.0306 13.4925 12.0306 13.4925 12.0306C13.4761 12.0204 13.4597 12.0102 13.4433 12C13.1055 11.7899 12.7681 11.5869 12.4362 11.3872L12.3867 11.3574C12.2569 11.2793 12.128 11.2016 12 11.1242C11.5096 10.8275 11.033 10.5339 10.5773 10.2302C10.497 10.1767 10.4173 10.1228 10.3383 10.0686C10.3309 10.0636 10.3236 10.0585 10.3162 10.0534C10.2578 10.0132 10.1998 9.97281 10.1423 9.93216C9.52286 9.49501 8.94913 9.0297 8.44073 8.5H13.2788C13.8439 8.08122 14.3348 7.64795 14.7553 7.15384C14.7981 7.1035 14.8405 7.05225 14.8822 7H7.3081Z" fill="#110529"/>
<path d="M13.4227 10.2302C14.3556 9.60849 15.2009 8.9446 15.8976 8.12603C16.9934 6.83846 17.75 5.12783 17.75 2.5H19.25C19.25 5.46041 18.3816 7.52184 17.0399 9.09823C16.3815 9.87184 15.6162 10.5184 14.8141 11.0928C14.336 10.782 13.8663 10.4972 13.4227 10.2302Z" fill="#110529"/>
<path d="M6.24999 21.5H4.75C4.75 18.5396 5.61845 16.4782 6.9601 14.9018C7.61851 14.1282 8.38384 13.4816 9.18591 12.9072C9.66397 13.218 10.1337 13.5028 10.5772 13.7698C9.81845 14.2755 9.11759 14.8091 8.50753 15.4312C8.43735 15.5027 8.36837 15.5754 8.30065 15.6494C8.2333 15.723 8.16719 15.7978 8.10238 15.874C7.49281 16.5902 6.98821 17.4374 6.66042 18.5005C6.43578 19.2291 6.29419 20.0591 6.25876 21.0179C6.25296 21.1751 6.24999 21.3358 6.24999 21.5Z" fill="#110529"/>
</svg>
