<svg width="24" height="24" viewBox="0 0 24 24" fill="none" xmlns="http://www.w3.org/2000/svg">
<path fill-rule="evenodd" clip-rule="evenodd" d="M10.9448 4.09249C11.2873 4.03171 11.64 4 12 4C12.36 4 12.7127 4.03171 13.0552 4.09249L13.8036 2.2215L15.1964 2.77858L14.4917 4.54024C16.2302 5.33493 17.5231 6.93556 17.8927 8.86426L20.7367 7.79776L21.2633 9.20225L18 10.426V12.75H21.5V14.25H17.9949C17.9649 14.9807 17.8043 15.6776 17.5358 16.3182L20.4359 18.3897L19.5641 19.6103L16.7826 17.6236C15.687 19.0675 13.9524 20 12 20C10.0476 20 8.31304 19.0675 7.21736 17.6236L4.43593 19.6103L3.56407 18.3897L6.46422 16.3182C6.19568 15.6776 6.03506 14.9807 6.00511 14.25H2.5V12.75H6V10.426L2.73666 9.20225L3.26334 7.79776L6.10734 8.86426C6.47686 6.93556 7.7698 5.33493 9.5083 4.54024L8.80364 2.77858L10.1964 2.2215L10.9448 4.09249ZM7.5 10.75V14C7.5 16.2297 9.12171 18.0807 11.25 18.4378V10.75H7.5ZM12.75 18.4378C14.8783 18.0807 16.5 16.2297 16.5 14V10.75H12.75V18.4378ZM16.4378 9.25H12H7.56222C7.91928 7.12172 9.77025 5.5 12 5.5C14.2297 5.5 16.0807 7.12172 16.4378 9.25Z" fill="#110529"/>
</svg>
