<svg width="24" height="24" viewBox="0 0 24 24" fill="none" xmlns="http://www.w3.org/2000/svg">
<path fill-rule="evenodd" clip-rule="evenodd" d="M16.5 7.5H4.5V19.5H16.5V7.5ZM4.5 6C3.67157 6 3 6.67157 3 7.5V19.5C3 20.3284 3.67157 21 4.5 21H16.5C17.3284 21 18 20.3284 18 19.5V7.5C18 6.67157 17.3284 6 16.5 6H4.5ZM11.25 9.5V12.75H14.5V14.25H11.25V17.5H9.75V14.25H6.5V12.75H9.75V9.5H11.25ZM11 4.5H8V3H11V4.5ZM16 3V4.5H13V3H16ZM19.5 4.5H18V3H19.5C20.3284 3 21 3.67157 21 4.5V6H19.5V4.5ZM19.5 11V8H21V11H19.5ZM19.5 16V13H21V16H19.5Z" fill="#110529"/>
</svg>
