<svg width="24" height="24" viewBox="0 0 24 24" fill="none" xmlns="http://www.w3.org/2000/svg">
<path fill-rule="evenodd" clip-rule="evenodd" d="M19.091 3.53023C18.2123 2.65154 16.7877 2.65155 15.909 3.53025L3.90901 15.5303C3.48705 15.9522 3.25 16.5245 3.25 17.1213V19.9999C3.25 20.4142 3.58579 20.7499 4 20.7499H6.87868C7.47542 20.7499 8.04771 20.5129 8.46967 20.0909L20.4697 8.09087C21.3484 7.21218 21.3484 5.78758 20.4697 4.90891L19.091 3.53023ZM16.9697 4.59089C17.2626 4.29799 17.7374 4.29799 18.0303 4.59089L19.409 5.96957C19.7019 6.26246 19.7019 6.73732 19.409 7.03022L18.5 7.93928L16.0607 5.49994L16.9697 4.59089ZM15 6.5606L17.4393 8.99994L7.40901 19.0303C7.26836 19.1709 7.07759 19.2499 6.87868 19.2499H4.75V17.1213C4.75 16.9224 4.82902 16.7316 4.96967 16.5909L15 6.5606Z" fill="#110529"/>
<path d="M12 20.75L20 20.7499L20 19.2499L12 19.25L12 20.75Z" fill="#110529"/>
</svg>
