<svg width="24" height="24" viewBox="0 0 24 24" fill="none" xmlns="http://www.w3.org/2000/svg">
<path fill-rule="evenodd" clip-rule="evenodd" d="M5.13605 16.3766L13.9446 7.56812L16.0659 9.68944L7.25737 18.4979L5.13605 18.4979L5.13605 16.3766ZM16.2427 5.27002L15.0052 6.50746L17.1265 8.62878L18.364 7.39134L16.2427 5.27002ZM19.4246 6.33068C20.0104 6.91647 20.0104 7.86621 19.4246 8.452L8.31803 19.5586C8.03672 19.8399 7.65519 19.9979 7.25737 19.9979H4.63605C4.08376 19.9979 3.63605 19.5502 3.63605 18.9979V16.3766C3.63605 15.9788 3.79408 15.5973 4.07539 15.316L15.182 4.20936C15.7678 3.62357 16.7175 3.62357 17.3033 4.20936L19.4246 6.33068ZM20 18.5H12V20H20V18.5Z" fill="#110529"/>
</svg>
