<svg width="24" height="24" viewBox="0 0 24 24" fill="none" xmlns="http://www.w3.org/2000/svg">
<path fill-rule="evenodd" clip-rule="evenodd" d="M12.25 4.5V8.5C12.25 9.74264 13.2574 10.75 14.5 10.75H18.5V18C18.5 18.8284 17.8284 19.5 17 19.5H13V21H17C18.6569 21 20 19.6569 20 18V10.75V10C20 9.74285 19.959 9.48994 19.8806 9.25C19.7637 8.8925 19.5638 8.56382 19.2929 8.29289L14.7071 3.70711C14.4362 3.43618 14.1075 3.2363 13.75 3.11945C13.5101 3.04102 13.2571 3 13 3H12.25H7C5.34315 3 4 4.34315 4 6V11H5.5V6C5.5 5.17157 6.17157 4.5 7 4.5H12.25ZM18.1287 9.25L13.75 4.87132V8.5C13.75 8.91421 14.0858 9.25 14.5 9.25H18.1287Z" fill="#110529"/>
<path fill-rule="evenodd" clip-rule="evenodd" d="M7.25 18.6893V11H8.75V18.6893L11.4697 15.9697L12.5303 17.0303L8 21.5607L3.46967 17.0303L4.53033 15.9697L7.25 18.6893Z" fill="#110529"/>
</svg>
