<svg width="24" height="24" viewBox="0 0 24 24" fill="none" xmlns="http://www.w3.org/2000/svg">
<path fill-rule="evenodd" clip-rule="evenodd" d="M3 6.75C3 5.23122 4.23122 4 5.75 4H10.8333C11.1038 4 11.367 4.08772 11.5833 4.25L13.25 5.5H18.25C19.7688 5.5 21 6.73122 21 8.25V17.25C21 18.7688 19.7688 20 18.25 20H15.5V18.5H18.25C18.9404 18.5 19.5 17.9404 19.5 17.25V8.25C19.5 7.55964 18.9404 7 18.25 7H13.1667C12.8962 7 12.633 6.91228 12.4167 6.75L10.75 5.5H5.75C5.05964 5.5 4.5 6.05964 4.5 6.75V17.25C4.5 17.9404 5.05964 18.5 5.75 18.5H11.25V12.8107L9.03033 15.0303L7.96967 13.9697L12 9.93934L16.0303 13.9697L14.9697 15.0303L12.75 12.8107V18.75C12.75 19.4404 12.1904 20 11.5 20H5.75C4.23122 20 3 18.7688 3 17.25V6.75Z" fill="#110529"/>
</svg>
