<svg width="24" height="24" viewBox="0 0 24 24" fill="none" xmlns="http://www.w3.org/2000/svg">
<path d="M16.125 2C16.8462 2 17.539 2.28196 18.0547 2.78613L20.2051 4.88965C20.713 5.38632 20.9999 6.06694 21 6.77734V19C21 20.6051 19.7394 21.9158 18.1543 21.9961L18 22H6C4.39489 22 3.08421 20.7394 3.00391 19.1543L3 19V5C3 3.34315 4.34315 2 6 2H16.125ZM6 3.5C5.17157 3.5 4.5 4.17157 4.5 5V19C4.5 19.8284 5.17157 20.5 6 20.5H18C18.8284 20.5 19.5 19.8284 19.5 19V7.52734H17.625C16.3824 7.52734 15.375 6.51998 15.375 5.27734V3.5H6ZM18 13H6V11.4209H18V13ZM18 9.5791H6V8H18V9.5791ZM16.875 5.27734C16.875 5.69156 17.2108 6.02734 17.625 6.02734H19.2168C19.1974 6.00524 19.1784 5.9826 19.1572 5.96191L17.0059 3.85938C16.9649 3.81928 16.9206 3.78283 16.875 3.74902V5.27734Z" fill="#110529" style="fill:#110529;fill:color(display-p3 0.0661 0.0192 0.1600);fill-opacity:1;"/>
<path fill-rule="evenodd" clip-rule="evenodd" d="M10.3223 14.9404C10.8343 14.9404 11.227 15.1345 11.501 15.5225C11.7749 15.9105 11.9121 16.4646 11.9121 17.1846C11.9121 17.6764 11.8515 18.0937 11.7295 18.4355C11.6075 18.7753 11.4273 19.034 11.1895 19.2119C10.9535 19.3899 10.6643 19.4795 10.3223 19.4795C9.98229 19.4795 9.69306 19.3899 9.45508 19.2119C9.21927 19.034 9.03899 18.7753 8.91504 18.4355C8.79308 18.0937 8.73246 17.6764 8.73242 17.1846C8.73242 16.4646 8.86961 15.9105 9.14355 15.5225C9.41954 15.1345 9.8123 14.9404 10.3223 14.9404ZM10.3223 15.7109C10.0844 15.711 9.90142 15.8259 9.77344 16.0557C9.64544 16.2857 9.58105 16.6626 9.58105 17.1846C9.58109 17.7181 9.64559 18.1057 9.77344 18.3477C9.90143 18.5876 10.0843 18.708 10.3223 18.708C10.5643 18.708 10.748 18.5877 10.874 18.3477C10.9999 18.1057 11.0634 17.7182 11.0635 17.1846C11.0635 16.6626 11 16.2857 10.874 16.0557C10.748 15.826 10.5641 15.7109 10.3223 15.7109Z" fill="#07AD3E" style="fill:#07AD3E;fill:color(display-p3 0.0272 0.6800 0.2448);fill-opacity:1;"/>
<path d="M13.8027 14.9463C14.0707 14.9443 14.304 14.9928 14.502 15.0928C14.702 15.1908 14.8596 15.3466 14.9756 15.5586C15.0935 15.7685 15.1617 16.0402 15.1797 16.374H14.4004C14.3844 16.252 14.3545 16.1419 14.3125 16.0439C14.2725 15.9462 14.2108 15.8685 14.127 15.8105C14.043 15.7526 13.9291 15.7227 13.7852 15.7227C13.5812 15.7227 13.417 15.7833 13.293 15.9033C13.169 16.0213 13.0794 16.1903 13.0234 16.4102C12.9674 16.6282 12.9395 16.8884 12.9395 17.1904C12.9395 17.4983 12.9693 17.7653 13.0293 17.9912C13.0912 18.2169 13.1829 18.3907 13.3047 18.5127C13.4286 18.6346 13.5837 18.6962 13.7695 18.6963C13.9075 18.6963 14.0298 18.6767 14.1357 18.6387C14.2416 18.5987 14.3276 18.5472 14.3936 18.4834V17.7363H13.752V17.0039H15.1533L15.1504 18.8789C15.0544 18.9869 14.9387 19.0858 14.8047 19.1758C14.6707 19.2658 14.5186 19.3386 14.3486 19.3926C14.1808 19.4465 13.9967 19.4727 13.7969 19.4727C13.4369 19.4726 13.1299 19.3822 12.876 19.2002C12.622 19.0162 12.427 18.7531 12.291 18.4111C12.157 18.0692 12.0899 17.6623 12.0898 17.1904C12.0898 16.7205 12.1571 16.3183 12.291 15.9844C12.427 15.6504 12.6229 15.3938 12.8789 15.2158C13.1348 15.0379 13.4429 14.9483 13.8027 14.9463Z" fill="#07AD3E" style="fill:#07AD3E;fill:color(display-p3 0.0272 0.6800 0.2448);fill-opacity:1;"/>
<path d="M17.0527 14.958C17.4747 14.958 17.8068 15.0672 18.0488 15.2852C18.2928 15.5032 18.4337 15.8307 18.4717 16.2666H17.6826C17.6746 16.1427 17.6428 16.0371 17.5869 15.9512C17.5329 15.8632 17.4592 15.796 17.3672 15.75C17.2774 15.7042 17.1687 15.6807 17.041 15.6807C16.8552 15.6807 16.7029 15.7181 16.585 15.792C16.467 15.8659 16.4073 15.98 16.4072 16.1338C16.4072 16.2477 16.4307 16.3449 16.4766 16.4248C16.5226 16.5028 16.6037 16.5775 16.7197 16.6475C16.8377 16.7154 17.002 16.7911 17.2119 16.875C17.3898 16.945 17.5616 17.0141 17.7275 17.082C17.8935 17.148 18.0419 17.2264 18.1719 17.3164C18.3037 17.4044 18.4084 17.5174 18.4863 17.6553C18.5643 17.7912 18.6035 17.9649 18.6035 18.1768C18.6055 18.4448 18.5393 18.6752 18.4053 18.8672C18.2733 19.0571 18.0913 19.2018 17.8594 19.3018C17.6294 19.3997 17.3644 19.4492 17.0645 19.4492C16.7525 19.4492 16.4754 19.3988 16.2334 19.2988C15.9916 19.1989 15.802 19.0419 15.6641 18.8281C15.5281 18.6121 15.4618 18.3341 15.4658 17.9941H16.2754C16.2794 18.1641 16.3139 18.3041 16.3779 18.4141C16.4439 18.5219 16.5364 18.6014 16.6562 18.6514C16.7762 18.7014 16.9209 18.7266 17.0889 18.7266C17.2368 18.7265 17.3619 18.7051 17.4639 18.6631C17.5676 18.6192 17.6453 18.5592 17.6973 18.4834C17.7513 18.4054 17.7783 18.3177 17.7783 18.2217C17.7782 18.102 17.7464 18.0065 17.6826 17.9346C17.6186 17.8606 17.5197 17.7943 17.3857 17.7363C17.2538 17.6784 17.0838 17.6102 16.876 17.5322C16.634 17.4402 16.4157 17.3339 16.2217 17.2139C16.0278 17.0919 15.8756 16.9453 15.7656 16.7734C15.6556 16.6015 15.6006 16.3952 15.6006 16.1553C15.6006 15.8913 15.664 15.6702 15.79 15.4922C15.916 15.3143 16.0887 15.1807 16.3086 15.0928C16.5286 15.0028 16.7768 14.958 17.0527 14.958Z" fill="#07AD3E" style="fill:#07AD3E;fill:color(display-p3 0.0272 0.6800 0.2448);fill-opacity:1;"/>
<path d="M6.58691 18.6357H8.40723V19.3887H5.7373V15.0273H6.58691V18.6357Z" fill="#07AD3E" style="fill:#07AD3E;fill:color(display-p3 0.0272 0.6800 0.2448);fill-opacity:1;"/>
</svg>
