<svg width="24" height="24" viewBox="0 0 24 24" fill="none" xmlns="http://www.w3.org/2000/svg">
<path fill-rule="evenodd" clip-rule="evenodd" d="M3.25 4.75V3.25H4.75L4.75 4.75H3.25ZM8.75 4.75H7.25V3.25H8.75V4.75ZM12.75 4.75H11.25V3.25H12.75V4.75ZM16.75 4.75H15.25V3.25H16.75V4.75ZM19.25 4.75V3.25H20.75V4.75H19.25ZM3.25 8.75V7.25H4.75V8.75H3.25ZM19.25 8.75V7.25H20.75V8.75H19.25ZM3.25 12.75V11.25H4.75L4.75 12.75H3.25ZM19.25 12.75V11.25H20.75V12.75H19.25ZM3.25 16.75V15.25H4.75V16.75H3.25ZM19.25 16.75V15.25H20.75V16.75H19.25ZM4.75 20.75H3.25V19.25H4.75V20.75ZM8.75 20.75H7.25V19.25H8.75V20.75ZM12.75 20.75H11.25V19.25H12.75V20.75ZM16.75 20.75H15.25V19.25H16.75V20.75ZM20.75 20.75H19.25V19.25H20.75V20.75Z" fill="#110529"/>
</svg>
