<svg width="24" height="24" viewBox="0 0 24 24" fill="none" xmlns="http://www.w3.org/2000/svg">
<path fill-rule="evenodd" clip-rule="evenodd" d="M2.5 6.25C2.5 4.73122 3.73122 3.5 5.25 3.5H10.3959C10.6288 3.5 10.8584 3.55422 11.0667 3.65836L13.75 5H18.75C20.2688 5 21.5 6.23122 21.5 7.75V17.75C21.5 19.2688 20.2688 20.5 18.75 20.5H15.5V19H18.75C19.4404 19 20 18.4404 20 17.75V7.75C20 7.05964 19.4404 6.5 18.75 6.5H13.7041C13.4712 6.5 13.2416 6.44578 13.0333 6.34164L10.35 5H5.25C4.55964 5 4 5.55964 4 6.25V17.75C4 18.4404 4.55964 19 5.25 19H11.25V12.8107L9.03033 15.0303L7.96967 13.9697L12 9.93934L16.0303 13.9697L14.9697 15.0303L12.75 12.8107V19.25C12.75 19.9404 12.1904 20.5 11.5 20.5H5.25C3.73122 20.5 2.5 19.2688 2.5 17.75V6.25Z" fill="#110529"/>
</svg>
