<svg width="24" height="24" viewBox="0 0 24 24" fill="none" xmlns="http://www.w3.org/2000/svg">
<path d="M13 6.25V7.75H5.27085H4.5V6.25H5H13Z" fill="#110529"/>
<path fill-rule="evenodd" clip-rule="evenodd" d="M15 15L19.7778 8.8426C20.2438 8.29887 20.5 7.60636 20.5 6.89023V4.5C20.5 3.67157 19.8284 3 19 3H5C4.17157 3 3.5 3.67157 3.5 4.5V6.89023C3.5 7.60636 3.75618 8.29887 4.22223 8.8426L8.99999 15V20.6315C8.99999 21.4302 9.89013 21.9066 10.5547 21.4635L14.332 18.9453C14.7493 18.6671 15 18.1988 15 17.6972V15ZM13.8611 14.0238C13.6281 14.2957 13.5 14.6419 13.5 15V17.6972L10.5 19.6972V15C10.5 14.6419 10.3719 14.2957 10.1389 14.0238L5.36112 7.86642C5.32902 7.82897 5.29891 7.79011 5.27085 7.75H4.5V6.25H5V4.5H19V6.89023C19 7.2483 18.8719 7.59455 18.6389 7.86642L13.8611 14.0238Z" fill="#110529"/>
<path d="M15 6.25H16.5V7.75H15V6.25Z" fill="#110529"/>
</svg>
