<svg width="24" height="24" viewBox="0 0 24 24" fill="none" xmlns="http://www.w3.org/2000/svg">
<path d="M16.0001 22.0397L21.5194 16.741L20.4807 15.659L16.7501 19.2403V9H15.2501V19.2403L11.5194 15.659L10.4807 16.741L16.0001 22.0397Z" fill="#110529"/>
<path d="M12 7.75H6V6.25H12V7.75Z" fill="#110529"/>
<path d="M6 11H9V9.5H6V11Z" fill="#110529"/>
<path fill-rule="evenodd" clip-rule="evenodd" d="M19.5 9V6C19.5 5.17157 18.8284 4.5 18 4.5H12H6C5.17157 4.5 4.5 5.17157 4.5 6V18C4.5 18.8284 5.17157 19.5 6 19.5H10V21H6C4.34315 21 3 19.6569 3 18V6C3 4.34315 4.34315 3 6 3H12H18C19.6569 3 21 4.34315 21 6V9H19.5Z" fill="#110529"/>
</svg>
