<svg width="210" height="66" viewBox="0 0 210 66" fill="none" xmlns="http://www.w3.org/2000/svg">
<rect x="1" y="1" width="208" height="64" rx="5" stroke="#9747FF" stroke-dasharray="10 5"/>
<path fill-rule="evenodd" clip-rule="evenodd" d="M24.25 25.75V24.25H25.75L25.75 25.75H24.25ZM29.75 25.75H28.25V24.25H29.75V25.75ZM33.75 25.75H32.25V24.25H33.75V25.75ZM37.75 25.75H36.25V24.25H37.75V25.75ZM40.25 25.75V24.25H41.75V25.75H40.25ZM24.25 29.75V28.25H25.75V29.75H24.25ZM40.25 29.75V28.25H41.75V29.75H40.25ZM24.25 33.75V32.25H25.75L25.75 33.75H24.25ZM40.25 33.75V32.25H41.75V33.75H40.25ZM24.25 37.75V36.25H25.75V37.75H24.25ZM40.25 37.75V36.25H41.75V37.75H40.25ZM25.75 41.75H24.25V40.25H25.75V41.75ZM29.75 41.75H28.25V40.25H29.75V41.75ZM33.75 41.75H32.25V40.25H33.75V41.75ZM37.75 41.75H36.25V40.25H37.75V41.75ZM41.75 41.75H40.25V40.25H41.75V41.75Z" fill="#CFD1DB"/>
<path fill-rule="evenodd" clip-rule="evenodd" d="M60.25 40.25H77.75V41.75H60.25L60.25 40.25Z" fill="#CFD1DB"/>
<path fill-rule="evenodd" clip-rule="evenodd" d="M60.25 25.75L60.25 24.25H61.75L61.75 25.75H60.25ZM65.75 25.75H64.25V24.25H65.75V25.75ZM69.75 25.75H68.25V24.25H69.75V25.75ZM73.75 25.75H72.25V24.25H73.75V25.75ZM76.25 25.75V24.25H77.75V25.75H76.25ZM60.25 29.75L60.25 28.25H61.75L61.75 29.75H60.25ZM76.25 29.75V28.25H77.75V29.75H76.25ZM60.25 33.75L60.25 32.25H61.75V33.75H60.25ZM76.25 33.75V32.25H77.75V33.75H76.25ZM60.25 37.75L60.25 36.25H61.75V37.75H60.25ZM76.25 37.75V36.25H77.75V37.75H76.25Z" fill="#CFD1DB"/>
<path fill-rule="evenodd" clip-rule="evenodd" d="M96.25 41.75L96.25 24.25L97.75 24.25L97.75 41.75H96.25Z" fill="#CFD1DB"/>
<path fill-rule="evenodd" clip-rule="evenodd" d="M101.75 25.75H100.25V24.25H101.75V25.75ZM105.75 25.75H104.25V24.25H105.75V25.75ZM109.75 25.75H108.25V24.25H109.75V25.75ZM112.25 25.75V24.25H113.75V25.75H112.25ZM112.25 29.75V28.25H113.75V29.75H112.25ZM112.25 33.75V32.25H113.75V33.75H112.25ZM112.25 37.75V36.25H113.75V37.75H112.25ZM101.75 41.75H100.25V40.25H101.75V41.75ZM105.75 41.75H104.25V40.25H105.75V41.75ZM109.75 41.75H108.25V40.25H109.75V41.75ZM113.75 41.75H112.25V40.25H113.75V41.75Z" fill="#CFD1DB"/>
<path fill-rule="evenodd" clip-rule="evenodd" d="M149.75 41.75L134 41.75C133.034 41.75 132.25 40.9665 132.25 40L132.25 24.25L133.75 24.25L133.75 40C133.75 40.1381 133.862 40.25 134 40.25L149.75 40.25V41.75Z" fill="#CFD1DB"/>
<path fill-rule="evenodd" clip-rule="evenodd" d="M137.75 25.75H136.25V24.25H137.75V25.75ZM141.75 25.75H140.25V24.25H141.75V25.75ZM145.75 25.75H144.25V24.25H145.75V25.75ZM148.25 25.75V24.25H149.75V25.75H148.25ZM148.25 29.75V28.25H149.75V29.75H148.25ZM148.25 33.75V32.25H149.75V33.75H148.25ZM148.25 37.75V36.25H149.75V37.75H148.25Z" fill="#CFD1DB"/>
<path fill-rule="evenodd" clip-rule="evenodd" d="M185.75 40C185.75 40.9665 184.966 41.75 184 41.75L170 41.75C169.034 41.75 168.25 40.9665 168.25 40L168.25 26C168.25 25.0335 169.034 24.25 170 24.25L184 24.25C184.966 24.25 185.75 25.0335 185.75 26L185.75 40ZM184 40.25C184.138 40.25 184.25 40.1381 184.25 40L184.25 26C184.25 25.8619 184.138 25.75 184 25.75L170 25.75C169.862 25.75 169.75 25.8619 169.75 26L169.75 40C169.75 40.1381 169.862 40.25 170 40.25L184 40.25Z" fill="#110529"/>
</svg>
