<svg width="24" height="24" viewBox="0 0 24 24" fill="none" xmlns="http://www.w3.org/2000/svg">
<circle cx="12" cy="12" r="8" fill="#D0F0C0"/>
<path d="M10.7563 7.24739C11.3501 7.00141 12.0036 6.93705 12.634 7.06245C13.2645 7.18785 13.8436 7.49738 14.2981 7.9519C14.7526 8.40643 15.0622 8.98552 15.1876 9.61596C15.313 10.2464 15.2486 10.8999 15.0026 11.4937C14.7566 12.0876 14.3401 12.5952 13.8056 12.9523C13.2711 13.3094 12.6 13.5 11.75 13.5H11.25V12H11.75C12.4023 12 12.6845 11.8974 12.9722 11.7051C13.26 11.5128 13.4843 11.2395 13.6168 10.9197C13.7492 10.5999 13.7839 10.2481 13.7164 9.90859C13.6489 9.56913 13.4822 9.25731 13.2374 9.01256C12.9927 8.76782 12.6809 8.60115 12.3414 8.53363C12.0019 8.4661 11.6501 8.50076 11.3303 8.63321C11.0105 8.76567 10.7372 8.98997 10.5449 9.27775C10.3526 9.56554 10.25 9.90388 10.25 10.25H8.75C8.75 9.60721 8.94061 8.97886 9.29772 8.4444C9.65484 7.90994 10.1624 7.49338 10.7563 7.24739Z" fill="#110529"/>
<path d="M11.25 15.25H12.75V16.75H11.25V15.25Z" fill="#110529"/>
</svg>
