<svg width="24" height="24" viewBox="0 0 24 24" fill="none" xmlns="http://www.w3.org/2000/svg">
<mask id="path-1-inside-1_6120_12076" fill="white">
<path fill-rule="evenodd" clip-rule="evenodd" d="M4 3C3.44772 3 3 3.44772 3 4L3 7C3 7.55228 3.44772 8 4 8L7 8C7.55228 8 8 7.55228 8 7V4C8 3.44772 7.55228 3 7 3L4 3ZM10.5 3C9.94772 3 9.5 3.44772 9.5 4V7C9.5 7.55228 9.94772 8 10.5 8L13.5 8C14.0523 8 14.5 7.55228 14.5 7V4C14.5 3.44772 14.0523 3 13.5 3L10.5 3ZM9.5 10.5C9.5 9.94772 9.94772 9.5 10.5 9.5L13.5 9.5C14.0523 9.5 14.5 9.94772 14.5 10.5V13.5C14.5 14.0523 14.0523 14.5 13.5 14.5H10.5C9.94772 14.5 9.5 14.0523 9.5 13.5L9.5 10.5ZM17 9.5C16.4477 9.5 16 9.94772 16 10.5V13.5C16 14.0523 16.4477 14.5 17 14.5L20 14.5C20.5523 14.5 21 14.0523 21 13.5V10.5C21 9.94772 20.5523 9.5 20 9.5H17ZM3 17C3 16.4477 3.44772 16 4 16H7C7.55228 16 8 16.4477 8 17V20C8 20.5523 7.55228 21 7 21H4C3.44772 21 3 20.5523 3 20L3 17ZM17 16C16.4477 16 16 16.4477 16 17L16 20C16 20.5523 16.4477 21 17 21H20C20.5523 21 21 20.5523 21 20V17C21 16.4477 20.5523 16 20 16L17 16Z"/>
</mask>
<path fill-rule="evenodd" clip-rule="evenodd" d="M4 3C3.44772 3 3 3.44772 3 4L3 7C3 7.55228 3.44772 8 4 8L7 8C7.55228 8 8 7.55228 8 7V4C8 3.44772 7.55228 3 7 3L4 3ZM10.5 3C9.94772 3 9.5 3.44772 9.5 4V7C9.5 7.55228 9.94772 8 10.5 8L13.5 8C14.0523 8 14.5 7.55228 14.5 7V4C14.5 3.44772 14.0523 3 13.5 3L10.5 3ZM9.5 10.5C9.5 9.94772 9.94772 9.5 10.5 9.5L13.5 9.5C14.0523 9.5 14.5 9.94772 14.5 10.5V13.5C14.5 14.0523 14.0523 14.5 13.5 14.5H10.5C9.94772 14.5 9.5 14.0523 9.5 13.5L9.5 10.5ZM17 9.5C16.4477 9.5 16 9.94772 16 10.5V13.5C16 14.0523 16.4477 14.5 17 14.5L20 14.5C20.5523 14.5 21 14.0523 21 13.5V10.5C21 9.94772 20.5523 9.5 20 9.5H17ZM3 17C3 16.4477 3.44772 16 4 16H7C7.55228 16 8 16.4477 8 17V20C8 20.5523 7.55228 21 7 21H4C3.44772 21 3 20.5523 3 20L3 17ZM17 16C16.4477 16 16 16.4477 16 17L16 20C16 20.5523 16.4477 21 17 21H20C20.5523 21 21 20.5523 21 20V17C21 16.4477 20.5523 16 20 16L17 16Z" fill="white"/>
<path d="M4.5 4C4.5 4.27614 4.27614 4.5 4 4.5V1.5C2.61929 1.5 1.5 2.61929 1.5 4H4.5ZM4.5 7L4.5 4H1.5L1.5 7H4.5ZM4 6.5C4.27614 6.5 4.5 6.72386 4.5 7H1.5C1.5 8.38071 2.61929 9.5 4 9.5L4 6.5ZM7 6.5H4L4 9.5H7V6.5ZM6.5 7C6.5 6.72386 6.72386 6.5 7 6.5V9.5C8.38071 9.5 9.5 8.38071 9.5 7L6.5 7ZM6.5 4V7L9.5 7V4L6.5 4ZM7 4.5C6.72386 4.5 6.5 4.27614 6.5 4L9.5 4C9.5 2.61929 8.38071 1.5 7 1.5V4.5ZM4 4.5L7 4.5V1.5L4 1.5V4.5ZM11 4C11 4.27614 10.7761 4.5 10.5 4.5V1.5C9.11929 1.5 8 2.61929 8 4L11 4ZM11 7V4L8 4V7L11 7ZM10.5 6.5C10.7761 6.5 11 6.72386 11 7L8 7C8 8.38071 9.11929 9.5 10.5 9.5V6.5ZM13.5 6.5H10.5V9.5L13.5 9.5L13.5 6.5ZM13 7C13 6.72386 13.2239 6.5 13.5 6.5L13.5 9.5C14.8807 9.5 16 8.38071 16 7H13ZM13 4V7H16V4L13 4ZM13.5 4.5C13.2239 4.5 13 4.27614 13 4L16 4C16 2.61929 14.8807 1.5 13.5 1.5V4.5ZM10.5 4.5L13.5 4.5V1.5L10.5 1.5V4.5ZM10.5 8C9.11929 8 8 9.11929 8 10.5H11C11 10.7761 10.7761 11 10.5 11V8ZM13.5 8L10.5 8V11L13.5 11L13.5 8ZM16 10.5C16 9.11929 14.8807 8 13.5 8L13.5 11C13.2239 11 13 10.7761 13 10.5H16ZM16 13.5V10.5H13V13.5H16ZM13.5 16C14.8807 16 16 14.8807 16 13.5H13C13 13.2239 13.2239 13 13.5 13V16ZM10.5 16H13.5V13H10.5V16ZM8 13.5C8 14.8807 9.11929 16 10.5 16V13C10.7761 13 11 13.2239 11 13.5L8 13.5ZM8 10.5L8 13.5L11 13.5V10.5H8ZM17.5 10.5C17.5 10.7761 17.2761 11 17 11V8C15.6193 8 14.5 9.11929 14.5 10.5L17.5 10.5ZM17.5 13.5V10.5L14.5 10.5V13.5H17.5ZM17 13C17.2761 13 17.5 13.2239 17.5 13.5H14.5C14.5 14.8807 15.6193 16 17 16V13ZM20 13L17 13V16L20 16L20 13ZM19.5 13.5C19.5 13.2239 19.7239 13 20 13L20 16C21.3807 16 22.5 14.8807 22.5 13.5L19.5 13.5ZM19.5 10.5V13.5L22.5 13.5V10.5H19.5ZM20 11C19.7239 11 19.5 10.7761 19.5 10.5H22.5C22.5 9.11929 21.3807 8 20 8V11ZM17 11H20V8H17V11ZM4 14.5C2.61929 14.5 1.5 15.6193 1.5 17H4.5C4.5 17.2761 4.27614 17.5 4 17.5L4 14.5ZM7 14.5H4L4 17.5H7L7 14.5ZM9.5 17C9.5 15.6193 8.38071 14.5 7 14.5L7 17.5C6.72386 17.5 6.5 17.2761 6.5 17H9.5ZM9.5 20V17H6.5L6.5 20H9.5ZM7 22.5C8.38071 22.5 9.5 21.3807 9.5 20H6.5C6.5 19.7239 6.72386 19.5 7 19.5L7 22.5ZM4 22.5H7L7 19.5H4L4 22.5ZM1.5 20C1.5 21.3807 2.61929 22.5 4 22.5L4 19.5C4.27614 19.5 4.5 19.7239 4.5 20H1.5ZM1.5 17L1.5 20H4.5L4.5 17H1.5ZM17.5 17C17.5 17.2761 17.2761 17.5 17 17.5V14.5C15.6193 14.5 14.5 15.6193 14.5 17H17.5ZM17.5 20L17.5 17H14.5L14.5 20H17.5ZM17 19.5C17.2761 19.5 17.5 19.7239 17.5 20H14.5C14.5 21.3807 15.6193 22.5 17 22.5L17 19.5ZM20 19.5H17L17 22.5H20V19.5ZM19.5 20C19.5 19.7239 19.7239 19.5 20 19.5V22.5C21.3807 22.5 22.5 21.3807 22.5 20H19.5ZM19.5 17V20H22.5V17L19.5 17ZM20 17.5C19.7239 17.5 19.5 17.2761 19.5 17L22.5 17C22.5 15.6193 21.3807 14.5 20 14.5V17.5ZM17 17.5L20 17.5V14.5L17 14.5V17.5Z" fill="#110529" mask="url(#path-1-inside-1_6120_12076)"/>
<mask id="path-3-inside-2_6120_12076" fill="white">
<path fill-rule="evenodd" clip-rule="evenodd" d="M17.5 4.5V6.5L19.5 6.5V4.5H17.5ZM17 3C16.4477 3 16 3.44772 16 4V7C16 7.55228 16.4477 8 17 8H20C20.5523 8 21 7.55228 21 7V4C21 3.44772 20.5523 3 20 3L17 3ZM4.5 11V13H6.5V11H4.5ZM4 9.5C3.44772 9.5 3 9.94772 3 10.5L3 13.5C3 14.0523 3.44772 14.5 4 14.5H7C7.55228 14.5 8 14.0523 8 13.5L8 10.5C8 9.94772 7.55228 9.5 7 9.5H4ZM11 19.5V17.5H13V19.5H11ZM9.5 17C9.5 16.4477 9.94772 16 10.5 16H13.5C14.0523 16 14.5 16.4477 14.5 17L14.5 20C14.5 20.5523 14.0523 21 13.5 21H10.5C9.94772 21 9.5 20.5523 9.5 20V17Z"/>
</mask>
<path fill-rule="evenodd" clip-rule="evenodd" d="M17.5 4.5V6.5L19.5 6.5V4.5H17.5ZM17 3C16.4477 3 16 3.44772 16 4V7C16 7.55228 16.4477 8 17 8H20C20.5523 8 21 7.55228 21 7V4C21 3.44772 20.5523 3 20 3L17 3ZM4.5 11V13H6.5V11H4.5ZM4 9.5C3.44772 9.5 3 9.94772 3 10.5L3 13.5C3 14.0523 3.44772 14.5 4 14.5H7C7.55228 14.5 8 14.0523 8 13.5L8 10.5C8 9.94772 7.55228 9.5 7 9.5H4ZM11 19.5V17.5H13V19.5H11ZM9.5 17C9.5 16.4477 9.94772 16 10.5 16H13.5C14.0523 16 14.5 16.4477 14.5 17L14.5 20C14.5 20.5523 14.0523 21 13.5 21H10.5C9.94772 21 9.5 20.5523 9.5 20V17Z" fill="#07AD3E"/>
<path d="M17.5 6.5H16V8L17.5 8V6.5ZM17.5 4.5V3H16V4.5L17.5 4.5ZM19.5 6.5V8H21V6.5L19.5 6.5ZM19.5 4.5H21V3L19.5 3V4.5ZM4.5 13H3V14.5H4.5V13ZM4.5 11L4.5 9.5H3L3 11H4.5ZM6.5 13V14.5H8V13H6.5ZM6.5 11H8V9.5H6.5L6.5 11ZM11 17.5V16H9.5L9.5 17.5H11ZM11 19.5H9.5V21H11L11 19.5ZM13 17.5H14.5V16H13V17.5ZM13 19.5L13 21L14.5 21L14.5 19.5L13 19.5ZM19 6.5V4.5L16 4.5V6.5L19 6.5ZM19.5 5H17.5V8H19.5V5ZM18 4.5V6.5L21 6.5V4.5H18ZM17.5 6L19.5 6V3L17.5 3V6ZM17.5 4C17.5 4.27614 17.2761 4.5 17 4.5V1.5C15.6193 1.5 14.5 2.61929 14.5 4L17.5 4ZM17.5 7V4L14.5 4V7H17.5ZM17 6.5C17.2761 6.5 17.5 6.72386 17.5 7H14.5C14.5 8.38071 15.6193 9.5 17 9.5V6.5ZM20 6.5L17 6.5V9.5H20V6.5ZM19.5 7C19.5 6.72386 19.7239 6.5 20 6.5V9.5C21.3807 9.5 22.5 8.38071 22.5 7L19.5 7ZM19.5 4V7L22.5 7V4L19.5 4ZM20 4.5C19.7239 4.5 19.5 4.27614 19.5 4L22.5 4C22.5 2.61929 21.3807 1.5 20 1.5V4.5ZM17 4.5L20 4.5V1.5L17 1.5V4.5ZM6 13V11H3L3 13H6ZM6.5 11.5H4.5V14.5H6.5V11.5ZM5 11V13H8L8 11H5ZM4.5 12.5H6.5L6.5 9.5H4.5L4.5 12.5ZM4.5 10.5C4.5 10.7761 4.27614 11 4 11L4 8C2.61929 8 1.5 9.11929 1.5 10.5H4.5ZM4.5 13.5L4.5 10.5H1.5L1.5 13.5H4.5ZM4 13C4.27614 13 4.5 13.2239 4.5 13.5H1.5C1.5 14.8807 2.61929 16 4 16L4 13ZM7 13H4L4 16H7V13ZM6.5 13.5C6.5 13.2239 6.72386 13 7 13V16C8.38071 16 9.5 14.8807 9.5 13.5L6.5 13.5ZM6.5 10.5V13.5L9.5 13.5L9.5 10.5H6.5ZM7 11C6.72386 11 6.5 10.7761 6.5 10.5H9.5C9.5 9.11929 8.38071 8 7 8V11ZM4 11H7V8L4 8L4 11ZM9.5 17.5V19.5H12.5V17.5H9.5ZM13 16H11V19H13V16ZM14.5 19.5V17.5H11.5V19.5L14.5 19.5ZM11 21H13L13 18H11L11 21ZM10.5 14.5C9.11929 14.5 8 15.6193 8 17H11C11 17.2761 10.7761 17.5 10.5 17.5L10.5 14.5ZM13.5 14.5H10.5L10.5 17.5H13.5V14.5ZM16 17C16 15.6193 14.8807 14.5 13.5 14.5V17.5C13.2239 17.5 13 17.2761 13 17H16ZM16 20L16 17H13L13 20L16 20ZM13.5 22.5C14.8807 22.5 16 21.3807 16 20L13 20C13 19.7239 13.2239 19.5 13.5 19.5L13.5 22.5ZM10.5 22.5H13.5L13.5 19.5H10.5V22.5ZM8 20C8 21.3807 9.11929 22.5 10.5 22.5V19.5C10.7761 19.5 11 19.7239 11 20H8ZM8 17V20H11L11 17H8Z" fill="#07AD3E" mask="url(#path-3-inside-2_6120_12076)"/>
</svg>
