<svg width="24" height="24" viewBox="0 0 24 24" fill="none" xmlns="http://www.w3.org/2000/svg">
<path d="M2.37549 15.1251L12.0003 21.25L21.6255 15.1249L21.6749 15.1563C22.2924 15.5493 22.2924 16.4507 21.6749 16.8436L12.5375 22.6583C12.21 22.8668 11.7913 22.8668 11.4638 22.6583L2.32641 16.8436C1.70891 16.4507 1.70891 15.5493 2.32641 15.1563L2.37549 15.1251Z" fill="#07AD3E"/>
<path fill-rule="evenodd" clip-rule="evenodd" d="M2.32641 7.15633C1.70891 7.54929 1.70891 8.4507 2.32641 8.84366L11.4638 14.6583C11.7913 14.8668 12.21 14.8668 12.5375 14.6583L21.6749 8.84365C22.2924 8.4507 22.2924 7.54929 21.6749 7.15633L12.5375 1.34164C12.21 1.13319 11.7913 1.13319 11.4638 1.34164L2.32641 7.15633ZM3.75 7.99997L12 13.25L20.25 7.99997L12 2.74997L3.75 7.99997Z" fill="#110529"/>
<path d="M12.0003 17.25L2.37549 11.1251L2.32641 11.1563C1.70891 11.5493 1.70891 12.4507 2.32641 12.8436L11.4638 18.6583C11.7913 18.8668 12.21 18.8668 12.5375 18.6583L21.6749 12.8436C22.2924 12.4507 22.2924 11.5493 21.6749 11.1563L21.6255 11.1249L12.0003 17.25Z" fill="#110529"/>
</svg>
