<svg width="24" height="24" viewBox="0 0 24 24" fill="none" xmlns="http://www.w3.org/2000/svg">
<path d="M11.2215 15.2214L13.5701 12.8728C15.2299 11.213 15.2299 8.52208 13.5701 6.86235C11.9104 5.20262 9.21946 5.20262 7.55973 6.86235L3.31709 11.105C1.65736 12.7647 1.65736 15.4557 3.31709 17.1154C4.38619 18.1845 5.88315 18.5649 7.25677 18.2567L8.45261 19.4526C6.38306 20.2767 3.93154 19.8512 2.25643 18.1761C0.0109174 15.9305 0.0109177 12.2898 2.25643 10.0443L6.49907 5.80169C8.74459 3.55617 12.3853 3.55618 14.6308 5.80169C16.8763 8.0472 16.8763 11.6879 14.6308 13.9334L12.2821 16.2821L11.2215 15.2214Z" fill="#CFD1DB"/>
<path d="M17.4594 18.1761C15.2139 20.4216 11.5732 20.4216 9.32772 18.1761C7.08221 15.9305 7.08221 12.2898 9.32772 10.0443L11.686 7.68602L12.7467 8.74668L10.3884 11.105C8.72865 12.7647 8.72865 15.4557 10.3884 17.1154C12.0481 18.7751 14.7391 18.7751 16.3988 17.1154L20.6414 12.8728C22.3012 11.213 22.3012 8.52208 20.6414 6.86235C19.5764 5.79734 18.0868 5.41573 16.7175 5.7175L15.5197 4.51969C17.5864 3.70296 20.0307 4.1303 21.7021 5.80169C23.9476 8.0472 23.9476 11.6879 21.7021 13.9334L17.4594 18.1761Z" fill="#CFD1DB"/>
</svg>
