<svg width="24" height="24" viewBox="0 0 24 24" fill="none" xmlns="http://www.w3.org/2000/svg">
<path fill-rule="evenodd" clip-rule="evenodd" d="M12 4.5C10.4812 4.5 9.5 5.73121 9.5 7.24999V9H14.5V7.25C14.5 5.73121 13.5188 4.5 12 4.5ZM8 7.24999V9L6.50003 9C5.6716 9 5.00003 9.67157 5.00003 10.5L5 19.5C5 20.3284 5.67157 21 6.5 21H17.5C18.3284 21 19 20.3284 19 19.5L19 10.5C19 9.67157 18.3285 9 17.5 9L16 9V7.24999C16 4.90279 14.3472 3 12 3C9.65282 3 8 4.90278 8 7.24999ZM6.5 10.5H17.5V19.5H6.5V10.5ZM11.25 12.5V17.5H12.75V12.5H11.25Z" fill="#110529"/>
</svg>
