<svg width="24" height="24" viewBox="0 0 24 24" fill="none" xmlns="http://www.w3.org/2000/svg">
<path fill-rule="evenodd" clip-rule="evenodd" d="M7.87166 17.4862C6.72148 18.5589 5.21191 19.25 3 19.25H2.25V20.75H3C5.01 20.75 6.5821 20.2481 7.84779 19.4106C7.78374 19.1173 7.75 18.8126 7.75 18.5C7.75 18.1506 7.79216 17.8111 7.87166 17.4862ZM16.5833 6.12522C17.6721 5.27714 19.0682 4.75 21 4.75H21.75V3.25H21C18.7445 3.25 17.0404 3.882 15.702 4.91089C15.8578 5.18652 15.9838 5.48129 16.0755 5.79079C16.253 5.8903 16.4227 6.00217 16.5833 6.12522ZM3.75 5.5L3.75 4H2.25L2.25 5.5H3.75ZM3.75 8.5V7H2.25L2.25 8.5H3.75ZM3.75 10L3.75 11.5H2.25L2.25 10H3.75ZM3.75 14.5V13H2.25V14.5H3.75ZM3.75 16L3.75 17.5H2.25V16H3.75ZM20.25 6.5V8L21.75 8V6.5H20.25ZM20.25 11V9.5H21.75V11H20.25ZM20.25 12.5V14H21.75V12.5H20.25ZM20.25 17V15.5H21.75V17H20.25ZM20.25 20V18.5H21.75V20H20.25Z" fill="#110529"/>
<path fill-rule="evenodd" clip-rule="evenodd" d="M9.75 7C9.75 5.75736 10.7574 4.75 12 4.75C13.2426 4.75 14.25 5.75736 14.25 7C14.25 7.08866 14.2449 7.17613 14.2349 7.26211C15.3671 7.37957 16.25 8.33668 16.25 9.5C16.25 10.6633 15.3671 11.6204 14.2349 11.7379C14.2449 11.8239 14.25 11.9113 14.25 12C14.25 13.2426 13.2426 14.25 12 14.25C10.7574 14.25 9.75 13.2426 9.75 12C9.75 11.9113 9.75513 11.8239 9.7651 11.7379C8.63285 11.6204 7.75 10.6633 7.75 9.5C7.75 8.33668 8.63285 7.37957 9.7651 7.26211C9.75513 7.17613 9.75 7.08866 9.75 7ZM12 6.25C11.5858 6.25 11.25 6.58579 11.25 7C11.25 7.41421 11.5858 7.75 12 7.75C12.4142 7.75 12.75 7.41421 12.75 7C12.75 6.58579 12.4142 6.25 12 6.25ZM9.25 9.5C9.25 9.08579 9.58579 8.75 10 8.75C10.4142 8.75 10.75 9.08579 10.75 9.5C10.75 9.91421 10.4142 10.25 10 10.25C9.58579 10.25 9.25 9.91421 9.25 9.5ZM14 8.75C13.5858 8.75 13.25 9.08579 13.25 9.5C13.25 9.91421 13.5858 10.25 14 10.25C14.4142 10.25 14.75 9.91421 14.75 9.5C14.75 9.08579 14.4142 8.75 14 8.75ZM9.75 18.5C9.75 17.2574 10.7574 16.25 12 16.25C13.2426 16.25 14.25 17.2574 14.25 18.5C14.25 19.7426 13.2426 20.75 12 20.75C10.7574 20.75 9.75 19.7426 9.75 18.5ZM12 17.75C11.5858 17.75 11.25 18.0858 11.25 18.5C11.25 18.9142 11.5858 19.25 12 19.25C12.4142 19.25 12.75 18.9142 12.75 18.5C12.75 18.0858 12.4142 17.75 12 17.75ZM11.25 12C11.25 11.5858 11.5858 11.25 12 11.25C12.4142 11.25 12.75 11.5858 12.75 12C12.75 12.4142 12.4142 12.75 12 12.75C11.5858 12.75 11.25 12.4142 11.25 12Z" fill="#07AD3E"/>
</svg>
