<svg width="24" height="24" viewBox="0 0 24 24" fill="none" xmlns="http://www.w3.org/2000/svg">
<path fill-rule="evenodd" clip-rule="evenodd" d="M22 4.75L12 4.75V3.25L22 3.25V4.75Z" fill="#110529"/>
<path fill-rule="evenodd" clip-rule="evenodd" d="M22 8.75L14 8.75V7.25L22 7.25V8.75Z" fill="#110529"/>
<path fill-rule="evenodd" clip-rule="evenodd" d="M4.5 14.5V19.5H9.5V14.5H4.5ZM4 13C3.44772 13 3 13.4477 3 14V20C3 20.5523 3.44772 21 4 21H10C10.5523 21 11 20.5523 11 20V14C11 13.4477 10.5523 13 10 13H4Z" fill="#110529"/>
<path fill-rule="evenodd" clip-rule="evenodd" d="M22 15.75L13 15.75V14.25L22 14.25V15.75Z" fill="#07AD3E"/>
<path fill-rule="evenodd" clip-rule="evenodd" d="M20 19.75H13V18.25H20V19.75Z" fill="#07AD3E"/>
<path fill-rule="evenodd" clip-rule="evenodd" d="M7 4L4.40193 8.5H9.59808L7 4ZM7.86603 2.5C7.48113 1.83333 6.51888 1.83333 6.13398 2.5L2.66988 8.5C2.28497 9.16667 2.7661 10 3.5359 10H10.4641C11.2339 10 11.715 9.16667 11.3301 8.5L7.86603 2.5Z" fill="#07AD3E"/>
</svg>
