<svg width="222" height="222" viewBox="0 0 222 222" fill="none" xmlns="http://www.w3.org/2000/svg">
<rect x="1" y="1" width="220" height="220" rx="5" stroke="#9747FF" stroke-dasharray="10 5"/>
<rect x="25" y="31" width="12" height="12" stroke="#110529"/>
<circle cx="71" cy="37" r="6" stroke="#110529"/>
<path d="M111 31L118 43H104L111 31Z" stroke="#110529"/>
<path d="M151 31V37M151 43V37M151 37H157M151 37H145" stroke="#110529"/>
<path d="M196 32L191 37M191 37L186 42M191 37L196 42M191 37L186 32" stroke="#110529"/>
<path d="M31 70L38 77L31 84L24 77L31 70Z" stroke="#110529"/>
<path d="M71 83L78 71H64L71 83Z" stroke="#110529"/>
<path fill-rule="evenodd" clip-rule="evenodd" d="M105 70.5H104.5V71V83V83.5H105H117H117.5V83V71V70.5H117H105ZM105.5 72.2071V81.7929L110.293 77L105.5 72.2071ZM106.207 82.5H115.793L111 77.7071L106.207 82.5ZM116.5 81.7929V72.2071L111.707 77L116.5 81.7929ZM115.793 71.5H106.207L111 76.2929L115.793 71.5Z" fill="#110529"/>
<path fill-rule="evenodd" clip-rule="evenodd" d="M149.792 76.5L145.696 72.4038L146.403 71.6967L150.5 75.7934V70H151.5V75.7925L155.596 71.6967L156.303 72.4038L152.207 76.5H158V77.5H152.207L156.303 81.5962L155.596 82.3033L151.5 78.2076V84H150.5V78.2067L146.403 82.3033L145.696 81.5962L149.792 77.5H144V76.5H149.792Z" fill="#110529"/>
<path fill-rule="evenodd" clip-rule="evenodd" d="M191.354 69.6464L191 69.2928L190.646 69.6464L183.646 76.6464L183.293 77L183.646 77.3535L190.646 84.3535L191 84.7071L191.354 84.3535L198.354 77.3535L198.707 77L198.354 76.6464L191.354 69.6464ZM185.207 77.5L190.5 82.7928V77.5H185.207ZM191.5 82.7928L196.793 77.5H191.5V82.7928ZM196.793 76.5L191.5 71.2071V76.5H196.793ZM190.5 71.2071L185.207 76.5H190.5V71.2071Z" fill="#110529"/>
<path fill-rule="evenodd" clip-rule="evenodd" d="M30.5 111.021C27.5851 111.261 25.261 113.585 25.0205 116.5L30.5 116.5V111.021ZM25.0205 117.5C25.261 120.415 27.5851 122.739 30.5 122.979L30.5 117.5L25.0205 117.5ZM31.5 122.979C34.4149 122.739 36.739 120.415 36.9795 117.5H31.5L31.5 122.979ZM36.9795 116.5C36.739 113.585 34.4149 111.261 31.5 111.021V116.5H36.9795ZM31 110C27.134 110 24 113.134 24 117C24 120.866 27.134 124 31 124C34.866 124 38 120.866 38 117C38 113.134 34.866 110 31 110Z" fill="#110529"/>
<path fill-rule="evenodd" clip-rule="evenodd" d="M70.441 110.118L71 109L71.559 110.118L72 111H76.882H78L77.5 112L75 117L77.5 122L78 123H76.882H72L71.559 123.882L71 125L70.441 123.882L70 123H65.118H64L64.5 122L67 117L64.5 112L64 111H65.118H70L70.441 110.118ZM69.5 112H65.618L67.559 115.882L69.5 112ZM67.559 118.118L65.618 122H69.5L67.559 118.118ZM70.618 122L68.118 117L70.618 112H71.382L73.882 117L71.382 122H70.618ZM72.5 122H76.382L74.441 118.118L72.5 122ZM74.441 115.882L76.382 112H72.5L74.441 115.882Z" fill="#110529"/>
<path fill-rule="evenodd" clip-rule="evenodd" d="M105 110.5H104.5V111V123V123.5H105H117H117.5V123V111V110.5H117H105ZM105.5 116.5V111.5H110.5V116.5H105.5ZM105.5 117.5V122.5H110.5V117.5H105.5ZM111.5 122.5H116.5V117.5H111.5V122.5ZM116.5 116.5V111.5H111.5V116.5H116.5Z" fill="#110529"/>
<path fill-rule="evenodd" clip-rule="evenodd" d="M147.48 112.773C148.434 111.978 149.661 111.5 151 111.5C152.339 111.5 153.566 111.978 154.52 112.773L151 116.293L147.48 112.773ZM146.771 112.064L145.354 110.646L144.646 111.354L146.064 112.771C145.089 113.908 144.5 115.385 144.5 117C144.5 118.615 145.089 120.092 146.064 121.229L144.646 122.646L145.354 123.354L146.771 121.936C147.908 122.911 149.385 123.5 151 123.5C152.615 123.5 154.092 122.911 155.229 121.936L156.646 123.354L157.354 122.646L155.936 121.229C156.911 120.092 157.5 118.615 157.5 117C157.5 115.385 156.911 113.908 155.936 112.771L157.354 111.354L156.646 110.646L155.229 112.064C154.092 111.089 152.615 110.5 151 110.5C149.385 110.5 147.908 111.089 146.771 112.064ZM155.227 113.48L151.707 117L155.227 120.52C156.022 119.566 156.5 118.339 156.5 117C156.5 115.661 156.022 114.434 155.227 113.48ZM154.52 121.227L151 117.707L147.48 121.227C148.434 122.022 149.661 122.5 151 122.5C152.339 122.5 153.566 122.022 154.52 121.227ZM146.773 120.52L150.293 117L146.773 113.48C145.978 114.434 145.5 115.661 145.5 117C145.5 118.339 145.978 119.566 146.773 120.52Z" fill="#110529"/>
<path fill-rule="evenodd" clip-rule="evenodd" d="M185 110.5H184.5V111V123V123.5H185H197H197.5V123V111V110.5H197H185ZM196.5 120.882V111.5H191.809L196.5 120.882ZM190.191 111.5H185.5V120.882L190.191 111.5ZM185.809 122.5H196.191L191 112.118L185.809 122.5Z" fill="#110529"/>
<rect x="25" y="151" width="12" height="12" fill="#110529"/>
<circle cx="71" cy="157" r="6" fill="#110529"/>
<path d="M111 151L118 163H104L111 151Z" fill="#110529"/>
<path d="M151 163L158 151H144L151 163Z" fill="#110529"/>
<path d="M191 150L198 157L191 164L184 157L191 150Z" fill="#110529"/>
<rect x="25" y="191" width="12" height="12" fill="#C1ADFF" stroke="#110529"/>
<circle cx="71" cy="197" r="6" fill="#C1ADFF" stroke="#110529"/>
<path d="M111 190L118 202H104L111 190Z" fill="#C1ADFF" stroke="#110529"/>
<path d="M151 203L158 191H144L151 203Z" fill="#C1ADFF" stroke="#110529"/>
<path d="M191 190L198 197L191 204L184 197L191 190Z" fill="#C1ADFF" stroke="#110529"/>
</svg>
