<svg width="24" height="24" viewBox="0 0 24 24" fill="none" xmlns="http://www.w3.org/2000/svg">
<path fill-rule="evenodd" clip-rule="evenodd" d="M3.00003 13.9848L21 13.9848V15.4848L3.00003 15.4848L3.00003 13.9848Z" fill="#110529"/>
<path fill-rule="evenodd" clip-rule="evenodd" d="M15.5304 20.2045L14.4697 21.2652L12 18.7955L9.53036 21.2652L8.4697 20.2045L12 16.6742L15.5304 20.2045Z" fill="#110529"/>
<path fill-rule="evenodd" clip-rule="evenodd" d="M4.5 5.5V10.5H19.5V5.5H4.5ZM4 4C3.44772 4 3 4.44772 3 5V11C3 11.5523 3.44772 12 4 12H20C20.5523 12 21 11.5523 21 11V5C21 4.44772 20.5523 4 20 4H4Z" fill="#110529"/>
</svg>
