<svg width="24" height="24" viewBox="0 0 24 24" fill="none" xmlns="http://www.w3.org/2000/svg">
<path fill-rule="evenodd" clip-rule="evenodd" d="M12.9805 2.04746C14.4753 2.19293 15.8737 2.66749 17.1022 3.39777L16.0012 4.49876C14.8597 3.88856 13.5625 3.53133 12.1847 3.50196C12.1408 3.50103 12.0969 3.50043 12.0529 3.50016C12.0353 3.50005 12.0176 3.5 12 3.5C11.7177 3.5 11.4391 3.51371 11.1647 3.54041L11.0194 2.04746C11.3421 2.01607 11.6692 2 12 2C12.0724 2 12.1446 2.00077 12.2166 2.0023C12.2775 2.00359 12.3383 2.00543 12.399 2.00781C12.41 2.00825 12.421 2.0087 12.432 2.00916C12.476 2.01103 12.5199 2.01319 12.5638 2.01563C12.7035 2.02339 12.8424 2.03402 12.9805 2.04746ZM9.5311 3.86369L9.09617 2.42813C8.46374 2.61974 7.8578 2.87231 7.28519 3.17901L7.99343 4.50128C8.47989 4.24073 8.99436 4.02631 9.5311 3.86369ZM6.60821 5.42858L5.65597 4.2696C5.1499 4.68539 4.68539 5.14991 4.2696 5.65597L5.42858 6.60821C5.78236 6.17763 6.17763 5.78236 6.60821 5.42858ZM4.50128 7.99343L3.17901 7.2852C2.87231 7.8578 2.61974 8.46374 2.42813 9.09617L3.86369 9.5311C4.02631 8.99436 4.24072 8.47989 4.50128 7.99343ZM2 12C2 11.6692 2.01607 11.3421 2.04746 11.0195L3.54041 11.1647C3.51371 11.4391 3.5 11.7177 3.5 12C3.5 12.2823 3.51371 12.5609 3.54041 12.8353L2.04746 12.9806C2.01607 12.6579 2 12.3308 2 12ZM3.86369 14.4689L2.42813 14.9038C2.61974 15.5363 2.87231 16.1422 3.17901 16.7148L4.50128 16.0066C4.24073 15.5201 4.02631 15.0056 3.86369 14.4689ZM5.42858 17.3918L4.2696 18.344C4.68539 18.8501 5.1499 19.3146 5.65597 19.7304L6.60821 18.5714C6.17763 18.2176 5.78236 17.8224 5.42858 17.3918ZM7.99343 19.4987L7.28519 20.821C7.8578 21.1277 8.46374 21.3803 9.09617 21.5719L9.5311 20.1363C8.99436 19.9737 8.47989 19.7593 7.99343 19.4987ZM11.1647 20.4596L11.0195 21.9525C11.3421 21.9839 11.6692 22 12 22C12.0207 22 12.0413 21.9999 12.062 21.9998C12.3717 21.9979 12.6781 21.982 12.9805 21.9525C18.0432 21.4598 22 17.192 22 12C22 11.2275 21.9124 10.4755 21.7466 9.75337L20.4478 11.0522C20.4823 11.3634 20.5 11.6796 20.5 12C20.5 16.6239 16.8079 20.3854 12.211 20.4974C12.1409 20.4991 12.0706 20.5 12 20.5C11.7177 20.5 11.4391 20.4863 11.1647 20.4596ZM20.5303 6.53033L19.4697 5.46967L11 13.9393L8.03034 10.9697L6.96968 12.0303L11 16.0607L20.5303 6.53033Z" fill="#110529"/>
</svg>
