<svg width="24" height="24" viewBox="0 0 24 24" fill="none" xmlns="http://www.w3.org/2000/svg">
<path fill-rule="evenodd" clip-rule="evenodd" d="M13.3587 3.67375L11.7677 2.08275L12.8284 1.02209L22.7279 10.9216L21.6672 11.9822L20.0762 10.3913L15.4285 15.039L13.9725 19.4069C13.6787 20.2884 12.5599 20.5525 11.9028 19.8955L8.40899 16.4017L3.28246 21.5282L2.2218 20.4675L7.34833 15.341L3.85452 11.8472C3.19746 11.1901 3.46158 10.0713 4.34312 9.77747L8.71096 8.32152L13.3587 3.67375ZM14.4194 4.73441L9.52123 9.63257L5.20121 11.0726L12.6774 18.5488L14.1174 14.2288L19.0156 9.3306L14.4194 4.73441ZM10.7071 10.568L14.2426 7.0325L15.3033 8.09316L11.7677 11.6287L10.7071 10.568Z" fill="#110529"/>
</svg>
