<svg width="24" height="24" viewBox="0 0 24 24" fill="none" xmlns="http://www.w3.org/2000/svg">
<path fill-rule="evenodd" clip-rule="evenodd" d="M17.5979 4.89862C16.3286 3.62942 14.2709 3.62942 13.0017 4.89862L6.6377 11.2626C4.58744 13.3128 4.58744 16.6369 6.6377 18.6872C8.68795 20.7375 12.0121 20.7375 14.0623 18.6872L19.0121 13.7375L20.0727 14.7981L15.123 19.7479C12.4869 22.3839 8.21307 22.3839 5.57704 19.7479C2.941 17.1118 2.941 12.838 5.57704 10.2019L11.941 3.83796C13.796 1.98297 16.8035 1.98297 18.6585 3.83796C20.5135 5.69295 20.5135 8.70048 18.6585 10.5555L12.2945 16.9194C11.2206 17.9934 9.4794 17.9934 8.40546 16.9194C7.33152 15.8455 7.33152 14.1043 8.40546 13.0303L13.3552 8.0806L14.4159 9.14126L9.46612 14.091C8.97797 14.5792 8.97797 15.3706 9.46612 15.8588C9.95428 16.3469 10.7457 16.3469 11.2339 15.8588L17.5979 9.49481C18.8671 8.22561 18.8671 6.16782 17.5979 4.89862Z" fill="#110529"/>
</svg>
