<svg width="24" height="24" viewBox="0 0 24 24" fill="none" xmlns="http://www.w3.org/2000/svg">
<path d="M12.0156 9.96273C12.6057 9.96275 13.1629 10.2123 13.5928 10.6541L13.7686 10.8553L13.7695 10.8563L16.8174 14.7235C17.2304 15.2438 17.5726 15.8355 17.5098 16.5155C17.4471 17.1916 17.006 17.7224 16.4883 18.1815L15.0859 19.4364L15.4004 20.8241L15.4023 20.8309C15.5422 21.4769 15.3714 22.1055 14.9482 22.5643C14.5326 23.0148 13.9253 23.2498 13.2695 23.2498H13.2666L10.7461 23.2391V23.2381C9.49154 23.2363 8.30397 22.1755 8.61816 20.8114L8.93652 19.4129L7.54199 18.1707V18.1698C7.00174 17.7212 6.55884 17.1916 6.50488 16.5067C6.45147 15.8257 6.80347 15.2295 7.21289 14.7137H7.21387L10.2617 10.8553C10.7094 10.2888 11.3411 9.96273 12.0156 9.96273ZM10.0811 21.1463L10.0801 21.1483C10.0526 21.268 10.0834 21.3969 10.1943 21.5164C10.3086 21.6394 10.5023 21.739 10.749 21.7391H10.752L13.2695 21.7489C13.5731 21.7488 13.7563 21.6444 13.8457 21.5477C13.9264 21.4602 13.9746 21.3351 13.9375 21.1551L13.6602 19.9295H10.3574L10.0811 21.1463ZM12.7598 13.6502C12.7594 14.0642 12.4238 14.4002 12.0098 14.4002C11.5959 14.4001 11.2601 14.0641 11.2598 13.6502V12.0116L8.38867 15.6453L8.3877 15.6463C8.02735 16.1003 7.99439 16.3056 8.00098 16.3895C8.00605 16.4513 8.04715 16.6076 8.36328 16.8973L8.5166 17.0311L8.53906 17.0496L10.0898 18.4295H13.9629L15.4902 17.0614L15.4932 17.0594C15.9442 16.6595 16.0088 16.4593 16.0166 16.3778C16.0238 16.3004 16.0003 16.1056 15.6436 15.6561L15.6416 15.6541L12.7598 11.9969V13.6502ZM10.6201 1.37972C11.383 0.616962 12.618 0.616871 13.3809 1.37972L14.1602 2.15999C14.8805 2.88057 14.9189 4.01103 14.2783 4.77718L18.6875 9.18636C18.9214 9.08554 19.1791 9.03011 19.4502 9.03011C19.5195 9.03013 19.5857 9.04277 19.6494 9.06038H20.5498C21.624 9.06038 22.5 9.93636 22.5 11.0106V12.1004C22.4996 13.1743 21.6238 14.0496 20.5498 14.0496H19.4502C18.3681 14.0496 17.5003 13.1556 17.5 12.0897V10.9901C17.5 10.7341 17.5506 10.4877 17.6416 10.2616L13.2148 5.8348C12.5159 6.39275 11.5264 6.40145 10.8184 5.86019C10.8055 5.85382 10.7938 5.84476 10.7812 5.83773L6.35742 10.2616C6.44856 10.4878 6.49999 10.7339 6.5 10.9901V12.0897C6.49974 13.1556 5.63192 14.0496 4.5498 14.0496H3.4502C2.37624 14.0496 1.50043 13.1743 1.5 12.1004V11.0106C1.5 9.93636 2.37598 9.06038 3.4502 9.06038H4.35059C4.41429 9.04277 4.4805 9.03013 4.5498 9.03011C4.82056 9.03011 5.07783 9.08576 5.31152 9.18636L9.71191 4.78597C9.08194 4.02002 9.12286 2.88987 9.83691 2.17269L10.6162 1.38265L10.6201 1.37972ZM4.5498 10.5604H3.4502C3.20441 10.5604 3 10.7648 3 11.0106V12.1004C3.00043 12.3459 3.20467 12.5496 3.4502 12.5496H4.5498C4.78739 12.5496 4.99974 12.3434 5 12.0897V10.9901C4.99998 10.7799 4.85384 10.6045 4.66895 10.5496C4.63018 10.5558 4.59032 10.5604 4.5498 10.5604ZM19.3301 10.5496C19.1456 10.6048 19 10.7803 19 10.9901V12.0897C19.0003 12.3434 19.2126 12.5496 19.4502 12.5496H20.5498C20.7953 12.5496 20.9996 12.3459 21 12.1004V11.0106C21 10.7648 20.7956 10.5604 20.5498 10.5604H19.4502C19.4094 10.5604 19.3692 10.5559 19.3301 10.5496ZM12.3193 2.44027C12.1423 2.26342 11.8577 2.26337 11.6807 2.44027L10.9033 3.22737L10.9004 3.2303C10.7455 3.38536 10.7264 3.62305 10.8428 3.79866L10.9004 3.86995L10.9033 3.87288L11.5508 4.52913C11.5965 4.55816 11.6413 4.59039 11.6807 4.62972C11.8577 4.80631 12.1423 4.8063 12.3193 4.62972L13.0996 3.84945C13.2766 3.67243 13.2764 3.39765 13.0996 3.22054L12.3193 2.44027Z" fill="#110529"/>
</svg>
