<svg width="24" height="24" viewBox="0 0 24 24" fill="none" xmlns="http://www.w3.org/2000/svg">
<path fill-rule="evenodd" clip-rule="evenodd" d="M21 6C21 4.34315 19.6569 3 18 3H6C4.34315 3 3 4.34315 3 6V18C3 19.6569 4.34315 21 6 21H18C19.6569 21 21 19.6569 21 18V6ZM6 4.5H9V7.5C9 8.32843 9.67157 9 10.5 9H13.5C14.3284 9 15 8.32843 15 7.5V4.5H18C18.8284 4.5 19.5 5.17157 19.5 6V18C19.5 18.8284 18.8284 19.5 18 19.5H6C5.17157 19.5 4.5 18.8284 4.5 18L4.5 6C4.5 5.17157 5.17157 4.5 6 4.5ZM10.5 7.5V4.5H13.5V7.5H10.5ZM9 13H6V14.5H9V13ZM6 17.75V16.25H12V17.75H6Z" fill="#110529"/>
</svg>
