<svg width="24" height="24" viewBox="0 0 24 24" fill="none" xmlns="http://www.w3.org/2000/svg">
<path fill-rule="evenodd" clip-rule="evenodd" d="M16.9207 5.25189C15.6515 3.98269 13.5938 3.98269 12.3245 5.25189L6.66769 10.9087C4.61744 12.959 4.61744 16.2831 6.66769 18.3334C8.71795 20.3836 12.0421 20.3836 14.0923 18.3334L18.7592 13.6665L19.8199 14.7271L15.153 19.394C12.5169 22.0301 8.24307 22.0301 5.60703 19.394C2.971 16.758 2.971 12.4841 5.60703 9.84808L11.2639 4.19123C13.1189 2.33624 16.1264 2.33624 17.9814 4.19123C19.8364 6.04622 19.8364 9.05375 17.9814 10.9087L12.6781 16.212C11.6042 17.286 9.86296 17.286 8.78901 16.212C7.71507 15.1381 7.71507 13.3969 8.78901 12.323L13.1024 8.00961L14.163 9.07027L9.84967 13.3836C9.36152 13.8718 9.36152 14.6632 9.84967 15.1514C10.3378 15.6395 11.1293 15.6395 11.6174 15.1514L16.9207 9.84808C18.1899 8.57888 18.1899 6.52109 16.9207 5.25189Z" fill="#110529"/>
</svg>
