<svg width="24" height="24" viewBox="0 0 24 24" fill="none" xmlns="http://www.w3.org/2000/svg">
<path fill-rule="evenodd" clip-rule="evenodd" d="M12 19.5C16.1421 19.5 19.5 16.1421 19.5 12C19.5 7.85786 16.1421 4.5 12 4.5V3C16.9706 3 21 7.02944 21 12C21 16.9706 16.9706 21 12 21C7.02944 21 3 16.9706 3 12C3 8.86954 4.59826 6.11238 7.02331 4.5H6.73067H3.5V3H9.5V9H8V5.65456C7.82851 5.76289 7.66172 5.87798 7.5 5.99945C5.67833 7.36776 4.5 9.54627 4.5 12C4.5 16.1421 7.85786 19.5 12 19.5Z" fill="#110529"/>
</svg>
