<svg width="210" height="66" viewBox="0 0 210 66" fill="none" xmlns="http://www.w3.org/2000/svg">
<rect x="1" y="1" width="208" height="64" rx="5" stroke="#9747FF" stroke-dasharray="10 5"/>
<path d="M29.815 39.225C27.6175 39.225 26.05 37.6575 26.05 35.46V31.74C26.05 29.5425 27.6175 27.975 29.815 27.975C32.0125 27.975 33.58 29.5425 33.58 31.74V35.46C33.58 37.6575 32.0125 39.225 29.815 39.225ZM27.6475 35.5575C27.6475 36.765 28.6075 37.725 29.815 37.725C31.0225 37.725 31.9825 36.765 31.9825 35.5575V31.6275C31.9825 30.4275 31.0225 29.4675 29.815 29.4675C28.6075 29.4675 27.6475 30.4275 27.6475 31.6275V35.5575Z" fill="#110529"/>
<path d="M36.874 33.375C35.389 33.375 34.174 32.175 34.174 30.675C34.174 29.205 35.434 27.975 36.874 27.975C38.359 27.975 39.574 29.175 39.574 30.675C39.574 32.175 38.359 33.375 36.874 33.375ZM35.5315 30.675C35.5315 31.4025 36.1465 32.0175 36.874 32.0175C37.6015 32.0175 38.2165 31.4025 38.2165 30.675C38.2165 29.9475 37.6015 29.3325 36.874 29.3325C36.1465 29.3325 35.5315 29.9475 35.5315 30.675Z" fill="#110529"/>
<path d="M62.7569 39V37.1175H57.8819V35.6325L61.3919 28.2H63.1844L59.6744 35.6325H62.7569V32.7075H64.3469V35.6325H65.4194V37.1175H64.3469V39H62.7569Z" fill="#CFD1DB"/>
<path d="M69.5225 39.225C67.8575 39.225 66.4625 38.1225 66.02 36.5475L67.5275 36.1425C67.775 37.1025 68.6675 37.71 69.5675 37.71C70.7525 37.71 71.69 36.7575 71.69 35.6025C71.69 34.4175 70.7225 33.4875 69.5675 33.4875C68.6825 33.4875 68.075 33.9075 67.7375 34.3575L66.3725 33.8775L66.7025 28.2H72.53V29.6775H68.105L67.925 32.6475C68.4575 32.265 69.1325 32.0625 69.77 32.0625C71.7875 32.0625 73.2725 33.5775 73.2725 35.6025C73.2725 37.6125 71.54 39.225 69.5225 39.225Z" fill="#CFD1DB"/>
<path d="M76.2651 33.375C74.7801 33.375 73.5651 32.175 73.5651 30.675C73.5651 29.205 74.8251 27.975 76.2651 27.975C77.7501 27.975 78.9651 29.175 78.9651 30.675C78.9651 32.175 77.7501 33.375 76.2651 33.375ZM74.9226 30.675C74.9226 31.4025 75.5376 32.0175 76.2651 32.0175C76.9926 32.0175 77.6076 31.4025 77.6076 30.675C77.6076 29.9475 76.9926 29.3325 76.2651 29.3325C75.5376 29.3325 74.9226 29.9475 74.9226 30.675Z" fill="#CFD1DB"/>
<path d="M97.6133 27.9825C99.7058 27.9825 101.326 29.6025 101.326 31.83V35.2725C101.326 37.635 99.7433 39.225 97.4558 39.225C96.3158 39.225 95.2883 38.79 94.5533 37.9425L95.7008 36.87C96.1133 37.4025 96.7583 37.74 97.4558 37.74C98.7983 37.74 99.7283 36.66 99.7283 35.475V34.185C99.1208 34.7925 98.2958 35.1525 97.4033 35.1525C95.3858 35.1525 93.9083 33.6225 93.9083 31.605C93.9083 29.58 95.5958 27.9825 97.6133 27.9825ZM95.4983 31.605C95.4983 32.775 96.4358 33.72 97.6058 33.72C98.7758 33.72 99.7283 32.775 99.7283 31.605C99.7283 30.45 98.7833 29.49 97.6133 29.49C96.4433 29.49 95.4983 30.435 95.4983 31.605Z" fill="#CFD1DB"/>
<path d="M106.285 39.225C104.087 39.225 102.52 37.6575 102.52 35.46V31.74C102.52 29.5425 104.087 27.975 106.285 27.975C108.482 27.975 110.05 29.5425 110.05 31.74V35.46C110.05 37.6575 108.482 39.225 106.285 39.225ZM104.117 35.5575C104.117 36.765 105.077 37.725 106.285 37.725C107.492 37.725 108.452 36.765 108.452 35.5575V31.6275C108.452 30.4275 107.492 29.4675 106.285 29.4675C105.077 29.4675 104.117 30.4275 104.117 31.6275V35.5575Z" fill="#CFD1DB"/>
<path d="M113.344 33.375C111.859 33.375 110.644 32.175 110.644 30.675C110.644 29.205 111.904 27.975 113.344 27.975C114.829 27.975 116.044 29.175 116.044 30.675C116.044 32.175 114.829 33.375 113.344 33.375ZM112.001 30.675C112.001 31.4025 112.616 32.0175 113.344 32.0175C114.071 32.0175 114.686 31.4025 114.686 30.675C114.686 29.9475 114.071 29.3325 113.344 29.3325C112.616 29.3325 112.001 29.9475 112.001 30.675Z" fill="#CFD1DB"/>
</svg>
