<svg width="24" height="24" viewBox="0 0 24 24" fill="none" xmlns="http://www.w3.org/2000/svg">
<path fill-rule="evenodd" clip-rule="evenodd" d="M2.74999 12V9.96966C2.74999 7.34631 4.87664 5.21966 7.49999 5.21966L18.6893 5.21966L15.9697 2.49999L17.0303 1.43933L21.5606 5.96966L17.0303 10.5L15.9697 9.43933L18.6893 6.71966L7.49999 6.71966C5.70506 6.71966 4.24999 8.17474 4.24999 9.96966V12H2.74999Z" fill="#110529"/>
<path fill-rule="evenodd" clip-rule="evenodd" d="M21.25 12V14.0303C21.25 16.6537 19.1233 18.7803 16.5 18.7803H5.31065L8.03032 21.5L6.96966 22.5607L2.43933 18.0303L6.96966 13.5L8.03032 14.5607L5.31065 17.2803H16.5C18.2949 17.2803 19.75 15.8253 19.75 14.0303V12H21.25Z" fill="#110529"/>
</svg>
