<svg width="24" height="24" viewBox="0 0 24 24" fill="none" xmlns="http://www.w3.org/2000/svg">
<path d="M8.815 18.225C6.6175 18.225 5.05 16.6575 5.05 14.46V10.74C5.05 8.54248 6.6175 6.97498 8.815 6.97498C11.0125 6.97498 12.58 8.54248 12.58 10.74V14.46C12.58 16.6575 11.0125 18.225 8.815 18.225ZM6.6475 14.5575C6.6475 15.765 7.6075 16.725 8.815 16.725C10.0225 16.725 10.9825 15.765 10.9825 14.5575V10.6275C10.9825 9.42748 10.0225 8.46748 8.815 8.46748C7.6075 8.46748 6.6475 9.42748 6.6475 10.6275V14.5575Z" fill="#110529"/>
<path d="M15.874 12.375C14.389 12.375 13.174 11.175 13.174 9.67498C13.174 8.20497 14.434 6.97498 15.874 6.97498C17.359 6.97498 18.574 8.17498 18.574 9.67498C18.574 11.175 17.359 12.375 15.874 12.375ZM14.5315 9.67498C14.5315 10.4025 15.1465 11.0175 15.874 11.0175C16.6015 11.0175 17.2165 10.4025 17.2165 9.67498C17.2165 8.94748 16.6015 8.33248 15.874 8.33248C15.1465 8.33248 14.5315 8.94748 14.5315 9.67498Z" fill="#110529"/>
</svg>
