<svg width="24" height="24" viewBox="0 0 24 24" fill="none" xmlns="http://www.w3.org/2000/svg">
<path d="M12 16C14.2091 16 16 14.2091 16 12C16 11.1287 15.7215 10.3226 15.2486 9.66563L14.1651 10.7491C14.3781 11.1171 14.5 11.5443 14.5 12C14.5 13.3807 13.3807 14.5 12 14.5C10.6193 14.5 9.5 13.3807 9.5 12C9.5 10.6193 10.6193 9.49997 12 9.49997C12.1817 9.49997 12.3589 9.51936 12.5296 9.55618L13.7052 8.3806C13.1879 8.13648 12.6099 7.99997 12 7.99997C9.79086 7.99997 8 9.79083 8 12C8 14.2091 9.79086 16 12 16Z" fill="#110529"/>
<path fill-rule="evenodd" clip-rule="evenodd" d="M1.22822 11.5563C3.29493 7.64009 7.18349 3.00216 12 3.00018C16.8165 2.99821 20.7051 7.63981 22.7718 11.5563C22.9187 11.8347 22.9187 12.1662 22.7718 12.4445C20.7051 16.3606 16.8165 21.0021 12 21.0002C7.1835 20.9982 3.29495 16.3603 1.22824 12.4445C1.08132 12.1662 1.08131 11.8347 1.22822 11.5563ZM2.69212 12.0004C3.65846 13.7735 4.99567 15.6435 6.58637 17.0751C8.25803 18.5795 10.0921 19.4994 12.0006 19.5002C13.9082 19.501 15.7418 18.5816 17.4135 17.0768C19.0042 15.6448 20.3415 13.7739 21.3079 12.0004C20.3415 10.2266 19.0042 8.35563 17.4135 6.92363C15.7418 5.41875 13.9082 4.4994 12.0006 4.50018C10.0921 4.50097 8.25803 5.42089 6.58637 6.92536C4.99566 8.35696 3.65846 10.227 2.69212 12.0004Z" fill="#110529"/>
</svg>
