<svg width="24" height="24" viewBox="0 0 24 24" fill="none" xmlns="http://www.w3.org/2000/svg">
<path fill-rule="evenodd" clip-rule="evenodd" d="M11.7873 10.5498L8.00001 5.5H6.25001L11.3302 12.2736L12.2581 13.5108L16 18.5H17.75L12.7153 11.787L11.7873 10.5498ZM12.8639 9.48522L8.87001 4.16C8.79446 4.05928 8.67591 4 8.55001 4H4.85001C4.19077 4 3.81446 4.75261 4.21001 5.28L9.95622 12.9416L4.29264 19.6749C4.18322 19.805 4.2757 20.0036 4.4457 20.0036H5.78915C5.90721 20.0036 6.01924 19.9515 6.09525 19.8611L10.8801 14.1734L11.0581 14.4108L15.13 19.84C15.2055 19.9407 15.3241 20 15.45 20H19.15C19.8092 20 20.1855 19.2474 19.79 18.72L13.9153 10.887L13.7878 10.717L19.1601 4.3298C19.2696 4.19971 19.1771 4.00107 19.0071 4.00106L17.6639 4.00099C17.5458 4.00098 17.4337 4.05313 17.3577 4.14348L12.8639 9.48522Z" fill="#110529"/>
</svg>
