<svg width="24" height="24" viewBox="0 0 24 24" fill="none" xmlns="http://www.w3.org/2000/svg">
<path d="M16.7386 4.17836C16.8336 4.06529 16.9738 4 17.1215 4H18.422C18.8469 4 19.0782 4.49638 18.8048 4.82166L13.8002 10.7774L19.3466 18.4123C19.8268 19.0733 19.3546 20 18.5375 20H15.5072C15.3481 20 15.1985 19.9243 15.1043 19.796L11.1454 14.4066L6.5939 19.8217C6.4989 19.9347 6.35879 20 6.21114 20H4.90892C4.48404 20 4.25279 19.5036 4.52612 19.1783L9.9271 12.7508L4.66923 5.59196C4.18416 4.93151 4.65576 4 5.4752 4H8.62425C8.78431 4 8.9347 4.07663 9.02878 4.20614L12.593 9.11262L16.7386 4.17836ZM15.9736 18.3754H17.418L8.09416 5.53928H6.54412L15.9736 18.3754Z" fill="#110529"/>
</svg>
