<svg width="24" height="24" viewBox="0 0 24 24" fill="none" xmlns="http://www.w3.org/2000/svg">
<path d="M2 5.25H5.25V2H6.75V5.25V6.75V17.25H17.25H18.75H22V18.75H18.75V22H17.25V18.75H6.75H6.25C5.69772 18.75 5.25 18.3023 5.25 17.75V17.25V6.75H2V5.25Z" fill="#110529"/>
<path d="M18.75 6.25V6.75V15H17.25V6.75H9V5.25H17.25H17.75C18.3023 5.25 18.75 5.69772 18.75 6.25Z" fill="#110529"/>
<path fill-rule="evenodd" clip-rule="evenodd" d="M21.4678 3.59283L20.0928 4.96783L19.0322 3.90717L20.4072 2.53217L21.4678 3.59283ZM15.9678 9.09283L14.5928 10.4678L13.5322 9.40717L14.9072 8.03217L15.9678 9.09283ZM13.2178 11.8428L11.8428 13.2178L10.7822 12.1572L12.1572 10.7822L13.2178 11.8428ZM10.4678 14.5928L9.09282 15.9678L8.03217 14.9072L9.40717 13.5322L10.4678 14.5928ZM4.96783 20.0928L3.59283 21.4678L2.53217 20.4072L3.90717 19.0322L4.96783 20.0928Z" fill="#110529"/>
</svg>
