<svg width="24" height="24" viewBox="0 0 24 24" fill="none" xmlns="http://www.w3.org/2000/svg">
<path fill-rule="evenodd" clip-rule="evenodd" d="M2.25 20.5H21.75V22H2.25V20.5Z" fill="#110529"/>
<path fill-rule="evenodd" clip-rule="evenodd" d="M3.75 2.5L3.75 4L2.25 4L2.25 2.5L3.75 2.5Z" fill="#110529"/>
<path fill-rule="evenodd" clip-rule="evenodd" d="M3.75 5.5L3.75 7H2.25L2.25 5.5H3.75Z" fill="#110529"/>
<path fill-rule="evenodd" clip-rule="evenodd" d="M3.75 8.5L3.75 10H2.25L2.25 8.5H3.75Z" fill="#110529"/>
<path fill-rule="evenodd" clip-rule="evenodd" d="M3.75 11.5L3.75 13H2.25L2.25 11.5H3.75Z" fill="#110529"/>
<path fill-rule="evenodd" clip-rule="evenodd" d="M3.75 14.5L3.75 16H2.25L2.25 14.5H3.75Z" fill="#110529"/>
<path fill-rule="evenodd" clip-rule="evenodd" d="M3.75 17.5L3.75 19H2.25L2.25 17.5H3.75Z" fill="#110529"/>
<path d="M20 5C20 5.55228 19.5523 6 19 6C18.4477 6 18 5.55228 18 5C18 4.44772 18.4477 4 19 4C19.5523 4 20 4.44772 20 5Z" fill="#07AD3E"/>
<path d="M8 9C8.55228 9 9 8.55228 9 8C9 7.44772 8.55228 7 8 7C7.44772 7 7 7.44772 7 8C7 8.55228 7.44772 9 8 9Z" fill="#07AD3E"/>
<path d="M16 17C16.5523 17 17 16.5523 17 16C17 15.4477 16.5523 15 16 15C15.4477 15 15 15.4477 15 16C15 16.5523 15.4477 17 16 17Z" fill="#07AD3E"/>
<path d="M13 6C13.5523 6 14 5.55228 14 5C14 4.44772 13.5523 4 13 4C12.4477 4 12 4.44772 12 5C12 5.55228 12.4477 6 13 6Z" fill="#110529"/>
<path d="M16 9C16.5523 9 17 8.55228 17 8C17 7.44772 16.5523 7 16 7C15.4477 7 15 7.44772 15 8C15 8.55228 15.4477 9 16 9Z" fill="#110529"/>
<path d="M8 17C8.55228 17 9 16.5523 9 16C9 15.4477 8.55228 15 8 15C7.44772 15 7 15.4477 7 16C7 16.5523 7.44772 17 8 17Z" fill="#110529"/>
<path d="M20 11C20 11.5523 19.5523 12 19 12C18.4477 12 18 11.5523 18 11C18 10.4477 18.4477 10 19 10C19.5523 10 20 10.4477 20 11Z" fill="#110529"/>
<path d="M15 12C15.5523 12 16 11.5523 16 11C16 10.4477 15.5523 10 15 10C14.4477 10 14 10.4477 14 11C14 11.5523 14.4477 12 15 12Z" fill="#110529"/>
<path d="M10 13C10 13.5523 9.55228 14 9 14C8.44772 14 8 13.5523 8 13C8 12.4477 8.44772 12 9 12C9.55228 12 10 12.4477 10 13Z" fill="#110529"/>
<path d="M11 16C11.5523 16 12 15.5523 12 15C12 14.4477 11.5523 14 11 14C10.4477 14 10 14.4477 10 15C10 15.5523 10.4477 16 11 16Z" fill="#110529"/>
<path d="M14 9C14 9.55228 13.5523 10 13 10C12.4477 10 12 9.55228 12 9C12 8.44772 12.4477 8 13 8C13.5523 8 14 8.44772 14 9Z" fill="#110529"/>
<path d="M13 12C13 12.5523 12.5523 13 12 13C11.4477 13 11 12.5523 11 12C11 11.4477 11.4477 11 12 11C12.5523 11 13 11.4477 13 12Z" fill="#110529"/>
</svg>
