<svg width="24" height="24" viewBox="0 0 24 24" fill="none" xmlns="http://www.w3.org/2000/svg">
<path fill-rule="evenodd" clip-rule="evenodd" d="M6 3.75C4.75736 3.75 3.75 4.75736 3.75 6V18C3.75 19.2426 4.75736 20.25 6 20.25H7.25V15.5C7.25 14.8096 7.80964 14.25 8.5 14.25H15.5C16.1904 14.25 16.75 14.8096 16.75 15.5V20.25H18C19.2426 20.25 20.25 19.2426 20.25 18V9.82843C20.25 9.49691 20.1183 9.17896 19.8839 8.94454L15.0555 4.11612C14.821 3.8817 14.5031 3.75 14.1716 3.75H8.75V8.25H15.25V9.75H8.5C7.80964 9.75 7.25 9.19036 7.25 8.5V3.75H6ZM15.25 20.25V15.75H8.75V20.25H15.25ZM2.25 6C2.25 3.92893 3.92893 2.25 6 2.25H14.1716C14.9009 2.25 15.6004 2.53973 16.1161 3.05546L20.9445 7.88388C21.4603 8.39961 21.75 9.09908 21.75 9.82843V18C21.75 20.0711 20.0711 21.75 18 21.75H6C3.92893 21.75 2.25 20.0711 2.25 18V6Z" fill="#110529"/>
</svg>
