<svg width="24" height="24" viewBox="0 0 24 24" fill="none" xmlns="http://www.w3.org/2000/svg">
<path fill-rule="evenodd" clip-rule="evenodd" d="M15.4925 4.9065C14.306 5.28887 13.25 6.40227 13.25 8.4503V9.72395H12.5C10.8333 9.72395 8.96408 9.15158 7.32732 8.25682C6.11149 7.59216 4.97524 6.72286 4.12514 5.71858C3.89568 6.45765 3.84204 7.31878 3.98938 8.12114C4.21538 9.35189 4.84252 10.1562 5.67104 10.33L5.36308 11.798C4.9961 11.721 4.66717 11.588 4.37423 11.4114C4.50007 11.9955 4.76152 12.4016 5.05271 12.686C5.61571 13.2359 6.41546 13.4538 7.0273 13.4538V14.9538C6.64331 14.9538 6.20169 14.898 5.75076 14.7646C5.98621 15.2239 6.33634 15.5777 6.74371 15.836C7.52471 16.3312 8.51783 16.4725 9.3181 16.2724L9.95 17.6L9.5 17C9.95 17.6 9.95035 17.5998 9.95 17.6L9.94861 17.6011L9.94702 17.6023L9.94328 17.605L9.93354 17.6121C9.92603 17.6175 9.9165 17.6243 9.90494 17.6324C9.8818 17.6485 9.85051 17.6697 9.81094 17.6951C9.73179 17.746 9.61955 17.814 9.47323 17.8929C9.18048 18.0508 8.75184 18.2521 8.17965 18.4473C7.37854 18.7206 6.30051 18.9804 4.9256 19.0942C5.72942 19.5746 6.72867 19.9166 7.83649 20.0994C9.67426 20.4027 11.6864 20.2446 13.317 19.6559C15.2297 18.9654 16.8875 17.7801 18.0708 16.0474C19.2543 14.3144 19.9934 11.9891 19.9934 8.97081V8.64426L20.2289 8.42504L20.233 8.42102C20.2391 8.41492 20.2508 8.40307 20.2671 8.38555C20.2997 8.35046 20.3506 8.29301 20.4124 8.21399C20.5364 8.0555 20.7017 7.81342 20.8526 7.49377C21.0662 7.04145 21.2539 6.42843 21.2499 5.66223C20.8176 5.85778 20.2851 6.07814 19.8056 6.21481L19.3189 6.35349L19.0081 5.95413C18.1676 4.87402 16.7305 4.50756 15.4925 4.9065ZM21.5262 3.86042C21.7347 3.74965 21.9833 3.74359 22.1971 3.84408C22.4108 3.94459 22.5647 4.13992 22.6125 4.37125C22.9437 5.97669 22.6245 7.25403 22.2091 8.13413C22.0029 8.57078 21.7746 8.90713 21.594 9.13799C21.5577 9.18441 21.5233 9.22668 21.4912 9.26478C21.4444 12.3976 20.6485 14.9326 19.3095 16.8933C17.9288 18.9152 16.0008 20.2818 13.8263 21.0668C11.933 21.7504 9.65933 21.9205 7.59225 21.5794C5.53982 21.2407 3.56483 20.3745 2.404 18.8549C2.229 18.6258 2.2008 18.3166 2.33146 18.0597C2.46213 17.8027 2.72852 17.6433 3.01674 17.6498C4.40321 17.6807 5.53274 17.5535 6.4229 17.3702C6.25749 17.2907 6.09625 17.2016 5.94051 17.1028C4.86045 16.4181 4.04666 15.2683 3.94495 13.6996C3.07197 12.8088 2.59856 11.4582 2.87432 9.59647C2.70761 9.20868 2.58882 8.79926 2.51404 8.39206C2.23395 6.86677 2.49897 5.08047 3.39675 3.82492C3.54506 3.6175 3.7886 3.49965 4.04329 3.51205C4.29798 3.52444 4.52892 3.66539 4.65639 3.88623C5.32165 5.03879 6.56736 6.13187 8.04683 6.94065C9.26145 7.60464 10.5742 8.04434 11.7551 8.17967C11.8495 5.66935 13.257 4.05096 15.0325 3.47881C16.66 2.95431 18.5579 3.33182 19.8352 4.62607C20.1542 4.50813 20.4908 4.3619 20.7876 4.22406C21.0028 4.12412 21.189 4.03238 21.3211 3.96579C21.3871 3.93255 21.4393 3.90571 21.4745 3.88741L21.5143 3.86669L21.5238 3.86166L21.5262 3.86042C21.5262 3.86041 21.5261 3.86044 21.5262 3.86042Z" fill="#110529"/>
</svg>
