<svg width="24" height="24" viewBox="0 0 24 24" fill="none" xmlns="http://www.w3.org/2000/svg">
<path fill-rule="evenodd" clip-rule="evenodd" d="M4.67495 3.01812C4.8648 2.51547 5.3546 2.23424 5.84585 2.25833C7.26457 2.32789 8.30128 2.83426 9.40754 3.67199C10.1866 3.46899 11.1067 3.375 12 3.37501C12.8933 3.37501 13.8134 3.469 14.5925 3.67199C15.6987 2.83426 16.7354 2.32789 18.1541 2.25833C18.6454 2.23424 19.1352 2.51548 19.325 3.01813C19.7287 4.08704 19.718 5.4433 19.335 6.64231C19.868 7.45678 20.1641 8.1885 20.3234 8.85755C20.5001 9.5997 20.5 10.2355 20.5 10.7326V10.75C20.5 12.6217 19.6936 14.0191 18.4664 14.9936C17.566 15.7086 16.4535 16.187 15.2908 16.4917C15.7502 17.3758 15.7501 18.2409 15.75 18.9675L15.75 22H14.25V19C14.25 18.0112 14.2365 17.2972 13.4697 16.5303L13.8767 15.2602C15.3078 15.0217 16.6076 14.5543 17.5336 13.8189C18.4314 13.1059 19 12.1283 19 10.75C19 10.2496 18.9979 9.76665 18.8641 9.20498C18.732 8.6502 18.4628 7.9883 17.8897 7.18595L17.6513 6.85224L17.8036 6.47147C18.1626 5.57412 18.2122 4.54436 17.9955 3.77333C16.9986 3.8698 16.2376 4.27041 15.2185 5.08567L14.8999 5.34056L14.5128 5.21153C13.8641 4.9953 12.9506 4.87501 12 4.87501C11.0494 4.875 10.1359 4.99529 9.48718 5.21153L9.1001 5.34056L8.78148 5.08567C7.76241 4.27041 7.00143 3.86979 6.00448 3.77332C5.78783 4.54435 5.83741 5.57411 6.19636 6.47147L6.34866 6.85224L6.1103 7.18595C5.53719 7.9883 5.26795 8.65019 5.13585 9.20498C5.00212 9.76665 5 10.2496 5 10.75C5 12.1283 5.56857 13.1059 6.46641 13.8189C7.39242 14.5543 8.69219 15.0217 10.1233 15.2602L10.5303 16.5304C9.76351 17.2971 9.75 18.0112 9.75 19V22H8.25V20.7268C7.29892 20.6661 6.14535 20.4665 5.13577 19.9056C4.47606 19.5391 3.86979 19.0138 3.4321 18.2716C2.99437 17.5294 2.75 16.6122 2.75 15.5H4.25C4.25 16.3878 4.44313 17.0331 4.72415 17.5097C5.00521 17.9862 5.39894 18.3359 5.86423 18.5944C6.58408 18.9943 7.45339 19.1638 8.25 19.2231L8.25 18.9675C8.24989 18.2409 8.24977 17.3758 8.7092 16.4917C7.54651 16.187 6.43396 15.7086 5.53359 14.9936C4.30643 14.0191 3.5 12.6217 3.5 10.75V10.7326C3.49998 10.2355 3.49994 9.5997 3.67665 8.85755C3.83594 8.18851 4.13195 7.45678 4.66503 6.64231C4.282 5.4433 4.27124 4.08703 4.67495 3.01812Z" fill="#110529"/>
</svg>
