<svg width="24" height="24" viewBox="0 0 24 24" fill="none" xmlns="http://www.w3.org/2000/svg">
<path fill-rule="evenodd" clip-rule="evenodd" d="M12.75 5.5V1H11.25V5.5H12.75ZM12.75 23V18.5H11.25V23H12.75ZM5.5 12.75H1V11.25H5.5V12.75ZM18.5 12.75H23V11.25H18.5V12.75ZM17 12C17 14.7614 14.7614 17 12 17C9.23858 17 7 14.7614 7 12C7 9.23858 9.23858 7 12 7C14.7614 7 17 9.23858 17 12ZM15.5 12C15.5 13.933 13.933 15.5 12 15.5C10.067 15.5 8.5 13.933 8.5 12C8.5 10.067 10.067 8.5 12 8.5C13.933 8.5 15.5 10.067 15.5 12ZM6.96967 8.03033L4.96967 6.03033L6.03033 4.96967L8.03033 6.96967L6.96967 8.03033ZM17.0303 8.03033L19.0303 6.03033L17.9697 4.96967L15.9697 6.96967L17.0303 8.03033ZM4.96967 17.9697L6.96967 15.9697L8.03033 17.0303L6.03033 19.0303L4.96967 17.9697ZM17.9697 19.0303L15.9697 17.0303L17.0303 15.9697L19.0303 17.9697L17.9697 19.0303Z" fill="#110529"/>
</svg>
