<svg width="24" height="24" viewBox="0 0 24 24" fill="none" xmlns="http://www.w3.org/2000/svg">
<path d="M18.75 5.25V3H17.25V9H18.75V6.75H22V5.25H18.75Z" fill="#110529"/>
<path d="M15 6.75H2V5.25H15V6.75Z" fill="#110529"/>
<path d="M5.25 9V11.25H2V12.75H5.25V15H6.75V9H5.25Z" fill="#110529"/>
<path d="M22 11.25H9V12.75H22V11.25Z" fill="#110529"/>
<path d="M13.25 15V17.25H2V18.75H13.25V21H14.75V15H13.25Z" fill="#110529"/>
<path d="M22 17.25H17V18.75H22V17.25Z" fill="#110529"/>
<path d="M2 6.75H15V5.25H2V6.75Z" fill="#07AD3E"/>
<path d="M9 11.25H22V12.75H9V11.25Z" fill="#07AD3E"/>
<path d="M17 17.25H22V18.75H17V17.25Z" fill="#07AD3E"/>
</svg>
