<svg width="144" height="130" viewBox="0 0 144 130" fill="none" xmlns="http://www.w3.org/2000/svg">
<rect x="1" y="1" width="142" height="128" rx="5" stroke="#9747FF" stroke-dasharray="10 5"/>
<path fill-rule="evenodd" clip-rule="evenodd" d="M29.5 29.5V30.5H40.5V29.5H29.5ZM29 28C28.4477 28 28 28.4477 28 29V31C28 31.5523 28.4477 32 29 32H41C41.5523 32 42 31.5523 42 31V29C42 28.4477 41.5523 28 41 28H29Z" fill="#110529"/>
<path fill-rule="evenodd" clip-rule="evenodd" d="M29.5 35.5V36.5H36.5V35.5H29.5ZM29 34C28.4477 34 28 34.4477 28 35V37C28 37.5523 28.4477 38 29 38H37C37.5523 38 38 37.5523 38 37V35C38 34.4477 37.5523 34 37 34H29Z" fill="#110529"/>
<path fill-rule="evenodd" clip-rule="evenodd" d="M24.25 42V24H25.75V42H24.25Z" fill="#110529"/>
<path fill-rule="evenodd" clip-rule="evenodd" d="M24 71.5L42 71.5V73L24 73V71.5ZM24 76L32 76V77.5L24 77.5V76ZM24 82V80.5L40 80.5V82L24 82ZM24 85H34V86.5H24V85Z" fill="#110529"/>
<path fill-rule="evenodd" clip-rule="evenodd" d="M60 71.5L78 71.5V73L60 73V71.5ZM65 76L73 76V77.5L65 77.5V76ZM61 80.5L77 80.5V82L61 82L61 80.5ZM64 85H74V86.5H64V85Z" fill="#CFD1DB"/>
<path fill-rule="evenodd" clip-rule="evenodd" d="M96 71.5L114 71.5V73L96 73V71.5ZM106 76L114 76V77.5L106 77.5V76ZM98 82V80.5L114 80.5V82L98 82ZM104 85H114V86.5H104V85Z" fill="#CFD1DB"/>
<path fill-rule="evenodd" clip-rule="evenodd" d="M63.5 29.5V30.5H68.25H69.75H74.5V29.5H69.75H68.25H63.5ZM63 28C62.4477 28 62 28.4477 62 29V31C62 31.5523 62.4477 32 63 32H75C75.5523 32 76 31.5523 76 31V29C76 28.4477 75.5523 28 75 28H63Z" fill="#CFD1DB"/>
<path fill-rule="evenodd" clip-rule="evenodd" d="M65.5 35.5V36.5H68.25H69.75H72.5V35.5H69.75H68.25H65.5ZM65 34C64.4477 34 64 34.4477 64 35V37C64 37.5523 64.4477 38 65 38H73C73.5523 38 74 37.5523 74 37V35C74 34.4477 73.5523 34 73 34H65Z" fill="#CFD1DB"/>
<path fill-rule="evenodd" clip-rule="evenodd" d="M68.25 35.5V30.5H69.75V35.5H68.25ZM68.25 36.5V42H69.75V36.5H68.25ZM69.75 29.5H68.25V24H69.75V29.5Z" fill="#CFD1DB"/>
<path fill-rule="evenodd" clip-rule="evenodd" d="M97.5 29.5V30.5H108.5V29.5H97.5ZM97 28C96.4477 28 96 28.4477 96 29V31C96 31.5523 96.4477 32 97 32H109C109.552 32 110 31.5523 110 31V29C110 28.4477 109.552 28 109 28H97Z" fill="#CFD1DB"/>
<path fill-rule="evenodd" clip-rule="evenodd" d="M101.5 35.5V36.5H108.5V35.5H101.5ZM101 34C100.448 34 100 34.4477 100 35V37C100 37.5523 100.448 38 101 38H109C109.552 38 110 37.5523 110 37V35C110 34.4477 109.552 34 109 34H101Z" fill="#CFD1DB"/>
<path fill-rule="evenodd" clip-rule="evenodd" d="M112.25 42V24H113.75V42H112.25Z" fill="#CFD1DB"/>
</svg>
