<svg width="24" height="24" viewBox="0 0 24 24" fill="none" xmlns="http://www.w3.org/2000/svg">
<path fill-rule="evenodd" clip-rule="evenodd" d="M18.3578 4.67886C18.2104 4.60516 18.2104 4.3948 18.3578 4.32109L18.9404 4.02979C18.9791 4.01044 19.0105 3.97906 19.0298 3.94035L19.3211 3.35775C19.3948 3.21034 19.6052 3.21034 19.6789 3.35775L19.9702 3.94035C19.9895 3.97906 20.0209 4.01044 20.0596 4.02979L20.6422 4.32109C20.7896 4.3948 20.7896 4.60516 20.6422 4.67886L20.0596 4.97016C20.0209 4.98952 19.9895 5.0209 19.9702 5.05961L19.6789 5.64221C19.6052 5.78962 19.3948 5.78962 19.3211 5.64221L19.0298 5.05961C19.0105 5.0209 18.9791 4.98952 18.9404 4.97016L18.3578 4.67886ZM15.7321 5.58028L16.4602 7.4005C16.4856 7.46403 16.536 7.51436 16.5995 7.53977L18.4197 8.26786C18.6292 8.35167 18.6292 8.64828 18.4197 8.7321L16.5995 9.46019C16.536 9.4856 16.4856 9.53593 16.4602 9.59946L15.7321 11.4197C15.6483 11.6292 15.3517 11.6292 15.2679 11.4197L14.5398 9.59946C14.5144 9.53593 14.4641 9.4856 14.4005 9.46019L12.5803 8.7321C12.3708 8.64828 12.3708 8.35167 12.5803 8.26786L14.4005 7.53977C14.4641 7.51436 14.5144 7.46403 14.5398 7.4005L15.2679 5.58028C15.3517 5.37074 15.6483 5.37074 15.7321 5.58028ZM16 16.5C16.7628 16.5 17.5033 16.3992 18.2083 16.21C16.8583 18.1966 14.5802 19.5 12 19.5C7.85786 19.5 4.5 16.1422 4.5 12C4.5 9.41984 5.80343 7.14168 7.79007 5.79172C7.60082 6.4967 7.5 7.23722 7.5 8.00002C7.5 12.6944 11.3056 16.5 16 16.5ZM20.4845 15.0096C20.7207 14.3436 19.8778 13.8714 19.2523 14.2002C18.2806 14.711 17.174 15 16 15C12.134 15 9 11.866 9 8.00002C9 6.82598 9.28903 5.71946 9.79981 4.74771C10.1286 4.12218 9.6564 3.27928 8.99039 3.51554C5.49983 4.75376 3 8.08496 3 12C3 16.9706 7.02944 21 12 21C15.9151 21 19.2463 18.5002 20.4845 15.0096Z" fill="#110529"/>
</svg>
