<svg width="24" height="24" viewBox="0 0 24 24" fill="none" xmlns="http://www.w3.org/2000/svg">
<path fill-rule="evenodd" clip-rule="evenodd" d="M11.9998 8.25002C11.46 8.25002 10.9457 8.29149 10.4563 8.36792L9.7209 5.79401L8.27861 6.20609L8.99598 8.71686C7.80206 9.10593 6.78787 9.70418 5.94024 10.3799L4.03008 8.46972L2.96942 9.53038L4.83213 11.3931C4.71717 11.5129 4.60665 11.6331 4.50051 11.7531C3.73663 12.6166 3.19063 13.4775 2.83514 14.1223C2.65697 14.4455 2.52548 14.7166 2.43748 14.9095C2.39346 15.0061 2.36023 15.0832 2.33742 15.1378C2.32602 15.1651 2.31721 15.1868 2.31095 15.2024L2.30345 15.2213L2.30113 15.2272L2.30032 15.2293L2.3 15.2301C2.29987 15.2305 2.29974 15.2308 2.99975 15.5C3.69976 15.7693 3.69966 15.7695 3.69956 15.7698L3.69973 15.7694L3.7033 15.7604C3.7069 15.7514 3.71292 15.7366 3.72141 15.7162C3.73839 15.6756 3.76523 15.6131 3.80226 15.5319C3.87637 15.3694 3.99098 15.1327 4.14875 14.8465C4.46513 14.2726 4.95037 13.5084 5.624 12.7469C6.96939 11.2261 9.0303 9.75002 11.9998 9.75002C14.9692 9.75002 17.0301 11.2261 18.3755 12.7469C19.0491 13.5084 19.5344 14.2726 19.8508 14.8465C20.0085 15.1327 20.1231 15.3694 20.1972 15.5319C20.2343 15.6131 20.2611 15.6756 20.2781 15.7162C20.2866 15.7366 20.2926 15.7514 20.2962 15.7604L20.2998 15.7694L20.2999 15.7698C20.2999 15.7695 20.2997 15.7693 20.9998 15.5C21.6998 15.2308 21.6996 15.2305 21.6995 15.2301L21.6992 15.2293L21.6984 15.2272L21.6961 15.2213L21.6886 15.2024C21.6823 15.1868 21.6735 15.1651 21.6621 15.1378C21.6393 15.0832 21.6061 15.0061 21.562 14.9095C21.474 14.7166 21.3425 14.4455 21.1644 14.1223C20.8089 13.4775 20.2629 12.6166 19.499 11.7531C19.3929 11.6331 19.2823 11.5129 19.1674 11.3931L21.0301 9.53038L19.9694 8.46972L18.0593 10.3799C17.2116 9.70418 16.1975 9.10593 15.0035 8.71686L15.7209 6.20609L14.2786 5.79401L13.5432 8.36792C13.0538 8.29149 12.5395 8.25002 11.9998 8.25002ZM14.5 15C14.5 16.3807 13.3807 17.5 12 17.5C10.6193 17.5 9.5 16.3807 9.5 15C9.5 13.6193 10.6193 12.5 12 12.5C13.3807 12.5 14.5 13.6193 14.5 15ZM16 15C16 17.2091 14.2091 19 12 19C9.79086 19 8 17.2091 8 15C8 12.7909 9.79086 11 12 11C14.2091 11 16 12.7909 16 15Z" fill="#110529"/>
</svg>
