<svg width="24" height="24" viewBox="0 0 24 24" fill="none" xmlns="http://www.w3.org/2000/svg">
<path fill-rule="evenodd" clip-rule="evenodd" d="M10.2366 17.8789C11.5599 16.9062 12 16.4013 12 15.675C12 15.4092 11.8994 15.078 11.6197 14.6504C11.3374 14.2188 10.9334 13.7807 10.4557 13.3174C10.305 13.1713 10.1266 13.0044 9.94203 12.8316C9.62416 12.5342 9.2878 12.2195 9.0424 11.9636C8.82913 11.7413 8.59516 11.4759 8.40822 11.1836C8.23185 10.9079 8 10.4599 8 9.9C8 9.13472 8.34244 8.56655 8.63968 8.19377C8.83437 7.94959 9.10867 7.67924 9.29455 7.49604C9.34774 7.44362 9.39369 7.39833 9.42846 7.36283C9.82719 6.9558 10 6.68991 10 6.225C10 5.68211 9.79654 5.4176 9.05552 4.87893C8.99117 4.83215 8.91719 4.78074 8.83584 4.7242C8.60069 4.56075 8.30394 4.3545 8 4.09369C7.69606 4.3545 7.39931 4.56075 7.16416 4.7242C7.08281 4.78074 7.00883 4.83215 6.94448 4.87893C6.20346 5.4176 6 5.68211 6 6.225C6 6.67896 6.1611 6.91988 6.56011 7.31847C6.59241 7.35075 6.63339 7.39044 6.68038 7.43595C6.87013 7.61973 7.15786 7.89842 7.36815 8.16675C7.68052 8.56536 8 9.13864 8 9.9C8 10.4484 7.78618 10.8945 7.60414 11.1891C7.41614 11.4933 7.17981 11.7665 6.963 11.9949C6.69523 12.277 6.33747 12.6094 6.00452 12.9187C5.83808 13.0733 5.67784 13.2222 5.53815 13.3561C5.05836 13.8162 4.65636 14.2457 4.37577 14.6696C4.09901 15.0877 4 15.4114 4 15.675C4 16.4013 4.44006 16.9062 5.76335 17.8789C5.85368 17.9452 5.94904 18.0142 6.04838 18.0861C6.63235 18.5086 7.35394 19.0306 8 19.7103C8.64605 19.0306 9.36765 18.5086 9.95162 18.0861C10.051 18.0142 10.1463 17.9452 10.2366 17.8789ZM8.92378 20.9191C8.52245 21.3723 8.19481 21.8863 7.99999 22.5C7.80518 21.8863 7.47754 21.3723 7.07622 20.9191C6.51532 20.2856 5.8105 19.771 5.12321 19.2691C3.778 18.2869 2.5 17.3537 2.5 15.675C2.5 14.1229 3.8985 12.8257 5.04166 11.7653C5.83183 11.0324 6.5 10.4126 6.5 9.9C6.5 9.35328 6.11995 8.98392 5.69118 8.56723C5.13637 8.02803 4.5 7.40957 4.5 6.225C4.5 4.77869 5.41072 4.12926 6.31222 3.48641C6.55048 3.3165 6.78809 3.14706 7.00808 2.96349C7.46645 2.581 7.8483 2.13716 8 1.5C8.1517 2.13716 8.53355 2.581 8.99192 2.96349C9.21191 3.14706 9.44952 3.3165 9.68778 3.48641C10.5893 4.12926 11.5 4.77869 11.5 6.225C11.5 7.42819 10.8435 8.07606 10.2827 8.62941C9.86475 9.04185 9.5 9.40177 9.5 9.9C9.5 10.3667 10.14 10.964 10.908 11.6808C12.06 12.756 13.5 14.1 13.5 15.675C13.5 17.3537 12.222 18.2869 10.8768 19.2691C10.1895 19.771 9.48468 20.2857 8.92378 20.9191Z" fill="#110529"/>
<path fill-rule="evenodd" clip-rule="evenodd" d="M16 3C16 2.44772 16.4477 2 17 2C17.5523 2 18 2.44772 18 3C18 3.55228 17.5523 4 17 4C16.4477 4 16 3.55228 16 3ZM18 4.5C17.4477 4.5 17 4.94772 17 5.5C17 6.05228 17.4477 6.5 18 6.5C18.5523 6.5 19 6.05228 19 5.5C19 4.94772 18.5523 4.5 18 4.5ZM16 6C15.4477 6 15 6.44772 15 7C15 7.55228 15.4477 8 16 8C16.5523 8 17 7.55228 17 7C17 6.44772 16.5523 6 16 6ZM17 8.5C17 7.94772 17.4477 7.5 18 7.5C18.5523 7.5 19 7.94772 19 8.5C19 9.05228 18.5523 9.5 18 9.5C17.4477 9.5 17 9.05228 17 8.5ZM16 20.5C16 19.9477 16.4477 19.5 17 19.5C17.5523 19.5 18 19.9477 18 20.5C18 21.0523 17.5523 21.5 17 21.5C16.4477 21.5 16 21.0523 16 20.5ZM17 17C17 16.4477 17.4477 16 18 16C18.5523 16 19 16.4477 19 17C19 17.5523 18.5523 18 18 18C17.4477 18 17 17.5523 17 17ZM16 14C15.4477 14 15 14.4477 15 15C15 15.5523 15.4477 16 16 16C16.5523 16 17 15.5523 17 15C17 14.4477 16.5523 14 16 14ZM13 8.5C13 7.94772 13.4477 7.5 14 7.5C14.5523 7.5 15 7.94772 15 8.5C15 9.05228 14.5523 9.5 14 9.5C13.4477 9.5 13 9.05228 13 8.5ZM19 10C18.4477 10 18 10.4477 18 11C18 11.5523 18.4477 12 19 12C19.5523 12 20 11.5523 20 11C20 10.4477 19.5523 10 19 10ZM19 7C19 6.44772 19.4477 6 20 6C20.5523 6 21 6.44772 21 7C21 7.55228 20.5523 8 20 8C19.4477 8 19 7.55228 19 7ZM16 12.5C16 11.9477 16.4477 11.5 17 11.5C17.5523 11.5 18 11.9477 18 12.5C18 13.0523 17.5523 13.5 17 13.5C16.4477 13.5 16 13.0523 16 12.5ZM16 9C15.4477 9 15 9.44772 15 10C15 10.5523 15.4477 11 16 11C16.5523 11 17 10.5523 17 10C17 9.44772 16.5523 9 16 9Z" fill="#07AD3E"/>
</svg>
