<svg width="24" height="24" viewBox="0 0 24 24" fill="none" xmlns="http://www.w3.org/2000/svg">
<path fill-rule="evenodd" clip-rule="evenodd" d="M2.99975 8.49995C2.29974 8.76919 2.29987 8.76951 2.3 8.76986L2.30032 8.77068L2.30113 8.77277L2.30345 8.77872L2.31094 8.79759C2.3172 8.81321 2.32601 8.83487 2.33742 8.86217C2.36023 8.91674 2.39345 8.99391 2.43748 9.09045C2.52547 9.2834 2.65696 9.55447 2.83513 9.87766C3.19063 10.5225 3.73663 11.3834 4.5005 12.2469C4.60665 12.3669 4.71718 12.4871 4.83214 12.6069L2.96942 14.4696L4.03008 15.5303L5.94026 13.6201C6.78788 14.2958 7.80206 14.894 8.99598 15.2831L8.27861 17.7939L9.7209 18.206L10.4563 15.6321C10.9457 15.7085 11.46 15.75 11.9998 15.75C12.5395 15.75 13.0538 15.7085 13.5432 15.6321L14.2786 18.206L15.7209 17.7939L15.0035 15.2831C16.1974 14.894 17.2116 14.2958 18.0592 13.6201L19.9694 15.5303L21.0301 14.4696L19.1674 12.6069C19.2823 12.4871 19.3929 12.3669 19.499 12.2469C20.2629 11.3834 20.8089 10.5225 21.1644 9.87766C21.3425 9.55447 21.474 9.2834 21.562 9.09045C21.606 8.99391 21.6393 8.91674 21.6621 8.86217C21.6735 8.83487 21.6823 8.81321 21.6886 8.79759L21.696 8.77872L21.6984 8.77277L21.6992 8.77068L21.6995 8.76986C21.6996 8.76951 21.6998 8.76919 20.9998 8.49995C20.2997 8.23072 20.2998 8.23044 20.2999 8.23019L20.2998 8.23061L20.2962 8.23961C20.2926 8.24858 20.2866 8.26342 20.2781 8.28373C20.2611 8.32437 20.2343 8.38685 20.1972 8.46805C20.1231 8.63056 20.0085 8.86731 19.8508 9.15349C19.5344 9.72739 19.0491 10.4915 18.3755 11.253C17.0301 12.7739 14.9692 14.25 11.9998 14.25C9.03029 14.25 6.96939 12.7739 5.624 11.253C4.95037 10.4915 4.46512 9.72739 4.14874 9.15349C3.99098 8.86731 3.87637 8.63056 3.80226 8.46805C3.76523 8.38685 3.73839 8.32437 3.72141 8.28373C3.71291 8.26342 3.70689 8.24858 3.7033 8.23961L3.69972 8.23061L3.69956 8.23019C3.69965 8.23044 3.69976 8.23072 2.99975 8.49995ZM3.69931 8.22955C3.69933 8.22962 3.69938 8.22974 3.69945 8.22992L3.69941 8.22982L3.69931 8.22955Z" fill="#110529"/>
</svg>
