<svg width="24" height="24" viewBox="0 0 24 24" fill="none" xmlns="http://www.w3.org/2000/svg">
<path fill-rule="evenodd" clip-rule="evenodd" d="M6.94448 4.87893C6.20346 5.4176 6 5.68211 6 6.225C6 6.67896 6.1611 6.91988 6.56011 7.31847C6.59241 7.35075 6.63339 7.39044 6.68038 7.43595C6.87013 7.61973 7.15786 7.89842 7.36815 8.16675C7.68052 8.56536 8 9.13864 8 9.9C8 10.4484 7.78618 10.8945 7.60414 11.1891C7.41614 11.4933 7.17981 11.7665 6.963 11.9949C6.69523 12.277 6.33747 12.6094 6.00452 12.9187C5.83808 13.0733 5.67784 13.2222 5.53815 13.3561C5.05836 13.8162 4.65636 14.2457 4.37577 14.6696C4.09901 15.0877 4 15.4114 4 15.675C4 16.4013 4.44006 16.9062 5.76335 17.8789C5.85368 17.9452 5.94904 18.0142 6.04838 18.0861C6.63235 18.5086 7.35394 19.0306 8 19.7103C8.64605 19.0306 9.36765 18.5086 9.95162 18.0861C10.051 18.0142 10.1463 17.9452 10.2366 17.8789C11.5599 16.9062 12 16.4013 12 15.675C12 15.4092 11.8994 15.078 11.6197 14.6504C11.3374 14.2188 10.9334 13.7807 10.4557 13.3174C10.305 13.1713 10.1266 13.0044 9.94203 12.8316C9.62416 12.5342 9.2878 12.2195 9.0424 11.9636C8.82913 11.7413 8.59516 11.4759 8.40822 11.1836C8.23185 10.9079 8 10.4599 8 9.9C8 9.13472 8.34244 8.56655 8.63968 8.19377C8.83437 7.94959 9.10867 7.67924 9.29455 7.49604C9.34774 7.44362 9.39369 7.39833 9.42846 7.36283C9.82719 6.9558 10 6.68991 10 6.225C10 5.68211 9.79654 5.4176 9.05552 4.87893C8.99117 4.83215 8.91719 4.78074 8.83584 4.7242C8.60069 4.56075 8.30394 4.3545 8 4.09369C7.69606 4.3545 7.39931 4.56075 7.16416 4.7242C7.08281 4.78074 7.00883 4.83215 6.94448 4.87893ZM7.00808 2.96349C6.78809 3.14706 6.55048 3.3165 6.31222 3.48641C5.41072 4.12926 4.5 4.77869 4.5 6.225C4.5 7.40957 5.13637 8.02803 5.69118 8.56723C6.11995 8.98392 6.5 9.35328 6.5 9.9C6.5 10.4126 5.83183 11.0324 5.04166 11.7653C3.8985 12.8257 2.5 14.1229 2.5 15.675C2.5 17.3537 3.778 18.2869 5.12321 19.2691C5.81049 19.771 6.51532 20.2856 7.07622 20.9191C7.47754 21.3723 7.80518 21.8863 7.99999 22.5C8.19481 21.8863 8.52245 21.3723 8.92378 20.9191C9.48468 20.2856 10.1895 19.771 10.8768 19.2691C12.222 18.2869 13.5 17.3537 13.5 15.675C13.5 14.1 12.06 12.756 10.908 11.6808C10.14 10.964 9.5 10.3667 9.5 9.9C9.5 9.40177 9.86475 9.04185 10.2827 8.62941C10.8435 8.07606 11.5 7.42819 11.5 6.225C11.5 4.77869 10.5893 4.12926 9.68778 3.48641C9.44952 3.3165 9.21191 3.14706 8.99192 2.96349C8.53355 2.581 8.1517 2.13716 8 1.5C7.8483 2.13716 7.46645 2.581 7.00808 2.96349Z" fill="#110529"/>
<path fill-rule="evenodd" clip-rule="evenodd" d="M18.3713 7.98694C19.314 8.89851 19.5 9.19287 19.5 9.5C19.5 9.80713 19.314 10.1015 18.3713 11.0131C18.3438 11.0396 18.3157 11.0668 18.287 11.0945C18.0514 11.3217 17.7766 11.5866 17.5 11.8951C17.2234 11.5866 16.9486 11.3217 16.713 11.0945C16.6843 11.0668 16.6562 11.0396 16.6287 11.0131C15.686 10.1015 15.5 9.80713 15.5 9.5C15.5 9.19287 15.686 8.89851 16.6287 7.98694C16.6562 7.96036 16.6843 7.93323 16.713 7.90554C16.9486 7.67834 17.2234 7.41341 17.5 7.10486C17.7766 7.41341 18.0514 7.67834 18.287 7.90554C18.3157 7.93323 18.3438 7.96036 18.3713 7.98694ZM18.4063 5.85632C17.9757 5.33195 17.6271 4.73737 17.5 4C17.3729 4.73737 17.0243 5.33195 16.5937 5.85632C16.283 6.23454 15.9297 6.57624 15.5859 6.90865C14.7656 7.70192 14 8.44231 14 9.5C14 10.5577 14.7656 11.2981 15.5859 12.0913C15.9297 12.4238 16.283 12.7655 16.5937 13.1437C17.0243 13.668 17.3729 14.2626 17.5 15C17.6271 14.2626 17.9757 13.668 18.4063 13.1437C18.717 12.7655 19.0703 12.4238 19.4141 12.0913C20.2344 11.2981 21 10.5577 21 9.5C21 8.44231 20.2344 7.70192 19.4141 6.90865C19.0703 6.57624 18.717 6.23454 18.4063 5.85632Z" fill="#07AD3E"/>
<path fill-rule="evenodd" clip-rule="evenodd" d="M17.5 19C18.0523 19 18.5 18.5523 18.5 18C18.5 17.4477 18.0523 17 17.5 17C16.9477 17 16.5 17.4477 16.5 18C16.5 18.5523 16.9477 19 17.5 19Z" fill="#07AD3E"/>
</svg>
