<svg width="24" height="24" viewBox="0 0 24 24" fill="none" xmlns="http://www.w3.org/2000/svg">
<path fill-rule="evenodd" clip-rule="evenodd" d="M19.7942 16L13.732 5.5C12.9622 4.16667 11.0377 4.16667 10.2679 5.5L4.20577 16C3.43597 17.3333 4.39822 19 5.93782 19H8.5V20.5H5.93782C3.24352 20.5 1.55958 17.5833 2.90673 15.25L8.96891 4.75C10.3161 2.41667 13.6839 2.41667 15.0311 4.75L21.0933 15.25C22.4404 17.5833 20.7565 20.5 18.0622 20.5H15.5V19H18.0622C19.6018 19 20.564 17.3333 19.7942 16ZM12.75 8.5V16.5H11.25V8.5H12.75ZM11.25 19V20.5H12.75V19H11.25Z" fill="#110529"/>
</svg>
