<svg width="24" height="24" viewBox="0 0 24 24" fill="none" xmlns="http://www.w3.org/2000/svg">
<path d="M13 12.5C13.2761 12.5 13.5 12.2761 13.5 12C13.5 11.7239 13.2761 11.5 13 11.5C12.7239 11.5 12.5 11.7239 12.5 12C12.5 12.2761 12.7239 12.5 13 12.5Z" fill="#110529"/>
<path fill-rule="evenodd" clip-rule="evenodd" d="M12 19.5C8.96243 19.5 6.5 17.0376 6.5 14C6.5 13.7786 6.51308 13.5603 6.53852 13.3457C7.10828 13.1988 8.05414 13 9 13C10.5 13 12 13.5 12 13.5C12 13.5 12.8996 13.7999 14.0021 13.9351C14.0355 13.4131 14.4695 13 15 13C15.5305 13 15.9645 13.4131 15.9979 13.9351C16.589 13.8626 17.1218 13.7428 17.4889 13.6472C17.4963 13.7639 17.5 13.8815 17.5 14C17.5 17.0376 15.0376 19.5 12 19.5ZM9 16C9.55228 16 10 15.5523 10 15C10 14.4477 9.55228 14 9 14C8.44772 14 8 14.4477 8 15C8 15.5523 8.44772 16 9 16ZM11 17.5C11.2761 17.5 11.5 17.2761 11.5 17C11.5 16.7239 11.2761 16.5 11 16.5C10.7239 16.5 10.5 16.7239 10.5 17C10.5 17.2761 10.7239 17.5 11 17.5Z" fill="#110529"/>
<path fill-rule="evenodd" clip-rule="evenodd" d="M6.75 2.5C6.75 1.80964 7.30964 1.25 8 1.25H16C16.6904 1.25 17.25 1.80964 17.25 2.5V6C17.25 6.30168 17.1431 6.5784 16.9652 6.79436C19.2507 8.3722 20.75 11.0105 20.75 14C20.75 18.8325 16.8325 22.75 12 22.75C7.16751 22.75 3.25 18.8325 3.25 14C3.25 11.0105 4.7493 8.3722 7.03482 6.79436C6.85687 6.5784 6.75 6.30168 6.75 6V2.5ZM8.25 2.75V5.75H9.25V7.27307L8.82855 7.47844C6.4123 8.65589 4.75 11.1345 4.75 14C4.75 18.0041 7.99594 21.25 12 21.25C16.0041 21.25 19.25 18.0041 19.25 14C19.25 11.1345 17.5877 8.65589 15.1715 7.47844L14.75 7.27307V5.75H15.75V2.75H8.25Z" fill="#110529"/>
</svg>
