<svg width="16" height="16" viewBox="0 0 16 16" fill="none" xmlns="http://www.w3.org/2000/svg">
<path fill-rule="evenodd" clip-rule="evenodd" d="M7.50001 0.288668C7.80941 0.110035 8.19061 0.110035 8.50001 0.288668L14.4282 3.71132C14.7376 3.88995 14.9282 4.22008 14.9282 4.57734V11.4226C14.9282 11.7799 14.7376 12.11 14.4282 12.2887L8.50001 15.7113C8.19061 15.89 7.80941 15.89 7.50001 15.7113L1.57181 12.2887C1.26241 12.11 1.07181 11.7799 1.07181 11.4226V4.57734C1.07181 4.22008 1.26241 3.88995 1.57181 3.71132L7.50001 0.288668ZM3.34786 4.41796L8.00001 1.73204L12.6522 4.41796L8.00001 7.13172L3.34786 4.41796ZM2.57181 5.70182V11.134L7.25001 13.8349V8.43077L2.57181 5.70182ZM8.75001 13.8349L13.4282 11.134V5.70182L8.75001 8.43077V13.8349Z" fill="#110529"/>
</svg>
