<svg width="16" height="16" viewBox="0 0 16 16" fill="none" xmlns="http://www.w3.org/2000/svg">
<path fill-rule="evenodd" clip-rule="evenodd" d="M0.707109 3.7929C0.316584 4.18342 0.316584 4.81658 0.707108 5.20711L2.7929 7.2929C3.18342 7.68342 3.81658 7.68342 4.20711 7.2929L6.25 5.25L15 5.25L15 3.75L6.25 3.75L4.20711 1.70711C3.81658 1.31658 3.18342 1.31658 2.7929 1.70711L0.707109 3.7929ZM2.12132 4.5L3.5 5.87868L4.87868 4.5L3.5 3.12132L2.12132 4.5Z" fill="#110529"/>
<path fill-rule="evenodd" clip-rule="evenodd" d="M9.75 10.75L11.7929 8.70711C12.1834 8.31658 12.8166 8.31658 13.2071 8.70711L15.2929 10.7929C15.6834 11.1834 15.6834 11.8166 15.2929 12.2071L13.2071 14.2929C12.8166 14.6834 12.1834 14.6834 11.7929 14.2929L9.75 12.25H1V10.75H9.75ZM12.5 12.8787L11.1213 11.5L12.5 10.1213L13.8787 11.5L12.5 12.8787Z" fill="#110529"/>
</svg>
