<svg width="24" height="24" viewBox="0 0 24 24" fill="none" xmlns="http://www.w3.org/2000/svg">
<path d="M22 4C22 4.82843 21.3284 5.5 20.5 5.5C20.0285 5.5 19.6078 5.28242 19.3328 4.94219L5 10.0008C4.99956 10.8289 4.32815 11.5 3.5 11.5C2.67157 11.5 2 10.8284 2 10C2 9.17157 2.67157 8.5 3.5 8.5C3.97153 8.5 4.39225 8.71757 4.66723 9.05781L19 3.99918C19.0004 3.17113 19.6718 2.5 20.5 2.5C21.3284 2.5 22 3.17157 22 4Z" fill="#110529"/>
<path d="M20.5 9.5C21.3284 9.5 22 8.82843 22 8C22 7.17157 21.3284 6.5 20.5 6.5C19.6716 6.5 19 7.17157 19 8C19 8.14117 19.0195 8.27779 19.056 8.4073L4.36713 18.7759C4.12229 18.6021 3.82308 18.5 3.5 18.5C2.67157 18.5 2 19.1716 2 20C2 20.8284 2.67157 21.5 3.5 21.5C4.32843 21.5 5 20.8284 5 20C5 19.8588 4.9805 19.7222 4.94404 19.5927L19.6329 9.22411C19.8777 9.39786 20.1769 9.5 20.5 9.5Z" fill="#110529"/>
<path d="M22 20C22 19.1716 21.3284 18.5 20.5 18.5C20.0285 18.5 19.6078 18.7176 19.3328 19.0578L5 13.9992C4.99956 13.1711 4.32815 12.5 3.5 12.5C2.67157 12.5 2 13.1716 2 14C2 14.8284 2.67157 15.5 3.5 15.5C3.97153 15.5 4.39225 15.2824 4.66723 14.9422L19 20.0008C19.0004 20.8289 19.6718 21.5 20.5 21.5C21.3284 21.5 22 20.8284 22 20Z" fill="#07AD3E"/>
<path d="M20.5 14.5C21.3284 14.5 22 15.1716 22 16C22 16.8284 21.3284 17.5 20.5 17.5C19.6716 17.5 19 16.8284 19 16C19 15.8588 19.0195 15.7222 19.056 15.5927L4.36713 5.22411C4.12229 5.39786 3.82308 5.5 3.5 5.5C2.67157 5.5 2 4.82843 2 4C2 3.17157 2.67157 2.5 3.5 2.5C4.32843 2.5 5 3.17157 5 4C5 4.14117 4.9805 4.27779 4.94404 4.4073L19.6329 14.7759C19.8777 14.6021 20.1769 14.5 20.5 14.5Z" fill="#07AD3E"/>
</svg>
