<svg width="24" height="24" viewBox="0 0 24 24" fill="none" xmlns="http://www.w3.org/2000/svg">
<path fill-rule="evenodd" clip-rule="evenodd" d="M14.5 2H9.5C8.67157 2 8 2.67157 8 3.5V5.5C8 6.32843 8.67157 7 9.5 7H14.5C15.3284 7 16 6.32843 16 5.5V3.5C16 2.67157 15.3284 2 14.5 2ZM14.5 3.5H9.5V5.5H14.5V3.5Z" fill="#110529"/>
<path d="M6 3.5H5.8125C4.2592 3.5 3 4.7592 3 6.3125V18.5C3 20.1569 4.34315 21.5 6 21.5H18C19.6569 21.5 21 20.1569 21 18.5V12H19.5V18.5C19.5 19.3284 18.8284 20 18 20H6C5.17157 20 4.5 19.3284 4.5 18.5V6.3125C4.5 5.58763 5.08763 5 5.8125 5H6V3.5Z" fill="#110529"/>
<path d="M21.0303 6.53033L19.9697 5.46967L11.5 13.9393L8.53033 10.9697L7.46967 12.0303L11.5 16.0607L21.0303 6.53033Z" fill="#110529"/>
</svg>
