<svg width="24" height="24" viewBox="0 0 24 24" fill="none" xmlns="http://www.w3.org/2000/svg">
<path fill-rule="evenodd" clip-rule="evenodd" d="M17.0981 7.16549C18.6721 8.96003 19.9996 11.148 19.9996 14C19.9996 18 16.8821 22 12.0001 22C7.25579 22 4.00031 18 4.00031 14C4.00031 10.7925 5.26004 7.16517 10.4728 3.11788C10.9482 2.74875 11.4565 2.37612 11.9998 2C11.9998 2.27109 11.9906 2.56974 11.9809 2.8835C11.9711 3.20218 11.9609 3.53643 11.9593 3.87323C11.9507 5.65125 12.1832 7.5 13.9998 7.5C14.4373 7.5 14.7897 7.37248 15.0694 7.1918C15.7491 6.7528 15.9997 6 15.9997 6C16.3701 6.3703 16.7405 6.75774 17.0981 7.16549ZM16.0972 8.30123C17.4841 9.91891 18.4996 11.7262 18.4996 14C18.4996 17.2816 15.9477 20.5 12.0001 20.5C8.1733 20.5 5.50031 17.2636 5.50031 14C5.50031 12.4873 5.81824 10.8829 6.85254 9.14078C7.60306 7.87666 8.75327 6.5027 10.4966 5.02816C10.5156 5.26824 10.5433 5.5095 10.5829 5.74669C10.6961 6.4259 10.9314 7.23461 11.4886 7.89186C12.1034 8.61698 12.9744 9 13.9998 9C14.8908 9 15.5848 8.68944 16.0972 8.30123Z" fill="#110529"/>
<path fill-rule="evenodd" clip-rule="evenodd" d="M12 12C9.5 14 8 16.0952 8 18C8 19.9048 9.5001 22 12.0001 22C14.5001 22 16 19.9048 16 18C16 16.0952 14.5 14 12 12ZM13.6968 15.8787C13.2842 15.2714 12.7171 14.6306 12 13.9723C11.2829 14.6306 10.7158 15.2714 10.3032 15.8787C9.72183 16.7344 9.5 17.4434 9.5 18C9.5 19.2251 10.4698 20.5 12.0001 20.5C13.5304 20.5 14.5 19.2251 14.5 18C14.5 17.4434 14.2782 16.7344 13.6968 15.8787Z" fill="#110529"/>
</svg>
