<svg width="24" height="24" viewBox="0 0 24 24" fill="none" xmlns="http://www.w3.org/2000/svg">
<path d="M14.5459 4.67852L14.9459 0.878524L13.4541 0.721497L13.0541 4.5215L14.5459 4.67852Z" fill="#110529"/>
<path fill-rule="evenodd" clip-rule="evenodd" d="M9.72538 3.41094L8.51175 4.02931L8.7054 8.98396L4.58319 11.7396L4.79627 13.0849L9.56825 14.4318L10.9151 19.2038L12.2605 19.4168L15.0161 15.2946L19.9707 15.4883L20.5891 14.2746L17.5201 10.3801L19.2354 5.72777L18.2722 4.76463L13.6199 6.47987L9.72538 3.41094ZM10.2207 9.34487L10.0741 5.59549L13.0213 7.91788C13.2262 8.07932 13.5002 8.12272 13.7449 8.03249L17.2655 6.7345L15.9675 10.2551C15.8773 10.4998 15.9207 10.7739 16.0821 10.9787L18.4045 13.9259L14.6551 13.7794C14.3945 13.7692 14.1473 13.8951 14.0023 14.112L11.9171 17.2314L10.8978 13.6203C10.827 13.3692 10.6308 13.1731 10.3797 13.1022L6.76858 12.083L9.88803 9.99768C10.1049 9.85272 10.2308 9.60551 10.2207 9.34487Z" fill="#110529"/>
<path d="M7.46967 15.4697L1.46967 21.4697L2.53033 22.5304L8.53033 16.5304L7.46967 15.4697Z" fill="#110529"/>
<path d="M4.13539 5.72923L7.33539 7.32923L6.66457 8.67087L3.46457 7.07087L4.13539 5.72923Z" fill="#110529"/>
<path d="M23.2785 10.5459L19.4785 10.9459L19.3215 9.45413L23.1215 9.05413L23.2785 10.5459Z" fill="#110529"/>
<path d="M15.3292 17.3354L16.9292 20.5354L18.2708 19.8646L16.6708 16.6646L15.3292 17.3354Z" fill="#110529"/>
</svg>
