<svg width="352" height="66" viewBox="0 0 352 66" fill="none" xmlns="http://www.w3.org/2000/svg">
<rect x="1" y="1" width="350" height="64" rx="5" stroke="#9747FF" stroke-dasharray="10 5"/>
<path fill-rule="evenodd" clip-rule="evenodd" d="M22 32.25H44V33.75H22V32.25Z" fill="#110529"/>
<path fill-rule="evenodd" clip-rule="evenodd" d="M66 32.25H75V33.75H66V32.25ZM79 32.25H88V33.75H79V32.25Z" fill="#110529"/>
<path fill-rule="evenodd" clip-rule="evenodd" d="M110 32.25H115V33.75H110V32.25ZM118.5 32.25H123.5V33.75H118.5V32.25ZM127 32.25H132V33.75H127V32.25Z" fill="#110529"/>
<path d="M155.75 32.25H154.25V33.75H155.75V32.25Z" fill="#110529"/>
<path d="M164.25 32.25H165.75V33.75H164.25V32.25Z" fill="#110529"/>
<path d="M175.75 32.25H174.25V33.75H175.75V32.25Z" fill="#110529"/>
<path d="M160.75 32.25H159.25V33.75H160.75V32.25Z" fill="#110529"/>
<path d="M169.25 32.25H170.75V33.75H169.25V32.25Z" fill="#110529"/>
<path fill-rule="evenodd" clip-rule="evenodd" d="M198 32.25H199.5V33.75H198V32.25ZM214 33.75H204V32.25H214V33.75ZM218.5 33.75V32.25H220V33.75H218.5Z" fill="#110529"/>
<path fill-rule="evenodd" clip-rule="evenodd" d="M242 32.25H245V33.75H242V32.25ZM258.026 33.75H248V32.25H258.026V33.75ZM261 33.75V32.25H264V33.75H261Z" fill="#110529"/>
</svg>
