<svg width="24" height="24" viewBox="0 0 24 24" fill="none" xmlns="http://www.w3.org/2000/svg">
<path fill-rule="evenodd" clip-rule="evenodd" d="M17.5509 5.23616C15.9861 3.95192 14.0243 3.25 12 3.25V1.75C14.3714 1.75 16.6694 2.57225 18.5025 4.07664C20.3356 5.58104 21.5904 7.6745 22.053 10.0003C22.5157 12.3261 22.1575 14.7404 21.0397 16.8318L19.7168 16.1247C20.6711 14.3394 20.9768 12.2784 20.5819 10.293C20.1869 8.3075 19.1158 6.5204 17.5509 5.23616ZM4.28321 7.87528C3.32893 9.66061 3.02321 11.7216 3.41814 13.707C3.81308 15.6925 4.88422 17.4796 6.44907 18.7638C8.01393 20.0481 9.97566 20.75 12 20.75V22.25C9.62863 22.25 7.3306 21.4278 5.49749 19.9234C3.66437 18.419 2.4096 16.3255 1.94697 13.9997C1.48433 11.6739 1.84246 9.25957 2.96032 7.16819L4.28321 7.87528Z" fill="#110529"/>
</svg>
