<svg width="182" height="130" viewBox="0 0 182 130" fill="none" xmlns="http://www.w3.org/2000/svg">
<rect x="1" y="1" width="180" height="128" rx="5" stroke="#9747FF" stroke-dasharray="10 5"/>
<path d="M35.25 42V24H36.75V42H35.25Z" fill="#110529"/>
<path d="M41.4697 29.4697L42.5303 30.5303L40.0607 33L42.5303 35.4697L41.4697 36.5303L37.9393 33L41.4697 29.4697Z" fill="#110529"/>
<path d="M33 26.25H26V27.75H33V26.25Z" fill="#110529"/>
<path d="M33 30.25L24 30.25V31.75L33 31.75V30.25Z" fill="#110529"/>
<path d="M33 34.25H28V35.75H33V34.25Z" fill="#110529"/>
<path d="M33 38.25L24 38.25V39.75L33 39.75V38.25Z" fill="#110529"/>
<path d="M107.25 24V42H108.75V24H107.25Z" fill="#110529"/>
<path d="M113.47 29.4697L109.939 33L113.47 36.5303L114.53 35.4697L112.061 33L114.53 30.5303L113.47 29.4697Z" fill="#110529"/>
<path fill-rule="evenodd" clip-rule="evenodd" d="M103.5 25.5L98.5 25.5L98.5 40.5H103.5L103.5 25.5ZM105 25C105 24.4477 104.552 24 104 24L98 24C97.4477 24 97 24.4477 97 25L97 41C97 41.5523 97.4477 42 98 42H104C104.552 42 105 41.5523 105 41L105 25Z" fill="#110529"/>
<path fill-rule="evenodd" clip-rule="evenodd" d="M24 75.25L42 75.25V76.75L24 76.75L24 75.25Z" fill="#110529"/>
<path fill-rule="evenodd" clip-rule="evenodd" d="M36.5303 81.4697L35.4697 82.5303L33 80.0607L30.5303 82.5303L29.4697 81.4697L33 77.9393L36.5303 81.4697Z" fill="#110529"/>
<path fill-rule="evenodd" clip-rule="evenodd" d="M39.75 66V73H38.25V66H39.75ZM35.75 64V73H34.25V64L35.75 64ZM31.75 68L31.75 73H30.25L30.25 68L31.75 68ZM27.75 64L27.75 73H26.25L26.25 64L27.75 64Z" fill="#110529"/>
<path fill-rule="evenodd" clip-rule="evenodd" d="M96 74.9848L114 74.9848V76.4848L96 76.4848L96 74.9848Z" fill="#110529"/>
<path fill-rule="evenodd" clip-rule="evenodd" d="M108.53 81.2045L107.47 82.2652L105 79.7955L102.53 82.2652L101.47 81.2045L105 77.6742L108.53 81.2045Z" fill="#110529"/>
<path fill-rule="evenodd" clip-rule="evenodd" d="M97.5 66.5V71.5H112.5V66.5H97.5ZM97 65C96.4477 65 96 65.4477 96 66V72C96 72.5523 96.4477 73 97 73H113C113.552 73 114 72.5523 114 72V66C114 65.4477 113.552 65 113 65H97Z" fill="#110529"/>
<path fill-rule="evenodd" clip-rule="evenodd" d="M66.75 42H65.25V24H66.75V42ZM69 26.25H76V27.75H69V26.25ZM60.5303 29.4697L64.0607 33L60.5303 36.5303L59.4697 35.4697L61.9393 33L59.4697 30.5303L60.5303 29.4697ZM69 30.25L78 30.25V31.75L69 31.75V30.25ZM69 34.25H74V35.75H69V34.25ZM69 38.25L78 38.25V39.75L69 39.75V38.25Z" fill="#110529"/>
<path fill-rule="evenodd" clip-rule="evenodd" d="M137.25 42V24H138.75V42H137.25Z" fill="#110529"/>
<path fill-rule="evenodd" clip-rule="evenodd" d="M133.939 33L131.47 35.4697L132.53 36.5303L136.061 33L132.53 29.4697L131.47 30.5303L133.939 33Z" fill="#110529"/>
<path fill-rule="evenodd" clip-rule="evenodd" d="M147.5 25.5L142.5 25.5V40.5H147.5L147.5 25.5ZM149 25C149 24.4477 148.552 24 148 24L142 24C141.448 24 141 24.4477 141 25V41C141 41.5523 141.448 42 142 42H148C148.552 42 149 41.5523 149 41L149 25Z" fill="#110529"/>
<path fill-rule="evenodd" clip-rule="evenodd" d="M60 69.2501L78 69.2501V70.7501L60 70.7501L60 69.2501Z" fill="#110529"/>
<path fill-rule="evenodd" clip-rule="evenodd" d="M69 65.9394L66.5303 63.4697L65.4697 64.5304L69 68.0607L72.5303 64.5304L71.4697 63.4697L69 65.9394Z" fill="#110529"/>
<path fill-rule="evenodd" clip-rule="evenodd" d="M75.75 73.0001V80.0001H74.25V73.0001H75.75ZM71.75 73.0001V82.0001H70.25V73.0001H71.75ZM67.75 73V78.0001H66.25V73H67.75ZM63.75 73.0001L63.75 82.0001H62.25L62.25 73.0001H63.75Z" fill="#110529"/>
<path fill-rule="evenodd" clip-rule="evenodd" d="M132 69.2501L150 69.2501V70.7501L132 70.7501L132 69.2501Z" fill="#110529"/>
<path fill-rule="evenodd" clip-rule="evenodd" d="M141 65.9394L138.53 63.4697L137.47 64.5304L141 68.0607L144.53 64.5304L143.47 63.4697L141 65.9394Z" fill="#110529"/>
<path fill-rule="evenodd" clip-rule="evenodd" d="M133.5 74.5001V79.5001H148.5V74.5001H133.5ZM133 73.0001C132.448 73.0001 132 73.4478 132 74.0001V80.0001C132 80.5523 132.448 81.0001 133 81.0001H149C149.552 81.0001 150 80.5523 150 80.0001V74.0001C150 73.4478 149.552 73.0001 149 73.0001H133Z" fill="#110529"/>
</svg>
