<svg width="24" height="24" viewBox="0 0 24 24" fill="none" xmlns="http://www.w3.org/2000/svg">
<path fill-rule="evenodd" clip-rule="evenodd" d="M20 15.5H4C3.72386 15.5 3.5 15.7238 3.5 16V20C3.5 20.2761 3.72386 20.5 4 20.5H20C20.2761 20.5 20.5 20.2761 20.5 20V16C20.5 15.7238 20.2761 15.5 20 15.5ZM4 14C2.89543 14 2 14.8954 2 16V20C2 21.1046 2.89543 22 4 22H20C21.1046 22 22 21.1046 22 20V16C22 14.8954 21.1046 14 20 14H4Z" fill="#110529"/>
<path fill-rule="evenodd" clip-rule="evenodd" d="M13 18.75H5V17.25H13V18.75Z" fill="#110529"/>
<path d="M11.25 5L11.25 1L12.75 1.00001L12.75 5.00001L11.25 5Z" fill="#110529"/>
<path d="M11.25 12L11.25 8.00001L12.75 8L12.75 12L11.25 12Z" fill="#110529"/>
<path d="M16.3881 3.10049L17.1382 4.39953L13.674 6.3995L12.924 5.10046L16.3881 3.10049Z" fill="#110529"/>
<path d="M10.326 6.60046L11.076 7.8995L7.61188 9.89952L6.86187 8.60049L10.326 6.60046Z" fill="#110529"/>
<path d="M7.61186 3.10049L11.076 5.10052L10.326 6.39955L6.86186 4.39952L7.61186 3.10049Z" fill="#110529"/>
<path d="M12.924 7.89955L16.3881 9.89952L17.1382 8.60048L13.674 6.60051L12.924 7.89955Z" fill="#110529"/>
</svg>
