<svg width="24" height="24" viewBox="0 0 24 24" fill="none" xmlns="http://www.w3.org/2000/svg">
<path d="M12 3.75C16.5564 3.75001 20.25 7.44366 20.25 12C20.25 16.5563 16.5564 20.25 12 20.25C8.06807 20.25 4.77858 17.4994 3.95083 13.8173L5.34801 14.8325L6.22968 13.6189L2.79136 11.1208L0.293274 14.5592L1.5068 15.4408L2.47771 14.1045C3.43985 18.4777 7.33778 21.75 12 21.75C17.3848 21.75 21.75 17.3848 21.75 12C21.75 6.61523 17.3848 2.25001 12 2.25" fill="#110529"/>
<path d="M12 3.75C11.7816 3.75 11.5652 3.75848 11.3513 3.77509L11.2351 2.2796C11.4876 2.25998 11.7428 2.25 12 2.25" fill="#110529"/>
<path d="M8.84223 4.37572C9.23779 4.21169 9.64884 4.07758 10.0726 3.97618L9.7236 2.51736C9.22212 2.63734 8.73567 2.79605 8.26765 2.99013L8.84223 4.37572Z" fill="#110529"/>
<path d="M6.64228 5.72626C6.9702 5.44593 7.32028 5.19091 7.68946 4.96419L6.90452 3.68597C6.46823 3.95388 6.05475 4.25512 5.66758 4.5861L6.64228 5.72626Z" fill="#110529"/>
<path d="M4.96422 7.68944C5.19093 7.32025 5.44595 6.97017 5.72629 6.64225L4.58613 5.66755C4.25515 6.05472 3.95391 6.4682 3.68599 6.90449L4.96422 7.68944Z" fill="#110529"/>
<path d="M3.97621 10.0726C4.0776 9.64882 4.21172 9.23776 4.37575 8.8422L2.99016 8.26762C2.79608 8.73565 2.63737 9.22209 2.51739 9.72357L3.97621 10.0726Z" fill="#110529"/>
<path fill-rule="evenodd" clip-rule="evenodd" d="M8.75002 8C8.75002 7.30964 9.30966 6.75 10 6.75H14C14.6904 6.75 15.25 7.30964 15.25 8V9.03875C15.25 9.87416 14.8703 10.6643 14.2179 11.1861L13.2006 12L14.2179 12.8139C14.8703 13.3357 15.25 14.1258 15.25 14.9613V16C15.25 16.6904 14.6904 17.25 14 17.25H10C9.30966 17.25 8.75002 16.6904 8.75002 16V14.9613C8.75002 14.1258 9.12976 13.3357 9.7821 12.8139L10.7994 12L9.7821 11.1861C9.12976 10.6643 8.75002 9.87416 8.75002 9.03875V8ZM12 11.0395L13.2809 10.0148C13.5774 9.77762 13.75 9.41848 13.75 9.03875V8.25H10.25V9.03875C10.25 9.41848 10.4226 9.77762 10.7191 10.0148L12 11.0395ZM12 12.9605L10.7191 13.9852C10.4226 14.2224 10.25 14.5815 10.25 14.9613V15.75H13.75V14.9613C13.75 14.5815 13.5774 14.2224 13.2809 13.9852L12 12.9605Z" fill="#110529"/>
</svg>
