<svg width="24" height="24" viewBox="0 0 24 24" fill="none" xmlns="http://www.w3.org/2000/svg">
<path fill-rule="evenodd" clip-rule="evenodd" d="M2.74999 12L2.74999 9.5C2.74999 6.87665 4.87664 4.75 7.49999 4.75L18.6893 4.75L15.9697 2.03033L17.0303 0.969666L21.5606 5.5L17.0303 10.0303L15.9697 8.96966L18.6893 6.25L7.49999 6.25C5.70506 6.25 4.24999 7.70507 4.24999 9.5L4.24999 12H2.74999Z" fill="#110529"/>
<path fill-rule="evenodd" clip-rule="evenodd" d="M21.25 12V14.5C21.25 17.1233 19.1233 19.25 16.5 19.25H5.31065L8.03032 21.9697L6.96966 23.0303L2.43933 18.5L6.96966 13.9697L8.03032 15.0303L5.31065 17.75H16.5C18.2949 17.75 19.75 16.2949 19.75 14.5V12H21.25Z" fill="#110529"/>
</svg>
