<svg width="24" height="24" viewBox="0 0 24 24" fill="none" xmlns="http://www.w3.org/2000/svg">
<rect width="24" height="24" fill="white"/>
<path d="M5.5 14.5H7.5V16.5H5.5V14.5Z" fill="#110529"/>
<path d="M11.5 14.5H9.5V16.5H11.5V14.5Z" fill="#110529"/>
<path d="M16.5 14.5H18.5V16.5H16.5V14.5Z" fill="#110529"/>
<path d="M5.5 7.5H7.5V9.5H5.5V7.5Z" fill="#110529"/>
<path d="M11.5 7.5H9.5V9.5H11.5V7.5Z" fill="#110529"/>
<path d="M16.5 7.5H18.5V9.5H16.5V7.5Z" fill="#110529"/>
<path fill-rule="evenodd" clip-rule="evenodd" d="M2.25 5.5C2.25 4.80964 2.80964 4.25 3.5 4.25H20.5C21.1904 4.25 21.75 4.80964 21.75 5.5V11.5C21.75 11.6778 21.7129 11.8469 21.646 12C21.7129 12.1531 21.75 12.3222 21.75 12.5V18.5C21.75 19.1904 21.1904 19.75 20.5 19.75H3.5C2.80964 19.75 2.25 19.1904 2.25 18.5V12.5C2.25 12.3222 2.28711 12.1531 2.35401 12C2.28711 11.8469 2.25 11.6778 2.25 11.5V5.5ZM3.75 12.75H20.25V18.25H3.75V12.75ZM20.25 5.75V11.25H3.75V5.75H20.25Z" fill="#110529"/>
</svg>
