<svg width="24" height="24" viewBox="0 0 24 24" fill="none" xmlns="http://www.w3.org/2000/svg">
<path d="M12 20.75H4.5C3.80964 20.75 3.25 20.1904 3.25 19.5V12H4.75V19.25H12V20.75Z" fill="#07AD3E"/>
<path fill-rule="evenodd" clip-rule="evenodd" d="M20.75 4.5C20.75 3.80964 20.1904 3.25 19.5 3.25H4.5C3.80964 3.25 3.25 3.80964 3.25 4.5V9.75H14.25V20.75H19.5C20.1904 20.75 20.75 20.1904 20.75 19.5V4.5ZM19.25 4.75V8.25H15.75V4.75H19.25ZM19.25 19.25V9.75H15.75V19.25H19.25ZM4.75 4.75V8.25H14.25V4.75H4.75Z" fill="#110529"/>
</svg>
