<svg width="24" height="24" viewBox="0 0 24 24" fill="none" xmlns="http://www.w3.org/2000/svg">
<path fill-rule="evenodd" clip-rule="evenodd" d="M3 4C3 3.44772 3.44772 3 4 3H10C10.5523 3 11 3.44772 11 4V12C11 12.5523 10.5523 13 10 13H4C3.44772 13 3 12.5523 3 12V4ZM4.5 11.5V4.5H9.5V11.5H4.5Z" fill="#110529"/>
<path fill-rule="evenodd" clip-rule="evenodd" d="M13 12C13 11.4477 13.4477 11 14 11H20C20.5523 11 21 11.4477 21 12V20C21 20.5523 20.5523 21 20 21H14C13.4477 21 13 20.5523 13 20V12ZM14.5 19.5V12.5H19.5V19.5H14.5Z" fill="#110529"/>
<path fill-rule="evenodd" clip-rule="evenodd" d="M13 4C13 3.44772 13.4477 3 14 3H20C20.5523 3 21 3.44772 21 4V8C21 8.55228 20.5523 9 20 9H14C13.4477 9 13 8.55228 13 8V4ZM14.5 7.5V4.5H19.5V7.5H14.5Z" fill="#07AD3E"/>
<path fill-rule="evenodd" clip-rule="evenodd" d="M3 16C3 15.4477 3.44772 15 4 15H10C10.5523 15 11 15.4477 11 16V20C11 20.5523 10.5523 21 10 21H4C3.44772 21 3 20.5523 3 20V16ZM4.5 19.5V16.5H9.5V19.5H4.5Z" fill="#07AD3E"/>
</svg>
