<svg width="24" height="24" viewBox="0 0 24 24" fill="none" xmlns="http://www.w3.org/2000/svg">
<path fill-rule="evenodd" clip-rule="evenodd" d="M10.2366 17.8789C11.5599 16.9062 12 16.4013 12 15.675C12 15.4092 11.8994 15.078 11.6197 14.6504C11.3374 14.2188 10.9334 13.7807 10.4557 13.3174C10.305 13.1713 10.1266 13.0044 9.94203 12.8316C9.62416 12.5342 9.2878 12.2195 9.0424 11.9636C8.82913 11.7413 8.59516 11.4759 8.40822 11.1836C8.23185 10.9079 8 10.4599 8 9.9C8 9.13472 8.34244 8.56655 8.63968 8.19377C8.83437 7.94959 9.10867 7.67924 9.29455 7.49604C9.34774 7.44362 9.39369 7.39833 9.42846 7.36283C9.82719 6.9558 10 6.68991 10 6.225C10 5.68211 9.79654 5.4176 9.05552 4.87893C8.99117 4.83215 8.91719 4.78074 8.83584 4.7242C8.60069 4.56075 8.30394 4.3545 8 4.09369C7.69606 4.3545 7.39931 4.56075 7.16416 4.7242C7.08281 4.78074 7.00883 4.83215 6.94448 4.87893C6.20346 5.4176 6 5.68211 6 6.225C6 6.67896 6.1611 6.91988 6.56011 7.31847C6.59241 7.35075 6.63339 7.39044 6.68038 7.43595C6.87013 7.61973 7.15786 7.89842 7.36815 8.16675C7.68052 8.56536 8 9.13864 8 9.9C8 10.4484 7.78618 10.8945 7.60414 11.1891C7.41614 11.4933 7.17981 11.7665 6.963 11.9949C6.69523 12.277 6.33747 12.6094 6.00452 12.9187C5.83808 13.0733 5.67784 13.2222 5.53815 13.3561C5.05836 13.8162 4.65636 14.2457 4.37577 14.6696C4.09901 15.0877 4 15.4114 4 15.675C4 16.4013 4.44006 16.9062 5.76335 17.8789C5.85368 17.9452 5.94904 18.0142 6.04838 18.0861C6.63235 18.5086 7.35394 19.0306 8 19.7103C8.64605 19.0306 9.36765 18.5086 9.95162 18.0861C10.051 18.0142 10.1463 17.9452 10.2366 17.8789ZM8.92378 20.9191C8.52245 21.3723 8.19481 21.8863 7.99999 22.5C7.80518 21.8863 7.47754 21.3723 7.07622 20.9191C6.51532 20.2856 5.8105 19.771 5.12321 19.2691C3.778 18.2869 2.5 17.3537 2.5 15.675C2.5 14.1229 3.8985 12.8257 5.04166 11.7653C5.83183 11.0324 6.5 10.4126 6.5 9.9C6.5 9.35328 6.11995 8.98392 5.69118 8.56723C5.13637 8.02803 4.5 7.40957 4.5 6.225C4.5 4.77869 5.41072 4.12926 6.31222 3.48641C6.55048 3.3165 6.78809 3.14706 7.00808 2.96349C7.46645 2.581 7.8483 2.13716 8 1.5C8.1517 2.13716 8.53355 2.581 8.99192 2.96349C9.21191 3.14706 9.44952 3.3165 9.68778 3.48641C10.5893 4.12926 11.5 4.77869 11.5 6.225C11.5 7.42819 10.8435 8.07606 10.2827 8.62941C9.86475 9.04185 9.5 9.40177 9.5 9.9C9.5 10.3667 10.14 10.964 10.908 11.6808C12.06 12.756 13.5 14.1 13.5 15.675C13.5 17.3537 12.222 18.2869 10.8768 19.2691C10.1895 19.771 9.48468 20.2857 8.92378 20.9191Z" fill="#110529"/>
<path fill-rule="evenodd" clip-rule="evenodd" d="M14.25 7C14.25 5.75736 15.2574 4.75 16.5 4.75C17.7426 4.75 18.75 5.75736 18.75 7C18.75 7.08866 18.7449 7.17613 18.7349 7.26211C19.8671 7.37957 20.75 8.33668 20.75 9.5C20.75 10.6633 19.8671 11.6204 18.7349 11.7379C18.7449 11.8239 18.75 11.9113 18.75 12C18.75 13.2426 17.7426 14.25 16.5 14.25C15.2574 14.25 14.25 13.2426 14.25 12C14.25 11.9113 14.2551 11.8239 14.2651 11.7379C13.1329 11.6204 12.25 10.6633 12.25 9.5C12.25 8.33668 13.1329 7.37957 14.2651 7.26211C14.2551 7.17613 14.25 7.08866 14.25 7ZM16.5 6.25C16.0858 6.25 15.75 6.58579 15.75 7C15.75 7.41421 16.0858 7.75 16.5 7.75C16.9142 7.75 17.25 7.41421 17.25 7C17.25 6.58579 16.9142 6.25 16.5 6.25ZM13.75 9.5C13.75 9.08579 14.0858 8.75 14.5 8.75C14.9142 8.75 15.25 9.08579 15.25 9.5C15.25 9.91421 14.9142 10.25 14.5 10.25C14.0858 10.25 13.75 9.91421 13.75 9.5ZM18.5 8.75C18.0858 8.75 17.75 9.08579 17.75 9.5C17.75 9.91421 18.0858 10.25 18.5 10.25C18.9142 10.25 19.25 9.91421 19.25 9.5C19.25 9.08579 18.9142 8.75 18.5 8.75ZM15.75 12C15.75 11.5858 16.0858 11.25 16.5 11.25C16.9142 11.25 17.25 11.5858 17.25 12C17.25 12.4142 16.9142 12.75 16.5 12.75C16.0858 12.75 15.75 12.4142 15.75 12Z" fill="#07AD3E"/>
<path fill-rule="evenodd" clip-rule="evenodd" d="M14.25 18.5C14.25 17.2574 15.2574 16.25 16.5 16.25C17.7426 16.25 18.75 17.2574 18.75 18.5C18.75 19.7426 17.7426 20.75 16.5 20.75C15.2574 20.75 14.25 19.7426 14.25 18.5ZM16.5 17.75C16.0858 17.75 15.75 18.0858 15.75 18.5C15.75 18.9142 16.0858 19.25 16.5 19.25C16.9142 19.25 17.25 18.9142 17.25 18.5C17.25 18.0858 16.9142 17.75 16.5 17.75Z" fill="#07AD3E"/>
</svg>
