<svg xmlns="http://www.w3.org/2000/svg" width="122" height="42" fill="none"><rect width="120" height="40" x="1" y="1" stroke="#845CFF" stroke-dasharray="10 5" rx="5"/><path fill="#CFD1DB" d="m28.434 14.566-3.068 3.068c-.429.429-.643.643-.657.827a.5.5 0 0 0 .173.42c.14.119.444.119 1.05.119h6.137c.605 0 .908 0 1.049-.12a.5.5 0 0 0 .173-.42c-.014-.183-.228-.397-.657-.826l-3.068-3.068c-.198-.198-.297-.297-.412-.334a.5.5 0 0 0-.308 0c-.115.037-.214.136-.412.334M28.434 27.434l-3.068-3.068c-.429-.429-.643-.643-.657-.827a.5.5 0 0 1 .173-.42c.14-.119.444-.119 1.05-.119h6.137c.605 0 .908 0 1.049.12a.5.5 0 0 1 .173.42c-.014.183-.228.397-.657.826l-3.068 3.068c-.198.198-.297.297-.412.334a.5.5 0 0 1-.308 0c-.115-.037-.214-.136-.412-.334M60.434 14.566l-3.068 3.068c-.429.429-.643.643-.657.827a.5.5 0 0 0 .173.42c.14.119.444.119 1.05.119h6.137c.605 0 .908 0 1.049-.12a.5.5 0 0 0 .173-.42c-.014-.183-.228-.397-.657-.826l-3.068-3.068c-.198-.198-.297-.297-.412-.334a.5.5 0 0 0-.309 0c-.114.037-.213.136-.41.334"/><path fill="#110529" d="m60.434 27.434-3.068-3.068c-.429-.429-.643-.643-.657-.827a.5.5 0 0 1 .173-.42c.14-.119.444-.119 1.05-.119h6.137c.605 0 .908 0 1.049.12a.5.5 0 0 1 .173.42c-.014.183-.228.397-.657.826l-3.068 3.068c-.198.198-.297.297-.412.334a.5.5 0 0 1-.309 0c-.114-.037-.213-.136-.41-.334M92.434 14.566l-3.068 3.068c-.429.429-.643.643-.657.827a.5.5 0 0 0 .173.42c.14.119.444.119 1.05.119h6.137c.605 0 .908 0 1.049-.12a.5.5 0 0 0 .173-.42c-.014-.183-.228-.397-.657-.826l-3.068-3.068c-.198-.198-.297-.297-.412-.334a.5.5 0 0 0-.308 0c-.115.037-.214.136-.412.334"/><path fill="#CFD1DB" d="m92.434 27.434-3.068-3.068c-.429-.429-.643-.643-.657-.827a.5.5 0 0 1 .173-.42c.14-.119.444-.119 1.05-.119h6.137c.605 0 .908 0 1.049.12a.5.5 0 0 1 .173.42c-.014.183-.228.397-.657.826l-3.068 3.068c-.198.198-.297.297-.412.334a.5.5 0 0 1-.308 0c-.115-.037-.214-.136-.412-.334"/></svg>