<svg xmlns="http://www.w3.org/2000/svg" width="24" height="24" fill="none"><path fill="#07AD3E" fill-rule="evenodd" d="M12.712 2.69a1 1 0 0 0-1.228-.27L2.803 6.76a1 1 0 0 0-.553.895v4.882l.415-.208 1.085-.543V7.965l8.043-4.022L15.3 8.324a1 1 0 0 0 1.152.304l3.799-1.52v3.884l.471-.188 1.029-.412V6.37a1 1 0 0 0-1.371-.928l-4.14 1.656z" clip-rule="evenodd"/><path fill="#110529" fill-rule="evenodd" d="M11.484 9.42a1 1 0 0 1 1.228.27l3.526 4.407 4.14-1.656a1 1 0 0 1 1.372.928v7.381a1 1 0 0 1-1 1H3.25a1 1 0 0 1-1-1v-6.095a1 1 0 0 1 .553-.895zm.31 1.522L3.75 14.963v5.287h16.5v-6.142l-3.8 1.52a1 1 0 0 1-1.151-.304z" clip-rule="evenodd"/></svg>