<svg xmlns="http://www.w3.org/2000/svg" width="24" height="24" fill="none"><path fill="#110529" fill-rule="evenodd" d="M11.25 5.75V2h1.5v3.75H14v1.5h-1.25v4h4V10h1.5v1.25H22v1.5h-3.75V14h-1.5v-1.25h-4v4H14v1.5h-1.25V22h-1.5v-3.75H10v-1.5h1.25v-4h-4V14h-1.5v-1.25H2v-1.5h3.75V10h1.5v1.25h4v-4H10v-1.5z" clip-rule="evenodd"/><path fill="#07AD3E" d="m3.47 3.53 2.28 2.28V8h1.5V5.81l2.28-2.28-1.06-1.06L6.5 4.44 4.53 2.47zM15.47 16.53l1.97 1.97-1.97 1.97 1.06 1.06 1.97-1.97 1.97 1.97 1.06-1.06-1.97-1.97 1.97-1.97-1.06-1.06-1.97 1.97-1.97-1.97z"/></svg>