<svg xmlns="http://www.w3.org/2000/svg" width="24" height="24" fill="none"><path fill="#110529" fill-rule="evenodd" d="M8.577 10.961C6.67 13.261 4.75 16.846 4.75 22h-1.5c0-5.56 2.081-9.475 4.173-11.997a17.6 17.6 0 0 1 2.874-2.763c.393-.3.724-.52.959-.67a9 9 0 0 1 .356-.213l.023-.012.007-.004.002-.001h.001L12 7c.354.661.354.66.355.66l-.001.001-.012.007-.055.031q-.078.045-.23.14a12 12 0 0 0-.854.595 16 16 0 0 0-2.626 2.527" clip-rule="evenodd"/><path fill="#110529" fill-rule="evenodd" d="M18.48 1.254a1.245 1.245 0 0 1 1.266 1.257c-.033 2.368-.296 4.047-.558 5.15-.132.552-.263.959-.364 1.235a6 6 0 0 1-.168.405l-.013.027-.005.01-.002.003v.002L17.968 9l.667.344a.75.75 0 0 1-.667.406h-2.011l.745 1.986a.75.75 0 0 1-.18.803c-2.17 2.103-5.152 3.676-8.402 4.201l-.24-1.48a14.4 14.4 0 0 0 7.242-3.466l-.95-2.53a.75.75 0 0 1 .702-1.014h2.587a10 10 0 0 0 .267-.936c.226-.948.466-2.433.514-4.554-5.456.143-8.512 1.839-10.234 4.057C6.23 9.106 5.75 12.102 5.75 15v.75h-1.5V15c0-3.017.49-6.42 2.573-9.103 2.109-2.716 5.73-4.543 11.657-4.643M17.3 8.661" clip-rule="evenodd"/><path fill="#07AD3E" fill-rule="evenodd" d="M16 22H7v-1.5h9zm2-1.5h3V22h-3z" clip-rule="evenodd"/></svg>