<svg xmlns="http://www.w3.org/2000/svg" width="262" height="182" fill="none"><rect width="260" height="180" x="1" y="1" stroke="#845CFF" stroke-dasharray="10 5" rx="5"/><path fill="#110529" fill-rule="evenodd" d="M44.5 29.5h-15v15h15zm-15-1.5a1.5 1.5 0 0 0-1.5 1.5v15a1.5 1.5 0 0 0 1.5 1.5h15a1.5 1.5 0 0 0 1.5-1.5v-15a1.5 1.5 0 0 0-1.5-1.5z" clip-rule="evenodd"/><path fill="#DFE0E6" fill-rule="evenodd" d="M174.5 29.5h-15v15h15zm-15-1.5a1.5 1.5 0 0 0-1.5 1.5v15a1.5 1.5 0 0 0 1.5 1.5h15a1.5 1.5 0 0 0 1.5-1.5v-15a1.5 1.5 0 0 0-1.5-1.5z" clip-rule="evenodd"/><path fill="#9BABCC" fill-opacity=".16" d="M17 85c0-11.046 8.954-20 20-20s20 8.954 20 20-8.954 20-20 20-20-8.954-20-20"/><path fill="#110529" fill-rule="evenodd" d="M44.5 77.5h-15v15h15zm-15-1.5a1.5 1.5 0 0 0-1.5 1.5v15a1.5 1.5 0 0 0 1.5 1.5h15a1.5 1.5 0 0 0 1.5-1.5v-15a1.5 1.5 0 0 0-1.5-1.5z" clip-rule="evenodd"/><path fill="#38383D" d="M147 85c0-11.046 8.954-20 20-20s20 8.954 20 20-8.954 20-20 20-20-8.954-20-20"/><path fill="#fff" fill-rule="evenodd" d="M174.5 77.5h-15v15h15zm-15-1.5a1.5 1.5 0 0 0-1.5 1.5v15a1.5 1.5 0 0 0 1.5 1.5h15a1.5 1.5 0 0 0 1.5-1.5v-15a1.5 1.5 0 0 0-1.5-1.5z" clip-rule="evenodd"/><g clip-path="url(#a)"><rect width="24" height="24" x="25" y="121" fill="#fff" rx="4"/><path fill="#110529" fill-rule="evenodd" d="M44.5 125.5h-15v15h15zm-15-1.5a1.5 1.5 0 0 0-1.5 1.5v15a1.5 1.5 0 0 0 1.5 1.5h15a1.5 1.5 0 0 0 1.5-1.5v-15a1.5 1.5 0 0 0-1.5-1.5z" clip-rule="evenodd"/></g><rect width="26" height="26" x="24" y="120" stroke="#49CC49" stroke-width="2" rx="5"/><rect width="26" height="26" x="154" y="120" stroke="#49CC49" stroke-width="2" rx="5"/><path fill="#fff" fill-rule="evenodd" d="M174.5 125.5h-15v15h15zm-15-1.5a1.5 1.5 0 0 0-1.5 1.5v15a1.5 1.5 0 0 0 1.5 1.5h15a1.5 1.5 0 0 0 1.5-1.5v-15a1.5 1.5 0 0 0-1.5-1.5z" clip-rule="evenodd"/><rect width="18" height="18" x="56" y="28" fill="#110529" rx="2"/><path fill="#fff" fill-rule="evenodd" d="m70.543 33.517-7.21 7.57-3.876-4.07 1.086-1.034 2.79 2.93 6.124-6.43z" clip-rule="evenodd"/><rect width="18" height="18" x="84" y="28" fill="#110529" rx="2"/><path stroke="#fff" stroke-width="1.5" d="M88 37h10"/><rect width="18" height="18" x="214" y="28" fill="#DFE0E6" rx="2"/><path stroke="#110529" stroke-width="1.5" d="M218 37h10"/><rect width="18" height="18" x="186" y="28" fill="#DFE0E6" rx="2"/><path fill="#110529" fill-rule="evenodd" d="m200.543 33.517-7.21 7.57-3.876-4.07 1.086-1.034 2.79 2.93 6.124-6.43z" clip-rule="evenodd"/><path fill="#9BABCC" fill-opacity=".16" d="M65 85c0-11.046 8.954-20 20-20s20 8.954 20 20-8.954 20-20 20-20-8.954-20-20"/><rect width="16.5" height="16.5" x="76.75" y="76.75" fill="#110529" stroke="#110529" stroke-width="1.5" rx="1.25"/><path fill="#fff" fill-rule="evenodd" d="m90.543 81.517-7.21 7.57-3.876-4.07 1.086-1.034 2.79 2.93 6.124-6.43z" clip-rule="evenodd"/><path fill="#38383D" d="M195 85c0-11.046 8.954-20 20-20s20 8.954 20 20-8.954 20-20 20-20-8.954-20-20"/><rect width="16.5" height="16.5" x="206.75" y="76.75" fill="#fff" stroke="#fff" stroke-width="1.5" rx="1.25"/><path fill="#110529" fill-rule="evenodd" d="m220.543 81.517-7.21 7.57-3.876-4.07 1.086-1.034 2.79 2.93 6.124-6.43z" clip-rule="evenodd"/><g filter="url(#b)"><rect width="26" height="26" x="72" y="120" stroke="#49CC49" stroke-width="2" rx="5"/><rect width="18" height="18" x="76" y="124" fill="#110529" rx="2"/><path fill="#fff" fill-rule="evenodd" d="m90.543 129.517-7.21 7.57-3.876-4.07 1.086-1.034 2.79 2.929 6.124-6.429z" clip-rule="evenodd"/></g><rect width="26" height="26" x="202" y="120" stroke="#49CC49" stroke-width="2" rx="5"/><rect width="18" height="18" x="206" y="124" fill="#fff" rx="2"/><path fill="#110529" fill-rule="evenodd" d="m220.543 129.517-7.21 7.57-3.876-4.07 1.086-1.034 2.79 2.929 6.124-6.429z" clip-rule="evenodd"/><defs><clipPath id="a"><rect width="24" height="24" x="25" y="121" fill="#fff" rx="4"/></clipPath><filter id="b" width="36" height="36" x="67" y="115" color-interpolation-filters="sRGB" filterUnits="userSpaceOnUse"><feFlood flood-opacity="0" result="BackgroundImageFix"/><feColorMatrix in="SourceAlpha" result="hardAlpha" values="0 0 0 0 0 0 0 0 0 0 0 0 0 0 0 0 0 0 127 0"/><feMorphology in="SourceAlpha" operator="dilate" radius="4" result="effect1_dropShadow_1776_51322"/><feOffset/><feColorMatrix values="0 0 0 0 0.286275 0 0 0 0 0.8 0 0 0 0 0.286275 0 0 0 0.24 0"/><feBlend in2="BackgroundImageFix" result="effect1_dropShadow_1776_51322"/><feBlend in="SourceGraphic" in2="effect1_dropShadow_1776_51322" result="shape"/></filter></defs></svg>