<svg xmlns="http://www.w3.org/2000/svg" width="24" height="24" fill="none"><path fill="#110529" fill-rule="evenodd" d="M5.75 7.25V18A2.25 2.25 0 0 0 8 20.25h8A2.25 2.25 0 0 0 18.25 18V7.25h1.5V18A3.75 3.75 0 0 1 16 21.75H8A3.75 3.75 0 0 1 4.25 18V7.25zM8.25 2.5c0-.69.56-1.25 1.25-1.25h5c.69 0 1.25.56 1.25 1.25v1.75H21v1.5H3v-1.5h5.25zm1.5 1.75h4.5v-1.5h-4.5z" clip-rule="evenodd"/><path fill="#110529" fill-rule="evenodd" d="m15.53 10.53-6 6-1.06-1.06 6-6z" clip-rule="evenodd"/><path fill="#110529" fill-rule="evenodd" d="m15.53 15.47-6-6-1.06 1.06 6 6z" clip-rule="evenodd"/></svg>