<svg xmlns="http://www.w3.org/2000/svg" width="210" height="66" fill="none"><rect width="208" height="64" x="1" y="1" stroke="#9747FF" stroke-dasharray="10 5" rx="5"/><path fill="#CFD1DB" fill-rule="evenodd" d="M24.25 25.75v-1.5h1.5v1.5zm5.5 0h-1.5v-1.5h1.5zm4 0h-1.5v-1.5h1.5zm4 0h-1.5v-1.5h1.5zm2.5 0v-1.5h1.5v1.5zm-16 4v-1.5h1.5v1.5zm16 0v-1.5h1.5v1.5zm-16 4v-1.5h1.5v1.5zm16 0v-1.5h1.5v1.5zm-16 4v-1.5h1.5v1.5zm16 0v-1.5h1.5v1.5zm-14.5 4h-1.5v-1.5h1.5zm4 0h-1.5v-1.5h1.5zm4 0h-1.5v-1.5h1.5zm4 0h-1.5v-1.5h1.5zm4 0h-1.5v-1.5h1.5zM60.25 40.25h17.5v1.5h-17.5zM60.25 25.75v-1.5h1.5v1.5zm5.5 0h-1.5v-1.5h1.5zm4 0h-1.5v-1.5h1.5zm4 0h-1.5v-1.5h1.5zm2.5 0v-1.5h1.5v1.5zm-16 4v-1.5h1.5v1.5zm16 0v-1.5h1.5v1.5zm-16 4v-1.5h1.5v1.5zm16 0v-1.5h1.5v1.5zm-16 4v-1.5h1.5v1.5zm16 0v-1.5h1.5v1.5zM96.25 41.75v-17.5h1.5v17.5zM101.75 25.75h-1.5v-1.5h1.5zm4 0h-1.5v-1.5h1.5zm4 0h-1.5v-1.5h1.5zm2.5 0v-1.5h1.5v1.5zm0 4v-1.5h1.5v1.5zm0 4v-1.5h1.5v1.5zm0 4v-1.5h1.5v1.5zm-10.5 4h-1.5v-1.5h1.5zm4 0h-1.5v-1.5h1.5zm4 0h-1.5v-1.5h1.5zm4 0h-1.5v-1.5h1.5zM149.75 41.75H134a1.75 1.75 0 0 1-1.75-1.75V24.25h1.5V40c0 .138.112.25.25.25h15.75zM137.75 25.75h-1.5v-1.5h1.5zm4 0h-1.5v-1.5h1.5zm4 0h-1.5v-1.5h1.5zm2.5 0v-1.5h1.5v1.5zm0 4v-1.5h1.5v1.5zm0 4v-1.5h1.5v1.5zm0 4v-1.5h1.5v1.5z" clip-rule="evenodd"/><path fill="#110529" fill-rule="evenodd" d="M185.75 40a1.75 1.75 0 0 1-1.75 1.75h-14a1.75 1.75 0 0 1-1.75-1.75V26c0-.966.784-1.75 1.75-1.75h14c.966 0 1.75.784 1.75 1.75zm-1.75.25a.25.25 0 0 0 .25-.25V26a.25.25 0 0 0-.25-.25h-14a.25.25 0 0 0-.25.25v14c0 .138.112.25.25.25z" clip-rule="evenodd"/></svg>