<svg xmlns="http://www.w3.org/2000/svg" width="24" height="24" fill="none"><path fill="#110529" d="m14.546 4.679.4-3.8L13.454.72l-.4 3.8z"/><path fill="#110529" fill-rule="evenodd" d="m9.725 3.41-1.213.62.193 4.954-4.122 2.756.213 1.345 4.772 1.347 1.347 4.772 1.346.213 2.755-4.122 4.955.193.618-1.213-3.069-3.895 1.715-4.652-.963-.963L13.62 6.48zm.496 5.935-.147-3.75 2.947 2.323a.75.75 0 0 0 .724.114l3.52-1.298-1.298 3.521a.75.75 0 0 0 .115.724l2.322 2.947-3.749-.147a.75.75 0 0 0-.653.333l-2.085 3.12-1.02-3.612a.75.75 0 0 0-.517-.518l-3.611-1.019 3.119-2.085a.75.75 0 0 0 .333-.653" clip-rule="evenodd"/><path fill="#110529" d="m7.47 15.47-6 6 1.06 1.06 6-6zM4.135 5.73l3.2 1.6-.67 1.34-3.2-1.6zM23.279 10.546l-3.8.4-.157-1.492 3.8-.4zM15.33 17.335l1.6 3.2 1.34-.67-1.6-3.2z"/></svg>