<svg xmlns="http://www.w3.org/2000/svg" width="352" height="66" fill="none"><rect width="350" height="64" x="1" y="1" stroke="#9747FF" stroke-dasharray="10 5" rx="5"/><path fill="#110529" fill-rule="evenodd" d="M22 32.25h22v1.5H22zM66 32.25h9v1.5h-9zm13 0h9v1.5h-9zM110 32.25h5v1.5h-5zm8.5 0h5v1.5h-5zm8.5 0h5v1.5h-5z" clip-rule="evenodd"/><path fill="#110529" d="M155.75 32.25h-1.5v1.5h1.5zM164.25 32.25h1.5v1.5h-1.5zM175.75 32.25h-1.5v1.5h1.5zM160.75 32.25h-1.5v1.5h1.5zM169.25 32.25h1.5v1.5h-1.5z"/><path fill="#110529" fill-rule="evenodd" d="M198 32.25h1.5v1.5H198zm16 1.5h-10v-1.5h10zm4.5 0v-1.5h1.5v1.5zM242 32.25h3v1.5h-3zm16.026 1.5H248v-1.5h10.026zm2.974 0v-1.5h3v1.5z" clip-rule="evenodd"/></svg>