<svg xmlns="http://www.w3.org/2000/svg" width="24" height="24" fill="none"><path fill="#110529" d="M22.75 9.25h-1.5v6.5h1.5zM6.75 11.25v6.964l-.809-.405a1.25 1.25 0 0 1-.691-1.118V11.25zM8.75 19.214v-1.677L12 19.162l5.25-2.625V11.25h1.5v5.441c0 .474-.267.906-.691 1.118l-5.5 2.75a1.25 1.25 0 0 1-1.118 0z"/><path fill="#110529" fill-rule="evenodd" d="M3.354 9 12 13.323 20.646 9 12 4.677zM1.79 8.106a1 1 0 0 0 0 1.788l9.764 4.882a1 1 0 0 0 .894 0l9.764-4.882a1 1 0 0 0 0-1.788l-9.764-4.882a1 1 0 0 0-.894 0z" clip-rule="evenodd"/></svg>