<svg xmlns="http://www.w3.org/2000/svg" width="222" height="222" fill="none"><rect width="220" height="220" x="1" y="1" stroke="#9747FF" stroke-dasharray="10 5" rx="5"/><path stroke="#110529" d="M25 31h12v12H25z"/><circle cx="71" cy="37" r="6" stroke="#110529"/><path stroke="#110529" d="m111 31 7 12h-14zM151 31v6m0 6v-6m0 0h6m-6 0h-6M196 32l-5 5m0 0-5 5m5-5 5 5m-5-5-5-5M31 70l7 7-7 7-7-7zM71 83l7-12H64z"/><path fill="#110529" fill-rule="evenodd" d="M105 70.5h-.5v13h13v-13H105m.5 1.707v9.586L110.293 77zm.707 10.293h9.586L111 77.707zm10.293-.707v-9.586L111.707 77zm-.707-10.293h-9.586L111 76.293zM149.792 76.5l-4.096-4.096.707-.707 4.097 4.096V70h1v5.793l4.096-4.096.707.707-4.096 4.096H158v1h-5.793l4.096 4.096-.707.707-4.096-4.095V84h-1v-5.793l-4.097 4.096-.707-.707 4.096-4.096H144v-1zM191.354 69.646l-.354-.353-.354.353-7 7-.353.354.353.353 7 7 .354.354.354-.353 7-7 .353-.354-.353-.354zm-6.147 7.854 5.293 5.293V77.5zm6.293 5.293 5.293-5.293H191.5zm5.293-6.293-5.293-5.293V76.5zm-6.293-5.293-5.293 5.293h5.293zM30.5 111.021a6 6 0 0 0-5.48 5.479h5.48zm-5.48 6.479a6 6 0 0 0 5.48 5.479V117.5zm6.48 5.479a6 6 0 0 0 5.48-5.479H31.5zm5.48-6.479a6 6 0 0 0-5.48-5.479v5.479zM31 110a7 7 0 1 0 0 14 7 7 0 0 0 0-14M70.441 110.118 71 109l.559 1.118L72 111h6l-.5 1-2.5 5 2.5 5 .5 1h-6l-.441.882L71 125l-.559-1.118L70 123h-6l.5-1 2.5-5-2.5-5-.5-1h6zM69.5 112h-3.882l1.941 3.882zm-1.941 6.118L65.618 122H69.5zM70.618 122l-2.5-5 2.5-5h.764l2.5 5-2.5 5zm1.882 0h3.882l-1.941-3.882zm1.941-6.118L76.382 112H72.5zM105 110.5h-.5v13h13v-13H105m.5 6v-5h5v5zm0 1v5h5v-5zm6 5h5v-5h-5zm5-6v-5h-5v5zM147.48 112.773A5.48 5.48 0 0 1 151 111.5c1.339 0 2.566.478 3.52 1.273l-3.52 3.52zm-.709-.709-1.417-1.418-.708.708 1.418 1.417A6.47 6.47 0 0 0 144.5 117c0 1.615.589 3.092 1.564 4.229l-1.418 1.417.708.708 1.417-1.418A6.47 6.47 0 0 0 151 123.5a6.47 6.47 0 0 0 4.229-1.564l1.417 1.418.708-.708-1.418-1.417A6.47 6.47 0 0 0 157.5 117a6.47 6.47 0 0 0-1.564-4.229l1.418-1.417-.708-.708-1.417 1.418A6.47 6.47 0 0 0 151 110.5a6.47 6.47 0 0 0-4.229 1.564m8.456 1.416-3.52 3.52 3.52 3.52A5.48 5.48 0 0 0 156.5 117a5.48 5.48 0 0 0-1.273-3.52m-.707 7.747-3.52-3.52-3.52 3.52A5.48 5.48 0 0 0 151 122.5a5.48 5.48 0 0 0 3.52-1.273m-7.747-.707 3.52-3.52-3.52-3.52A5.48 5.48 0 0 0 145.5 117c0 1.339.478 2.566 1.273 3.52M185 110.5h-.5v13h13v-13H185m11.5 10.382V111.5h-4.691zm-6.309-9.382H185.5v9.382zm-4.382 11h10.382L191 112.118z" clip-rule="evenodd"/><path fill="#110529" d="M25 151h12v12H25z"/><circle cx="71" cy="157" r="6" fill="#110529"/><path fill="#110529" d="m111 151 7 12h-14zM151 163l7-12h-14zM191 150l7 7-7 7-7-7z"/><path fill="#C1ADFF" stroke="#110529" d="M25 191h12v12H25z"/><circle cx="71" cy="197" r="6" fill="#C1ADFF" stroke="#110529"/><path fill="#C1ADFF" stroke="#110529" d="m111 190 7 12h-14zM151 203l7-12h-14zM191 190l7 7-7 7-7-7z"/></svg>