<svg xmlns="http://www.w3.org/2000/svg" width="24" height="24" fill="none"><path fill="#110529" fill-rule="evenodd" d="M2.25 20.5h19.5V22H2.25zM3.75 2.5V4h-1.5V2.5zM3.75 5.5V7h-1.5V5.5zM3.75 8.5V10h-1.5V8.5zM3.75 11.5V13h-1.5v-1.5zM3.75 14.5V16h-1.5v-1.5zM3.75 17.5V19h-1.5v-1.5zM11.75 14v5h-1.5v-5zM15.75 7v12h-1.5V7zM7.75 11v8h-1.5v-8zM19.75 11v8h-1.5v-8z" clip-rule="evenodd"/><path fill="#07AD3E" fill-rule="evenodd" d="M11.75 8.5v4h-1.5v-4zM15.75 2.5v3h-1.5v-3zM7.75 6.5v3h-1.5v-3zM19.75 5.5v4h-1.5v-4z" clip-rule="evenodd"/></svg>