<svg xmlns="http://www.w3.org/2000/svg" width="24" height="24" fill="none"><path fill="#110529" fill-rule="evenodd" d="M3 4a1 1 0 0 1 1-1h6a1 1 0 0 1 1 1v8a1 1 0 0 1-1 1H4a1 1 0 0 1-1-1zm1.5 7.5v-7h5v7zM13 12a1 1 0 0 1 1-1h6a1 1 0 0 1 1 1v8a1 1 0 0 1-1 1h-6a1 1 0 0 1-1-1zm1.5 7.5v-7h5v7z" clip-rule="evenodd"/><path fill="#07AD3E" fill-rule="evenodd" d="M13 4a1 1 0 0 1 1-1h6a1 1 0 0 1 1 1v4a1 1 0 0 1-1 1h-6a1 1 0 0 1-1-1zm1.5 3.5v-3h5v3zM3 16a1 1 0 0 1 1-1h6a1 1 0 0 1 1 1v4a1 1 0 0 1-1 1H4a1 1 0 0 1-1-1zm1.5 3.5v-3h5v3z" clip-rule="evenodd"/></svg>