<svg xmlns="http://www.w3.org/2000/svg" width="24" height="24" fill="none"><g clip-path="url(#a)"><path fill="#000" d="M15 5.577a9.6 9.6 0 0 0-1.36-1.223 8 8 0 1 1-4.076 2.895c.49.162.947.397 1.358.693a6.47 6.47 0 0 0-1.359 3.147l2.502-2.001c.296.413.531.873.692 1.367L9.577 13c.082.535.23 1.048.434 1.532l2.987-2.39a4.97 4.97 0 0 1-.78 2.545l-1.455 1.164A6.5 6.5 0 1 0 15 5.576"/><path fill="#07AD3E" d="M9 18.423a6.5 6.5 0 1 1 4.077-2.366c.412.297.87.533 1.36.694a8 8 0 1 0-4.076 2.895A9.6 9.6 0 0 1 9 18.423"/></g><defs><clipPath id="a"><path fill="#fff" d="M0 0h24v24H0z"/></clipPath></defs></svg>