<svg xmlns="http://www.w3.org/2000/svg" width="24" height="24" fill="none"><path fill="#110529" d="m18.67 14.05-3.811-6.6c-.697-1.207-1.17-2.021-1.572-2.592-.408-.577-.608-.698-.676-.728a1.5 1.5 0 0 0-1.22 0c-.068.03-.268.15-.676.728-.403.57-.875 1.385-1.572 2.592l-3.81 6.6c-.697 1.207-1.167 2.023-1.46 2.657-.295.642-.3.876-.292.95a1.5 1.5 0 0 0 .61 1.056c.06.044.265.157.968.222.696.064 1.638.065 3.031.065h.31v1.5h-.31c-2.728 0-4.092 0-4.88-.573a3 3 0 0 1-1.22-2.113c-.103-.97.58-2.151 1.943-4.514l3.81-6.6c1.365-2.363 2.047-3.544 2.938-3.94a3 3 0 0 1 2.44 0c.89.396 1.573 1.577 2.937 3.94l3.81 6.6c1.364 2.363 2.047 3.544 1.945 4.514a3 3 0 0 1-1.22 2.113c-.79.573-2.153.573-4.882.573H15.5V19h.311c1.394 0 2.335-.002 3.031-.065.704-.065.909-.178.969-.221a1.5 1.5 0 0 0 .61-1.057c.008-.074.003-.308-.293-.95-.293-.634-.762-1.45-1.459-2.657"/><path fill="#110529" d="M12.75 16.5V8h-1.5v8.5zM11.25 20.5V19h1.5v1.5z"/></svg>