<svg width="16" height="16" viewBox="0 0 16 16" fill="none" xmlns="http://www.w3.org/2000/svg">
<path fill-rule="evenodd" clip-rule="evenodd" d="M15.1107 6.58559C15.4379 8.23069 15.1846 9.93835 14.3939 11.4176L13.071 10.7105C13.6981 9.53731 13.899 8.18296 13.6395 6.87823C13.38 5.57349 12.6761 4.39912 11.6478 3.55519C10.6194 2.71126 9.33029 2.25 7.99999 2.25V0.75C9.67732 0.75 11.3028 1.33159 12.5993 2.39567C13.8959 3.45976 14.7835 4.94049 15.1107 6.58559ZM0.889318 9.41441C0.562088 7.76931 0.815396 6.06165 1.60608 4.58238L2.92896 5.28948C2.30187 6.46269 2.10097 7.81704 2.3605 9.12177C2.62002 10.4265 3.32392 11.6009 4.35225 12.4448C5.38058 13.2887 6.66971 13.75 8.00001 13.75V15.25C6.32268 15.25 4.69725 14.6684 3.40066 13.6043C2.10407 12.5402 1.21655 11.0595 0.889318 9.41441Z" fill="#fff"/>
</svg>
