<svg width="24" height="24" viewBox="0 0 24 24" fill="none" xmlns="http://www.w3.org/2000/svg">
<path d="M18 12H21M21 12H24M21 12V9M21 12V15" stroke="#110529" stroke-width="1.5"/>
<path fill-rule="evenodd" clip-rule="evenodd" d="M2.25 18C2.25 20.0711 3.92893 21.75 6 21.75H12L18 21.75C20.0711 21.75 21.75 20.0711 21.75 18H20.25C20.25 19.2426 19.2426 20.25 18 20.25L12.75 20.25L12.75 3.75L18 3.75C19.2426 3.75 20.25 4.75736 20.25 6H21.75C21.75 3.92893 20.0711 2.25 18 2.25L12 2.25H6C3.92893 2.25 2.25 3.92893 2.25 6L2.25 18ZM6 20.25C4.75736 20.25 3.75 19.2426 3.75 18L3.75 6C3.75 4.75736 4.75736 3.75 6 3.75H11.25L11.25 20.25L6 20.25Z" fill="#110529"/>
</svg>
