<svg width="24" height="24" viewBox="0 0 24 24" fill="none" xmlns="http://www.w3.org/2000/svg">
<path fill-rule="evenodd" clip-rule="evenodd" d="M18.75 5.25V3H17.25V6V9H18.75V6.75H22V5.25H18.75ZM15 6.75H2V5.25H15V6.75ZM5.25 9V11.25H2V12.75H5.25V15H6.75V12V9H5.25ZM22 11.25H9V12.75H22V11.25ZM13.25 15V17.25H2V18.75H13.25V21H14.75V18V15H13.25ZM22 17.25H17V18.75H22V17.25Z" fill="#110529"/>
<path fill-rule="evenodd" clip-rule="evenodd" d="M2 6.75H15V5.25H2V6.75ZM9 11.25H22V12.75H9V11.25ZM17 17.25H22V18.75H17V17.25Z" fill="#07AD3E"/>
</svg>
