<svg xmlns="http://www.w3.org/2000/svg" width="16" height="16" fill="none"><g clip-path="url(#a)"><path fill="#110529" d="M11 8.25H5v-1.5h6zM5 11.25h6v-1.5H5z"/><path fill="#110529" fill-rule="evenodd" d="M3.5 1.541A3 3 0 0 0 1 4.5V13a3 3 0 0 0 3 3h8a3 3 0 0 0 3-3V4.5a3 3 0 0 0-2.5-2.959v1.544a1.5 1.5 0 0 1 1 1.415V13a1.5 1.5 0 0 1-1.5 1.5H4A1.5 1.5 0 0 1 2.5 13V4.5a1.5 1.5 0 0 1 1-1.415z" clip-rule="evenodd"/><rect width="4.5" height="3" x="5.75" y=".75" stroke="#110529" stroke-width="1.5" rx="1.5"/></g><defs><clipPath id="a"><path fill="#fff" d="M0 0h16v16H0z"/></clipPath></defs></svg>