<svg xmlns="http://www.w3.org/2000/svg" width="16" height="17" fill="none"><path fill="#110529" fill-rule="evenodd" d="M8 3h7v1.5H1V3z" clip-rule="evenodd"/><path fill="#110529" d="M12 4.5V8h1.5V4.5z"/><path fill="#110529" fill-rule="evenodd" d="M4 12.25a2.25 2.25 0 0 0 2.25 2.25H8V16H6.25a3.75 3.75 0 0 1-3.75-3.75V4.5H4zM11.69 13.03l-1.97-1.97L10.78 10l1.97 1.97L14.72 10l1.06 1.06-1.969 1.97 1.97 1.97-1.061 1.06-1.97-1.969-1.97 1.97L9.72 15z" clip-rule="evenodd"/><path fill="#110529" d="M4 0h8v1.5H4z"/></svg>