<svg xmlns="http://www.w3.org/2000/svg" width="16" height="16" fill="none"><path fill="#110529" fill-rule="evenodd" d="M3.972 11.979a5.6 5.6 0 0 0 1.062 1.429A4.083 4.083 0 0 1 1.327 6.52L4.157 3.69a4.083 4.083 0 0 1 6.634 4.513 4.1 4.1 0 0 1-.86 1.262l-1.183 1.183-1.06-1.06L8.87 8.405a2.583 2.583 0 1 0-3.653-3.653L2.388 7.58a2.583 2.583 0 0 0 1.584 4.399m2.215.454a4.086 4.086 0 0 0 5.63-.139l2.828-2.828a4.083 4.083 0 0 0-3.707-6.888l.053.052c.416.416.752.881 1.01 1.376a2.583 2.583 0 0 1 1.583 4.399l-2.828 2.829A2.583 2.583 0 0 1 7.102 7.58l1.173-1.173-1.06-1.06-1.173 1.172a4.083 4.083 0 0 0 .145 5.914" clip-rule="evenodd"/></svg>