<svg xmlns="http://www.w3.org/2000/svg" width="16" height="16" fill="none"><path fill="#110529" d="M7.686 9.589 8.87 8.405a2.583 2.583 0 0 0-3.653-3.653L2.388 7.58a2.583 2.583 0 0 0 2.034 4.402l1.244 1.243a4.084 4.084 0 0 1-4.338-6.706l2.828-2.828A4.083 4.083 0 1 1 9.93 9.466l-1.184 1.183z"/><path fill="#110529" d="M11.816 12.294A4.083 4.083 0 1 1 6.042 6.52l1.173-1.173 1.06 1.061L7.102 7.58a2.583 2.583 0 0 0 3.654 3.653l2.828-2.828a2.583 2.583 0 0 0-2.054-4.4l-1.239-1.239a4.084 4.084 0 0 1 4.354 6.7z"/></svg>