<svg xmlns="http://www.w3.org/2000/svg" width="16" height="16" fill="none"><g clip-path="url(#a)"><path fill="#110529" fill-rule="evenodd" d="M8 0q-.53 0-1.044.068l.194 1.487q.418-.054.85-.055.072 0 .144.002a6.47 6.47 0 0 1 3.037.828l1.093-1.094A7.96 7.96 0 0 0 8 0M4.938.607c-.651.27-1.258.623-1.809 1.046l.914 1.19c.448-.344.941-.631 1.47-.85zM1.652 3.13A8 8 0 0 0 .607 4.938l1.386.574a6.5 6.5 0 0 1 .85-1.469zM.068 6.956a8 8 0 0 0 0 2.088l1.487-.194a6.6 6.6 0 0 1 0-1.7zm.54 4.107c.27.65.622 1.257 1.045 1.808l1.19-.914a6.5 6.5 0 0 1-.85-1.47zm2.521 3.284c.55.423 1.158.776 1.809 1.046l.574-1.386a6.5 6.5 0 0 1-1.469-.85zm3.827 1.585a8 8 0 0 0 1.298.064 8 8 0 0 0 7.393-10.354l-1.242 1.242q.094.545.095 1.116a6.5 6.5 0 0 1-7.35 6.445zM14.661 3.8 13.66 4.801l-6.36 6.36L3.79 7.65l1.06-1.06L7.3 9.04l5.463-5.463.837-.838z" clip-rule="evenodd"/></g><defs><clipPath id="a"><path fill="#fff" d="M0 0h16v16H0z"/></clipPath></defs></svg>