<svg xmlns="http://www.w3.org/2000/svg" width="24" height="24" fill="none"><mask id="a" fill="#fff"><path fill-rule="evenodd" d="M4 9.5a1 1 0 0 0-1 1v3a1 1 0 0 0 1 1h3a1 1 0 0 0 1-1v-3a1 1 0 0 0-1-1zm6.5 0a1 1 0 0 0-1 1v3a1 1 0 0 0 1 1h3a1 1 0 0 0 1-1v-3a1 1 0 0 0-1-1zM3 17a1 1 0 0 1 1-1h3a1 1 0 0 1 1 1v3a1 1 0 0 1-1 1H4a1 1 0 0 1-1-1zm7.5-1a1 1 0 0 0-1 1v3a1 1 0 0 0 1 1h3a1 1 0 0 0 1-1v-3a1 1 0 0 0-1-1z" clip-rule="evenodd"/></mask><path fill="#fff" fill-rule="evenodd" d="M4 9.5a1 1 0 0 0-1 1v3a1 1 0 0 0 1 1h3a1 1 0 0 0 1-1v-3a1 1 0 0 0-1-1zm6.5 0a1 1 0 0 0-1 1v3a1 1 0 0 0 1 1h3a1 1 0 0 0 1-1v-3a1 1 0 0 0-1-1zM3 17a1 1 0 0 1 1-1h3a1 1 0 0 1 1 1v3a1 1 0 0 1-1 1H4a1 1 0 0 1-1-1zm7.5-1a1 1 0 0 0-1 1v3a1 1 0 0 0 1 1h3a1 1 0 0 0 1-1v-3a1 1 0 0 0-1-1z" clip-rule="evenodd"/><path fill="#110529" d="M4.5 10.5a.5.5 0 0 1-.5.5V8a2.5 2.5 0 0 0-2.5 2.5zm0 3v-3h-3v3zM4 13a.5.5 0 0 1 .5.5h-3A2.5 2.5 0 0 0 4 16zm3 0H4v3h3zm-.5.5A.5.5 0 0 1 7 13v3a2.5 2.5 0 0 0 2.5-2.5zm0-3v3h3v-3zm.5.5a.5.5 0 0 1-.5-.5h3A2.5 2.5 0 0 0 7 8zm-3 0h3V8H4zm7-.5a.5.5 0 0 1-.5.5V8A2.5 2.5 0 0 0 8 10.5zm0 3v-3H8v3zm-.5-.5a.5.5 0 0 1 .5.5H8a2.5 2.5 0 0 0 2.5 2.5zm3 0h-3v3h3zm-.5.5a.5.5 0 0 1 .5-.5v3a2.5 2.5 0 0 0 2.5-2.5zm0-3v3h3v-3zm.5.5a.5.5 0 0 1-.5-.5h3A2.5 2.5 0 0 0 13.5 8zm-3 0h3V8h-3zM4 14.5A2.5 2.5 0 0 0 1.5 17h3a.5.5 0 0 1-.5.5zm3 0H4v3h3zM9.5 17A2.5 2.5 0 0 0 7 14.5v3a.5.5 0 0 1-.5-.5zm0 3v-3h-3v3zM7 22.5A2.5 2.5 0 0 0 9.5 20h-3a.5.5 0 0 1 .5-.5zm-3 0h3v-3H4zM1.5 20A2.5 2.5 0 0 0 4 22.5v-3a.5.5 0 0 1 .5.5zm0-3v3h3v-3zm9.5 0a.5.5 0 0 1-.5.5v-3A2.5 2.5 0 0 0 8 17zm0 3v-3H8v3zm-.5-.5a.5.5 0 0 1 .5.5H8a2.5 2.5 0 0 0 2.5 2.5zm3 0h-3v3h3zm-.5.5a.5.5 0 0 1 .5-.5v3A2.5 2.5 0 0 0 16 20zm0-3v3h3v-3zm.5.5a.5.5 0 0 1-.5-.5h3a2.5 2.5 0 0 0-2.5-2.5zm-3 0h3v-3h-3z" mask="url(#a)"/><path fill="#07AD3E" fill-rule="evenodd" d="M4.5 6V4.5H13V6zM3 4a1 1 0 0 1 1-1h9.5a1 1 0 0 1 1 1v2.5a1 1 0 0 1-1 1H4a1 1 0 0 1-1-1zm16.5 15.5H18V11h1.5zm-2 1.5a1 1 0 0 1-1-1v-9.5a1 1 0 0 1 1-1H20a1 1 0 0 1 1 1V20a1 1 0 0 1-1 1z" clip-rule="evenodd"/></svg>