<svg xmlns="http://www.w3.org/2000/svg" width="24" height="24" fill="none"><path fill="#07AD3E" fill-rule="evenodd" d="M2.25 20.5h19.5V22H2.25z" clip-rule="evenodd" style="fill:#07ad3e;fill:color(display-p3 .0272 .68 .2448);fill-opacity:1"/><path fill="#110529" d="M7.25 7.192a1 1 0 0 1 1 1v10a1 1 0 0 1-1 1h-4a1 1 0 0 1-1-1v-10a1 1 0 0 1 1-1zm6.75 3a1 1 0 0 1 1 1v7a1 1 0 0 1-1 1h-4a1 1 0 0 1-1-1v-7a1 1 0 0 1 1-1zM20.75 2a1 1 0 0 1 1 1v15a1 1 0 0 1-1 1h-4a1 1 0 0 1-1-1V3a1 1 0 0 1 1-1zm-17 15.692h3v-9h-3zm6.75 0h3v-6h-3zM17.25 3.5v14h3v-14z" style="fill:#110529;fill:color(display-p3 .0661 .0192 .16);fill-opacity:1"/></svg>