<svg xmlns="http://www.w3.org/2000/svg" width="24" height="24" fill="none"><path fill="#110529" fill-rule="evenodd" d="M9.25 13.5c0 .69.56 1.25 1.25 1.25h3c.69 0 1.25-.56 1.25-1.25v-3c0-.69-.56-1.25-1.25-1.25h-3c-.69 0-1.25.56-1.25 1.25zm1.5-.25v-2.5h2.5v2.5zM9.25 20.5c0 .69.56 1.25 1.25 1.25h3c.69 0 1.25-.56 1.25-1.25v-3c0-.69-.56-1.25-1.25-1.25h-3c-.69 0-1.25.56-1.25 1.25zm1.5-.25v-2.5h2.5v2.5zM2.25 13.5c0 .69.56 1.25 1.25 1.25h3c.69 0 1.25-.56 1.25-1.25v-3c0-.69-.56-1.25-1.25-1.25h-3c-.69 0-1.25.56-1.25 1.25zm1.5-.25v-2.5h2.5v2.5zM2.25 20.5c0 .69.56 1.25 1.25 1.25h3c.69 0 1.25-.56 1.25-1.25v-3c0-.69-.56-1.25-1.25-1.25h-3c-.69 0-1.25.56-1.25 1.25zm1.5-.25v-2.5h2.5v2.5z" clip-rule="evenodd"/><path fill="#07AD3E" fill-rule="evenodd" d="M16.25 20.5c0 .69.56 1.25 1.25 1.25h3c.69 0 1.25-.56 1.25-1.25v-10c0-.69-.56-1.25-1.25-1.25h-3c-.69 0-1.25.56-1.25 1.25zm1.5-.25v-9.5h2.5v9.5zM2.25 6.5c0 .69.56 1.25 1.25 1.25h10c.69 0 1.25-.56 1.25-1.25v-3c0-.69-.56-1.25-1.25-1.25h-10c-.69 0-1.25.56-1.25 1.25zm1.5-.25v-2.5h9.5v2.5z" clip-rule="evenodd"/></svg>