<svg xmlns="http://www.w3.org/2000/svg" width="24" height="24" fill="none"><path fill="#110529" fill-rule="evenodd" d="M4.25 1.25v1.5h2V5H4a1 1 0 0 0-1 1v10a1 1 0 0 0 1 1h2.25v4.25h-2v1.5h5.5v-1.5h-2V17H10a1 1 0 0 0 1-1V6a1 1 0 0 0-1-1H7.75V2.75h2v-1.5zm.25 9.5h5v4.75h-5zm5-1.5h-5V6.5h5z" clip-rule="evenodd"/><path fill="#07AD3E" d="M18 3a1 1 0 1 1-2 0 1 1 0 0 1 2 0M17 15a1 1 0 1 1-2 0 1 1 0 0 1 2 0M18 17.5a1 1 0 1 0 0-2 1 1 0 0 0 0 2M17 6.5a1 1 0 1 1-2 0 1 1 0 0 1 2 0M18 9.5a1 1 0 1 0 0-2 1 1 0 0 0 0 2M21 15a1 1 0 1 1-2 0 1 1 0 0 1 2 0M15 13.5a1 1 0 1 0 0-2 1 1 0 0 0 0 2M15 16.5a1 1 0 1 1-2 0 1 1 0 0 1 2 0M16 19a1 1 0 1 0 0-2 1 1 0 0 0 0 2M18 11a1 1 0 1 1-2 0 1 1 0 0 1 2 0M18 14.5a1 1 0 1 0 0-2 1 1 0 0 0 0 2M18 20.5a1 1 0 1 1-2 0 1 1 0 0 1 2 0"/></svg>