<svg xmlns="http://www.w3.org/2000/svg" width="24" height="24" fill="none"><path fill="#110529" fill-rule="evenodd" d="M2.25 20.5h19.5V22H2.25zM3.75 2.5V4h-1.5V2.5zM3.75 5.5V7h-1.5V5.5zM3.75 8.5V10h-1.5V8.5zM3.75 11.5V13h-1.5v-1.5zM3.75 14.5V16h-1.5v-1.5zM3.75 17.5V19h-1.5v-1.5z" clip-rule="evenodd"/><path fill="#07AD3E" fill-rule="evenodd" d="M14.966 7.474 19.97 2.47l1.06 1.06-5.004 5.004a1.5 1.5 0 0 1-2.048.068l-2.944-2.575L6.03 11.03 4.97 9.97l5.003-5.004a1.5 1.5 0 0 1 2.049-.068z" clip-rule="evenodd"/><path fill="#110529" fill-rule="evenodd" d="M6.25 19v-5h1.5v5zM10.25 19v-9h1.5v9zM14.25 19v-7h1.5v7zM18.25 19V9h1.5v10z" clip-rule="evenodd"/></svg>