<svg xmlns="http://www.w3.org/2000/svg" width="24" height="24" fill="none"><path fill="#110529" fill-rule="evenodd" d="M2.25 20.5h19.5V22H2.25zM3.75 2.5V4h-1.5V2.5zM3.75 5.5V7h-1.5V5.5zM3.75 8.5V10h-1.5V8.5zM3.75 11.5V13h-1.5v-1.5zM3.75 14.5V16h-1.5v-1.5zM3.75 17.5V19h-1.5v-1.5z" clip-rule="evenodd"/><path fill="#07AD3E" fill-rule="evenodd" d="M10.25 11.5a2.25 2.25 0 1 1 4.5 0 2.25 2.25 0 0 1-4.5 0m2.25-.75a.75.75 0 1 0 0 1.5.75.75 0 0 0 0-1.5" clip-rule="evenodd"/><path fill="#07AD3E" fill-rule="evenodd" d="M10.25 14.5a2.25 2.25 0 1 1 4.5 0 2.25 2.25 0 0 1-4.5 0m2.25-.75a.75.75 0 1 0 0 1.5.75.75 0 0 0 0-1.5" clip-rule="evenodd"/><path fill="#07AD3E" fill-rule="evenodd" d="M10.25 17.5a2.25 2.25 0 1 1 4.5 0 2.25 2.25 0 0 1-4.5 0m2.25-.75a.75.75 0 1 0 0 1.5.75.75 0 0 0 0-1.5M5.25 17.5a2.25 2.25 0 1 1 4.5 0 2.25 2.25 0 0 1-4.5 0m2.25-.75a.75.75 0 1 0 0 1.5.75.75 0 0 0 0-1.5M13.25 8.5a2.25 2.25 0 1 1 4.5 0 2.25 2.25 0 0 1-4.5 0m2.25-.75a.75.75 0 1 0 0 1.5.75.75 0 0 0 0-1.5" clip-rule="evenodd"/><path fill="#07AD3E" fill-rule="evenodd" d="M13.25 5.5a2.25 2.25 0 1 1 4.5 0 2.25 2.25 0 0 1-4.5 0m2.25-.75a.75.75 0 1 0 0 1.5.75.75 0 0 0 0-1.5M13.25 17.5a2.25 2.25 0 1 1 4.5 0 2.25 2.25 0 0 1-4.5 0m2.25-.75a.75.75 0 1 0 0 1.5.75.75 0 0 0 0-1.5" clip-rule="evenodd"/><path fill="#07AD3E" fill-rule="evenodd" d="M16.25 17.5a2.25 2.25 0 1 1 4.5 0 2.25 2.25 0 0 1-4.5 0m2.25-.75a.75.75 0 1 0 0 1.5.75.75 0 0 0 0-1.5" clip-rule="evenodd"/><path fill="#07AD3E" fill-rule="evenodd" d="M16.25 14.5a2.25 2.25 0 1 1 4.5 0 2.25 2.25 0 0 1-4.5 0m2.25-.75a.75.75 0 1 0 0 1.5.75.75 0 0 0 0-1.5" clip-rule="evenodd"/><path fill="#07AD3E" fill-rule="evenodd" d="M13.25 14.5a2.25 2.25 0 1 1 4.5 0 2.25 2.25 0 0 1-4.5 0m2.25-.75a.75.75 0 1 0 0 1.5.75.75 0 0 0 0-1.5" clip-rule="evenodd"/><path fill="#07AD3E" fill-rule="evenodd" d="M13.25 11.5a2.25 2.25 0 1 1 4.5 0 2.25 2.25 0 0 1-4.5 0m2.25-.75a.75.75 0 1 0 0 1.5.75.75 0 0 0 0-1.5" clip-rule="evenodd"/></svg>