<svg xmlns="http://www.w3.org/2000/svg" width="24" height="24" fill="none"><path fill="#110529" fill-rule="evenodd" d="M4.25 1.25v1.5h2V5H4a1 1 0 0 0-1 1v10a1 1 0 0 0 1 1h2.25v4.25h-2v1.5h5.5v-1.5h-2V17H10a1 1 0 0 0 1-1V6a1 1 0 0 0-1-1H7.75V2.75h2v-1.5zm.25 9.5h5v4.75h-5zm5-1.5h-5V6.5h5z" clip-rule="evenodd"/><path fill="#07AD3E" fill-rule="evenodd" d="M14.25 7a2.25 2.25 0 1 1 4.485.262 2.25 2.25 0 0 1 0 4.476q.015.129.015.262a2.25 2.25 0 1 1-4.485-.262 2.25 2.25 0 0 1 0-4.476A2 2 0 0 1 14.25 7m2.25-.75a.75.75 0 1 0 0 1.5.75.75 0 0 0 0-1.5M13.75 9.5a.75.75 0 1 1 1.5 0 .75.75 0 0 1-1.5 0m4.75-.75a.75.75 0 1 0 0 1.5.75.75 0 0 0 0-1.5M15.75 12a.75.75 0 1 1 1.5 0 .75.75 0 0 1-1.5 0M14.25 18.5a2.25 2.25 0 1 1 4.5 0 2.25 2.25 0 0 1-4.5 0m2.25-.75a.75.75 0 1 0 0 1.5.75.75 0 0 0 0-1.5" clip-rule="evenodd"/></svg>