<svg xmlns="http://www.w3.org/2000/svg" width="24" height="24" fill="none"><path fill="#110529" fill-rule="evenodd" d="M1.5 12c0 5.775 4.725 10.5 10.5 10.5S22.5 17.775 22.5 12c0-.375 0-.825-.075-1.275l-.15-.975-.9.375c-1.05.375-2.025-.45-2.025-1.425 0-.375.15-.75.45-1.05l-.975-1.125a3.9 3.9 0 0 1-2.175.675c-2.1 0-3.75-1.65-3.75-3.75 0-.3.075-.675.15-.975l.225-.9-1.05-.075H12C6.225 1.5 1.5 6.225 1.5 12M3 12c0-4.8 3.75-8.7 8.475-9-.075.15-.075.3-.075.45a5.22 5.22 0 0 0 5.25 5.25c.45 0 .825-.075 1.2-.15v.15a2.997 2.997 0 0 0 3.15 3v.3c0 4.95-4.05 9-9 9s-9-4.05-9-9m19.5-9.75a.75.75 0 1 1-1.5 0 .75.75 0 0 1 1.5 0m-5.25 3a1.5 1.5 0 1 0 0-3 1.5 1.5 0 0 0 0 3M9.75 9a1.5 1.5 0 1 0 0-3 1.5 1.5 0 0 0 0 3m9 6a1.5 1.5 0 1 1-3 0 1.5 1.5 0 0 1 3 0M9 15.75a1.5 1.5 0 1 1-3 0 1.5 1.5 0 0 1 3 0m2.25-4.5a.75.75 0 1 1-1.5 0 .75.75 0 0 1 1.5 0M12 18a.75.75 0 1 0 0-1.5.75.75 0 0 0 0 1.5" clip-rule="evenodd"/></svg>