<svg xmlns="http://www.w3.org/2000/svg" width="24" height="24" fill="none"><path fill="#07AD3E" d="M4 17 7.393 6.56h2.182L12.968 17h-1.573l-.776-2.356H6.335L5.573 17zm2.798-3.777h3.357L8.466 8.075zM15.9 17.218c-1.733 0-2.646-1.073-2.646-2.35 0-1.181.638-1.935 1.849-2.32.906-.268 2.196-.434 3.465-.608-.05-1.08-.544-1.588-1.769-1.588-.826 0-1.58.362-1.849 1.232l-1.413-.435c.377-1.341 1.464-2.196 3.277-2.196 1.399 0 2.486.463 2.972 1.493.247.515.276 1.08.276 1.733V17H18.72v-1.138c-.645.92-1.551 1.356-2.82 1.356m-1.145-2.364c0 .609.442 1.124 1.413 1.124 1.29 0 2.052-.79 2.226-1.552.123-.362.152-.863.16-1.225-1.182.174-2.06.297-2.72.493-.623.21-1.08.544-1.08 1.16"/></svg>