<svg xmlns="http://www.w3.org/2000/svg" width="24" height="24" fill="none"><path fill="#110529" fill-rule="evenodd" d="M10.95 9.3c.3.3.675.45 1.05.45s.75-.15 1.05-.45l2.25-2.25c.3-.3.45-.675.45-1.05s-.15-.75-.45-1.05L13.05 2.7c-.3-.3-.675-.45-1.05-.45s-.75.15-1.05.45L8.7 4.95c-.3.3-.45.675-.45 1.05s.15.75.45 1.05zM9.75 6 12 3.75 14.25 6 12 8.25zm7.2 9.3c.3.3.675.45 1.05.45s.75-.15 1.05-.45l2.25-2.25c.3-.3.45-.675.45-1.05s-.15-.75-.45-1.05L19.05 8.7c-.3-.3-.675-.45-1.05-.45s-.75.15-1.05.45l-2.25 2.25c-.3.3-.45.675-.45 1.05s.15.75.45 1.05zm-1.2-3.3L18 9.75 20.25 12 18 14.25zM12 21.75c-.375 0-.75-.15-1.05-.45L8.7 19.05c-.3-.3-.45-.675-.45-1.05s.15-.75.45-1.05l2.25-2.25c.3-.3.675-.45 1.05-.45s.75.15 1.05.45l2.25 2.25c.3.3.45.675.45 1.05s-.15.75-.45 1.05l-2.25 2.25c-.3.3-.675.45-1.05.45m0-6L9.75 18 12 20.25 14.25 18zm-7.05-.45c.3.3.675.45 1.05.45s.75-.15 1.05-.45l2.25-2.25c.3-.3.45-.675.45-1.05s-.15-.75-.45-1.05L7.05 8.7c-.3-.3-.675-.45-1.05-.45s-.75.15-1.05.45L2.7 10.95c-.3.3-.45.675-.45 1.05s.15.75.45 1.05zM3.75 12 6 9.75 8.25 12 6 14.25z" clip-rule="evenodd"/></svg>