<svg xmlns="http://www.w3.org/2000/svg" width="24" height="24" fill="none"><path fill="#110529" d="M5.813 3.5H6V5h-.187C5.088 5 4.5 5.588 4.5 6.313V18A1.5 1.5 0 0 0 6 19.5h12a1.5 1.5 0 0 0 1.5-1.5V6.5A1.5 1.5 0 0 0 18 5V3.5a3 3 0 0 1 3 3V18a3 3 0 0 1-3 3H6a3 3 0 0 1-3-3V6.313A2.813 2.813 0 0 1 5.813 3.5"/><path fill="#110529" d="M16 12H8v-1.5h8zM8 16h8v-1.5H8z"/><path fill="#110529" fill-rule="evenodd" d="M13.5 3.5h-3a1 1 0 0 0 0 2h3a1 1 0 1 0 0-2m-3-1.5a2.5 2.5 0 0 0 0 5h3a2.5 2.5 0 0 0 0-5z" clip-rule="evenodd"/></svg>