<svg xmlns="http://www.w3.org/2000/svg" width="24" height="24" fill="none"><path fill="#110529" fill-rule="evenodd" d="M2.25 20.5h19.5V22H2.25zM3.75 2.5V4h-1.5V2.5zM3.75 5.5V7h-1.5V5.5zM3.75 8.5V10h-1.5V8.5zM3.75 11.5V13h-1.5v-1.5zM3.75 14.5V16h-1.5v-1.5zM3.75 17.5V19h-1.5v-1.5zM15.5 17.5v-12h3v12zM15 19a1 1 0 0 1-1-1V5a1 1 0 0 1 1-1h4a1 1 0 0 1 1 1v13a1 1 0 0 1-1 1z" clip-rule="evenodd"/><path fill="#110529" fill-rule="evenodd" d="M19.75 8.25h-5.5v1.5h5.5z" clip-rule="evenodd"/><path fill="#07AD3E" fill-rule="evenodd" d="M7.5 17.5v-7h3v7zM7 19a1 1 0 0 1-1-1v-8a1 1 0 0 1 1-1h4a1 1 0 0 1 1 1v8a1 1 0 0 1-1 1z" clip-rule="evenodd"/><path fill="#07AD3E" fill-rule="evenodd" d="M11.75 13.25h-5.5v1.5h5.5z" clip-rule="evenodd"/></svg>