<svg xmlns="http://www.w3.org/2000/svg" width="24" height="24" fill="none"><path fill="#110529" d="M6 3.5h-.187A2.813 2.813 0 0 0 3 6.313V18a3 3 0 0 0 3 3h12a3 3 0 0 0 3-3v-6h-1.5v6a1.5 1.5 0 0 1-1.5 1.5H6A1.5 1.5 0 0 1 4.5 18V6.313C4.5 5.588 5.088 5 5.813 5H6z"/><path fill="#110529" d="m21.03 6.53-1.06-1.06-8.47 8.47-2.97-2.97-1.06 1.06 4.03 4.03z"/><path fill="#110529" fill-rule="evenodd" d="M13.5 3.5h-3a1 1 0 0 0 0 2h3a1 1 0 1 0 0-2m-3-1.5a2.5 2.5 0 0 0 0 5h3a2.5 2.5 0 0 0 0-5z" clip-rule="evenodd"/></svg>