<svg xmlns="http://www.w3.org/2000/svg" width="24" height="24" fill="none"><path fill="#110529" fill-rule="evenodd" d="M7 3.5V2h1.5v1.5h2.75V2h1.5v1.5h2.75V2H17v1.5h.5a3 3 0 0 1 3 3V7H22v1.5h-1.5v2.75H22v1.5h-1.5v2.75H22V17h-1.5v.5a3 3 0 0 1-3 3H17V22h-1.5v-1.5h-2.75V22h-1.5v-1.5H8.5V22H7v-1.5h-.5a3 3 0 0 1-3-3V17H2v-1.5h1.5v-2.75H2v-1.5h1.5V8.5H2V7h1.5v-.5a3 3 0 0 1 3-3zM17 5H6.5A1.5 1.5 0 0 0 5 6.5v11A1.5 1.5 0 0 0 6.5 19h11a1.5 1.5 0 0 0 1.5-1.5v-11A1.5 1.5 0 0 0 17.5 5zM8.5 8.5v7h7v-7zM8 7a1 1 0 0 0-1 1v8a1 1 0 0 0 1 1h8a1 1 0 0 0 1-1V8a1 1 0 0 0-1-1z" clip-rule="evenodd"/></svg>