<svg xmlns="http://www.w3.org/2000/svg" width="24" height="24" fill="none"><path fill="#110529" d="M3.75 6A2.25 2.25 0 0 1 6 3.75h7v-1.5H6A3.75 3.75 0 0 0 2.25 6v12A3.75 3.75 0 0 0 6 21.75h12A3.75 3.75 0 0 0 21.75 18v-7h-1.5v7A2.25 2.25 0 0 1 18 20.25H6A2.25 2.25 0 0 1 3.75 18z"/><path fill="#110529" fill-rule="evenodd" d="M8.5 7.25c-.69 0-1.25.56-1.25 1.25v3q.002.269.104.5a1.25 1.25 0 0 0-.104.5v3c0 .69.56 1.25 1.25 1.25h3q.269-.002.5-.104.231.102.5.104h3c.69 0 1.25-.56 1.25-1.25v-3c0-.69-.56-1.25-1.25-1.25h-2.75V8.5c0-.69-.56-1.25-1.25-1.25zm2.75 8v-2.5h-2.5v2.5zm1.5 0h2.5v-2.5h-2.5zm-1.5-4v-2.5h-2.5v2.5z" clip-rule="evenodd"/><path fill="#07AD3E" fill-rule="evenodd" d="M16.25 3.5c0-.69.56-1.25 1.25-1.25h3c.69 0 1.25.56 1.25 1.25v3c0 .69-.56 1.25-1.25 1.25h-3c-.69 0-1.25-.56-1.25-1.25zm1.5.25v2.5h2.5v-2.5z" clip-rule="evenodd"/></svg>