<svg xmlns="http://www.w3.org/2000/svg" width="24" height="24" fill="none"><path fill="#110529" d="M15.5 2.25H12v1.5h3.25v7.5H13.5c-.69 0-1.25.56-1.25 1.25V21h1.5v-8.25h4.5v3.5h-.75c-.69 0-1.25.56-1.25 1.25V21h1.5v-3.25h2.5V21h1.5v-3.5c0-.69-.56-1.25-1.25-1.25h-.75V12.5c0-.69-.56-1.25-1.25-1.25h-1.75V3.5c0-.69-.56-1.25-1.25-1.25"/><path fill="#07AD3E" d="M10.5 3.75H7.25v3.5H8.5c.69 0 1.25.56 1.25 1.25V21h-1.5V8.75h-3.5V21h-1.5V8.5c0-.69.56-1.25 1.25-1.25h1.25V3.5c0-.69.56-1.25 1.25-1.25h3.5z"/></svg>