<svg xmlns="http://www.w3.org/2000/svg" width="24" height="24" fill="none"><path fill="#110529" fill-rule="evenodd" d="M16.25 16.25v2.25h-1.5V16c0-.69.56-1.25 1.25-1.25h3c.69 0 1.25.56 1.25 1.25v2.5h-1.5v-2.25z" clip-rule="evenodd"/><path fill="#110529" fill-rule="evenodd" d="M16.75 12.25v3.25h1.5V12c0-.69-.56-1.25-1.25-1.25h-4c-.69 0-1.25.56-1.25 1.25v6.5h1.5v-6.25z" clip-rule="evenodd"/><path fill="#110529" fill-rule="evenodd" d="M5.75 4c0-.69.56-1.25 1.25-1.25h7.5c.69 0 1.25.56 1.25 1.25v7.5h-1.5V4.25h-7V7.5h-1.5zM1.25 20.25h21.5v1.5H1.25z" clip-rule="evenodd"/><path fill="#07AD3E" fill-rule="evenodd" d="M7.25 4.25h3.5v-1.5H7c-.69 0-1.25.56-1.25 1.25v3.5h1.5z" clip-rule="evenodd"/><path fill="#07AD3E" fill-rule="evenodd" d="M7.75 8.25V18.5h1.5V8c0-.69-.56-1.25-1.25-1.25H5c-.69 0-1.25.56-1.25 1.25v10.5h1.5V8.25z" clip-rule="evenodd"/></svg>