<svg xmlns="http://www.w3.org/2000/svg" width="24" height="24" fill="none"><path fill="#110529" fill-rule="evenodd" d="M10.945 4.092a6 6 0 0 1 2.11 0l.749-1.87 1.392.557-.704 1.761a6.01 6.01 0 0 1 3.4 4.324l2.845-1.066.526 1.404L18 10.426v2.324h3.5v1.5h-3.505c-.03.73-.19 1.428-.46 2.068l2.9 2.072-.87 1.22-2.782-1.986A5.99 5.99 0 0 1 12 20a5.99 5.99 0 0 1-4.783-2.376L4.436 19.61l-.872-1.22 2.9-2.072a6 6 0 0 1-.459-2.068H2.5v-1.5H6v-2.324L2.737 9.202l.526-1.404 2.844 1.066A6.01 6.01 0 0 1 9.508 4.54L8.804 2.78l1.392-.558zM7.5 10.75V14c0 2.23 1.622 4.08 3.75 4.438V10.75zm5.25 7.688A4.5 4.5 0 0 0 16.5 14v-3.25h-3.75zm3.688-9.188H7.562a4.501 4.501 0 0 1 8.876 0" clip-rule="evenodd"/></svg>