<svg xmlns="http://www.w3.org/2000/svg" width="24" height="24" fill="none"><path fill="#110529" fill-rule="evenodd" d="M7.5 3.75c0-.69.56-1.25 1.25-1.25h6.5c.69 0 1.25.56 1.25 1.25V5.5h4V7h-17V5.5h4zM9 5.5h6V4H9z" clip-rule="evenodd"/><path fill="#110529" d="M17.5 7v5.5H19V7z"/><path fill="#110529" fill-rule="evenodd" d="M6.5 17.75A2.25 2.25 0 0 0 8.75 20H12v1.5H8.75A3.75 3.75 0 0 1 5 17.75V8.5h1.5z" clip-rule="evenodd"/><path fill="#110529" d="M6.5 7H5v1.5h1.5z"/><path fill="#07AD3E" fill-rule="evenodd" d="m17.19 18-2.97-2.97 1.06-1.06 2.97 2.97 2.97-2.97 1.06 1.06L19.31 18l2.97 2.97-1.06 1.06-2.97-2.97-2.97 2.97-1.06-1.06z" clip-rule="evenodd"/></svg>