<svg xmlns="http://www.w3.org/2000/svg" width="24" height="24" fill="none"><path fill="#110529" fill-rule="evenodd" d="M9.75 2.25h-5.5v1.5h2v5.604a2.751 2.751 0 0 0 0 5.293v5.603h-2v1.5h5.5v-1.5h-2v-5.603a2.751 2.751 0 0 0 0-5.293V3.75h2zM7 13.25a1.25 1.25 0 1 0 0-2.5 1.25 1.25 0 0 0 0 2.5" clip-rule="evenodd"/><path fill="#07AD3E" fill-rule="evenodd" d="M19.75 4.25h-5.5v1.5h2v3.604a2.751 2.751 0 0 0 0 5.293v3.603h-2v1.5h5.5v-1.5h-2v-3.604a2.751 2.751 0 0 0 0-5.292V5.75h2zm-2.75 9a1.25 1.25 0 1 0 0-2.5 1.25 1.25 0 0 0 0 2.5" clip-rule="evenodd"/></svg>