<svg xmlns="http://www.w3.org/2000/svg" width="24" height="24" fill="none"><path fill="#49CC49" d="M22 5a3 3 0 1 1-6 0 3 3 0 0 1 6 0"/><path fill="#110529" fill-rule="evenodd" d="M18.15 10.94 15 15v2.697c0 .502-.25.97-.668 1.248l-3.777 2.518A1 1 0 0 1 9 20.632V15L4.222 8.843A3 3 0 0 1 3.5 6.89V4.5A1.5 1.5 0 0 1 5 3h8.341a6 6 0 0 0-.32 1.5H5v1.75h8.13c.112.53.294 1.032.536 1.5H5.27a2 2 0 0 0 .09.116l4.778 6.158A1.5 1.5 0 0 1 10.5 15v4.697l3-2V15a1.5 1.5 0 0 1 .361-.976l2.735-3.525a6 6 0 0 0 1.554.441" clip-rule="evenodd"/></svg>