<svg xmlns="http://www.w3.org/2000/svg" width="24" height="24" fill="none"><path fill="#110529" fill-rule="evenodd" d="M17.098 7.165C18.672 8.96 20 11.148 20 14c0 4-3.118 8-8 8-4.744 0-8-4-8-8 0-3.207 1.26-6.835 6.473-10.882Q11.185 2.564 12 2c0 .271-.01.57-.02.884-.009.318-.02.652-.02.99C11.95 5.65 12.182 7.5 14 7.5c.437 0 .79-.128 1.07-.308C15.75 6.752 16 6 16 6c.37.37.74.758 1.098 1.165m-1 1.136C17.483 9.92 18.5 11.726 18.5 14c0 3.282-2.552 6.5-6.5 6.5-3.827 0-6.5-3.236-6.5-6.5 0-1.513.318-3.117 1.353-4.86.75-1.263 1.9-2.637 3.644-4.112q.027.362.086.719c.113.679.348 1.488.906 2.145.614.725 1.485 1.108 2.51 1.108a3.4 3.4 0 0 0 2.098-.699" clip-rule="evenodd"/><path fill="#110529" fill-rule="evenodd" d="M12 12c-2.5 2-4 4.095-4 6s1.5 4 4 4 4-2.095 4-4-1.5-4-4-6m1.697 3.879c-.413-.608-.98-1.248-1.697-1.907-.717.659-1.284 1.3-1.697 1.907-.581.855-.803 1.564-.803 2.121 0 1.225.97 2.5 2.5 2.5s2.5-1.275 2.5-2.5c0-.557-.222-1.266-.803-2.121" clip-rule="evenodd"/></svg>