<svg xmlns="http://www.w3.org/2000/svg" width="24" height="24" fill="none"><path fill="#110529" fill-rule="evenodd" d="M3 6.75A2.75 2.75 0 0 1 5.75 4h5.083c.27 0 .534.088.75.25L13.25 5.5h5A2.75 2.75 0 0 1 21 8.25v9A2.75 2.75 0 0 1 18.25 20H15.5v-1.5h2.75c.69 0 1.25-.56 1.25-1.25v-9c0-.69-.56-1.25-1.25-1.25h-5.083a1.25 1.25 0 0 1-.75-.25L10.75 5.5h-5c-.69 0-1.25.56-1.25 1.25v10.5c0 .69.56 1.25 1.25 1.25h5.5v-5.69l-2.22 2.22-1.06-1.06L12 9.94l4.03 4.03-1.06 1.06-2.22-2.22v5.94c0 .69-.56 1.25-1.25 1.25H5.75A2.75 2.75 0 0 1 3 17.25z" clip-rule="evenodd"/></svg>