<svg xmlns="http://www.w3.org/2000/svg" width="24" height="24" fill="none"><path fill="#110529" d="M13 6.25v1.5H4.5v-1.5H13"/><path fill="#110529" fill-rule="evenodd" d="m15 15 4.778-6.157A3 3 0 0 0 20.5 6.89V4.5A1.5 1.5 0 0 0 19 3H5a1.5 1.5 0 0 0-1.5 1.5v2.39a3 3 0 0 0 .722 1.953L9 15v5.631a1 1 0 0 0 1.555.832l3.777-2.518A1.5 1.5 0 0 0 15 17.697zm-1.139-.976A1.5 1.5 0 0 0 13.5 15v2.697l-3 2V15a1.5 1.5 0 0 0-.361-.976L5.36 7.866a2 2 0 0 1-.09-.116H4.5v-1.5H5V4.5h14v2.39a1.5 1.5 0 0 1-.361.976z" clip-rule="evenodd"/><path fill="#110529" d="M15 6.25h1.5v1.5H15z"/></svg>