<svg xmlns="http://www.w3.org/2000/svg" width="24" height="24" fill="none"><path fill="#110529" d="m14.546 4.679.4-3.8L13.454.72l-.4 3.8z"/><path fill="#110529" fill-rule="evenodd" d="M10.228 3.807a1 1 0 0 0-1.073-.106l-.073.038a1 1 0 0 0-.545.93l.168 4.315-3.59 2.4a1 1 0 0 0-.432.988l.013.08a1 1 0 0 0 .716.807l4.156 1.173 1.173 4.156a1 1 0 0 0 .806.716l.081.013a1 1 0 0 0 .988-.432l2.4-3.59 4.315.168a1 1 0 0 0 .93-.545l.038-.073a1 1 0 0 0-.106-1.073L17.52 10.38l1.494-4.052a1 1 0 0 0-.231-1.053l-.058-.058a1 1 0 0 0-1.053-.231L13.62 6.48zm-.007 5.538-.147-3.75 2.947 2.323a.75.75 0 0 0 .724.114l3.52-1.298-1.298 3.521a.75.75 0 0 0 .115.724l2.322 2.947-3.749-.147a.75.75 0 0 0-.653.333l-2.085 3.12-1.02-3.612a.75.75 0 0 0-.517-.518l-3.611-1.019 3.119-2.085a.75.75 0 0 0 .333-.653" clip-rule="evenodd"/><path fill="#110529" d="m7.47 15.47-6 6 1.06 1.06 6-6zM4.135 5.73l3.2 1.6-.67 1.34-3.2-1.6zM23.279 10.546l-3.8.4-.157-1.492 3.8-.4zM15.33 17.335l1.6 3.2 1.34-.67-1.6-3.2z"/></svg>