<svg xmlns="http://www.w3.org/2000/svg" width="24" height="24" fill="none"><path fill="#110529" fill-rule="evenodd" d="m3.53 21.53 18-18-1.06-1.06-2.75 2.75C16.041 3.89 14.11 3 12 3c-4.817.002-8.705 4.64-10.772 8.556a.95.95 0 0 0 0 .889c.951 1.802 2.288 3.757 3.924 5.342L2.47 20.47zm2.683-4.803C4.786 15.347 3.582 13.633 2.692 12c.966-1.773 2.304-3.643 3.894-5.075 1.672-1.504 3.506-2.424 5.415-2.425 1.621 0 3.19.664 4.65 1.788L14.248 8.69a4 4 0 0 0-5.557 5.557zm3.57-3.57a2.5 2.5 0 0 1 3.374-3.373z" clip-rule="evenodd"/><path fill="#110529" d="m15.978 11.578-4.4 4.4q.208.021.422.022a4 4 0 0 0 3.978-4.422"/><path fill="#110529" d="M12 19.5c-1.072 0-2.121-.291-3.132-.813l-1.105 1.105C9.066 20.542 10.487 21 12 21c4.816.002 8.705-4.64 10.772-8.555a.95.95 0 0 0 0-.889 23 23 0 0 0-2.72-4.052l-1.064 1.064A21.3 21.3 0 0 1 21.308 12c-.967 1.774-2.304 3.645-3.895 5.077-1.671 1.505-3.505 2.424-5.412 2.423"/></svg>