<svg xmlns="http://www.w3.org/2000/svg" width="24" height="24" fill="none"><path fill="#110529" fill-rule="evenodd" d="M12 4.75c-4.743 0-8.25 2.963-8.25 6.25 0 1.373.612 2.69 1.67 3.757l.022.022.05.05A8.1 8.1 0 0 0 8 16.47v.031a1 1 0 0 1-1 1c-.095 0-.28-.037-.49-.094a9.5 9.5 0 0 1-1.741-1.198 2.25 2.25 0 1 0 2.37-1.954 6 6 0 0 1-.364-.287 4.8 4.8 0 0 1-.92-1.039 3.75 3.75 0 0 1 4.835 4.245 11 11 0 0 0 2.112.048l.151 1.492a12.2 12.2 0 0 1-2.847-.111 3.746 3.746 0 0 1-4.86 1.213L3.53 21.53l-1.06-1.06 1.613-1.613A3.74 3.74 0 0 1 3.25 16.5c0-.557.121-1.085.339-1.56C2.743 13.8 2.25 12.462 2.25 11c0-4.445 4.552-7.75 9.75-7.75s9.75 3.305 9.75 7.75a6.45 6.45 0 0 1-.972 3.397l-1.232-.888c.455-.78.704-1.633.704-2.509 0-3.287-3.507-6.25-8.25-6.25m2.966 16.475-.854-8.45a.5.5 0 0 1 .79-.456l6.89 4.965a.5.5 0 0 1-.253.904l-3.61.286-2.054 2.984a.5.5 0 0 1-.91-.233" clip-rule="evenodd"/></svg>