<svg xmlns="http://www.w3.org/2000/svg" width="24" height="24" fill="none"><path fill="#110529" fill-rule="evenodd" d="M12.98 2.047a9.9 9.9 0 0 1 4.122 1.35l-1.1 1.102A8.46 8.46 0 0 0 12 3.5q-.423 0-.835.04l-.146-1.493a10 10 0 0 1 1.961 0M9.532 3.864l-.435-1.436a10 10 0 0 0-1.81.751l.707 1.322q.732-.392 1.538-.637M6.608 5.429l-.952-1.16q-.76.625-1.386 1.387l1.159.952q.532-.647 1.18-1.18M4.501 7.993 3.18 7.285a10 10 0 0 0-.75 1.811l1.435.435A8.4 8.4 0 0 1 4.5 7.993M2 12q0-.496.047-.98l1.493.145a8.6 8.6 0 0 0 0 1.67l-1.493.146Q2.001 12.496 2 12m1.864 2.469-1.436.435q.29.95.751 1.81l1.322-.707a8.4 8.4 0 0 1-.637-1.538m1.565 2.923-1.16.952q.625.76 1.387 1.386l.952-1.159a8.6 8.6 0 0 1-1.18-1.18m2.564 2.107-.708 1.322c.573.307 1.179.56 1.811.75l.435-1.435a8.4 8.4 0 0 1-1.538-.637m3.172.96-.145 1.494q.484.046.98.047h.062q.465-.003.918-.047C18.043 21.46 22 17.192 22 12c0-.773-.088-1.524-.253-2.247l-1.3 1.3a8.5 8.5 0 0 1-9.283 9.407M20.53 6.53l-1.06-1.06L11 13.94l-2.97-2.97-1.06 1.06L11 16.06z" clip-rule="evenodd"/></svg>