<svg xmlns="http://www.w3.org/2000/svg" width="24" height="24" fill="none"><path fill="#110529" d="M8.815 18.225c-2.197 0-3.765-1.568-3.765-3.765v-3.72c0-2.198 1.568-3.765 3.765-3.765s3.765 1.567 3.765 3.765v3.72c0 2.197-1.568 3.765-3.765 3.765m-2.167-3.668c0 1.208.96 2.168 2.167 2.168 1.208 0 2.168-.96 2.168-2.168v-3.93c0-1.2-.96-2.16-2.168-2.16-1.207 0-2.167.96-2.167 2.16zM15.874 12.375c-1.485 0-2.7-1.2-2.7-2.7 0-1.47 1.26-2.7 2.7-2.7 1.485 0 2.7 1.2 2.7 2.7s-1.215 2.7-2.7 2.7m-1.343-2.7a1.36 1.36 0 0 0 1.343 1.342 1.36 1.36 0 0 0 1.342-1.342 1.36 1.36 0 0 0-1.342-1.343 1.36 1.36 0 0 0-1.343 1.343"/></svg>