<svg xmlns="http://www.w3.org/2000/svg" width="24" height="24" fill="none"><path fill="#110529" d="M5.757 18v-1.883H.882v-1.485L4.392 7.2h1.792l-3.51 7.433h3.083v-2.925h1.59v2.925h1.072v1.485H7.347V18zM12.523 18.225c-1.665 0-3.06-1.103-3.503-2.678l1.508-.405c.247.96 1.14 1.568 2.04 1.568a2.113 2.113 0 0 0 2.122-2.108 2.12 2.12 0 0 0-2.122-2.114c-.886 0-1.493.42-1.83.87l-1.365-.48.33-5.678h5.827v1.477h-4.425l-.18 2.97a3.23 3.23 0 0 1 1.845-.585c2.018 0 3.503 1.516 3.503 3.54 0 2.01-1.733 3.623-3.75 3.623M19.265 12.375c-1.485 0-2.7-1.2-2.7-2.7 0-1.47 1.26-2.7 2.7-2.7 1.485 0 2.7 1.2 2.7 2.7s-1.215 2.7-2.7 2.7m-1.342-2.7a1.36 1.36 0 0 0 1.342 1.342 1.36 1.36 0 0 0 1.343-1.342 1.36 1.36 0 0 0-1.343-1.343 1.36 1.36 0 0 0-1.342 1.343"/></svg>