<svg xmlns="http://www.w3.org/2000/svg" width="24" height="24" fill="none"><path fill="#110529" d="M5.5 14.5h2v2h-2zM11.5 14.5h-2v2h2zM16.5 14.5h2v2h-2zM5.5 7.5h2v2h-2zM11.5 7.5h-2v2h2zM16.5 7.5h2v2h-2z"/><path fill="#110529" fill-rule="evenodd" d="M2.25 5.5c0-.69.56-1.25 1.25-1.25h17c.69 0 1.25.56 1.25 1.25v6q-.002.269-.104.5.102.231.104.5v6c0 .69-.56 1.25-1.25 1.25h-17c-.69 0-1.25-.56-1.25-1.25v-6q.002-.269.104-.5a1.25 1.25 0 0 1-.104-.5zm1.5 7.25h16.5v5.5H3.75zm16.5-7v5.5H3.75v-5.5z" clip-rule="evenodd"/></svg>