<svg xmlns="http://www.w3.org/2000/svg" width="24" height="24" fill="none"><path fill="#110529" d="M2 5.25h3.25V2h1.5v15.25H22v1.5h-3.25V22h-1.5v-3.25h-11a1 1 0 0 1-1-1v-11H2z"/><path fill="#110529" d="M18.75 6.25V15h-1.5V6.75H9v-1.5h8.75a1 1 0 0 1 1 1"/><path fill="#110529" fill-rule="evenodd" d="m21.468 3.593-1.375 1.375-1.06-1.06 1.374-1.376zm-5.5 5.5-1.375 1.375-1.06-1.06 1.374-1.376zm-2.75 2.75-1.375 1.375-1.06-1.06 1.374-1.376zm-2.75 2.75-1.375 1.375-1.06-1.06 1.374-1.376zm-5.5 5.5-1.375 1.375-1.06-1.06 1.374-1.376z" clip-rule="evenodd"/></svg>