<svg xmlns="http://www.w3.org/2000/svg" width="24" height="24" fill="none"><path fill="#110529" fill-rule="evenodd" d="M11.25 1.25h1.5v1.78a9 9 0 0 1 3.086.826l.89-1.54 1.299.75-.89 1.541a9 9 0 0 1 2.258 2.259l1.542-.89.75 1.299-1.541.89c.448.949.735 1.989.825 3.085h1.781v1.5h-7.845a3 3 0 0 1-3.708 2.141l-2.28 3.948a7.503 7.503 0 0 0 10.063-4.09h1.592q-.18.561-.428 1.087l1.54.89-.75 1.299-1.541-.89a9 9 0 0 1-2.259 2.258l.89 1.542-1.299.75-.89-1.541c-.949.448-1.989.735-3.085.825v1.781h-1.5v-1.78a9 9 0 0 1-3.086-.826l-.89 1.54-1.299-.75 3.923-6.794a3 3 0 1 1 5.007-2.89h4.558a7.5 7.5 0 0 0-8.57-6.669l-.797-1.38a9 9 0 0 1 1.154-.17zM13.5 12a1.5 1.5 0 1 1-3 0 1.5 1.5 0 0 1 3 0" clip-rule="evenodd"/><path fill="#110529" d="m8.164 3.856-.89-1.54-1.299.75.89 1.541a9 9 0 0 0-2.258 2.259l-1.542-.89-.75 1.299 1.541.89a9 9 0 0 0-.825 3.085H1.25v1.5h1.78a9 9 0 0 0 .826 3.086l-1.54.89.75 1.299 1.541-.89q.334.48.727.912l.795-1.379A7.47 7.47 0 0 1 4.5 12a7.49 7.49 0 0 1 3.119-6.088l2.28 3.947c.356-.35.801-.613 1.298-.75L8.917 5.16z"/></svg>