<svg xmlns="http://www.w3.org/2000/svg" width="24" height="24" fill="none"><path fill="#110529" fill-rule="evenodd" d="M15.5 11.134a1 1 0 0 1 0 1.732L11 15.464a1 1 0 0 1-1.5-.866V9.402a1 1 0 0 1 1.5-.866zm-4.5-.866L14 12l-3 1.732z" clip-rule="evenodd"/><path fill="#110529" fill-rule="evenodd" d="M23 12s0-3.953-.503-5.846a3.04 3.04 0 0 0-2.131-2.148C18.486 3.5 12 3.5 12 3.5s-6.482 0-8.365.506a3.04 3.04 0 0 0-2.132 2.148C1 8.047 1 12 1 12s0 3.953.503 5.846a3.04 3.04 0 0 0 2.132 2.148C5.518 20.5 12 20.5 12 20.5s6.486 0 8.366-.506a3.04 3.04 0 0 0 2.131-2.148C23 15.953 23 12 23 12m-1.953-5.461v-.001a1.54 1.54 0 0 0-1.073-1.084c-.326-.087-.96-.175-1.83-.246-.84-.068-1.8-.114-2.717-.146A113 113 0 0 0 12.069 5h-.138a70 70 0 0 0-.955.008c-.63.008-1.487.023-2.401.054-.917.032-1.878.078-2.717.146-.872.071-1.508.159-1.834.246-.51.138-.929.551-1.072 1.086-.206.778-.328 2.094-.391 3.324a49 49 0 0 0-.06 2.097l-.001.03v.047a26 26 0 0 0 .008.58c.007.389.022.925.053 1.518.063 1.23.185 2.547.391 3.325v.001c.14.526.553.942 1.074 1.084.326.088.962.175 1.832.246.84.068 1.8.114 2.717.146A113 113 0 0 0 11.93 19h.138a64 64 0 0 0 .955-.008c.63-.008 1.489-.023 2.403-.054a60 60 0 0 0 2.716-.146c.873-.072 1.508-.159 1.833-.246.51-.138.929-.552 1.072-1.087.206-.777.328-2.094.391-3.323a49 49 0 0 0 .06-2.097l.001-.03v-.17a45 45 0 0 0-.06-1.975c-.064-1.23-.186-2.547-.393-3.325" clip-rule="evenodd"/></svg>