<svg xmlns="http://www.w3.org/2000/svg" width="262" height="104" fill="none"><rect width="260" height="102" x="1" y="1" stroke="#845CFF" stroke-dasharray="10 5" rx="5"/><path fill="#110529" fill-rule="evenodd" d="M137.675 24.018c.19-.503.68-.784 1.171-.76 1.419.07 2.455.576 3.562 1.414.779-.203 1.699-.297 2.592-.297s1.813.094 2.592.297c1.107-.838 2.143-1.344 3.562-1.414.491-.024.981.258 1.171.76.404 1.069.393 2.425.01 3.624.533.815.829 1.547.988 2.216.177.742.177 1.377.177 1.875v.017c0 1.872-.806 3.27-2.034 4.244-.9.715-2.013 1.193-3.175 1.498.459.884.459 1.749.459 2.476V43h-1.5v-3c0-.989-.014-1.703-.78-2.47l.407-1.27c1.431-.238 2.731-.706 3.657-1.441.897-.713 1.466-1.69 1.466-3.069 0-.5-.002-.983-.136-1.545-.132-.555-.401-1.217-.974-2.02l-.239-.333.153-.38c.359-.898.408-1.928.191-2.699-.996.097-1.757.497-2.776 1.313l-.319.255-.387-.13c-.649-.216-1.562-.336-2.513-.336s-1.864.12-2.513.337l-.387.129-.319-.255c-1.019-.816-1.78-1.216-2.777-1.313-.216.771-.167 1.801.192 2.698l.153.381-.239.334c-.573.802-.842 1.464-.974 2.019-.134.562-.136 1.045-.136 1.545 0 1.378.569 2.356 1.466 3.069.926.735 2.226 1.203 3.657 1.441l.407 1.27c-.766.767-.78 1.481-.78 2.47v3h-1.5v-1.273c-.951-.06-2.105-.26-3.114-.821a4.45 4.45 0 0 1-1.704-1.634c-.438-.743-.682-1.66-.682-2.772h1.5c0 .888.193 1.533.474 2.01s.675.826 1.14 1.084c.72.4 1.589.57 2.386.63v-.256c0-.727 0-1.592.459-2.476-1.162-.305-2.275-.783-3.175-1.498-1.228-.975-2.034-2.372-2.034-4.244v-.017c0-.498 0-1.133.177-1.875.159-.67.455-1.401.988-2.216-.383-1.199-.394-2.555.01-3.624M222.493 25.907c-1.187.382-2.243 1.495-2.243 3.543v1.274h-.75c-1.667 0-3.536-.572-5.173-1.467-1.216-.665-2.352-1.534-3.202-2.538a5.16 5.16 0 0 0-.136 2.402c.226 1.23.854 2.035 1.682 2.209l-.308 1.468a3.2 3.2 0 0 1-.989-.387c.126.584.388.99.679 1.275.563.55 1.362.768 1.974.768v1.5c-.384 0-.825-.056-1.276-.19.235.46.585.814.993 1.072.781.495 1.774.636 2.574.436l.632 1.328-.45-.6.45.6-.001.001-.002.001-.004.003-.009.007-.029.02-.094.063q-.118.078-.338.198c-.293.158-.721.36-1.293.554-.801.274-1.879.533-3.254.647.803.48 1.803.823 2.91 1.005 1.838.304 3.85.146 5.481-.443 1.913-.69 3.571-1.876 4.754-3.609s1.922-4.058 1.922-7.076v-.327l.236-.219.004-.004.034-.035q.051-.053.145-.172c.124-.159.29-.4.441-.72a4.2 4.2 0 0 0 .397-1.832c-.432.196-.965.416-1.444.553l-.487.139-.311-.4c-.84-1.08-2.277-1.446-3.515-1.047m6.033-1.047a.75.75 0 0 1 1.086.511c.332 1.606.013 2.883-.403 3.763a5.3 5.3 0 0 1-.718 1.13c-.047 3.134-.842 5.669-2.181 7.63-1.381 2.021-3.309 3.388-5.484 4.173-1.893.683-4.167.853-6.234.512-2.052-.338-4.027-1.205-5.188-2.724a.751.751 0 0 1 .613-1.205c1.386.03 2.516-.096 3.406-.28a5 5 0 0 1-.482-.267c-1.081-.685-1.894-1.835-1.996-3.403-.873-.891-1.346-2.242-1.071-4.104a5.7 5.7 0 0 1-.36-1.204c-.28-1.525-.015-3.311.883-4.567a.75.75 0 0 1 1.259.061c.666 1.153 1.911 2.246 3.391 3.055 1.214.664 2.527 1.103 3.708 1.239.094-2.51 1.502-4.129 3.277-4.701 1.628-.525 3.526-.147 4.803 1.147.319-.118.656-.264.953-.402.215-.1.401-.192.533-.258l.154-.079.039-.02.01-.005z" clip-rule="evenodd"/><path fill="#110529" d="M33 30a1 1 0 1 0 0-2 1 1 0 0 0 0 2M32.25 31v7h1.5v-7zM38.784 32.437c-1.063.048-2.034.797-2.034 2.063V38h-1.5v-7h1.5v.593a3.83 3.83 0 0 1 1.966-.655c.852-.038 1.74.212 2.425.823.696.623 1.109 1.556 1.109 2.739V38h-1.5v-3.5c0-.817-.274-1.321-.61-1.62-.346-.31-.833-.467-1.356-.443"/><path fill="#110529" fill-rule="evenodd" d="M46 27a3 3 0 0 0-3-3H31a3 3 0 0 0-3 3v12a3 3 0 0 0 3 3h12a3 3 0 0 0 3-3zm-15-1.5h12a1.5 1.5 0 0 1 1.5 1.5v12a1.5 1.5 0 0 1-1.5 1.5H31a1.5 1.5 0 0 1-1.5-1.5V27a1.5 1.5 0 0 1 1.5-1.5M112.5 32.134a1 1 0 0 1 0 1.732l-4.5 2.598a1 1 0 0 1-1.5-.866v-5.196a1 1 0 0 1 1.5-.866zm-4.5-.866L111 33l-3 1.732z" clip-rule="evenodd"/><path fill="#110529" fill-rule="evenodd" d="M120 33s0-3.953-.503-5.846a3.04 3.04 0 0 0-2.132-2.148C115.486 24.5 109 24.5 109 24.5s-6.482 0-8.365.506a3.04 3.04 0 0 0-2.132 2.148C98 29.047 98 33 98 33s0 3.953.503 5.846a3.04 3.04 0 0 0 2.132 2.148c1.883.506 8.365.506 8.365.506s6.486 0 8.365-.506a3.03 3.03 0 0 0 2.132-2.148C120 36.953 120 33 120 33m-1.952-5.461-.001-.001a1.53 1.53 0 0 0-1.073-1.084c-.326-.088-.96-.175-1.831-.246-.839-.068-1.8-.114-2.716-.146a114 114 0 0 0-3.358-.062h-.138a63 63 0 0 0-.955.008c-.63.008-1.487.023-2.401.054a60 60 0 0 0-2.717.146c-.872.072-1.508.159-1.834.246a1.54 1.54 0 0 0-1.072 1.086c-.206.778-.328 2.095-.391 3.324a49 49 0 0 0-.06 2.097l-.001.03v.047a38 38 0 0 0 .008.58c.007.389.023.925.053 1.518.063 1.23.185 2.547.391 3.325v.001c.14.526.553.942 1.074 1.084.326.087.962.175 1.832.246.839.068 1.8.114 2.717.146a113 113 0 0 0 3.356.062h.138a63 63 0 0 0 .955-.008c.63-.008 1.488-.023 2.403-.054a60 60 0 0 0 2.716-.146c.873-.072 1.508-.159 1.833-.246a1.54 1.54 0 0 0 1.072-1.087c.206-.777.328-2.094.391-3.323a45 45 0 0 0 .06-1.976l.001-.121v-.077l-.001-.103v-.02l-.007-.457a45 45 0 0 0-.053-1.518c-.063-1.23-.185-2.547-.391-3.325" clip-rule="evenodd"/><path fill="#DFE0E6" d="M43.222 63A1.78 1.78 0 0 1 45 64.778v12.444A1.78 1.78 0 0 1 43.222 79H30.778A1.78 1.78 0 0 1 29 77.222V64.778A1.78 1.78 0 0 1 30.778 63zm-.444 13.778v-4.711a2.9 2.9 0 0 0-2.898-2.898c-.756 0-1.636.462-2.062 1.155v-.986h-2.48v7.44h2.48v-4.382a1.24 1.24 0 1 1 2.48 0v4.382zm-10.33-8.836a1.493 1.493 0 0 0 1.494-1.493c0-.827-.666-1.502-1.493-1.502a1.5 1.5 0 0 0-1.502 1.502c0 .827.675 1.493 1.502 1.493m1.236 8.836v-7.44h-2.462v7.44z"/><path fill="#DFE0E6" fill-rule="evenodd" d="M116.814 63.948c.86.246 1.538.973 1.768 1.894C119 67.513 119 71 119 71s0 3.487-.418 5.158c-.23.921-.908 1.648-1.768 1.894-1.56.448-7.814.448-7.814.448s-6.254 0-7.814-.448c-.86-.246-1.538-.973-1.768-1.894C99 74.487 99 71 99 71s0-3.487.418-5.158c.23-.921.908-1.648 1.768-1.894C102.746 63.5 109 63.5 109 63.5s6.254 0 7.814.448m-4.632 7.214a.19.19 0 0 0 0-.324l-4.909-2.923c-.122-.072-.273.018-.273.162v5.846c0 .144.151.234.273.162z" clip-rule="evenodd"/><path fill="#DFE0E6" d="M83.19 65.382a8 8 0 0 1-2.316.65 4.05 4.05 0 0 0 1.77-2.24 8.1 8.1 0 0 1-2.56.988c-.744-.81-1.789-1.28-2.975-1.28-2.211 0-4.018 1.807-4.018 4.038 0 .32.037.63.103.922a11.48 11.48 0 0 1-8.32-4.216 4 4 0 0 0-.546 2.023c0 1.402.706 2.645 1.798 3.35-.668 0-1.29-.188-1.835-.47v.028a4.04 4.04 0 0 0 3.237 3.963 4 4 0 0 1-1.816.066 4.03 4.03 0 0 0 3.764 2.804 8.02 8.02 0 0 1-5.016 1.732q-.48 0-.96-.056a11.43 11.43 0 0 0 6.193 1.816c7.416 0 11.492-6.155 11.492-11.492 0-.179 0-.348-.01-.527a8.1 8.1 0 0 0 2.014-2.099"/><path fill="#110529" d="M77.739 25.178A.5.5 0 0 1 78.12 25h1.301a.5.5 0 0 1 .383.822L74.8 31.777l5.547 7.635a1 1 0 0 1-.81 1.588h-3.03a.5.5 0 0 1-.403-.204l-3.959-5.39-4.551 5.416a.5.5 0 0 1-.383.178H65.91a.5.5 0 0 1-.383-.822l5.401-6.427-5.258-7.159A1 1 0 0 1 66.475 25h3.15a.5.5 0 0 1 .404.206l3.564 4.907zm-.765 14.197h1.444L69.094 26.54h-1.55z"/><path fill="#DFE0E6" d="M145 61a10 10 0 0 0-10 10c0 4.42 2.87 8.17 6.84 9.5.5.08.66-.23.66-.5v-1.69c-2.77.6-3.36-1.34-3.36-1.34-.46-1.16-1.11-1.47-1.11-1.47-.91-.62.07-.6.07-.6 1 .07 1.53 1.03 1.53 1.03.87 1.52 2.34 1.07 2.91.83.09-.65.35-1.09.63-1.34-2.22-.25-4.55-1.11-4.55-4.92 0-1.11.38-2 1.03-2.71-.1-.25-.45-1.29.1-2.64 0 0 .84-.27 2.75 1.02.79-.22 1.65-.33 2.5-.33s1.71.11 2.5.33c1.91-1.29 2.75-1.02 2.75-1.02.55 1.35.2 2.39.1 2.64.65.71 1.03 1.6 1.03 2.71 0 3.82-2.34 4.66-4.57 4.91.36.31.69.92.69 1.85V80c0 .27.16.59.67.5 3.97-1.34 6.83-5.08 6.83-9.5a10 10 0 0 0-2.929-7.071A10 10 0 0 0 145 61"/></svg>