<svg xmlns="http://www.w3.org/2000/svg" width="24" height="24" fill="none"><path fill="#110529" fill-rule="evenodd" d="M4.675 3.018c.19-.503.68-.784 1.17-.76 1.42.07 2.456.576 3.563 1.414.779-.203 1.699-.297 2.592-.297s1.813.094 2.592.297c1.107-.838 2.143-1.344 3.562-1.414.491-.024.981.257 1.171.76.404 1.069.393 2.425.01 3.624.533.815.83 1.546.988 2.216.177.742.177 1.377.177 1.875v.017c0 1.872-.806 3.27-2.034 4.244-.9.715-2.013 1.193-3.175 1.498.46.884.46 1.749.459 2.476V22h-1.5v-3c0-.989-.014-1.703-.78-2.47l.407-1.27c1.43-.238 2.73-.706 3.657-1.441.897-.713 1.466-1.69 1.466-3.069 0-.5-.002-.983-.136-1.545-.132-.555-.401-1.217-.974-2.019l-.239-.334.153-.38c.359-.898.408-1.928.192-2.699-.997.097-1.758.497-2.777 1.313l-.32.255-.386-.13c-.649-.216-1.562-.336-2.513-.336s-1.864.12-2.513.337L9.1 5.34l-.319-.255C7.762 4.27 7.001 3.87 6.004 3.773c-.216.771-.167 1.801.192 2.698l.153.381-.239.334c-.573.802-.842 1.464-.974 2.019C5.002 9.767 5 10.25 5 10.75c0 1.378.569 2.356 1.466 3.069.926.735 2.226 1.203 3.657 1.441l.407 1.27c-.766.767-.78 1.481-.78 2.47v3h-1.5v-1.273c-.951-.06-2.105-.26-3.114-.821a4.45 4.45 0 0 1-1.704-1.634c-.438-.743-.682-1.66-.682-2.772h1.5c0 .888.193 1.533.474 2.01a2.95 2.95 0 0 0 1.14 1.084c.72.4 1.59.57 2.386.63v-.256c0-.727 0-1.592.46-2.476-1.163-.305-2.276-.783-3.176-1.498C4.306 14.019 3.5 12.622 3.5 10.75v-.017c0-.498 0-1.133.177-1.875.159-.67.455-1.401.988-2.216-.383-1.199-.394-2.555.01-3.624" clip-rule="evenodd"/></svg>