<svg xmlns="http://www.w3.org/2000/svg" width="24" height="24" fill="none"><path fill="#110529" fill-rule="evenodd" d="M15.493 4.906c-1.187.383-2.243 1.496-2.243 3.544v1.274h-.75c-1.667 0-3.536-.572-5.173-1.467-1.216-.665-2.352-1.534-3.202-2.538-.23.739-.283 1.6-.136 2.402.226 1.23.854 2.035 1.682 2.209l-.308 1.468a3.2 3.2 0 0 1-.989-.387c.126.584.388.99.679 1.275.563.55 1.362.768 1.974.768v1.5a4.6 4.6 0 0 1-1.276-.19c.235.46.585.814.993 1.072.78.495 1.774.636 2.574.436L9.95 17.6 9.5 17l.45.6-.001.001-.002.001-.004.003-.01.007a2 2 0 0 1-.122.083c-.08.05-.191.119-.338.198-.293.158-.721.36-1.293.554-.801.274-1.88.533-3.254.647.803.48 1.803.822 2.91 1.005 1.838.304 3.85.146 5.481-.443 1.913-.69 3.57-1.876 4.754-3.609s1.922-4.058 1.922-7.076v-.327l.236-.219.004-.004.034-.036q.052-.053.145-.171c.124-.159.29-.4.44-.72a4.2 4.2 0 0 0 .398-1.832c-.432.196-.965.416-1.444.553l-.487.138-.31-.399c-.841-1.08-2.279-1.446-3.517-1.048m6.033-1.046a.75.75 0 0 1 1.087.511c.33 1.606.012 2.883-.404 3.763a5.3 5.3 0 0 1-.718 1.13c-.047 3.134-.843 5.669-2.181 7.63-1.381 2.021-3.31 3.388-5.484 4.173-1.893.683-4.167.853-6.234.512-2.052-.338-4.027-1.204-5.188-2.724a.75.75 0 0 1 .613-1.205c1.386.03 2.516-.097 3.406-.28a5 5 0 0 1-.482-.267c-1.08-.685-1.894-1.835-1.996-3.404-.873-.89-1.346-2.24-1.07-4.103a5.6 5.6 0 0 1-.361-1.204c-.28-1.525-.015-3.312.883-4.567a.75.75 0 0 1 1.26.061c.665 1.153 1.91 2.246 3.39 3.055 1.214.664 2.527 1.103 3.708 1.239.095-2.51 1.502-4.13 3.278-4.701 1.627-.525 3.525-.147 4.802 1.147.32-.118.656-.264.953-.402a19 19 0 0 0 .686-.337l.04-.02.01-.005z" clip-rule="evenodd"/></svg>