<svg xmlns="http://www.w3.org/2000/svg" width="24" height="24" fill="none"><path fill="#110529" d="M7.5 14.5h-2v2h2zM9.5 14.5h2v2h-2zM16.5 14.5h2v2h-2z"/><path fill="#110529" fill-rule="evenodd" d="M13 4.25H3.5c-.69 0-1.25.56-1.25 1.25v6q.002.269.104.5a1.25 1.25 0 0 0-.104.5v6c0 .69.56 1.25 1.25 1.25h17c.69 0 1.25-.56 1.25-1.25v-6q-.002-.269-.104-.5.102-.231.104-.5v-.25h-18v-5.5H13zm7.25 8.5H3.75v5.5h16.5z" clip-rule="evenodd"/><path fill="#110529" d="M7.5 7.5h-2v2h2zM11.5 7.5h-2v2h2z"/><path fill="#49CC49" d="M22 5a3 3 0 1 1-6 0 3 3 0 0 1 6 0"/></svg>