<svg xmlns="http://www.w3.org/2000/svg" width="24" height="24" fill="none"><path fill="#110529" d="M8 9a1 1 0 1 0 0-2 1 1 0 0 0 0 2M7.25 10v7h1.5v-7zM13.784 11.437c-1.063.048-2.034.797-2.034 2.063V17h-1.5v-7h1.5v.593a3.83 3.83 0 0 1 1.966-.655c.852-.038 1.74.212 2.425.823.696.623 1.109 1.556 1.109 2.739V17h-1.5v-3.5c0-.817-.274-1.321-.61-1.62-.347-.31-.833-.467-1.356-.443"/><path fill="#110529" fill-rule="evenodd" d="M21 6a3 3 0 0 0-3-3H6a3 3 0 0 0-3 3v12a3 3 0 0 0 3 3h12a3 3 0 0 0 3-3zM6 4.5h12A1.5 1.5 0 0 1 19.5 6v12a1.5 1.5 0 0 1-1.5 1.5H6A1.5 1.5 0 0 1 4.5 18V6A1.5 1.5 0 0 1 6 4.5" clip-rule="evenodd"/></svg>