<svg xmlns="http://www.w3.org/2000/svg" width="24" height="24" fill="none"><path fill="#110529" fill-rule="evenodd" d="M2.25 20.5h19.5V22H2.25zM3.75 2.5V4h-1.5V2.5zM3.75 5.5V7h-1.5V5.5zM3.75 8.5V10h-1.5V8.5zM3.75 11.5V13h-1.5v-1.5zM3.75 14.5V16h-1.5v-1.5zM3.75 17.5V19h-1.5v-1.5z" clip-rule="evenodd"/><path fill="#07AD3E" d="M20 5a1 1 0 1 1-2 0 1 1 0 0 1 2 0M8 9a1 1 0 1 0 0-2 1 1 0 0 0 0 2M16 17a1 1 0 1 0 0-2 1 1 0 0 0 0 2"/><path fill="#110529" d="M13 6a1 1 0 1 0 0-2 1 1 0 0 0 0 2M16 9a1 1 0 1 0 0-2 1 1 0 0 0 0 2M8 17a1 1 0 1 0 0-2 1 1 0 0 0 0 2M20 11a1 1 0 1 1-2 0 1 1 0 0 1 2 0M15 12a1 1 0 1 0 0-2 1 1 0 0 0 0 2M10 13a1 1 0 1 1-2 0 1 1 0 0 1 2 0M11 16a1 1 0 1 0 0-2 1 1 0 0 0 0 2M14 9a1 1 0 1 1-2 0 1 1 0 0 1 2 0M13 12a1 1 0 1 1-2 0 1 1 0 0 1 2 0"/></svg>