<svg xmlns="http://www.w3.org/2000/svg" width="144" height="130" fill="none"><rect width="142" height="128" x="1" y="1" stroke="#9747FF" stroke-dasharray="10 5" rx="5"/><path fill="#110529" fill-rule="evenodd" d="M29.5 29.5v1h11v-1zM29 28a1 1 0 0 0-1 1v2a1 1 0 0 0 1 1h12a1 1 0 0 0 1-1v-2a1 1 0 0 0-1-1zM29.5 35.5v1h7v-1zM29 34a1 1 0 0 0-1 1v2a1 1 0 0 0 1 1h8a1 1 0 0 0 1-1v-2a1 1 0 0 0-1-1zM24.25 42V24h1.5v18zM24 71.5h18V73H24zm0 4.5h8v1.5h-8zm0 6v-1.5h16V82zm0 3h10v1.5H24z" clip-rule="evenodd"/><path fill="#CFD1DB" fill-rule="evenodd" d="M60 71.5h18V73H60zm5 4.5h8v1.5h-8zm-4 4.5h16V82H61zm3 4.5h10v1.5H64zM96 71.5h18V73H96zm10 4.5h8v1.5h-8zm-8 6v-1.5h16V82zm6 3h10v1.5h-10zM63.5 29.5v1h11v-1h-11M63 28a1 1 0 0 0-1 1v2a1 1 0 0 0 1 1h12a1 1 0 0 0 1-1v-2a1 1 0 0 0-1-1zM65.5 35.5v1h7v-1h-7M65 34a1 1 0 0 0-1 1v2a1 1 0 0 0 1 1h8a1 1 0 0 0 1-1v-2a1 1 0 0 0-1-1z" clip-rule="evenodd"/><path fill="#CFD1DB" fill-rule="evenodd" d="M68.25 35.5v-5h1.5v5zm0 1V42h1.5v-5.5zm1.5-7h-1.5V24h1.5zM97.5 29.5v1h11v-1zM97 28a1 1 0 0 0-1 1v2a1 1 0 0 0 1 1h12a1 1 0 0 0 1-1v-2a1 1 0 0 0-1-1zM101.5 35.5v1h7v-1zM101 34a1 1 0 0 0-1 1v2a1 1 0 0 0 1 1h8a1 1 0 0 0 1-1v-2a1 1 0 0 0-1-1zM112.25 42V24h1.5v18z" clip-rule="evenodd"/></svg>