<svg xmlns="http://www.w3.org/2000/svg" width="24" height="24" fill="none"><path fill="#110529" fill-rule="evenodd" d="m3 8.5-.7.27.001.003.002.006.008.019a5 5 0 0 0 .126.292 13.304 13.304 0 0 0 2.395 3.516L2.97 14.47l1.061 1.06 1.91-1.91a9.7 9.7 0 0 0 3.056 1.663l-.717 2.51 1.442.413.735-2.574q.734.117 1.544.118.81-.001 1.543-.118l.736 2.574 1.442-.412-.717-2.51a9.7 9.7 0 0 0 3.055-1.664l1.91 1.91 1.061-1.06-1.863-1.863q.173-.18.332-.36a13.3 13.3 0 0 0 2.063-3.157 8 8 0 0 0 .127-.292l.007-.02.002-.005.001-.002V8.77L21 8.5l-.7-.27-.003.01-.018.044-.08.184a11.807 11.807 0 0 1-1.822 2.785C17.03 12.773 14.968 14.25 12 14.25s-5.03-1.476-6.376-2.997a11.8 11.8 0 0 1-1.822-2.785 6 6 0 0 1-.099-.228L3.7 8.23zm.7-.27" clip-rule="evenodd"/></svg>