<svg xmlns="http://www.w3.org/2000/svg" width="24" height="24" fill="none"><path fill="#110529" d="M13 12.5a.5.5 0 1 0 0-1 .5.5 0 0 0 0 1"/><path fill="#110529" fill-rule="evenodd" d="M12 19.5a5.5 5.5 0 0 1-5.461-6.154C7.109 13.199 8.054 13 9 13c1.5 0 3 .5 3 .5s.9.3 2.002.435a1 1 0 0 1 1.996 0 12 12 0 0 0 1.49-.288q.012.176.012.353a5.5 5.5 0 0 1-5.5 5.5M9 16a1 1 0 1 0 0-2 1 1 0 0 0 0 2m2 1.5a.5.5 0 1 0 0-1 .5.5 0 0 0 0 1" clip-rule="evenodd"/><path fill="#110529" fill-rule="evenodd" d="M6.75 2.5c0-.69.56-1.25 1.25-1.25h8c.69 0 1.25.56 1.25 1.25V6c0 .302-.107.578-.285.794a8.75 8.75 0 1 1-9.93 0A1.25 1.25 0 0 1 6.75 6zm1.5.25v3h1v1.523l-.421.205a7.25 7.25 0 1 0 6.343 0l-.422-.205V5.75h1v-3z" clip-rule="evenodd"/></svg>