<svg width="16" height="16" viewBox="0 0 16 16" fill="none" xmlns="http://www.w3.org/2000/svg">
<path fill-rule="evenodd" clip-rule="evenodd" d="M8.8659 3.5L13.196 11C13.5809 11.6667 13.0998 12.5 12.33 12.5H11.0004V14H12.33C14.2545 14 15.4573 11.9167 14.4951 10.25L10.1649 2.75C9.20269 1.08333 6.79706 1.08333 5.83481 2.75L1.50468 10.25C0.542431 11.9167 1.74525 14 3.66975 14H5.00042V12.5H3.66975C2.89994 12.5 2.41882 11.6667 2.80372 11L7.13385 3.5C7.51875 2.83333 8.481 2.83333 8.8659 3.5Z" fill="#F1222F"/>
<path fill-rule="evenodd" clip-rule="evenodd" d="M8.75 6V11H7.25V6H8.75ZM7.25 12.5V14H8.75V12.5H7.25Z" fill="#F1222F"/>
</svg>
