<svg width="16" height="16" viewBox="0 0 16 16" fill="none" xmlns="http://www.w3.org/2000/svg">
<path fill-rule="evenodd" clip-rule="evenodd" d="M9.5 2.5H6.5V3.5H9.5V2.5ZM6 1H10C10.5523 1 11 1.44772 11 2V4C11 4.55228 10.5523 5 10 5H9.875H6C5.44772 5 5 4.55228 5 4V2C5 1.44772 5.44772 1 6 1ZM2.75 4.5C2.75 4.08579 3.08579 3.75 3.5 3.75V2.25C2.25736 2.25 1.25 3.25736 1.25 4.5V12C1.25 13.5188 2.48122 14.75 4 14.75H12C13.5188 14.75 14.75 13.5188 14.75 12V4.5C14.75 3.25736 13.7426 2.25 12.5 2.25V3.75C12.9142 3.75 13.25 4.08579 13.25 4.5V12C13.25 12.6904 12.6904 13.25 12 13.25H4C3.30964 13.25 2.75 12.6904 2.75 12V4.5ZM11 8.25H5V6.75H11V8.25ZM5 11.25H11V9.75H5V11.25Z" fill="#110529"/>
</svg>
