<svg width="24" height="24" viewBox="0 0 24 24" fill="none" xmlns="http://www.w3.org/2000/svg">
    <g clip-path="url(#clip0_8087_16724)">
        <path fill-rule="evenodd" clip-rule="evenodd" d="M11.2214 15.2214L13.5701 12.8727C15.2298 11.213 15.2298 8.52207 13.5701 6.86234C11.9104 5.20261 9.21943 5.20261 7.5597 6.86234L3.31706 11.105C1.65733 12.7647 1.65733 15.4557 3.31706 17.1154C4.38616 18.1845 5.88312 18.5649 7.25674 18.2567L8.45258 19.4526C6.38303 20.2767 3.93151 19.8512 2.2564 18.176C0.0108876 15.9305 0.0108879 12.2898 2.2564 10.0443L6.49904 5.80168C8.74456 3.55617 12.3853 3.55617 14.6308 5.80168C16.8763 8.0472 16.8763 11.6879 14.6308 13.9334L12.2821 16.2821L11.2214 15.2214Z" fill="#110529"/>
        <path fill-rule="evenodd" clip-rule="evenodd" d="M17.4594 18.176C15.2139 20.4216 11.5732 20.4216 9.32769 18.176C7.08218 15.9305 7.08218 12.2898 9.32769 10.0443L11.686 7.68601L12.7467 8.74667L10.3884 11.105C8.72862 12.7647 8.72862 15.4557 10.3884 17.1154C12.0481 18.7751 14.739 18.7751 16.3988 17.1154L20.6414 12.8727C22.3011 11.213 22.3011 8.52207 20.6414 6.86234C19.5764 5.79733 18.0868 5.41572 16.7175 5.71749L15.5197 4.51968C17.5863 3.70296 20.0307 4.13029 21.7021 5.80168C23.9476 8.0472 23.9476 11.6879 21.7021 13.9334L17.4594 18.176Z" fill="#07AD3E"/>
    </g>
    <defs>
        <clipPath id="clip0_8087_16724">
            <rect width="24" height="24" fill="white"/>
        </clipPath>
    </defs>
</svg>
