<svg width="24" height="24" viewBox="0 0 24 24" fill="none" xmlns="http://www.w3.org/2000/svg">
<path fill-rule="evenodd" clip-rule="evenodd" d="M6 2.25C3.92893 2.25 2.25 3.92893 2.25 6V18C2.25 20.0711 3.92893 21.75 6 21.75H18C20.0711 21.75 21.75 20.0711 21.75 18V6C21.75 3.92893 20.0711 2.25 18 2.25H6ZM3.75 6C3.75 4.75736 4.75736 3.75 6 3.75H18C19.2426 3.75 20.25 4.75736 20.25 6V6.25L6.5 6.25V7.75L20.25 7.75V18C20.25 19.2426 19.2426 20.25 18 20.25H6C4.75736 20.25 3.75 19.2426 3.75 18V6ZM7.53033 10.4697L10.5303 13.4697L11.0607 14L10.5303 14.5303L7.53033 17.5303L6.46967 16.4697L8.93934 14L6.46967 11.5303L7.53033 10.4697ZM17 17.25H12V15.75H17V17.25Z" fill="#110529"/>
</svg>
