<svg xmlns="http://www.w3.org/2000/svg" width="240" height="200" viewBox="0 0 240 200" fill="none">
  <rect width="240" height="200" fill="#F7F8FA"/>
  <ellipse cx="120" cy="168" rx="120" ry="20" fill="#9BABCC" fill-opacity="0.16"/>
  <path d="M191.879 89.4855C191.061 94.4027 174.702 100.14 168.158 101.779C165.298 102.495 161.777 105.918 158.342 107.515C173.884 129.643 161.614 158.327 164.068 159.147C166.522 159.966 178.791 165.703 174.702 171.44C170.612 177.177 147.709 174.718 142.801 175.141C141.798 176.263 139.847 176.949 138.712 177.176C132.168 178.488 129.441 176.366 128.896 175.141C127.26 175.141 101.902 177.177 92.9051 175.537C92.9051 175.537 91.2691 177.176 85.5434 177.176C82.3737 177.176 79.0137 175.633 77.3637 172.259C72.8852 169.037 65.795 166.062 63.4586 163.322C60.1868 168.162 65.2581 177.351 72.4562 179.635C81.4538 182.49 93.3913 180.685 89.6335 189.47C84.7254 200.943 60.8203 196.026 52.6407 184.552C43.4095 171.604 49.553 157.507 57.1699 147.673C57.1001 146.479 56.9147 141.936 56.9147 136.199C56.9147 131.563 57.7326 95.2223 78.9997 80.4706C91.2691 48.5084 105.993 44.4106 123.17 38.6739C145.767 31.1272 163.251 41.9521 167.34 41.9521C171.43 41.9521 190.243 44.4107 191.879 48.5084C193.515 52.6061 177.974 63.2602 177.974 64.8993C177.974 66.5384 177.156 75.5533 177.974 78.0119C178.792 80.4705 192.697 84.5682 191.879 89.4855Z" fill="white"/>
  <path d="M110.083 69.8165C109.264 96.8614 125.538 111.613 141.165 111.613C146.073 111.613 148.484 111.072 151.799 109.974M78.9997 80.4706C91.2691 48.5084 105.993 44.4106 123.17 38.6739C145.767 31.1272 163.251 41.9521 167.34 41.9521C171.43 41.9521 190.243 44.4107 191.879 48.5084C193.515 52.6061 177.974 63.2602 177.974 64.8993C177.974 66.5384 177.156 75.5533 177.974 78.0119C178.792 80.4705 192.697 84.5682 191.879 89.4855C191.061 94.4027 174.702 100.14 168.158 101.779C165.298 102.495 161.777 105.918 158.342 107.515M78.9997 80.4706C70.002 107.515 69.6075 156.399 77.3637 172.259M78.9997 80.4706C57.7326 95.2223 56.9147 131.563 56.9147 136.199C56.9147 141.936 57.1001 146.479 57.1699 147.673M102.721 117.35C99.4488 134.56 99.4488 166.522 92.9051 175.537M92.9051 175.537C92.9051 175.537 91.2691 177.176 85.5434 177.176C82.3737 177.176 79.0137 175.633 77.3637 172.259M92.9051 175.537C101.902 177.177 127.26 175.141 128.896 175.141M128.896 175.141C124.806 169.827 117.444 123.087 117.444 123.087M128.896 175.141C129.441 176.366 132.168 178.488 138.712 177.176C139.847 176.949 141.798 176.263 142.801 175.141M151.799 109.974C149.345 147.673 150.223 169.801 142.801 175.141M151.799 109.974C154.306 109.144 156.437 108.402 158.342 107.515M142.801 175.141C147.709 174.718 170.612 177.177 174.702 171.44C178.791 165.703 166.522 159.966 164.068 159.147C161.614 158.327 173.884 129.643 158.342 107.515M77.3637 172.259C72.8852 169.037 65.795 166.062 63.4586 163.322M57.1699 147.673C49.553 157.507 43.4095 171.604 52.6407 184.552C60.8203 196.026 84.7254 200.943 89.6335 189.47C93.3913 180.685 81.4539 182.49 72.4562 179.635C65.2581 177.351 60.1868 168.162 63.4586 163.322M57.1699 147.673C57.404 151.681 57.9333 156.844 63.4586 163.322" stroke="#E1E3EB" stroke-width="1.5"/>
  <mask id="path-4-inside-1_12334_40692" fill="white">
    <ellipse cx="154" cy="90" rx="4" ry="2"/>
  </mask>
  <ellipse cx="154" cy="90" rx="4" ry="2" fill="#CFD1DB"/>
  <path d="M155.278 90C155.278 89.4953 155.492 89.1566 155.607 89.0204C155.708 88.9018 155.746 88.9119 155.611 88.9794C155.339 89.1152 154.774 89.2778 154 89.2778V94.7222C155.436 94.7222 156.87 94.4371 158.046 93.849C159.059 93.3424 160.722 92.1389 160.722 90H155.278ZM154 89.2778C153.226 89.2778 152.661 89.1152 152.389 88.9794C152.254 88.9119 152.292 88.9018 152.393 89.0204C152.508 89.1566 152.722 89.4953 152.722 90H147.278C147.278 92.1389 148.941 93.3424 149.954 93.849C151.13 94.4371 152.564 94.7222 154 94.7222V89.2778ZM152.722 90C152.722 90.5047 152.508 90.8434 152.393 90.9796C152.292 91.0982 152.254 91.0881 152.389 91.0206C152.661 90.8848 153.226 90.7222 154 90.7222V85.2778C152.564 85.2778 151.13 85.5629 149.954 86.151C148.941 86.6576 147.278 87.8611 147.278 90H152.722ZM154 90.7222C154.774 90.7222 155.339 90.8848 155.611 91.0206C155.746 91.0881 155.708 91.0982 155.607 90.9796C155.492 90.8434 155.278 90.5047 155.278 90H160.722C160.722 87.8611 159.059 86.6576 158.046 86.151C156.87 85.5629 155.436 85.2778 154 85.2778V90.7222Z" fill="#CFD1DB" mask="url(#path-4-inside-1_12334_40692)"/>
  <mask id="path-6-inside-2_12334_40692" fill="white">
    <ellipse cx="151" cy="66" rx="4" ry="2"/>
  </mask>
  <ellipse cx="151" cy="66" rx="4" ry="2" fill="#CFD1DB"/>
  <path d="M152.278 66C152.278 65.4953 152.492 65.1566 152.607 65.0204C152.708 64.9018 152.746 64.9119 152.611 64.9794C152.339 65.1152 151.774 65.2778 151 65.2778V70.7222C152.436 70.7222 153.87 70.4371 155.046 69.849C156.059 69.3424 157.722 68.1389 157.722 66H152.278ZM151 65.2778C150.226 65.2778 149.661 65.1152 149.389 64.9794C149.254 64.9119 149.292 64.9018 149.393 65.0204C149.508 65.1566 149.722 65.4953 149.722 66H144.278C144.278 68.1389 145.941 69.3424 146.954 69.849C148.13 70.4371 149.564 70.7222 151 70.7222V65.2778ZM149.722 66C149.722 66.5047 149.508 66.8434 149.393 66.9796C149.292 67.0982 149.254 67.0881 149.389 67.0206C149.661 66.8848 150.226 66.7222 151 66.7222V61.2778C149.564 61.2778 148.13 61.5629 146.954 62.151C145.941 62.6576 144.278 63.8611 144.278 66H149.722ZM151 66.7222C151.774 66.7222 152.339 66.8848 152.611 67.0206C152.746 67.0881 152.708 67.0982 152.607 66.9796C152.492 66.8434 152.278 66.5047 152.278 66H157.722C157.722 63.8611 156.059 62.6576 155.046 62.151C153.87 61.5629 152.436 61.2778 151 61.2778V66.7222Z" fill="#CFD1DB" mask="url(#path-6-inside-2_12334_40692)"/>
  <path d="M40 126L43 123M46 120L43 123M43 123L40 120M43 123L46 126" stroke="#E1E3EB" stroke-width="1.5"/>
  <path fill-rule="evenodd" clip-rule="evenodd" d="M188.798 20L186 17.2018L187.202 16L190 18.7982L192.798 16L194 17.2018L191.202 20L194 22.7982L192.798 24L190 21.2018L187.202 24L186 22.7982L188.798 20Z" fill="#E1E3EB"/>
  <path fill-rule="evenodd" clip-rule="evenodd" d="M40.8213 9.87018C39.5185 11.2808 38.5889 13.5055 39.5614 17.1349L37.5893 17.6633C36.4481 13.4042 37.5113 10.4449 39.3214 8.48496C41.0689 6.59279 43.4035 5.7483 44.6633 5.41073C45.9231 5.07316 48.3671 4.63725 50.8266 5.40215C53.3742 6.19444 55.7746 8.22567 56.9158 12.4847C57.5519 14.8584 57.3394 16.6907 56.6362 18.2489C56.0222 19.6094 55.0461 20.7128 54.1716 21.7014C54.0862 21.7979 54.0017 21.8933 53.9187 21.9878C52.9493 23.0909 52.1108 24.1191 51.6385 25.4387C51.1766 26.7291 51.0338 28.3971 51.6771 30.798L51.8885 31.5868L49.9164 32.1152L49.705 31.3264C48.9744 28.5998 49.0902 26.4996 49.7163 24.7506C50.3318 23.0309 51.4107 21.7488 52.3851 20.6401C52.4612 20.5535 52.5364 20.4681 52.6107 20.3839C53.5232 19.349 54.2947 18.474 54.7752 17.4091C55.2657 16.3224 55.4702 14.9781 54.9437 13.0132C53.9713 9.38385 52.0538 7.92194 50.2203 7.35171C48.2987 6.75409 46.2984 7.08629 45.1917 7.38283C44.085 7.67937 42.1866 8.39182 40.8213 9.87018ZM51.6074 38.4259L51.0789 36.4538L53.051 35.9254L53.5795 37.8975L51.6074 38.4259Z" fill="#E1E3EB"/>
  <path fill-rule="evenodd" clip-rule="evenodd" d="M68.5361 10.5361L68.5455 8H70.4545L70.4452 10.5361L73 10.5455L73 12.4545L70.4452 12.4452L70.4545 15H68.5455L68.5361 12.4452L66 12.4545L66 10.5455L68.5361 10.5361Z" fill="#E1E3EB"/>
  <path fill-rule="evenodd" clip-rule="evenodd" d="M199.591 135.591L199.6 132H201.4L201.391 135.591L205 135.6L205 137.4L201.391 137.391L201.4 141H199.6L199.591 137.391L196 137.4L196 135.6L199.591 135.591Z" fill="#E1E3EB"/>
  <circle cx="25" cy="139" r="4.25" stroke="#E1E3EB" stroke-width="1.5"/>
  <circle cx="216.5" cy="56.5" r="3.75" stroke="#E1E3EB" stroke-width="1.5"/>
  <path d="M131.617 86.652C133.967 80.3936 142.033 79.605 142.033 79.605M142.033 79.605C142.033 79.605 133.967 80.3936 130.449 74.709M142.033 79.605L144.345 77.4538C144.51 77.3002 144.78 77.4022 144.801 77.6265L145.132 81.0098C145.154 81.2342 144.91 81.3864 144.718 81.2677L142.033 79.605Z" stroke="#CFD1DB" stroke-width="1.5"/>
  <path d="M174 58C180.769 54.8 184.154 51.3333 185 50" stroke="#E1E3EB" stroke-width="1.5"/>
  <path d="M158.293 63.0529C157.501 61.0722 156.315 59.7763 155.821 59.3759" stroke="#E1E3EB" stroke-width="1.5"/>
  <path d="M161 94.0002C162.458 92.159 162.941 90.5663 163 90.0002" stroke="#E1E3EB" stroke-width="1.5"/>
  <path d="M174 85C178 85.6667 182.333 88.6111 184 90" stroke="#E1E3EB" stroke-width="1.5"/>
  <circle cx="137.5" cy="64.5" r="8.5" fill="#9BABCC" fill-opacity="0.16"/>
  <circle cx="141.5" cy="94.5" r="8.5" fill="#9BABCC" fill-opacity="0.16"/>
  <path d="M147.214 105.537C146.006 99.6102 143.575 92.6145 142.51 89.8576" stroke="#CFD1DB" stroke-width="1.5"/>
  <path d="M139 177C139.714 174.595 139.964 171.998 140 171" stroke="#E1E3EB" stroke-width="1.5"/>
  <path d="M132.769 177.847C133.572 175.491 133.924 172.967 134 172" stroke="#E1E3EB" stroke-width="1.5"/>
  <path d="M89.0001 177C88.3355 174.988 88.0565 172.828 88.0001 172" stroke="#E1E3EB" stroke-width="1.5"/>
  <path d="M171 174C171.248 171.913 171.103 169.797 171 169" stroke="#E1E3EB" stroke-width="1.5"/>
  <path d="M166.125 175.469C166.233 173.058 165.865 170.577 165.667 169.638" stroke="#E1E3EB" stroke-width="1.5"/>
  <path d="M84 177C83.2864 174.595 83.0359 171.998 82.9999 171" stroke="#E1E3EB" stroke-width="1.5"/>
  <path d="M137.772 105.107C139.208 100.124 140.005 93.9567 140.224 91.496" stroke="#CFD1DB" stroke-width="1.5"/>
  <path d="M139.056 68.2502C141.545 60.0231 143.722 49.3963 144.5 45.1113" stroke="#CFD1DB" stroke-width="1.36111"/>
  <path d="M136.353 66.8774C135.223 59.7023 132.819 50.9823 131.759 47.5191" stroke="#CFD1DB" stroke-width="1.36111"/>
</svg>