<svg width="16" height="16" viewBox="0 0 16 16" fill="none" xmlns="http://www.w3.org/2000/svg">
<path fill-rule="evenodd" clip-rule="evenodd" d="M10 1H6C5.44772 1 5 1.44772 5 2V4C5 4.55228 5.44772 5 6 5H10C10.5523 5 11 4.55228 11 4V2C11 1.44772 10.5523 1 10 1ZM6.5 2.5H9.5V3.5H6.5V2.5Z" fill="#110529"/>
<path d="M3.5 3.75C3.08579 3.75 2.75 4.08579 2.75 4.5V12C2.75 12.6904 3.30964 13.25 4 13.25H12C12.6904 13.25 13.25 12.6904 13.25 12V8H14.75V12C14.75 13.5188 13.5188 14.75 12 14.75H4C2.48122 14.75 1.25 13.5188 1.25 12V4.5C1.25 3.25736 2.25736 2.25 3.5 2.25V3.75Z" fill="#110529"/>
<path d="M7.79945 11.0455L15.0222 4.03831L13.9778 2.9617L7.80057 8.95451L5.52282 6.74004L4.4772 7.81553L7.79945 11.0455Z" fill="#110529"/>
</svg>
