<svg width="16" height="16" viewBox="0 0 16 16" fill="none" xmlns="http://www.w3.org/2000/svg">
<path d="M9.06066 8L11.5303 5.53033L10.4697 4.46967L8 6.93934L5.53033 4.46967L4.46967 5.53033L6.93934 8L4.46967 10.4697L5.53033 11.5303L8 9.06066L10.4697 11.5303L11.5303 10.4697L9.06066 8Z" fill="#110529"/>
<path fill-rule="evenodd" clip-rule="evenodd" d="M8 0.25C3.71979 0.25 0.25 3.71979 0.25 8C0.25 12.2802 3.71979 15.75 8 15.75C12.2802 15.75 15.75 12.2802 15.75 8C15.75 3.71979 12.2802 0.25 8 0.25ZM1.75 8C1.75 4.54822 4.54822 1.75 8 1.75C11.4518 1.75 14.25 4.54822 14.25 8C14.25 11.4518 11.4518 14.25 8 14.25C4.54822 14.25 1.75 11.4518 1.75 8Z" fill="#110529"/>
</svg>
