<svg width="16" height="16" viewBox="0 0 16 16" fill="none" xmlns="http://www.w3.org/2000/svg">
<path d="M3.50003 6C2.6716 6 2.00003 6.67157 2.00003 7.5L2 13.5C2 14.3284 2.67157 15 3.5 15H12.5C13.3284 15 14 14.3284 14 13.5L14 7.5C14 6.67157 13.3285 6 12.5 6H3.50003Z" fill="#110529"/>
<path fill-rule="evenodd" clip-rule="evenodd" d="M8.00003 2.5C6.48125 2.5 5.5 3.73121 5.5 5.24999V6H4V5.24999C4 2.90278 5.65282 1 8.00003 1C10.3472 1 12 2.90279 12 5.24999V6H10.5V5.25C10.5 3.73121 9.51881 2.5 8.00003 2.5Z" fill="#110529"/>
</svg>
