<svg width="126" height="42" viewBox="0 0 126 42" fill="none" xmlns="http://www.w3.org/2000/svg">
<rect x="1" y="1" width="124" height="40" rx="5" fill="white"/>
<rect x="1" y="1" width="124" height="40" rx="5" stroke="#845CFF" stroke-dasharray="10 5"/>
<path d="M107 17.6227C107 17.1898 106.487 16.9614 106.166 17.251L102.413 20.6284C102.192 20.827 102.192 21.173 102.413 21.3716L106.166 24.749C106.487 25.0386 107 24.8102 107 24.3773V17.6227Z" fill="#CFD1DB"/>
<path d="M75 24.3773C75 24.8102 75.5127 25.0386 75.8345 24.749L79.5871 21.3716C79.8077 21.173 79.8077 20.827 79.5871 20.6284L75.8345 17.251C75.5127 16.9614 75 17.1898 75 17.6227V24.3773Z" fill="#CFD1DB"/>
<path d="M45.7071 19.0002C45.2617 19.0002 45.0386 19.5388 45.3536 19.8537L48.6464 23.1466C48.8417 23.3419 49.1583 23.3419 49.3536 23.1466L52.6464 19.8537C52.9614 19.5388 52.7383 19.0002 52.2929 19.0002H45.7071Z" fill="#CFD1DB"/>
<path d="M17.6227 23C17.1898 23 16.9614 22.4873 17.251 22.1655L20.6284 18.4129C20.827 18.1923 21.173 18.1923 21.3716 18.4129L24.749 22.1655C25.0386 22.4873 24.8102 23 24.3773 23H17.6227Z" fill="#CFD1DB"/>
</svg>
