<svg width="24" height="24" viewBox="0 0 24 24" fill="none" xmlns="http://www.w3.org/2000/svg">
<path fill-rule="evenodd" clip-rule="evenodd" d="M11.25 5.75V2H12.75V5.75H14V7.25H12.75V11.25H16.75V10H18.25V11.25H22V12.75H18.25V14H16.75V12.75H12.75V16.75H14V18.25H12.75V22H11.25V18.25H10V16.75H11.25V12.75H7.25V14H5.75V12.75H2V11.25H5.75V10H7.25V11.25H11.25V7.25H10V5.75H11.25Z" fill="#110529"/>
<path d="M3.46967 3.53033L5.75 5.81066V8H7.25V5.81066L9.53033 3.53033L8.46967 2.46967L6.5 4.43934L4.53033 2.46967L3.46967 3.53033Z" fill="#07AD3E"/>
<path d="M15.4697 16.5303L17.4393 18.5L15.4697 20.4697L16.5303 21.5303L18.5 19.5607L20.4697 21.5303L21.5303 20.4697L19.5607 18.5L21.5303 16.5303L20.4697 15.4697L18.5 17.4393L16.5303 15.4697L15.4697 16.5303Z" fill="#07AD3E"/>
</svg>
