<svg width="262" height="182" viewBox="0 0 262 182" fill="none" xmlns="http://www.w3.org/2000/svg">
<rect x="1" y="1" width="260" height="180" rx="5" stroke="#845CFF" stroke-dasharray="10 5"/>
<path fill-rule="evenodd" clip-rule="evenodd" d="M44.5 29.5H29.5L29.5 44.5H44.5V29.5ZM29.5 28C28.6716 28 28 28.6716 28 29.5V44.5C28 45.3284 28.6716 46 29.5 46H44.5C45.3284 46 46 45.3284 46 44.5V29.5C46 28.6716 45.3284 28 44.5 28H29.5Z" fill="#110529"/>
<path fill-rule="evenodd" clip-rule="evenodd" d="M174.5 29.5H159.5L159.5 44.5H174.5V29.5ZM159.5 28C158.672 28 158 28.6716 158 29.5V44.5C158 45.3284 158.672 46 159.5 46H174.5C175.328 46 176 45.3284 176 44.5V29.5C176 28.6716 175.328 28 174.5 28H159.5Z" fill="#DFE0E6"/>
<path d="M17 85C17 73.9543 25.9543 65 37 65C48.0457 65 57 73.9543 57 85C57 96.0457 48.0457 105 37 105C25.9543 105 17 96.0457 17 85Z" fill="#9BABCC" fill-opacity="0.16"/>
<path fill-rule="evenodd" clip-rule="evenodd" d="M44.5 77.5H29.5L29.5 92.5H44.5V77.5ZM29.5 76C28.6716 76 28 76.6716 28 77.5V92.5C28 93.3284 28.6716 94 29.5 94H44.5C45.3284 94 46 93.3284 46 92.5V77.5C46 76.6716 45.3284 76 44.5 76H29.5Z" fill="#110529"/>
<path d="M147 85C147 73.9543 155.954 65 167 65C178.046 65 187 73.9543 187 85C187 96.0457 178.046 105 167 105C155.954 105 147 96.0457 147 85Z" fill="#38383D"/>
<path fill-rule="evenodd" clip-rule="evenodd" d="M174.5 77.5H159.5L159.5 92.5H174.5V77.5ZM159.5 76C158.672 76 158 76.6716 158 77.5V92.5C158 93.3284 158.672 94 159.5 94H174.5C175.328 94 176 93.3284 176 92.5V77.5C176 76.6716 175.328 76 174.5 76H159.5Z" fill="white"/>
<g clip-path="url(#clip0_1776_51322)">
<rect x="25" y="121" width="24" height="24" rx="4" fill="white"/>
<path fill-rule="evenodd" clip-rule="evenodd" d="M44.5 125.5H29.5L29.5 140.5H44.5V125.5ZM29.5 124C28.6716 124 28 124.672 28 125.5V140.5C28 141.328 28.6716 142 29.5 142H44.5C45.3284 142 46 141.328 46 140.5V125.5C46 124.672 45.3284 124 44.5 124H29.5Z" fill="#110529"/>
</g>
<rect x="24" y="120" width="26" height="26" rx="5" stroke="#49CC49" stroke-width="2"/>
<rect x="154" y="120" width="26" height="26" rx="5" stroke="#49CC49" stroke-width="2"/>
<path fill-rule="evenodd" clip-rule="evenodd" d="M174.5 125.5H159.5L159.5 140.5H174.5V125.5ZM159.5 124C158.672 124 158 124.672 158 125.5V140.5C158 141.328 158.672 142 159.5 142H174.5C175.328 142 176 141.328 176 140.5V125.5C176 124.672 175.328 124 174.5 124H159.5Z" fill="white"/>
<rect x="56" y="28" width="18" height="18" rx="2" fill="#110529"/>
<path fill-rule="evenodd" clip-rule="evenodd" d="M70.5431 33.5172L63.3333 41.0875L59.4569 37.0172L60.5431 35.9828L63.3333 38.9125L69.4569 32.4828L70.5431 33.5172Z" fill="white"/>
<rect x="84" y="28" width="18" height="18" rx="2" fill="#110529"/>
<path d="M88 37H98" stroke="white" stroke-width="1.5"/>
<rect x="214" y="28" width="18" height="18" rx="2" fill="#DFE0E6"/>
<path d="M218 37H228" stroke="#110529" stroke-width="1.5"/>
<rect x="186" y="28" width="18" height="18" rx="2" fill="#DFE0E6"/>
<path fill-rule="evenodd" clip-rule="evenodd" d="M200.543 33.5172L193.333 41.0875L189.457 37.0172L190.543 35.9828L193.333 38.9125L199.457 32.4828L200.543 33.5172Z" fill="#110529"/>
<path d="M65 85C65 73.9543 73.9543 65 85 65C96.0457 65 105 73.9543 105 85C105 96.0457 96.0457 105 85 105C73.9543 105 65 96.0457 65 85Z" fill="#9BABCC" fill-opacity="0.16"/>
<rect x="76.75" y="76.75" width="16.5" height="16.5" rx="1.25" fill="#110529" stroke="#110529" stroke-width="1.5"/>
<path fill-rule="evenodd" clip-rule="evenodd" d="M90.5431 81.5172L83.3333 89.0875L79.4569 85.0172L80.5431 83.9828L83.3333 86.9125L89.4569 80.4828L90.5431 81.5172Z" fill="white"/>
<path d="M195 85C195 73.9543 203.954 65 215 65C226.046 65 235 73.9543 235 85C235 96.0457 226.046 105 215 105C203.954 105 195 96.0457 195 85Z" fill="#38383D"/>
<rect x="206.75" y="76.75" width="16.5" height="16.5" rx="1.25" fill="white" stroke="white" stroke-width="1.5"/>
<path fill-rule="evenodd" clip-rule="evenodd" d="M220.543 81.5172L213.333 89.0875L209.457 85.0172L210.543 83.9828L213.333 86.9125L219.457 80.4828L220.543 81.5172Z" fill="#110529"/>
<g filter="url(#filter0_d_1776_51322)">
<rect x="72" y="120" width="26" height="26" rx="5" stroke="#49CC49" stroke-width="2"/>
<rect x="76" y="124" width="18" height="18" rx="2" fill="#110529"/>
<path fill-rule="evenodd" clip-rule="evenodd" d="M90.5431 129.517L83.3333 137.087L79.4569 133.017L80.5431 131.983L83.3333 134.912L89.4569 128.483L90.5431 129.517Z" fill="white"/>
</g>
<rect x="202" y="120" width="26" height="26" rx="5" stroke="#49CC49" stroke-width="2"/>
<rect x="206" y="124" width="18" height="18" rx="2" fill="white"/>
<path fill-rule="evenodd" clip-rule="evenodd" d="M220.543 129.517L213.333 137.087L209.457 133.017L210.543 131.983L213.333 134.912L219.457 128.483L220.543 129.517Z" fill="#110529"/>
<defs>
<filter id="filter0_d_1776_51322" x="67" y="115" width="36" height="36" filterUnits="userSpaceOnUse" color-interpolation-filters="sRGB">
<feFlood flood-opacity="0" result="BackgroundImageFix"/>
<feColorMatrix in="SourceAlpha" type="matrix" values="0 0 0 0 0 0 0 0 0 0 0 0 0 0 0 0 0 0 127 0" result="hardAlpha"/>
<feMorphology radius="4" operator="dilate" in="SourceAlpha" result="effect1_dropShadow_1776_51322"/>
<feOffset/>
<feColorMatrix type="matrix" values="0 0 0 0 0.286275 0 0 0 0 0.8 0 0 0 0 0.286275 0 0 0 0.24 0"/>
<feBlend mode="normal" in2="BackgroundImageFix" result="effect1_dropShadow_1776_51322"/>
<feBlend mode="normal" in="SourceGraphic" in2="effect1_dropShadow_1776_51322" result="shape"/>
</filter>
<clipPath id="clip0_1776_51322">
<rect x="25" y="121" width="24" height="24" rx="4" fill="white"/>
</clipPath>
</defs>
</svg>
