<svg width="24" height="24" viewBox="0 0 24 24" fill="none" xmlns="http://www.w3.org/2000/svg">
<path fill-rule="evenodd" clip-rule="evenodd" d="M9.5 2H14.5C15.3284 2 16 2.67157 16 3.5V5.5C16 6.32843 15.3284 7 14.5 7H9.5C8.67157 7 8 6.32843 8 5.5V3.5C8 2.67157 8.67157 2 9.5 2ZM9.5 3.5H14.5V5.5H9.5V3.5Z" fill="#110529"/>
<path d="M5.8125 3.5H6V5H5.8125C5.08763 5 4.5 5.58763 4.5 6.3125V18.5C4.5 19.3284 5.17157 20 6 20H18C18.8284 20 19.5 19.3284 19.5 18.5V6.5C19.5 5.67157 18.8284 5 18 5V3.5C19.6569 3.5 21 4.84315 21 6.5V18.5C21 20.1569 19.6569 21.5 18 21.5H6C4.34315 21.5 3 20.1569 3 18.5V6.3125C3 4.7592 4.2592 3.5 5.8125 3.5Z" fill="#110529"/>
<path d="M16 12.25H8V10.75H16V12.25Z" fill="#110529"/>
<path d="M8 16.25H16V14.75H8V16.25Z" fill="#110529"/>
</svg>
