<svg width="24" height="24" viewBox="0 0 24 24" fill="none" xmlns="http://www.w3.org/2000/svg">
<path d="M3.5 5.99744C2.6727 5.99875 2.00244 6.66982 2.00244 7.49743V18.9974C2.00244 20.6543 3.34559 21.9974 5.00244 21.9974H16.5024C17.33 21.9974 18.0011 21.3272 18.0024 20.5H6.5C6.45806 20.5 6.41632 20.4991 6.37479 20.4974H5.00244C4.17401 20.4974 3.50244 19.8259 3.50244 18.9974V17.6221C3.50082 17.5816 3.5 17.5409 3.5 17.5V5.99744Z" fill="#110529"/>
<path fill-rule="evenodd" clip-rule="evenodd" d="M20.5 2H7.5C6.67157 2 6 2.67157 6 3.5V16.5C6 17.3284 6.67157 18 7.5 18H20.5C21.3284 18 22 17.3284 22 16.5V3.5C22 2.67157 21.3284 2 20.5 2ZM20.5 3.5H7.5V16.5H20.5V3.5Z" fill="#110529"/>
</svg>
