<svg width="24" height="24" viewBox="0 0 24 24" fill="none" xmlns="http://www.w3.org/2000/svg">
<path d="M16.6919 7C16.9871 6.48433 17.2323 5.90709 17.4121 5.25L8.15653 5.25C8.00517 4.80961 7.88994 4.31425 7.82147 3.75L17.6878 3.75C17.7286 3.35769 17.75 2.94181 17.75 2.5H19.25C19.25 5.4604 18.3816 7.52184 17.0399 9.09823C16.0125 10.3054 14.7248 11.2032 13.4433 12C13.1052 12.2102 12.7676 12.4134 12.4352 12.6134L12.3382 12.6718C11.707 13.0517 11.0952 13.422 10.5178 13.8096C10.4646 13.8453 10.4117 13.8811 10.3592 13.9171C9.65657 14.3981 9.00799 14.909 8.44073 15.5H13.2789C13.547 15.6987 13.7984 15.9007 14.0335 16.1108C14.2939 16.3436 14.5343 16.5865 14.7553 16.8462C14.7982 16.8965 14.8405 16.9478 14.8822 17H7.3081C7.01288 17.5157 6.76766 18.0929 6.58787 18.75H15.8435C15.9949 19.1904 16.1101 19.6857 16.1786 20.25H6.31217C6.27139 20.6423 6.25 21.0582 6.25 21.5H4.75C4.75 18.5396 5.61845 16.4782 6.9601 14.9018C7.23345 14.5806 7.52524 14.2813 7.83043 14C8.0519 13.7959 8.28047 13.6012 8.51414 13.4145C8.7282 13.2434 8.94657 13.0791 9.16776 12.9203C9.25169 12.86 9.33602 12.8005 9.42068 12.7418C9.6298 12.5968 9.84092 12.4562 10.0528 12.3191C10.0607 12.3141 10.0685 12.309 10.0763 12.3039C10.2199 12.2113 10.3637 12.1203 10.5075 12.0306C10.5075 12.0306 10.5075 12.0306 10.5075 12.0306C10.5239 12.0204 10.5403 12.0102 10.5567 12C10.8945 11.7899 11.2319 11.5869 11.5638 11.3872L11.6133 11.3574C11.7431 11.2793 11.872 11.2016 12 11.1242C12.4904 10.8275 12.967 10.5339 13.4227 10.2302C13.503 10.1767 13.5827 10.1228 13.6617 10.0686C13.6691 10.0636 13.6764 10.0585 13.6838 10.0534C13.7422 10.0132 13.8002 9.97281 13.8577 9.93216C14.4771 9.49501 15.0509 9.0297 15.5593 8.5H10.7212C10.1561 8.08122 9.66524 7.64795 9.2447 7.15384C9.20186 7.1035 9.15954 7.05225 9.1178 7H16.6919Z" fill="#110529"/>
<path d="M10.5773 10.2302C9.64438 9.60849 8.79907 8.9446 8.1024 8.12603C7.00655 6.83846 6.25 5.12783 6.25 2.5H4.75C4.75 5.46041 5.61845 7.52184 6.9601 9.09823C7.61851 9.87184 8.38385 10.5184 9.18593 11.0928C9.66398 10.782 10.1337 10.4972 10.5773 10.2302Z" fill="#110529"/>
<path d="M17.75 21.5H19.25C19.25 18.5396 18.3816 16.4782 17.0399 14.9018C16.3815 14.1282 15.6162 13.4816 14.8141 12.9072C14.336 13.218 13.8663 13.5028 13.4228 13.7698C14.1816 14.2755 14.8824 14.8091 15.4925 15.4312C15.5626 15.5027 15.6316 15.5754 15.6994 15.6494C15.7667 15.723 15.8328 15.7978 15.8976 15.874C16.5072 16.5902 17.0118 17.4374 17.3396 18.5005C17.5642 19.2291 17.7058 20.0591 17.7412 21.0179C17.747 21.1751 17.75 21.3358 17.75 21.5Z" fill="#110529"/>
</svg>
