<svg width="25" height="25" viewBox="0 0 25 25" fill="none" xmlns="http://www.w3.org/2000/svg">
<path d="M16 7.25H17.5V8.75H16V7.25Z" fill="#110529"/>
<path fill-rule="evenodd" clip-rule="evenodd" d="M3 4.5C3 3.80965 3.55964 3.25 4.25 3.25H19.75C20.4404 3.25 21 3.80964 21 4.5V6.96467C21 8.44961 20.5103 9.89312 19.6068 11.0716L15.25 16.7544V19.7169C15.25 20.156 15.0196 20.5629 14.6431 20.7888L10.6431 23.1888C9.80996 23.6887 8.75 23.0885 8.75 22.1169V16.7544L4.39316 11.0716C3.48967 9.89312 3 8.44961 3 6.96467V4.5ZM4.5 4.75V6.96467C4.5 7.06003 4.5026 7.15517 4.50776 7.25H14V8.75H4.81289C4.9948 9.25307 5.25373 9.72871 5.58357 10.1589L10.25 16.2456V21.6754L13.75 19.5754V16.2456L18.4164 10.1589C19.1191 9.24235 19.5 8.11962 19.5 6.96467V4.75H4.5Z" fill="#110529"/>
<circle cx="19" cy="6" r="4.5" fill="#49CC49" stroke="white" stroke-width="3"/>
</svg>
