<svg width="24" height="24" viewBox="0 0 24 24" fill="none" xmlns="http://www.w3.org/2000/svg">
<path fill-rule="evenodd" clip-rule="evenodd" d="M9.25 13.5C9.25 14.1904 9.80964 14.75 10.5 14.75H13.5C14.1904 14.75 14.75 14.1904 14.75 13.5V10.5C14.75 9.80964 14.1904 9.25 13.5 9.25H10.5C9.80964 9.25 9.25 9.80964 9.25 10.5V13.5ZM10.75 13.25V10.75H13.25V13.25H10.75Z" fill="#110529"/>
<path fill-rule="evenodd" clip-rule="evenodd" d="M16.25 13.5C16.25 14.1904 16.8096 14.75 17.5 14.75H20.5C21.1904 14.75 21.75 14.1904 21.75 13.5V10.5C21.75 9.80964 21.1904 9.25 20.5 9.25H17.5C16.8096 9.25 16.25 9.80964 16.25 10.5V13.5ZM17.75 13.25V10.75H20.25V13.25H17.75Z" fill="#110529"/>
<path fill-rule="evenodd" clip-rule="evenodd" d="M16.25 20.5C16.25 21.1904 16.8096 21.75 17.5 21.75H20.5C21.1904 21.75 21.75 21.1904 21.75 20.5V17.5C21.75 16.8096 21.1904 16.25 20.5 16.25H17.5C16.8096 16.25 16.25 16.8096 16.25 17.5V20.5ZM17.75 20.25V17.75H20.25V20.25H17.75Z" fill="#110529"/>
<path fill-rule="evenodd" clip-rule="evenodd" d="M9.25 6.5C9.25 7.19036 9.80964 7.75 10.5 7.75H13.5C14.1904 7.75 14.75 7.19036 14.75 6.5V3.5C14.75 2.80964 14.1904 2.25 13.5 2.25H10.5C9.80964 2.25 9.25 2.80964 9.25 3.5V6.5ZM10.75 6.25V3.75H13.25V6.25H10.75Z" fill="#110529"/>
<path fill-rule="evenodd" clip-rule="evenodd" d="M2.25 20.5C2.25 21.1904 2.80964 21.75 3.5 21.75H6.5C7.19036 21.75 7.75 21.1904 7.75 20.5V17.5C7.75 16.8096 7.19036 16.25 6.5 16.25H3.5C2.80964 16.25 2.25 16.8096 2.25 17.5V20.5ZM3.75 20.25V17.75H6.25V20.25H3.75Z" fill="#110529"/>
<path fill-rule="evenodd" clip-rule="evenodd" d="M2.25 6.5C2.25 7.19036 2.80964 7.75 3.5 7.75H6.5C7.19036 7.75 7.75 7.19036 7.75 6.5V3.5C7.75 2.80964 7.19036 2.25 6.5 2.25H3.5C2.80964 2.25 2.25 2.80964 2.25 3.5V6.5ZM3.75 6.25V3.75H6.25V6.25H3.75Z" fill="#110529"/>
<path fill-rule="evenodd" clip-rule="evenodd" d="M9.25 20.5C9.25 21.1904 9.80964 21.75 10.5 21.75H13.5C14.1904 21.75 14.75 21.1904 14.75 20.5V17.5C14.75 16.8096 14.1904 16.25 13.5 16.25H10.5C9.80964 16.25 9.25 16.8096 9.25 17.5V20.5ZM10.75 20.25V17.75H13.25V20.25H10.75Z" fill="#07AD3E"/>
<path fill-rule="evenodd" clip-rule="evenodd" d="M2.25 13.5C2.25 14.1904 2.80964 14.75 3.5 14.75H6.5C7.19036 14.75 7.75 14.1904 7.75 13.5V10.5C7.75 9.80964 7.19036 9.25 6.5 9.25H3.5C2.80964 9.25 2.25 9.80964 2.25 10.5V13.5ZM3.75 13.25V10.75H6.25V13.25H3.75Z" fill="#07AD3E"/>
<path fill-rule="evenodd" clip-rule="evenodd" d="M16.25 6.5C16.25 7.19036 16.8096 7.75 17.5 7.75H20.5C21.1904 7.75 21.75 7.19036 21.75 6.5V3.5C21.75 2.80964 21.1904 2.25 20.5 2.25H17.5C16.8096 2.25 16.25 2.80964 16.25 3.5V6.5ZM17.75 6.25V3.75H20.25V6.25H17.75Z" fill="#07AD3E"/>
</svg>
