<svg width="24" height="24" viewBox="0 0 24 24" fill="none" xmlns="http://www.w3.org/2000/svg">
<path d="M11.25 2.5H12.75V4H11.25V2.5Z" fill="#110529"/>
<path d="M11.6413 7.93659L10.1471 8.23544L9.85291 6.76456L11.6824 6.39867C12.512 6.23275 13.2633 6.9216 13.1699 7.76243L12.3587 15.0634L13.8529 14.7646L14.1471 16.2354L12.3176 16.6013C11.488 16.7672 10.7367 16.0784 10.8301 15.2376L11.6413 7.93659Z" fill="#110529"/>
<path d="M20.5 12C20.5 8.5533 18.4485 5.58573 15.5 4.25174V2.62961C19.2967 4.04835 22 7.70848 22 12C22 17.5229 17.5228 22 12 22C6.47715 22 2 17.5229 2 12C2 7.70848 4.70333 4.04835 8.5 2.62961V4.25174C5.55148 5.58573 3.5 8.5533 3.5 12C3.5 16.6944 7.30558 20.5 12 20.5C16.6944 20.5 20.5 16.6944 20.5 12Z" fill="#110529"/>
</svg>
