<svg width="262" height="104" viewBox="0 0 262 104" fill="none" xmlns="http://www.w3.org/2000/svg">
<rect x="1" y="1" width="260" height="102" rx="5" stroke="#845CFF" stroke-dasharray="10 5"/>
<path fill-rule="evenodd" clip-rule="evenodd" d="M137.675 24.0181C137.865 23.5155 138.355 23.2342 138.846 23.2583C140.265 23.3279 141.301 23.8343 142.408 24.672C143.187 24.469 144.107 24.375 145 24.375C145.893 24.375 146.813 24.469 147.592 24.672C148.699 23.8343 149.735 23.3279 151.154 23.2583C151.645 23.2342 152.135 23.5155 152.325 24.0181C152.729 25.087 152.718 26.4433 152.335 27.6423C152.868 28.4568 153.164 29.1885 153.323 29.8576C153.5 30.5997 153.5 31.2355 153.5 31.7326V31.75C153.5 33.6217 152.694 35.0191 151.466 35.9936C150.566 36.7086 149.453 37.187 148.291 37.4917C148.75 38.3758 148.75 39.2409 148.75 39.9675L148.75 43H147.25V40C147.25 39.0112 147.236 38.2972 146.47 37.5303L146.877 36.2602C148.308 36.0217 149.608 35.5543 150.534 34.8189C151.431 34.1059 152 33.1283 152 31.75C152 31.2496 151.998 30.7667 151.864 30.205C151.732 29.6502 151.463 28.9883 150.89 28.1859L150.651 27.8522L150.804 27.4715C151.163 26.5741 151.212 25.5444 150.995 24.7733C149.999 24.8698 149.238 25.2704 148.219 26.0857L147.9 26.3406L147.513 26.2115C146.864 25.9953 145.951 25.875 145 25.875C144.049 25.875 143.136 25.9953 142.487 26.2115L142.1 26.3406L141.781 26.0857C140.762 25.2704 140.001 24.8698 139.004 24.7733C138.788 25.5443 138.837 26.5741 139.196 27.4715L139.349 27.8522L139.11 28.1859C138.537 28.9883 138.268 29.6502 138.136 30.205C138.002 30.7667 138 31.2496 138 31.75C138 33.1283 138.569 34.1059 139.466 34.8189C140.392 35.5543 141.692 36.0217 143.123 36.2602L143.53 37.5304C142.764 38.2971 142.75 39.0112 142.75 40V43H141.25V41.7268C140.299 41.6661 139.145 41.4665 138.136 40.9056C137.476 40.5391 136.87 40.0138 136.432 39.2716C135.994 38.5294 135.75 37.6122 135.75 36.5H137.25C137.25 37.3878 137.443 38.0331 137.724 38.5097C138.005 38.9862 138.399 39.3359 138.864 39.5944C139.584 39.9943 140.453 40.1638 141.25 40.2231L141.25 39.9675C141.25 39.2409 141.25 38.3758 141.709 37.4917C140.547 37.187 139.434 36.7086 138.534 35.9936C137.306 35.0191 136.5 33.6217 136.5 31.75V31.7326C136.5 31.2355 136.5 30.5997 136.677 29.8576C136.836 29.1885 137.132 28.4568 137.665 27.6423C137.282 26.4433 137.271 25.087 137.675 24.0181Z" fill="#110529"/>
<path fill-rule="evenodd" clip-rule="evenodd" d="M222.493 25.9065C221.306 26.2889 220.25 27.4023 220.25 29.4503V30.724H219.5C217.833 30.724 215.964 30.1516 214.327 29.2568C213.111 28.5922 211.975 27.7229 211.125 26.7186C210.896 27.4576 210.842 28.3188 210.989 29.1211C211.215 30.3519 211.843 31.1562 212.671 31.33L212.363 32.798C211.996 32.721 211.667 32.588 211.374 32.4114C211.5 32.9955 211.762 33.4016 212.053 33.686C212.616 34.2359 213.415 34.4538 214.027 34.4538V35.9538C213.643 35.9538 213.202 35.898 212.751 35.7646C212.986 36.2239 213.336 36.5777 213.744 36.836C214.525 37.3312 215.518 37.4725 216.318 37.2724L216.95 38.6L216.5 38C216.95 38.6 216.95 38.5998 216.95 38.6L216.949 38.6011L216.947 38.6023L216.943 38.605L216.934 38.6121C216.926 38.6175 216.917 38.6243 216.905 38.6324C216.882 38.6485 216.851 38.6697 216.811 38.6951C216.732 38.746 216.62 38.814 216.473 38.8929C216.18 39.0508 215.752 39.2521 215.18 39.4473C214.379 39.7206 213.301 39.9804 211.926 40.0942C212.729 40.5746 213.729 40.9166 214.836 41.0994C216.674 41.4027 218.686 41.2446 220.317 40.6559C222.23 39.9654 223.888 38.7801 225.071 37.0474C226.254 35.3144 226.993 32.9891 226.993 29.9708V29.6443L227.229 29.425L227.233 29.421C227.239 29.4149 227.251 29.4031 227.267 29.3856C227.3 29.3505 227.351 29.293 227.412 29.214C227.536 29.0555 227.702 28.8134 227.853 28.4938C228.066 28.0414 228.254 27.4284 228.25 26.6622C227.818 26.8578 227.285 27.0781 226.806 27.2148L226.319 27.3535L226.008 26.9541C225.168 25.874 223.731 25.5076 222.493 25.9065ZM228.526 24.8604C228.735 24.7496 228.983 24.7436 229.197 24.8441C229.411 24.9446 229.565 25.1399 229.612 25.3713C229.944 26.9767 229.625 28.254 229.209 29.1341C229.003 29.5708 228.775 29.9071 228.594 30.138C228.558 30.1844 228.523 30.2267 228.491 30.2648C228.444 33.3976 227.649 35.9326 226.31 37.8933C224.929 39.9152 223.001 41.2818 220.826 42.0668C218.933 42.7504 216.659 42.9205 214.592 42.5794C212.54 42.2407 210.565 41.3745 209.404 39.8549C209.229 39.6258 209.201 39.3166 209.331 39.0597C209.462 38.8027 209.729 38.6433 210.017 38.6498C211.403 38.6807 212.533 38.5535 213.423 38.3702C213.257 38.2907 213.096 38.2016 212.941 38.1028C211.86 37.4181 211.047 36.2683 210.945 34.6996C210.072 33.8088 209.599 32.4582 209.874 30.5965C209.708 30.2087 209.589 29.7993 209.514 29.3921C209.234 27.8668 209.499 26.0805 210.397 24.8249C210.545 24.6175 210.789 24.4996 211.043 24.512C211.298 24.5244 211.529 24.6654 211.656 24.8862C212.322 26.0388 213.567 27.1319 215.047 27.9406C216.261 28.6046 217.574 29.0443 218.755 29.1797C218.849 26.6694 220.257 25.051 222.032 24.4788C223.66 23.9543 225.558 24.3318 226.835 25.6261C227.154 25.5081 227.491 25.3619 227.788 25.2241C228.003 25.1241 228.189 25.0324 228.321 24.9658C228.387 24.9325 228.439 24.9057 228.475 24.8874L228.514 24.8667L228.524 24.8617L228.526 24.8604C228.526 24.8604 228.526 24.8604 228.526 24.8604Z" fill="#110529"/>
<path d="M33 30C33.5523 30 34 29.5523 34 29C34 28.4477 33.5523 28 33 28C32.4477 28 32 28.4477 32 29C32 29.5523 32.4477 30 33 30Z" fill="#110529"/>
<path d="M32.25 31V38H33.75V31H32.25Z" fill="#110529"/>
<path d="M38.7841 32.4367C37.7211 32.485 36.75 33.234 36.75 34.5V38H35.25V31H36.75V31.5934C37.3381 31.1918 38.0345 30.9692 38.7159 30.9383C39.5676 30.8996 40.4565 31.1497 41.1405 31.7612C41.8368 32.3836 42.25 33.3172 42.25 34.5V38H40.75V34.5C40.75 33.6828 40.4757 33.1789 40.1408 32.8795C39.7935 32.5691 39.3074 32.4129 38.7841 32.4367Z" fill="#110529"/>
<path fill-rule="evenodd" clip-rule="evenodd" d="M46 27C46 25.3431 44.6569 24 43 24H31C29.3431 24 28 25.3431 28 27V39C28 40.6569 29.3431 42 31 42H43C44.6569 42 46 40.6569 46 39V27ZM31 25.5H43C43.8284 25.5 44.5 26.1716 44.5 27V39C44.5 39.8284 43.8284 40.5 43 40.5H31C30.1716 40.5 29.5 39.8284 29.5 39L29.5 27C29.5 26.1716 30.1716 25.5 31 25.5Z" fill="#110529"/>
<path fill-rule="evenodd" clip-rule="evenodd" d="M112.5 32.134C113.167 32.5189 113.167 33.4811 112.5 33.866L108 36.4641C107.333 36.849 106.5 36.3679 106.5 35.5981V30.4019C106.5 29.6321 107.333 29.151 108 29.5359L112.5 32.134ZM108 31.268L111 33L108 34.7321V31.268Z" fill="#110529"/>
<path fill-rule="evenodd" clip-rule="evenodd" d="M120 33C120 33 120 29.0475 119.497 27.1541C119.221 26.1108 118.405 25.2884 117.365 25.0057C115.486 24.5 109 24.5 109 24.5C109 24.5 102.518 24.5 100.635 25.0057C99.5994 25.2841 98.7821 26.1076 98.5027 27.1541C98 29.0475 98 33 98 33C98 33 98 36.9525 98.5027 38.8459C98.7788 39.8893 99.595 40.7116 100.635 40.9942C102.518 41.5 109 41.5 109 41.5C109 41.5 115.486 41.5 117.365 40.9942C118.401 40.7159 119.218 39.8924 119.497 38.8459C120 36.9525 120 33 120 33ZM118.048 27.539L118.047 27.5379C117.908 27.0118 117.495 26.596 116.974 26.4537C116.648 26.3665 116.014 26.2794 115.143 26.2084C114.304 26.14 113.343 26.0936 112.427 26.0623C111.512 26.0312 110.654 26.0156 110.024 26.0078C109.709 26.0039 109.452 26.0019 109.274 26.001C109.185 26.0005 109.116 26.0002 109.069 26.0001L109.017 26H108.983L108.931 26.0001C108.884 26.0002 108.815 26.0005 108.726 26.001C108.548 26.0019 108.291 26.0039 107.976 26.0078C107.346 26.0156 106.489 26.0312 105.575 26.0623C104.658 26.0936 103.697 26.14 102.858 26.2084C101.986 26.2795 101.35 26.3668 101.024 26.4543C100.513 26.5918 100.095 27.0054 99.9522 27.5401C99.7459 28.3178 99.6239 29.6345 99.5609 30.8639C99.5305 31.4566 99.5152 31.9935 99.5076 32.3823C99.5038 32.5763 99.5019 32.7327 99.5009 32.8396C99.5005 32.8931 99.5002 32.9342 99.5001 32.9614L99.5 32.9917L99.5 33.0002L99.5 33.0083L99.5001 33.0386C99.5002 33.0658 99.5005 33.1069 99.5009 33.1604C99.5019 33.2673 99.5038 33.4237 99.5076 33.6177C99.5152 34.0065 99.5305 34.5434 99.5609 35.1361C99.624 36.3661 99.746 37.6834 99.9525 38.461L99.9528 38.4622C100.092 38.988 100.505 39.4038 101.026 39.5462C101.352 39.6335 101.988 39.7207 102.858 39.7916C103.697 39.86 104.658 39.9064 105.575 39.9377C106.489 39.9688 107.346 39.9844 107.976 39.9922C108.291 39.9961 108.548 39.9981 108.726 39.999C108.815 39.9995 108.884 39.9998 108.931 39.9999L108.983 40H109.017L109.069 39.9999C109.116 39.9998 109.185 39.9995 109.274 39.999C109.452 39.9981 109.709 39.9961 110.024 39.9922C110.654 39.9844 111.512 39.9688 112.427 39.9377C113.343 39.9064 114.304 39.86 115.143 39.7916C116.016 39.7205 116.651 39.6331 116.976 39.5458C117.487 39.4083 117.905 38.9945 118.048 38.4593C118.254 37.6816 118.376 36.3652 118.439 35.1361C118.47 34.5434 118.485 34.0065 118.492 33.6177C118.496 33.4237 118.498 33.2673 118.499 33.1604C118.5 33.1069 118.5 33.0658 118.5 33.0386L118.5 33.0083L118.5 33.0014V32.9986L118.5 32.9917L118.5 32.9614L118.499 32.8591L118.499 32.8396C118.498 32.7327 118.496 32.5763 118.492 32.3823C118.485 31.9935 118.47 31.4566 118.439 30.8639C118.376 29.6339 118.254 28.3166 118.048 27.539Z" fill="#110529"/>
<path d="M43.2222 63C43.6937 63 44.1459 63.1873 44.4793 63.5207C44.8127 63.8541 45 64.3063 45 64.7778V77.2222C45 77.6937 44.8127 78.1459 44.4793 78.4793C44.1459 78.8127 43.6937 79 43.2222 79H30.7778C30.3063 79 29.8541 78.8127 29.5207 78.4793C29.1873 78.1459 29 77.6937 29 77.2222V64.7778C29 64.3063 29.1873 63.8541 29.5207 63.5207C29.8541 63.1873 30.3063 63 30.7778 63H43.2222ZM42.7778 76.7778V72.0667C42.7778 71.2981 42.4725 70.5611 41.929 70.0176C41.3856 69.4742 40.6485 69.1689 39.88 69.1689C39.1244 69.1689 38.2444 69.6311 37.8178 70.3244V69.3378H35.3378V76.7778H37.8178V72.3956C37.8178 71.7111 38.3689 71.1511 39.0533 71.1511C39.3834 71.1511 39.6999 71.2822 39.9333 71.5156C40.1667 71.749 40.2978 72.0655 40.2978 72.3956V76.7778H42.7778ZM32.4489 67.9422C32.8449 67.9422 33.2248 67.7849 33.5048 67.5048C33.7849 67.2248 33.9422 66.8449 33.9422 66.4489C33.9422 65.6222 33.2756 64.9467 32.4489 64.9467C32.0505 64.9467 31.6684 65.1049 31.3867 65.3867C31.1049 65.6684 30.9467 66.0505 30.9467 66.4489C30.9467 67.2756 31.6222 67.9422 32.4489 67.9422ZM33.6844 76.7778V69.3378H31.2222V76.7778H33.6844Z" fill="#DFE0E6"/>
<path fill-rule="evenodd" clip-rule="evenodd" d="M116.814 63.9479C117.674 64.1943 118.352 64.9205 118.582 65.8424C119 67.5133 119 71 119 71C119 71 119 74.4867 118.582 76.1576C118.352 77.0795 117.674 77.8057 116.814 78.0521C115.254 78.5 109 78.5 109 78.5C109 78.5 102.746 78.5 101.186 78.0521C100.326 77.8057 99.648 77.0795 99.418 76.1576C99 74.4867 99 71 99 71C99 71 99 67.5133 99.418 65.8424C99.648 64.9205 100.326 64.1943 101.186 63.9479C102.746 63.5 109 63.5 109 63.5C109 63.5 115.254 63.5 116.814 63.9479ZM112.182 71.1624C112.303 71.0902 112.303 70.9098 112.182 70.8376L107.273 67.9148C107.151 67.8426 107 67.9328 107 68.0772V73.9228C107 74.0672 107.151 74.1574 107.273 74.0852L112.182 71.1624Z" fill="#DFE0E6"/>
<path d="M83.1894 65.3824C82.4647 65.7118 81.6835 65.9282 80.8741 66.0318C81.7024 65.5329 82.3424 64.7424 82.6435 63.7918C81.8624 64.2624 80.9965 64.5918 80.0835 64.78C79.34 63.9706 78.2953 63.5 77.1094 63.5C74.8976 63.5 73.0906 65.3071 73.0906 67.5376C73.0906 67.8576 73.1282 68.1682 73.1941 68.46C69.8435 68.2906 66.86 66.6812 64.8741 64.2435C64.5259 64.8365 64.3282 65.5329 64.3282 66.2671C64.3282 67.6694 65.0341 68.9118 66.1259 69.6176C65.4576 69.6176 64.8365 69.4294 64.2906 69.1471V69.1753C64.2906 71.1329 65.6835 72.7706 67.5282 73.1376C66.936 73.2997 66.3142 73.3223 65.7118 73.2035C65.9674 74.0059 66.468 74.7079 67.1433 75.211C67.8186 75.7141 68.6345 75.9929 69.4765 76.0082C68.0493 77.1381 66.2802 77.7488 64.46 77.74C64.14 77.74 63.82 77.7212 63.5 77.6835C65.2882 78.8318 67.4153 79.5 69.6929 79.5C77.1094 79.5 81.1847 73.3447 81.1847 68.0082C81.1847 67.8294 81.1847 67.66 81.1753 67.4812C81.9659 66.9165 82.6435 66.2012 83.1894 65.3824Z" fill="#DFE0E6"/>
<path d="M77.7386 25.1784C77.8336 25.0653 77.9738 25 78.1215 25H79.422C79.8469 25 80.0782 25.4964 79.8048 25.8217L74.8002 31.7774L80.3466 39.4123C80.8268 40.0733 80.3546 41 79.5375 41H76.5072C76.3481 41 76.1985 40.9243 76.1043 40.796L72.1454 35.4066L67.5939 40.8217C67.4989 40.9347 67.3588 41 67.2111 41H65.9089C65.484 41 65.2528 40.5036 65.5261 40.1783L70.9271 33.7508L65.6692 26.592C65.1842 25.9315 65.6558 25 66.4752 25H69.6242C69.7843 25 69.9347 25.0766 70.0288 25.2061L73.593 30.1126L77.7386 25.1784ZM76.9736 39.3754H78.418L69.0942 26.5393H67.5441L76.9736 39.3754Z" fill="#110529"/>
<path d="M145 61C143.687 61 142.386 61.2587 141.173 61.7612C139.96 62.2638 138.858 63.0003 137.929 63.9289C136.054 65.8043 135 68.3478 135 71C135 75.42 137.87 79.17 141.84 80.5C142.34 80.58 142.5 80.27 142.5 80V78.31C139.73 78.91 139.14 76.97 139.14 76.97C138.68 75.81 138.03 75.5 138.03 75.5C137.12 74.88 138.1 74.9 138.1 74.9C139.1 74.97 139.63 75.93 139.63 75.93C140.5 77.45 141.97 77 142.54 76.76C142.63 76.11 142.89 75.67 143.17 75.42C140.95 75.17 138.62 74.31 138.62 70.5C138.62 69.39 139 68.5 139.65 67.79C139.55 67.54 139.2 66.5 139.75 65.15C139.75 65.15 140.59 64.88 142.5 66.17C143.29 65.95 144.15 65.84 145 65.84C145.85 65.84 146.71 65.95 147.5 66.17C149.41 64.88 150.25 65.15 150.25 65.15C150.8 66.5 150.45 67.54 150.35 67.79C151 68.5 151.38 69.39 151.38 70.5C151.38 74.32 149.04 75.16 146.81 75.41C147.17 75.72 147.5 76.33 147.5 77.26V80C147.5 80.27 147.66 80.59 148.17 80.5C152.14 79.16 155 75.42 155 71C155 69.6868 154.741 68.3864 154.239 67.1732C153.736 65.9599 153 64.8575 152.071 63.9289C151.142 63.0003 150.04 62.2638 148.827 61.7612C147.614 61.2587 146.313 61 145 61Z" fill="#DFE0E6"/>
</svg>
