<svg width="24" height="24" viewBox="0 0 24 24" fill="none" xmlns="http://www.w3.org/2000/svg">
<path d="M11.875 2.93819C11.9523 2.89354 12.0477 2.89354 12.125 2.93819L19.7853 7.36084C19.8626 7.4055 19.9103 7.48803 19.9103 7.57735V16.4226C19.9103 16.512 19.8626 16.5945 19.7853 16.6392L12.125 21.0618C12.0477 21.1065 11.9524 21.1065 11.875 21.0618L4.21475 16.6392C4.1374 16.5945 4.08975 16.512 4.08975 16.4226V7.57735C4.08975 7.48803 4.1374 7.4055 4.21475 7.36084L11.875 2.93819Z" stroke="#CFD1DB" stroke-width="1.5"/>
<path d="M12 21V12M12 12L20 7.5M12 12L4 7.5" stroke="#CFD1DB" stroke-width="1.5"/>
</svg>
