<svg width="16" height="16" viewBox="0 0 16 16" fill="none" xmlns="http://www.w3.org/2000/svg">
<path fill-rule="evenodd" clip-rule="evenodd" d="M8.75 1.5H7.25C6.83579 1.5 6.5 1.83579 6.5 2.25C6.5 2.66421 6.83579 3 7.25 3H8.75C9.16421 3 9.5 2.66421 9.5 2.25C9.5 1.83579 9.16421 1.5 8.75 1.5ZM7.25 0C6.00736 0 5 1.00736 5 2.25C5 3.49264 6.00736 4.5 7.25 4.5H8.75C9.99264 4.5 11 3.49264 11 2.25C11 1.00736 9.99264 0 8.75 0H7.25ZM7.79942 11.5438L15.0222 4.5366L13.9777 3.45999L7.80054 9.4528L5.52279 7.23833L4.47717 8.31382L7.79942 11.5438ZM1 4.49999C1 3.0135 2.08114 1.77951 3.5 1.54147V3.08535C2.9174 3.29127 2.5 3.84688 2.5 4.49999V13C2.5 13.8284 3.17157 14.5 4 14.5H12C12.8284 14.5 13.5 13.8284 13.5 13V8.99999H15V13C15 14.6568 13.6569 16 12 16H4C2.34315 16 1 14.6568 1 13V4.49999Z" fill="#110529"/>
</svg>
