<svg width="16" height="16" viewBox="0 0 16 16" fill="none" xmlns="http://www.w3.org/2000/svg">
<g clip-path="url(#clip0_837_21024)">
<circle cx="8" cy="8" r="8" fill="#D0F0C0"/>
<path d="M6.75628 3.24739C7.35014 3.00141 8.00361 2.93705 8.63404 3.06245C9.26448 3.18785 9.84358 3.49738 10.2981 3.9519C10.7526 4.40643 11.0622 4.98552 11.1876 5.61596C11.313 6.2464 11.2486 6.89986 11.0026 7.49372C10.7566 8.08758 10.3401 8.59516 9.8056 8.95228C9.27114 9.30939 8.6 9.5 7.75 9.5H7.25V8H7.75C8.40234 8 8.68446 7.89737 8.97225 7.70507C9.26003 7.51278 9.48434 7.23947 9.61679 6.9197C9.74924 6.59993 9.7839 6.24806 9.71637 5.90859C9.64885 5.56913 9.48218 5.25731 9.23744 5.01256C8.99269 4.76782 8.68087 4.60115 8.34141 4.53363C8.00194 4.4661 7.65007 4.50076 7.3303 4.63321C7.01053 4.76567 6.73722 4.98997 6.54493 5.27775C6.35264 5.56554 6.25 5.90388 6.25 6.25H4.75C4.75 5.60721 4.94061 4.97886 5.29772 4.4444C5.65484 3.90994 6.16242 3.49338 6.75628 3.24739Z" fill="#110529"/>
<path d="M7.25 11.25H8.75001V12.75H7.25V11.25Z" fill="#110529"/>
</g>
<defs>
<clipPath id="clip0_837_21024">
<rect width="16" height="16" fill="white"/>
</clipPath>
</defs>
</svg>
