<svg width="16" height="16" viewBox="0 0 16 16" fill="none" xmlns="http://www.w3.org/2000/svg">
<g clip-path="url(#clip0_7109_635)">
<path fill-rule="evenodd" clip-rule="evenodd" d="M7.99999 0C7.64654 3.30518e-07 7.29807 0.0229692 6.95607 0.0675794L7.15009 1.55498C7.42792 1.51874 7.71158 1.5 7.99999 1.5C7.99999 1.5 8 1.5 8 1.5C8.04816 1.5 8.09618 1.50052 8.14407 1.50156C9.24564 1.52552 10.2797 1.82352 11.1808 2.3301L12.2744 1.23644C11.0379 0.453354 9.5719 0 8 0M4.9375 0.607339C4.28671 0.877211 3.67958 1.23031 3.12932 1.65316L4.04331 2.84254C4.49082 2.49865 4.98405 2.21189 5.51208 1.99293L4.9375 0.607339ZM1.65316 3.12932C1.23031 3.67958 0.877211 4.28671 0.607339 4.9375L1.99293 5.51208C2.21189 4.98405 2.49865 4.49082 2.84254 4.04331L1.65316 3.12932ZM0.0675795 6.95607C0.0229688 7.29807 0 7.64654 0 8C0 8.35346 0.0229688 8.70193 0.0675793 9.04393L1.55498 8.84991C1.51874 8.57208 1.5 8.28841 1.5 8C1.5 7.71159 1.51874 7.42792 1.55498 7.15009L0.0675795 6.95607ZM0.607339 11.0625C0.877211 11.7133 1.23031 12.3204 1.65316 12.8707L2.84254 11.9567C2.49865 11.5092 2.21189 11.0159 1.99293 10.4879L0.607339 11.0625ZM3.12932 14.3468C3.67958 14.7697 4.28671 15.1228 4.9375 15.3927L5.51208 14.0071C4.98405 13.7881 4.49082 13.5014 4.04331 13.1575L3.12932 14.3468ZM6.95607 15.9324C7.29807 15.977 7.64654 16 8 16C8.08498 16 8.16967 15.9987 8.25405 15.996C12.5548 15.8619 16 12.3333 16 8C16 7.17933 15.8764 6.38752 15.6469 5.64217L14.4046 6.88441C14.4673 7.24687 14.5 7.61962 14.5 8C14.5 11.5538 11.648 14.4415 8.10793 14.4991C8.07203 14.4997 8.03605 14.5 8 14.5C7.71159 14.5 7.42792 14.4813 7.15009 14.445L6.95607 15.9324ZM14.6606 3.79998L13.6596 4.80101L7.29998 11.1606L3.78932 7.64998L4.84998 6.58932L7.29998 9.03932L12.7627 3.57657L13.6 2.73932L14.6606 3.79998Z" fill="#110529"/>
</g>
<defs>
<clipPath id="clip0_7109_635">
<rect width="16" height="16" fill="white"/>
</clipPath>
</defs>
</svg>
