<svg width="16" height="16" viewBox="0 0 16 16" fill="none" xmlns="http://www.w3.org/2000/svg">
<path fill-rule="evenodd" clip-rule="evenodd" d="M11.9051 2.89733C10.8963 1.88847 9.26059 1.88847 8.25173 2.89733L4.2448 6.90427C2.58507 8.56399 2.58507 11.2549 4.2448 12.9147C5.90452 14.5744 8.59548 14.5744 10.2552 12.9147L13.4372 9.73269L14.4978 10.7934L11.3159 13.9753C9.07035 16.2208 5.42965 16.2208 3.18414 13.9753C0.938621 11.7298 0.938622 8.08912 3.18414 5.84361L7.19107 1.83667C8.78571 0.242026 11.3711 0.242025 12.9658 1.83667C14.5604 3.43131 14.5604 6.01673 12.9658 7.61137L9.07669 11.5005C8.13293 12.4442 6.60278 12.4442 5.65901 11.5005C4.71524 10.5567 4.71524 9.02654 5.65901 8.08278L8.72314 5.01865L9.7838 6.07931L6.71967 9.14344C6.36169 9.50142 6.36169 10.0818 6.71967 10.4398C7.07765 10.7978 7.65805 10.7978 8.01603 10.4398L11.9051 6.55071C12.914 5.54186 12.914 3.90618 11.9051 2.89733Z" fill="#110529"/>
</svg>
