<svg width="16" height="16" viewBox="0 0 16 16" fill="none" xmlns="http://www.w3.org/2000/svg">
<path fill-rule="evenodd" clip-rule="evenodd" d="M2.5 12.3306V14.75H1V9.75H6V11.25H3.76933H3.56248C4.56336 12.6143 6.17825 13.5 8 13.5C10.869 13.5 13.225 11.3033 13.4776 8.5H14.9824C14.726 12.1326 11.6979 15 8 15C5.76904 15 3.78183 13.9563 2.5 12.3306ZM8 1C4.30212 1 1.27396 3.86736 1.01758 7.5H2.52242C2.77504 4.69675 5.13098 2.5 8 2.5C9.82175 2.5 11.4366 3.38571 12.4375 4.75H12.2307H10V6.25H15V1.25H13.5V3.6694C12.2182 2.04367 10.231 1 8 1Z" fill="#110529"/>
</svg>
