<svg width="16" height="16" viewBox="0 0 16 16" fill="none" xmlns="http://www.w3.org/2000/svg">
<path d="M5.18534 2.375C6.43626 0.208336 9.56358 0.208331 10.8145 2.375L15.1446 9.875C16.3956 12.0417 14.8319 14.75 12.3301 14.75H11.0005V13.25H12.3301C13.6772 13.25 14.5192 11.7917 13.8456 10.625L9.51547 3.125C8.84189 1.95833 7.15795 1.95833 6.48438 3.125L2.15425 10.625C1.48068 11.7917 2.32265 13.25 3.6698 13.25H5.00047V14.75H3.6698C1.16795 14.75 -0.395713 12.0417 0.855213 9.875L5.18534 2.375Z" fill="#110529"/>
<path d="M8.75001 11.5V6H7.25001V11.5H8.75001Z" fill="#110529"/>
<path d="M8.75 14.75H7.25V13.25H8.75V14.75Z" fill="#110529"/>
</svg>
