<svg width="24" height="24" viewBox="0 0 24 24" fill="none" xmlns="http://www.w3.org/2000/svg">
<path d="M8.47461 5.46973C8.76746 5.17688 9.24225 5.17696 9.53516 5.46973C9.82793 5.76264 9.82801 6.23743 9.53516 6.53028L6.8252 9.24024H15C17.6261 9.24025 19.7548 11.3691 19.7549 13.9951C19.7548 16.6212 17.6261 18.75 15 18.75H13.4951C13.081 18.75 12.7452 18.4141 12.7451 18C12.7453 17.586 13.081 17.25 13.4951 17.25H15C16.7976 17.25 18.2548 15.7928 18.2549 13.9951C18.2548 12.1975 16.7977 10.7403 15 10.7402H6.80566L9.53516 13.4697L9.58691 13.5264C9.82721 13.821 9.80975 14.2557 9.53516 14.5303C9.24229 14.823 8.76745 14.823 8.47461 14.5303L4.47461 10.5303C4.47302 10.5287 4.47223 10.5261 4.4707 10.5244C4.33218 10.3884 4.24517 10.1997 4.24512 9.99024C4.24517 9.73126 4.3765 9.50289 4.57617 9.36817L8.47461 5.46973Z" fill="#110529"/>
</svg>
