<svg width="24" height="24" viewBox="0 0 24 24" fill="none" xmlns="http://www.w3.org/2000/svg">
<path fill-rule="evenodd" clip-rule="evenodd" d="M2.25 20.5H21.75V22H2.25V20.5Z" fill="#07AD3E" style="fill:#07AD3E;fill:color(display-p3 0.0272 0.6800 0.2448);fill-opacity:1;"/>
<path d="M7.25 7.19238C7.80228 7.19238 8.25 7.6401 8.25 8.19238V18.1924C8.2499 18.7446 7.80222 19.1924 7.25 19.1924H3.25C2.69778 19.1924 2.2501 18.7446 2.25 18.1924V8.19238C2.25 7.6401 2.69772 7.19238 3.25 7.19238H7.25ZM14 10.1924C14.5523 10.1924 15 10.6401 15 11.1924V18.1924C14.9999 18.7446 14.5522 19.1924 14 19.1924H10C9.44778 19.1924 9.0001 18.7446 9 18.1924V11.1924C9 10.6401 9.44772 10.1924 10 10.1924H14ZM20.75 2C21.3023 2 21.75 2.44772 21.75 3V18C21.75 18.5523 21.3023 19 20.75 19H16.75C16.1977 19 15.75 18.5523 15.75 18V3C15.75 2.44772 16.1977 2 16.75 2H20.75ZM3.75 17.6924H6.75V8.69238H3.75V17.6924ZM10.5 17.6924H13.5V11.6924H10.5V17.6924ZM17.25 3.5V17.5H20.25V3.5H17.25Z" fill="#110529" style="fill:#110529;fill:color(display-p3 0.0661 0.0192 0.1600);fill-opacity:1;"/>
</svg>
