<svg width="24" height="24" viewBox="0 0 24 24" fill="none" xmlns="http://www.w3.org/2000/svg">
<path fill-rule="evenodd" clip-rule="evenodd" d="M3.53039 21.5303L21.5304 3.53033L20.4697 2.46967L17.2388 5.70059C17.2086 5.6635 17.178 5.62662 17.147 5.58997C16.0476 4.29341 14.3469 3.25 11.9998 3.25C9.65273 3.25 7.95205 4.29341 6.85282 5.59C5.98696 6.61133 5.47615 7.81075 5.31011 8.81312C3.27025 9.1788 1.0498 11.1171 1.0498 14.2C1.0498 16.5206 2.31372 18.2505 3.81866 19.1207L2.46973 20.4697L3.53039 21.5303ZM4.93317 18.0062C3.74913 17.4902 2.5498 16.1709 2.5498 14.2C2.5498 11.6358 4.59225 10.25 6 10.25H6.75V9.5C6.75 8.79913 7.12219 7.59186 7.99698 6.56C8.84766 5.55659 10.1469 4.75 11.9998 4.75C13.8527 4.75 15.1521 5.55659 16.0028 6.56003C16.0611 6.62876 16.1172 6.69828 16.171 6.76837L4.93317 18.0062Z" fill="#110529"/>
<path d="M18 18.25H9.30561L7.80561 19.75H18C20.2143 19.75 22.9498 17.6142 22.9498 14.2C22.9498 11.1395 20.7618 9.20698 18.7343 8.82133L17.3056 10.25H18C19.4077 10.25 21.4498 11.6358 21.4498 14.2C21.4498 16.7858 19.3857 18.25 18 18.25Z" fill="#110529"/>
</svg>
