<svg width="24" height="24" viewBox="0 0 24 24" fill="none" xmlns="http://www.w3.org/2000/svg">
<path fill-rule="evenodd" clip-rule="evenodd" d="M19.5 12.75V15H21V12.75H23.25V11.25H21V9H19.5V11.25H17.25V12.75H19.5Z" fill="#110529"/>
<path fill-rule="evenodd" clip-rule="evenodd" d="M12.75 19.5L12.75 4.5L18 4.5C18.8284 4.5 19.5 5.17157 19.5 6L19.5 6.5H21L21 6C21 4.34315 19.6569 3 18 3L12.75 3H12H11.25H6C4.34315 3 3 4.34315 3 6L3 18C3 19.6569 4.34315 21 6 21H11.25H12H12.75L18 21C19.6569 21 21 19.6569 21 18V17.5H19.5V18C19.5 18.8284 18.8284 19.5 18 19.5H12.75ZM11.25 19.5L11.25 4.5H6C5.17157 4.5 4.5 5.17157 4.5 6L4.5 18C4.5 18.8284 5.17157 19.5 6 19.5H11.25Z" fill="#110529"/>
</svg>
