<svg width="24" height="24" viewBox="0 0 24 24" fill="none" xmlns="http://www.w3.org/2000/svg">
<path fill-rule="evenodd" clip-rule="evenodd" d="M8 4.5C8 3.11929 9.11929 2 10.5 2H13.5C14.8807 2 16 3.11929 16 4.5C16 5.88071 14.8807 7 13.5 7H10.5C9.11929 7 8 5.88071 8 4.5ZM10.5 3.5H13.5C14.0523 3.5 14.5 3.94772 14.5 4.5C14.5 5.05228 14.0523 5.5 13.5 5.5H10.5C9.94772 5.5 9.5 5.05228 9.5 4.5C9.5 3.94772 9.94772 3.5 10.5 3.5Z" fill="#110529"/>
<path d="M5.8125 3.5H6V5H5.8125C5.08763 5 4.5 5.58763 4.5 6.3125V18C4.5 18.8284 5.17157 19.5 6 19.5H18C18.8284 19.5 19.5 18.8284 19.5 18V6.5C19.5 5.67157 18.8284 5 18 5V3.5C19.6569 3.5 21 4.84315 21 6.5V18C21 19.6569 19.6569 21 18 21H6C4.34315 21 3 19.6569 3 18V6.3125C3 4.7592 4.2592 3.5 5.8125 3.5Z" fill="#110529"/>
<path d="M16 12H8V10.5H16V12Z" fill="#110529"/>
<path d="M16 16H8V14.5H16V16Z" fill="#110529"/>
</svg>
