<svg width="24" height="24" viewBox="0 0 24 24" fill="none" xmlns="http://www.w3.org/2000/svg">
<path fill-rule="evenodd" clip-rule="evenodd" d="M16.2 4H7.8C6.94342 4 6.36113 4.00078 5.91104 4.03755C5.47262 4.07337 5.24842 4.1383 5.09202 4.21799C4.71569 4.40973 4.40973 4.71569 4.21799 5.09202C4.1383 5.24842 4.07337 5.47262 4.03755 5.91104C4.00078 6.36113 4 6.94342 4 7.8V16.2C4 17.0566 4.00078 17.6389 4.03755 18.089C4.07337 18.5274 4.1383 18.7516 4.21799 18.908C4.40973 19.2843 4.71569 19.5903 5.09202 19.782C5.24842 19.8617 5.47262 19.9266 5.91104 19.9624C6.36113 19.9992 6.94342 20 7.8 20H16.2C17.0566 20 17.6389 19.9992 18.089 19.9624C18.5274 19.9266 18.7516 19.8617 18.908 19.782C19.2843 19.5903 19.5903 19.2843 19.782 18.908C19.8617 18.7516 19.9266 18.5274 19.9624 18.089C19.9992 17.6389 20 17.0566 20 16.2V7.8C20 6.94342 19.9992 6.36113 19.9624 5.91104C19.9266 5.47262 19.8617 5.24842 19.782 5.09202C19.5903 4.71569 19.2843 4.40973 18.908 4.21799C18.7516 4.1383 18.5274 4.07337 18.089 4.03755C17.6389 4.00078 17.0566 4 16.2 4ZM3.32698 4.63803C3 5.27976 3 6.11984 3 7.8V16.2C3 17.8802 3 18.7202 3.32698 19.362C3.6146 19.9265 4.07354 20.3854 4.63803 20.673C5.27976 21 6.11984 21 7.8 21H16.2C17.8802 21 18.7202 21 19.362 20.673C19.9265 20.3854 20.3854 19.9265 20.673 19.362C21 18.7202 21 17.8802 21 16.2V7.8C21 6.11984 21 5.27976 20.673 4.63803C20.3854 4.07354 19.9265 3.6146 19.362 3.32698C18.7202 3 17.8802 3 16.2 3H7.8C6.11984 3 5.27976 3 4.63803 3.32698C4.07354 3.6146 3.6146 4.07354 3.32698 4.63803Z" fill="#CFD1DB"/>
<path d="M5 5H7.8V7.8H5V5Z" fill="#CFD1DB"/>
<path d="M7.8 16.2H5V19H7.8V16.2L10.6 16.2001L10.6 19H13.4V16.2001H16.2V19H19V16.2L16.2 16.2001V13.3999H13.4V16.2001H10.6L10.6 13.3999H7.8V16.2Z" fill="#CFD1DB"/>
<path fill-rule="evenodd" clip-rule="evenodd" d="M7.8 7.8H10.6L10.6 10.6L7.8 10.5999V7.8ZM7.8 10.5999V13.3999H5V10.5999H7.8ZM13.4 10.6H10.6L10.6 13.3999H13.4V10.6ZM13.4 7.8V10.6H16.2V13.3999H19V10.5999L16.2 10.6L16.2 7.8L19 7.8V5H16.2L16.2 7.8L13.4 7.8ZM13.4 7.8V5H10.6V7.8H13.4Z" fill="#CFD1DB"/>
</svg>
