<svg width="24" height="24" viewBox="0 0 24 24" fill="none" xmlns="http://www.w3.org/2000/svg">
<path fill-rule="evenodd" clip-rule="evenodd" d="M13.5 3H6C4.34315 3 3 4.34315 3 6V18C3 19.6569 4.34315 21 6 21H18C19.6569 21 21 19.6569 21 18V10.5H19.5V18C19.5 18.8284 18.8284 19.5 18 19.5H6C5.17157 19.5 4.5 18.8284 4.5 18L4.5 6C4.5 5.17157 5.17157 4.5 6 4.5H13.5V3ZM9.25 11.25V9.25H11.25V11.25H9.25ZM7.7815 12C7.76094 11.9201 7.75 11.8363 7.75 11.75V8.75C7.75 8.19772 8.19772 7.75 8.75 7.75H11.75C12.3023 7.75 12.75 8.19772 12.75 8.75V11.25H15.25C15.8023 11.25 16.25 11.6977 16.25 12.25V15.25C16.25 15.8023 15.8023 16.25 15.25 16.25H12.25C12.1637 16.25 12.0799 16.2391 12 16.2185C11.9201 16.2391 11.8363 16.25 11.75 16.25H8.75C8.19772 16.25 7.75 15.8023 7.75 15.25V12.25C7.75 12.1637 7.76094 12.0799 7.7815 12ZM12.75 14.75V12.75H14.75V14.75H12.75ZM9.25 12.75H11.25V14.75H9.25V12.75Z" fill="#110529"/>
<mask id="path-2-inside-1_5819_11690" fill="white">
<rect x="16" y="3" width="5" height="5" rx="1"/>
</mask>
<rect x="16" y="3" width="5" height="5" rx="1" stroke="#110529" stroke-width="3" mask="url(#path-2-inside-1_5819_11690)"/>
</svg>
