<svg width="24" height="24" viewBox="0 0 24 24" fill="none" xmlns="http://www.w3.org/2000/svg">
<path fill-rule="evenodd" clip-rule="evenodd" d="M7.5 1.5V6H9V1.5H7.5ZM15 1.5V6H16.5V1.5H15Z" fill="#110529"/>
<path fill-rule="evenodd" clip-rule="evenodd" d="M21 6C21 4.34315 19.6569 3 18 3H6C4.34315 3 3 4.34315 3 6V18C3 19.6569 4.34315 21 6 21H18C19.6569 21 21 19.6569 21 18V6ZM6 4.5H18C18.8284 4.5 19.5 5.17157 19.5 6V18C19.5 18.8284 18.8284 19.5 18 19.5H6C5.17157 19.5 4.5 18.8284 4.5 18L4.5 6C4.5 5.17157 5.17157 4.5 6 4.5Z" fill="#110529"/>
<path d="M4 7V8.5H20V7H4Z" fill="#110529"/>
<path fill-rule="evenodd" clip-rule="evenodd" d="M7.5 11.5H6V10H7.5V11.5ZM6 14.5H7.5V13H6V14.5ZM10.5 11.5H9V10H10.5V11.5ZM9 14.5H10.5V13H9V14.5ZM12 11.5H13.5V10H12V11.5Z" fill="#110529"/>
</svg>
