<svg width="24" height="24" viewBox="0 0 24 24" fill="none" xmlns="http://www.w3.org/2000/svg">
<path fill-rule="evenodd" clip-rule="evenodd" d="M15.8525 2.76465C15.8527 2.7646 15.8529 2.76456 16 3.5L15.8529 2.76456L16.5884 2.61749L16.8825 4.08837L16.1483 4.23519L16.1483 4.23519L16.1467 4.23552L16.1331 4.23847C16.1197 4.2414 16.0981 4.24629 16.0696 4.25323C16.0123 4.26714 15.9276 4.28911 15.8249 4.31993C15.6168 4.38236 15.3475 4.47724 15.0854 4.6083C14.8033 4.74934 14.6004 4.89414 14.4653 5.03768C15.5456 5.80829 16.25 7.07188 16.25 8.5V8.61443C16.9908 8.84711 17.583 9.41535 17.8485 10.141C18.3483 9.99937 18.6665 9.74217 18.8731 9.5061C19.0343 9.32187 19.1383 9.13686 19.201 8.99997C19.2321 8.93213 19.2521 8.87814 19.2634 8.84492C19.269 8.82839 19.2724 8.81725 19.2738 8.81242L19.274 8.81172L19.4543 8.09044L20.9095 8.45424L20.7276 9.18185L20 8.99995C20.7276 9.18185 20.7275 9.18227 20.7274 9.18271L20.7272 9.18362L20.7267 9.18558L20.7255 9.19007L20.7225 9.20129C20.7202 9.20975 20.7173 9.22017 20.7138 9.23241C20.7066 9.25687 20.6968 9.2887 20.6839 9.32686C20.658 9.40302 20.6195 9.50528 20.5646 9.62494C20.4555 9.86306 20.2782 10.1781 20.0019 10.4938C19.5725 10.9847 18.9265 11.4492 18 11.6483V13.2499L21.5 13.25L21.5 14.75L18 14.7499V15C18 15.4545 17.9494 15.8973 17.8537 16.3229C18.8589 16.5027 19.5502 16.9899 20.0019 17.5062C20.2782 17.8219 20.4555 18.1369 20.5646 18.3751C20.6195 18.4947 20.658 18.597 20.6839 18.6731C20.6968 18.7113 20.7066 18.7431 20.7138 18.7676C20.7173 18.7798 20.7202 18.7902 20.7225 18.7987L20.7255 18.8099L20.7267 18.8144L20.7272 18.8164L20.7274 18.8173C20.7275 18.8177 20.7276 18.8181 20 19L20.7276 18.8181L20.9095 19.5458L19.4543 19.9096L19.274 19.1883L19.2738 19.1876L19.2694 19.1734L19.2634 19.1551C19.2521 19.1219 19.2321 19.0679 19.201 19C19.1383 18.8631 19.0343 18.6781 18.8731 18.4939C18.6022 18.1843 18.1393 17.8384 17.3266 17.7644C16.3268 19.6869 14.3168 21 12 21C9.68325 21 7.67317 19.6869 6.67338 17.7644C5.8607 17.8384 5.39782 18.1843 5.12694 18.4939C4.96574 18.6781 4.86173 18.8631 4.79899 19C4.76789 19.0679 4.74787 19.1219 4.7366 19.1551C4.73099 19.1716 4.72764 19.1827 4.72623 19.1876L4.72603 19.1883L4.54571 19.9096L3.09049 19.5458L3.27239 18.8182L4 19C3.27239 18.8182 3.2725 18.8177 3.27261 18.8173L3.27284 18.8164L3.27333 18.8144L3.27449 18.8099L3.27747 18.7987C3.27975 18.7902 3.28266 18.7798 3.28622 18.7676C3.29336 18.7431 3.30319 18.7113 3.31613 18.6731C3.34197 18.597 3.38054 18.4947 3.43539 18.3751C3.54452 18.1369 3.72176 17.8219 3.99806 17.5062C4.44977 16.9899 5.14108 16.5027 6.14633 16.3229C6.05055 15.8973 6 15.4545 6 15V14.7499H2.5V13.2499H6V11.6483C5.07353 11.4492 4.42751 10.9847 3.99806 10.4938C3.72176 10.1781 3.54452 9.86306 3.43539 9.62494C3.38054 9.50528 3.34197 9.40302 3.31613 9.32686C3.30319 9.2887 3.29336 9.25687 3.28622 9.23241C3.28266 9.22017 3.27975 9.20975 3.27747 9.20129L3.27449 9.19007L3.27333 9.18558L3.27284 9.18362L3.27261 9.18271C3.2725 9.18227 3.27239 9.18185 4 8.99995L3.27239 9.18185L3.09049 8.45424L4.54571 8.09045L4.72603 8.81172L4.72623 8.81242C4.72764 8.81726 4.73099 8.82839 4.7366 8.84492C4.74787 8.87814 4.76789 8.93213 4.79899 8.99997C4.86173 9.13687 4.96574 9.32187 5.12694 9.5061C5.33349 9.74217 5.65168 9.99937 6.15147 10.141C6.41695 9.41535 7.00918 8.8471 7.75 8.61442V8.5C7.75 7.07188 8.45439 5.80829 9.53469 5.03769C9.39956 4.89415 9.19668 4.74934 8.9146 4.6083C8.65248 4.47724 8.38325 4.38236 8.17513 4.31993C8.0724 4.28911 7.98774 4.26714 7.93044 4.25323C7.90186 4.24629 7.8803 4.24141 7.86695 4.23847L7.85328 4.23552L7.85172 4.23519L7.85167 4.23519L7.11749 4.08837L7.41163 2.61749L8.14707 2.76456L8 3.5C8.14707 2.76456 8.14729 2.7646 8.14751 2.76465L8.14802 2.76475L8.14919 2.76499L8.15224 2.76561L8.16107 2.76744L8.18921 2.77349C8.21247 2.77861 8.24462 2.78593 8.2844 2.79559C8.36383 2.81488 8.47447 2.84369 8.60612 2.88318C8.86675 2.96136 9.22252 3.08522 9.5854 3.26665C10.0073 3.4776 10.573 3.83605 10.9243 4.38732C11.2679 4.2977 11.6284 4.25 12 4.25C12.3716 4.25 12.7321 4.2977 13.0757 4.38732C13.427 3.83605 13.9927 3.4776 14.4146 3.26665C14.7775 3.08522 15.1332 2.96136 15.3939 2.88318C15.5255 2.84369 15.6362 2.81488 15.7156 2.79559C15.7554 2.78593 15.7875 2.77861 15.8108 2.77349L15.8389 2.76744L15.8478 2.76561L15.8508 2.76499L15.852 2.76475L15.8525 2.76465ZM9.25 8.49997H14.75C14.75 6.9812 13.5188 5.75 12 5.75C10.4812 5.75 9.25002 6.9812 9.25 8.49997ZM11.25 9.99997V14.5H12.75V9.99997H15.5C16.0523 9.99997 16.5 10.4477 16.5 11V15C16.5 17.4853 14.4853 19.5 12 19.5C9.51472 19.5 7.5 17.4853 7.5 15V11C7.5 10.4477 7.94772 9.99997 8.5 9.99997H11.25ZM11.25 16V17.5H12.75V16H11.25Z" fill="#110529"/>
</svg>
