<svg width="24" height="24" viewBox="0 0 24 24" fill="none" xmlns="http://www.w3.org/2000/svg">
<path fill-rule="evenodd" clip-rule="evenodd" d="M18.25 6.75L21.5 6.75V8.25H18C17.3096 8.25 16.75 7.69036 16.75 7V4C16.75 3.30964 17.3096 2.75 18 2.75L21.5 2.75V4.25L18.25 4.25V6.75Z" fill="#110529"/>
<path fill-rule="evenodd" clip-rule="evenodd" d="M13.25 6.25L17.5 6.25V4.75L13 4.75C12.3096 4.75 11.75 5.30964 11.75 6V11C11.75 11.6904 12.3096 12.25 13 12.25H21.5V10.75H13.25V6.25Z" fill="#110529"/>
<path fill-rule="evenodd" clip-rule="evenodd" d="M2.75 12.5L2.75 9C2.75 8.30964 3.30964 7.75 4 7.75L12.5 7.75V9.25L4.25 9.25L4.25 12.5H2.75Z" fill="#110529"/>
<path fill-rule="evenodd" clip-rule="evenodd" d="M4.25 17.25L4.25 14L2.75 14L2.75 17.5C2.75 18.1904 3.30964 18.75 4 18.75H8.5V17.25L4.25 17.25Z" fill="#07AD3E"/>
<path fill-rule="evenodd" clip-rule="evenodd" d="M9.25 16.25L21.5 16.25V14.75L9 14.75C8.30964 14.75 7.75 15.3096 7.75 16L7.75 20C7.75 20.6904 8.30965 21.25 9 21.25L21.5 21.25V19.75L9.25 19.75V16.25Z" fill="#07AD3E"/>
</svg>
