<svg width="24" height="24" viewBox="0 0 24 24" fill="none" xmlns="http://www.w3.org/2000/svg">
<path fill-rule="evenodd" clip-rule="evenodd" d="M20.75 20.75L5 20.75C4.0335 20.75 3.25 19.9665 3.25 19L3.25 3.25L4.75 3.25L4.75 19C4.75 19.1381 4.86193 19.25 5 19.25L20.75 19.25V20.75Z" fill="#110529"/>
<path fill-rule="evenodd" clip-rule="evenodd" d="M8.75 4.75H7.25V3.25H8.75V4.75ZM12.75 4.75H11.25V3.25H12.75V4.75ZM16.75 4.75H15.25V3.25H16.75V4.75ZM19.25 4.75V3.25H20.75V4.75H19.25ZM19.25 8.75V7.25H20.75V8.75H19.25ZM19.25 12.75V11.25H20.75V12.75H19.25ZM19.25 16.75V15.25H20.75V16.75H19.25Z" fill="#110529"/>
</svg>
