<svg width="24" height="24" viewBox="0 0 24 24" fill="none" xmlns="http://www.w3.org/2000/svg">
<path d="M22 5C22 6.65685 20.6569 8 19 8C17.3431 8 16 6.65685 16 5C16 3.34315 17.3431 2 19 2C20.6569 2 22 3.34315 22 5Z" fill="#49CC49"/>
<path fill-rule="evenodd" clip-rule="evenodd" d="M18.1501 10.9403L15 15V17.6972C15 18.1988 14.7494 18.6671 14.3321 18.9453L10.5547 21.4635C9.89017 21.9066 9.00002 21.4302 9.00002 20.6315V15L4.22223 8.8426C3.75618 8.29887 3.5 7.60636 3.5 6.89023V4.5C3.5 3.67157 4.17157 3 5 3L13.3414 3C13.1734 3.47536 13.0636 3.97821 13.0206 4.5L5 4.5V6.25L13.1304 6.25C13.2425 6.77911 13.4244 7.28247 13.6659 7.75L5.27085 7.75C5.29891 7.79011 5.32902 7.82897 5.36112 7.86642L10.1389 14.0238C10.3719 14.2957 10.5 14.6419 10.5 15V19.6972L13.5 17.6972V15C13.5 14.6419 13.6281 14.2957 13.8611 14.0238L16.5961 10.499C17.0837 10.7125 17.6051 10.863 18.1501 10.9403Z" fill="#110529"/>
</svg>
