<svg width="24" height="24" viewBox="0 0 24 24" fill="none" xmlns="http://www.w3.org/2000/svg">
<path fill-rule="evenodd" clip-rule="evenodd" d="M12.25 8.5V4.5H7C6.17157 4.5 5.5 5.17157 5.5 6V11.5H4V6C4 4.34315 5.34315 3 7 3H12.25H13C13.2571 3 13.5101 3.04102 13.75 3.11945C14.1075 3.2363 14.4362 3.43618 14.7071 3.70711L19.2929 8.29289C19.5638 8.56382 19.7637 8.8925 19.8806 9.25C19.959 9.48994 20 9.74285 20 10V10.75V18C20 19.6569 18.6569 21 17 21H13.5V19.5H17C17.8284 19.5 18.5 18.8284 18.5 18V10.75H14.5C13.2574 10.75 12.25 9.74264 12.25 8.5ZM13.75 4.87132L18.1287 9.25H14.5C14.0858 9.25 13.75 8.91421 13.75 8.5V4.87132ZM9 16V12.5H7.5V16H4V17.5H7.5V21H9V17.5H12.5V16H9Z" fill="#110529"/>
<path fill-rule="evenodd" clip-rule="evenodd" d="M9 12.5V16H12.5V17.5H9V21H7.5V17.5H4V16H7.5V12.5H9Z" fill="#110529"/>
</svg>
