<svg width="24" height="24" viewBox="0 0 24 24" fill="none" xmlns="http://www.w3.org/2000/svg">
<path fill-rule="evenodd" clip-rule="evenodd" d="M20.75 19C20.75 19.9665 19.9665 20.75 19 20.75L5 20.75C4.0335 20.75 3.25 19.9665 3.25 19L3.25 5C3.25 4.0335 4.0335 3.25 5 3.25L19 3.25C19.9665 3.25 20.75 4.0335 20.75 5L20.75 19ZM19 19.25C19.1381 19.25 19.25 19.1381 19.25 19L19.25 5C19.25 4.86193 19.1381 4.75 19 4.75L5 4.75C4.86193 4.75 4.75 4.86193 4.75 5L4.75 19C4.75 19.1381 4.86193 19.25 5 19.25L19 19.25Z" fill="#110529"/>
</svg>
