<svg width="24" height="24" viewBox="0 0 24 24" fill="none" xmlns="http://www.w3.org/2000/svg">
<path fill-rule="evenodd" clip-rule="evenodd" d="M3 7C3 4.79086 4.79086 3 7 3C9.20914 3 11 4.79086 11 7C11 9.20914 9.20914 11 7 11C4.79086 11 3 9.20914 3 7ZM7 9.5C5.61929 9.5 4.5 8.38071 4.5 7C4.5 5.61929 5.61929 4.5 7 4.5C8.38071 4.5 9.5 5.61929 9.5 7C9.5 8.38071 8.38071 9.5 7 9.5Z" fill="#110529"/>
<path fill-rule="evenodd" clip-rule="evenodd" d="M13 17C13 14.7909 14.7909 13 17 13C19.2091 13 21 14.7909 21 17C21 19.2091 19.2091 21 17 21C14.7909 21 13 19.2091 13 17ZM17 19.5C15.6193 19.5 14.5 18.3807 14.5 17C14.5 15.6193 15.6193 14.5 17 14.5C18.3807 14.5 19.5 15.6193 19.5 17C19.5 18.3807 18.3807 19.5 17 19.5Z" fill="#110529"/>
<path fill-rule="evenodd" clip-rule="evenodd" d="M12.7071 7.70708C12.3166 7.31655 12.3166 6.68339 12.7071 6.29286L16.2929 2.70708C16.6834 2.31655 17.3166 2.31655 17.7071 2.70708L21.2929 6.29287C21.6834 6.68339 21.6834 7.31655 21.2929 7.70708L17.7071 11.2929C17.3166 11.6834 16.6834 11.6834 16.2929 11.2929L12.7071 7.70708ZM17 9.87865L14.1213 6.99997L17 4.12129L19.8787 6.99997L17 9.87865Z" fill="#07AD3E"/>
<path fill-rule="evenodd" clip-rule="evenodd" d="M4.5 13.25C3.80964 13.25 3.25 13.8096 3.25 14.5V19.5C3.25 20.1903 3.80964 20.75 4.5 20.75H9.5C10.1904 20.75 10.75 20.1903 10.75 19.5V14.5C10.75 13.8096 10.1904 13.25 9.5 13.25H4.5ZM4.75 19.25V14.75H9.25V19.25H4.75Z" fill="#07AD3E"/>
</svg>
