<svg width="24" height="24" viewBox="0 0 24 24" fill="none" xmlns="http://www.w3.org/2000/svg">
<path d="M14.5459 4.67852L14.9459 0.878524L13.4541 0.721497L13.0541 4.5215L14.5459 4.67852Z" fill="#110529"/>
<path fill-rule="evenodd" clip-rule="evenodd" d="M10.2281 3.80705C9.92163 3.56559 9.50275 3.52437 9.15514 3.70149L9.08199 3.73876C8.73438 3.91588 8.52151 4.27898 8.53675 4.66882L8.7054 8.98396L5.11526 11.3839C4.79091 11.6007 4.62228 11.9863 4.68331 12.3717L4.69615 12.4528C4.75718 12.8381 5.03673 13.1527 5.4122 13.2587L9.56825 14.4318L10.7413 18.5878C10.8473 18.9633 11.1619 19.2428 11.5473 19.3039L11.6283 19.3167C12.0137 19.3777 12.3993 19.2091 12.6161 18.8848L15.0161 15.2946L19.3312 15.4633C19.721 15.4785 20.0841 15.2656 20.2613 14.918L20.2985 14.8449C20.4756 14.4973 20.4344 14.0784 20.193 13.772L17.5201 10.3801L19.014 6.32826C19.149 5.96221 19.0587 5.55109 18.7828 5.27522L18.7248 5.21718C18.4489 4.94131 18.0378 4.85106 17.6718 4.98602L13.6199 6.47987L10.2281 3.80705ZM10.2207 9.34487L10.0741 5.59549L13.0213 7.91788C13.2262 8.07932 13.5002 8.12272 13.7449 8.03249L17.2655 6.7345L15.9675 10.2551C15.8773 10.4998 15.9207 10.7739 16.0821 10.9787L18.4045 13.9259L14.6551 13.7794C14.3945 13.7692 14.1473 13.8951 14.0023 14.112L11.9171 17.2314L10.8978 13.6203C10.827 13.3692 10.6308 13.1731 10.3797 13.1022L6.76858 12.083L9.88803 9.99768C10.1049 9.85272 10.2308 9.60551 10.2207 9.34487Z" fill="#110529"/>
<path d="M7.46967 15.4697L1.46967 21.4697L2.53033 22.5304L8.53033 16.5304L7.46967 15.4697Z" fill="#110529"/>
<path d="M4.13539 5.72923L7.33539 7.32923L6.66457 8.67087L3.46457 7.07087L4.13539 5.72923Z" fill="#110529"/>
<path d="M23.2785 10.5459L19.4785 10.9459L19.3215 9.45413L23.1215 9.05413L23.2785 10.5459Z" fill="#110529"/>
<path d="M15.3292 17.3354L16.9292 20.5354L18.2708 19.8646L16.6708 16.6646L15.3292 17.3354Z" fill="#110529"/>
</svg>
