<svg width="24" height="24" viewBox="0 0 24 24" fill="none" xmlns="http://www.w3.org/2000/svg">
<path d="M18 3C18 3.55228 17.5523 4 17 4C16.4477 4 16 3.55228 16 3C16 2.44772 16.4477 2 17 2C17.5523 2 18 2.44772 18 3Z" fill="#07AD3E"/>
<path d="M17 15C17 15.5523 16.5523 16 16 16C15.4477 16 15 15.5523 15 15C15 14.4477 15.4477 14 16 14C16.5523 14 17 14.4477 17 15Z" fill="#07AD3E"/>
<path d="M18 17.5C18.5523 17.5 19 17.0523 19 16.5C19 15.9477 18.5523 15.5 18 15.5C17.4477 15.5 17 15.9477 17 16.5C17 17.0523 17.4477 17.5 18 17.5Z" fill="#07AD3E"/>
<path d="M17 6.5C17 7.05228 16.5523 7.5 16 7.5C15.4477 7.5 15 7.05228 15 6.5C15 5.94772 15.4477 5.5 16 5.5C16.5523 5.5 17 5.94772 17 6.5Z" fill="#07AD3E"/>
<path d="M18 9.5C18.5523 9.5 19 9.05228 19 8.5C19 7.94772 18.5523 7.5 18 7.5C17.4477 7.5 17 7.94772 17 8.5C17 9.05228 17.4477 9.5 18 9.5Z" fill="#07AD3E"/>
<path d="M21 15C21 15.5523 20.5523 16 20 16C19.4477 16 19 15.5523 19 15C19 14.4477 19.4477 14 20 14C20.5523 14 21 14.4477 21 15Z" fill="#07AD3E"/>
<path d="M15 13.5C15.5523 13.5 16 13.0523 16 12.5C16 11.9477 15.5523 11.5 15 11.5C14.4477 11.5 14 11.9477 14 12.5C14 13.0523 14.4477 13.5 15 13.5Z" fill="#07AD3E"/>
<path d="M15 16.5C15 17.0523 14.5523 17.5 14 17.5C13.4477 17.5 13 17.0523 13 16.5C13 15.9477 13.4477 15.5 14 15.5C14.5523 15.5 15 15.9477 15 16.5Z" fill="#07AD3E"/>
<path d="M16 19C16.5523 19 17 18.5523 17 18C17 17.4477 16.5523 17 16 17C15.4477 17 15 17.4477 15 18C15 18.5523 15.4477 19 16 19Z" fill="#07AD3E"/>
<path d="M18 11C18 11.5523 17.5523 12 17 12C16.4477 12 16 11.5523 16 11C16 10.4477 16.4477 10 17 10C17.5523 10 18 10.4477 18 11Z" fill="#07AD3E"/>
<path d="M18 14.5C18.5523 14.5 19 14.0523 19 13.5C19 12.9477 18.5523 12.5 18 12.5C17.4477 12.5 17 12.9477 17 13.5C17 14.0523 17.4477 14.5 18 14.5Z" fill="#07AD3E"/>
<path d="M18 20.5C18 21.0523 17.5523 21.5 17 21.5C16.4477 21.5 16 21.0523 16 20.5C16 19.9477 16.4477 19.5 17 19.5C17.5523 19.5 18 19.9477 18 20.5Z" fill="#07AD3E"/>
<path d="M8 3C8 2.44772 7.55228 2 7 2C6.44772 2 6 2.44772 6 3C6 3.55228 6.44772 4 7 4C7.55228 4 8 3.55228 8 3Z" fill="#110529"/>
<path d="M6 4.5C6.55228 4.5 7 4.94772 7 5.5C7 6.05228 6.55228 6.5 6 6.5C5.44772 6.5 5 6.05228 5 5.5C5 4.94772 5.44772 4.5 6 4.5Z" fill="#110529"/>
<path d="M5 7C5 6.44772 4.55228 6 4 6C3.44772 6 3 6.44772 3 7C3 7.55228 3.44772 8 4 8C4.55228 8 5 7.55228 5 7Z" fill="#110529"/>
<path d="M8 6C8.55228 6 9 6.44772 9 7C9 7.55228 8.55228 8 8 8C7.44772 8 7 7.55228 7 7C7 6.44772 7.44772 6 8 6Z" fill="#110529"/>
<path d="M7 8.5C7 7.94772 6.55228 7.5 6 7.5C5.44772 7.5 5 7.94772 5 8.5C5 9.05228 5.44772 9.5 6 9.5C6.55228 9.5 7 9.05228 7 8.5Z" fill="#110529"/>
<path d="M8 20.5C8 19.9477 7.55228 19.5 7 19.5C6.44772 19.5 6 19.9477 6 20.5C6 21.0523 6.44772 21.5 7 21.5C7.55228 21.5 8 21.0523 8 20.5Z" fill="#110529"/>
<path d="M7 17C7 16.4477 6.55228 16 6 16C5.44772 16 5 16.4477 5 17C5 17.5523 5.44772 18 6 18C6.55228 18 7 17.5523 7 17Z" fill="#110529"/>
<path d="M8 14C8.55228 14 9 14.4477 9 15C9 15.5523 8.55228 16 8 16C7.44772 16 7 15.5523 7 15C7 14.4477 7.44772 14 8 14Z" fill="#110529"/>
<path d="M11 8.5C11 7.94772 10.5523 7.5 10 7.5C9.44772 7.5 9 7.94772 9 8.5C9 9.05228 9.44772 9.5 10 9.5C10.5523 9.5 11 9.05228 11 8.5Z" fill="#110529"/>
<path d="M5 10C5.55228 10 6 10.4477 6 11C6 11.5523 5.55228 12 5 12C4.44772 12 4 11.5523 4 11C4 10.4477 4.44772 10 5 10Z" fill="#110529"/>
<path d="M8 12.5C8 11.9477 7.55228 11.5 7 11.5C6.44772 11.5 6 11.9477 6 12.5C6 13.0523 6.44772 13.5 7 13.5C7.55228 13.5 8 13.0523 8 12.5Z" fill="#110529"/>
<path d="M8 9C8.55228 9 9 9.44772 9 10C9 10.5523 8.55228 11 8 11C7.44772 11 7 10.5523 7 10C7 9.44772 7.44772 9 8 9Z" fill="#110529"/>
</svg>
