<svg width="24" height="24" viewBox="0 0 24 24" fill="none" xmlns="http://www.w3.org/2000/svg">
<path fill-rule="evenodd" clip-rule="evenodd" d="M12 4.75C7.25732 4.75 3.75 7.71271 3.75 11C3.75 12.3729 4.36176 13.6892 5.41976 14.7567L5.44227 14.7792C5.4591 14.7961 5.47585 14.8129 5.49286 14.8293C6.16833 15.4909 7.01744 16.0531 7.99951 16.4687C7.99983 16.4791 7.99999 16.4895 7.99999 16.5C7.99999 17.0523 7.55228 17.5 6.99999 17.5C6.90493 17.5 6.71997 17.4626 6.51064 17.4062C5.874 17.063 5.28859 16.6609 4.76879 16.2079C4.75639 16.3035 4.75 16.401 4.75 16.5C4.75 17.7426 5.75736 18.75 7 18.75C8.24264 18.75 9.25 17.7426 9.25 16.5C9.25 15.3041 8.31694 14.3261 7.13907 14.2542C7.0198 14.1677 6.89738 14.0722 6.77493 13.9675C6.44222 13.683 6.11802 13.3389 5.85454 12.9282C6.21561 12.8125 6.60051 12.75 7 12.75C9.07107 12.75 10.75 14.4289 10.75 16.5C10.75 16.7297 10.7294 16.9545 10.6898 17.1728C11.1142 17.2235 11.5516 17.25 12 17.25C12.2716 17.25 12.5392 17.2403 12.8023 17.2213L12.9531 18.7128C12.6384 18.7374 12.3204 18.75 12 18.75C11.3562 18.75 10.7224 18.6993 10.1059 18.602C9.43154 19.5965 8.29209 20.25 7 20.25C6.36617 20.25 5.76907 20.0928 5.24558 19.8151L3.53033 21.5304L2.46967 20.4697L4.08281 18.8566C3.56196 18.2126 3.25 17.3927 3.25 16.5C3.25 15.9433 3.37132 15.4149 3.58896 14.9398C2.74267 13.8013 2.25 12.4623 2.25 11C2.25 6.5553 6.80156 3.25 12 3.25C17.1984 3.25 21.75 6.5553 21.75 11C21.75 12.2358 21.3981 13.3836 20.7783 14.3967L19.5459 13.5088C20.001 12.7288 20.25 11.8759 20.25 11C20.25 7.71271 16.7427 4.75 12 4.75ZM14.9659 21.2248L14.1118 12.7754C14.0684 12.3465 14.5518 12.0675 14.9015 12.3194L21.7918 17.2838C22.1695 17.5559 22.0031 18.1511 21.5391 18.1879L17.9286 18.4744L15.8752 21.458C15.6114 21.8414 15.0127 21.6879 14.9659 21.2248Z" fill="#110529"/>
</svg>
