<svg width="24" height="24" viewBox="0 0 24 24" fill="none" xmlns="http://www.w3.org/2000/svg">
<path fill-rule="evenodd" clip-rule="evenodd" d="M6.66173 18.3797C5.69642 18.9269 4.51239 19.25 3 19.25H2.25V20.75H3C5.08009 20.75 6.69121 20.2125 7.97909 19.3218C7.45744 19.133 7.00308 18.8038 6.66173 18.3797ZM15.6198 7.03708C15.6306 7.02483 15.6415 7.01261 15.6524 7.00044C16.858 5.65468 18.4693 4.75 21 4.75H21.75V3.25H21C18.0608 3.25 16.0579 4.32325 14.5803 5.94949C15.0122 6.21765 15.3709 6.59244 15.6198 7.03708ZM3.75 5.5L3.75 4H2.25L2.25 5.5H3.75ZM3.75 8.5V7H2.25L2.25 8.5H3.75ZM3.75 10L3.75 11.5H2.25L2.25 10H3.75ZM3.75 14.5V13H2.25V14.5H3.75ZM3.75 16L3.75 17.5H2.25V16H3.75ZM20.25 6.5V8L21.75 8V6.5H20.25ZM20.25 11V9.5H21.75V11H20.25ZM20.25 12.5V14H21.75V12.5H20.25ZM20.25 17V15.5H21.75V17H20.25ZM20.25 20V18.5H21.75V20H20.25Z" fill="#110529"/>
<path d="M13 3C13 3.55228 12.5523 4 12 4C11.4477 4 11 3.55228 11 3C11 2.44772 11.4477 2 12 2C12.5523 2 13 2.44772 13 3Z" fill="#07AD3E"/>
<path d="M12 15C12 15.5523 11.5523 16 11 16C10.4477 16 10 15.5523 10 15C10 14.4477 10.4477 14 11 14C11.5523 14 12 14.4477 12 15Z" fill="#07AD3E"/>
<path d="M13 17.5C13.5523 17.5 14 17.0523 14 16.5C14 15.9477 13.5523 15.5 13 15.5C12.4477 15.5 12 15.9477 12 16.5C12 17.0523 12.4477 17.5 13 17.5Z" fill="#07AD3E"/>
<path d="M12 6.5C12 7.05228 11.5523 7.5 11 7.5C10.4477 7.5 10 7.05228 10 6.5C10 5.94772 10.4477 5.5 11 5.5C11.5523 5.5 12 5.94772 12 6.5Z" fill="#07AD3E"/>
<path d="M13 9.5C13.5523 9.5 14 9.05228 14 8.5C14 7.94772 13.5523 7.5 13 7.5C12.4477 7.5 12 7.94772 12 8.5C12 9.05228 12.4477 9.5 13 9.5Z" fill="#07AD3E"/>
<path d="M16 15C16 15.5523 15.5523 16 15 16C14.4477 16 14 15.5523 14 15C14 14.4477 14.4477 14 15 14C15.5523 14 16 14.4477 16 15Z" fill="#07AD3E"/>
<path d="M10 13.5C10.5523 13.5 11 13.0523 11 12.5C11 11.9477 10.5523 11.5 10 11.5C9.44772 11.5 9 11.9477 9 12.5C9 13.0523 9.44772 13.5 10 13.5Z" fill="#07AD3E"/>
<path d="M10 16.5C10 17.0523 9.55228 17.5 9 17.5C8.44772 17.5 8 17.0523 8 16.5C8 15.9477 8.44772 15.5 9 15.5C9.55228 15.5 10 15.9477 10 16.5Z" fill="#07AD3E"/>
<path d="M11 19C11.5523 19 12 18.5523 12 18C12 17.4477 11.5523 17 11 17C10.4477 17 10 17.4477 10 18C10 18.5523 10.4477 19 11 19Z" fill="#07AD3E"/>
<path d="M13 11C13 11.5523 12.5523 12 12 12C11.4477 12 11 11.5523 11 11C11 10.4477 11.4477 10 12 10C12.5523 10 13 10.4477 13 11Z" fill="#07AD3E"/>
<path d="M13 14.5C13.5523 14.5 14 14.0523 14 13.5C14 12.9477 13.5523 12.5 13 12.5C12.4477 12.5 12 12.9477 12 13.5C12 14.0523 12.4477 14.5 13 14.5Z" fill="#07AD3E"/>
<path d="M13 20.5C13 21.0523 12.5523 21.5 12 21.5C11.4477 21.5 11 21.0523 11 20.5C11 19.9477 11.4477 19.5 12 19.5C12.5523 19.5 13 19.9477 13 20.5Z" fill="#07AD3E"/>
</svg>
