<svg width="24" height="24" viewBox="0 0 24 24" fill="none" xmlns="http://www.w3.org/2000/svg">
<path d="M5 16.5C13.5556 16.5 10.4444 7.5 19 7.5" stroke="#07AD3E" stroke-width="1.5"/>
<path d="M5 21.25V16.5V11.75M5 21.25H8M5 21.25H2M5 11.75H8M5 11.75H2M5 9.5V8M5 6.5V5M5 3.5V2" stroke="#110529" stroke-width="1.5"/>
<path d="M5 21.25V16.5V11.75M5 21.25H8M5 21.25H2M5 11.75H8M5 11.75H2M5 9.5V8M5 6.5V5M5 3.5V2" stroke="#110529" stroke-width="1.5"/>
<path d="M19 2.75V7.5V12.25M19 2.75H16M19 2.75H22M19 12.25H16M19 12.25H22M19 14.5V16M19 17.5V19M19 20.5V22" stroke="#110529" stroke-width="1.5"/>
</svg>
