<svg width="24" height="24" viewBox="0 0 24 24" fill="none" xmlns="http://www.w3.org/2000/svg">
<path d="M22.75 9.25001H21.25V15.75H22.75V9.25001Z" fill="#110529"/>
<path d="M6.74999 11.25V18.2135L5.94097 17.809C5.51749 17.5973 5.24999 17.1645 5.24999 16.691V11.25H6.74999Z" fill="#110529"/>
<path d="M8.74999 19.2135V17.5365L12 19.1615L17.25 16.5365V11.25H18.75V16.691C18.75 17.1645 18.4825 17.5973 18.059 17.809L12.559 20.559C12.2071 20.735 11.7929 20.735 11.441 20.559L8.74999 19.2135Z" fill="#110529"/>
<path fill-rule="evenodd" clip-rule="evenodd" d="M3.35409 9.00001L12 13.323L20.6459 9.00001L12 4.67706L3.35409 9.00001ZM1.78884 8.10558C1.05179 8.47411 1.05179 9.52591 1.78884 9.89444L11.5528 14.7764C11.8343 14.9172 12.1657 14.9172 12.4472 14.7764L22.2111 9.89444C22.9482 9.52591 22.9482 8.47411 22.2111 8.10558L12.4472 3.22361C12.1657 3.08285 11.8343 3.08285 11.5528 3.22361L1.78884 8.10558Z" fill="#110529"/>
</svg>
