<svg width="24" height="24" viewBox="0 0 24 24" fill="none" xmlns="http://www.w3.org/2000/svg">
<path fill-rule="evenodd" clip-rule="evenodd" d="M3.3383 6.99917C2.48716 8.47022 2 10.1782 2 12C2 17.5228 6.47715 22 12 22V20.5C7.30558 20.5 3.5 16.6944 3.5 12C3.5 10.4515 3.91408 8.99969 4.63756 7.74929L3.3383 6.99917ZM12 3.5C16.6944 3.5 20.5 7.30558 20.5 12C20.5 13.5485 20.0859 15.0003 19.3624 16.2507L20.6617 17.0008C21.5128 15.5298 22 13.8218 22 12C22 6.47715 17.5228 2 12 2V3.5Z" fill="#110529"/>
</svg>
