<svg width="24" height="24" viewBox="0 0 24 24" fill="none" xmlns="http://www.w3.org/2000/svg">
<path fill-rule="evenodd" clip-rule="evenodd" d="M12.0356 3.15691L13.453 4.57435L9.67134 8.35603L5.53479 9.65414C4.65325 9.94798 4.38913 11.0668 5.04619 11.7239L7.95516 14.6328L2.65186 19.9361L3.71251 20.9968L9.01582 15.6935L11.9822 18.6599C12.6393 19.317 13.7581 19.0528 14.0519 18.1713L15.3282 14.0129L19.1099 10.2312L20.5209 11.6422L21.5815 10.5815L13.0962 2.09625L12.0356 3.15691ZM11.2445 8.90422L14.5137 5.63501L18.0492 9.17055L14.2812 12.9386C14.1078 13.112 13.9796 13.3252 13.9077 13.5596L12.7568 17.3132L6.39288 10.9492L10.0282 9.80926L12.4702 12.2513L13.5309 11.1906L11.2445 8.90422Z" fill="#110529"/>
</svg>
