<svg width="24" height="24" viewBox="0 0 24 24" fill="none" xmlns="http://www.w3.org/2000/svg">
<path fill-rule="evenodd" clip-rule="evenodd" d="M8.25 21V3H9.75V21H8.25Z" fill="#110529"/>
<path fill-rule="evenodd" clip-rule="evenodd" d="M4.93934 12L2.46967 14.4697L3.53033 15.5303L7.06066 12L3.53033 8.46967L2.46967 9.53033L4.93934 12Z" fill="#110529"/>
<path fill-rule="evenodd" clip-rule="evenodd" d="M18.5 4.5L13.5 4.5V19.5H18.5L18.5 4.5ZM20 4C20 3.44772 19.5523 3 19 3L13 3C12.4477 3 12 3.44772 12 4V20C12 20.5523 12.4477 21 13 21H19C19.5523 21 20 20.5523 20 20L20 4Z" fill="#110529"/>
</svg>
