<svg width="24" height="24" viewBox="0 0 24 24" fill="none" xmlns="http://www.w3.org/2000/svg">
<path d="M14.25 3V21H15.75V3H14.25Z" fill="#110529"/>
<path d="M20.4697 8.46967L16.9393 12L20.4697 15.5303L21.5303 14.4697L19.0607 12L21.5303 9.53033L20.4697 8.46967Z" fill="#110529"/>
<path fill-rule="evenodd" clip-rule="evenodd" d="M10.5 4.5L5.5 4.5L5.5 19.5H10.5L10.5 4.5ZM12 4C12 3.44772 11.5523 3 11 3L5 3C4.44772 3 4 3.44772 4 4L4 20C4 20.5523 4.44772 21 5 21H11C11.5523 21 12 20.5523 12 20L12 4Z" fill="#110529"/>
</svg>
