<svg width="24" height="24" viewBox="0 0 24 24" fill="none" xmlns="http://www.w3.org/2000/svg">
<path fill-rule="evenodd" clip-rule="evenodd" d="M10.6475 4.23899C11.1673 4.56387 11.6371 4.98266 12 5.50347C12.3629 4.98266 12.8327 4.56387 13.3525 4.23899C14.5002 3.5217 15.8973 3.25 17 3.25C18.5508 3.25 20.0837 3.53372 20.7759 3.68052C21.3575 3.80388 21.75 4.31606 21.75 4.88873V15.7444C21.75 16.3626 21.1762 16.8042 20.5898 16.6749C20.0108 16.5473 18.4959 16.25 17 16.25C16.0431 16.25 14.8943 16.3719 14.0133 16.7022C13.1105 17.0408 12.75 17.4794 12.75 18H11.25C11.25 17.4794 10.8895 17.0408 9.98666 16.7022C9.10574 16.3719 7.95691 16.25 7 16.25C5.5041 16.25 3.98917 16.5473 3.41021 16.6749C2.84429 16.7997 2.25 16.3871 2.25 15.7483V4.88617C2.25 4.30866 2.64715 3.80289 3.22414 3.68052C3.91634 3.53372 5.44918 3.25 7 3.25C8.10273 3.25 9.49984 3.5217 10.6475 4.23899ZM3.75 15.0764V5.10375C4.46874 4.96045 5.74168 4.75 7 4.75C7.89727 4.75 9.00016 4.97828 9.8525 5.51099C10.6721 6.02323 11.25 6.80133 11.25 8V15.6411C11.0114 15.5041 10.7613 15.3907 10.5133 15.2978C9.39426 14.8781 8.04309 14.75 7 14.75C5.76896 14.75 4.54839 14.9288 3.75 15.0764ZM13.4867 15.2978C13.2387 15.3907 12.9886 15.5041 12.75 15.6411V8C12.75 6.80133 13.3279 6.02323 14.1475 5.51099C14.9998 4.97828 16.1027 4.75 17 4.75C18.2583 4.75 19.5313 4.96045 20.25 5.10375V15.0764C19.4516 14.9288 18.231 14.75 17 14.75C15.9569 14.75 14.6057 14.8781 13.4867 15.2978Z" fill="#110529"/>
<path d="M6.99999 18.75C5.9433 18.75 4.89878 18.8815 4.12669 19.0102C3.7386 19.0749 3.41468 19.1396 3.1866 19.1885C3.07247 19.213 2.9821 19.2335 2.91941 19.2481C2.88807 19.2554 2.86362 19.2613 2.84658 19.2654L2.82661 19.2703L2.8209 19.2717L2.81809 19.2724L2.09048 19.4543L2.45429 20.9095L3.182 20.7276L3.18497 20.7268L3.19931 20.7234C3.21253 20.7202 3.23301 20.7153 3.26026 20.7089C3.31477 20.6962 3.39627 20.6776 3.50089 20.6552C3.71031 20.6104 4.01139 20.5501 4.37329 20.4898C5.10121 20.3685 6.05668 20.25 6.99999 20.25C7.9569 20.25 9.10573 20.3719 9.98665 20.7022C10.8895 21.0408 11.25 21.4794 11.25 22H12.75C12.75 21.4794 13.1105 21.0408 14.0133 20.7022C14.8943 20.3719 16.0431 20.25 17 20.25C17.9433 20.25 18.8988 20.3685 19.6267 20.4898C19.9886 20.5501 20.2897 20.6104 20.4991 20.6552C20.6037 20.6776 20.6852 20.6962 20.7397 20.7089C20.767 20.7153 20.7875 20.7202 20.8007 20.7234L20.815 20.7268L20.8184 20.7277L21.5457 20.9095L21.9095 19.4543L21.1819 19.2724L21.1791 19.2717L21.1734 19.2703L21.1534 19.2654C21.1364 19.2613 21.1119 19.2554 21.0806 19.2481C21.0179 19.2335 20.9275 19.213 20.8134 19.1885C20.5853 19.1396 20.2614 19.0749 19.8733 19.0102C19.1012 18.8815 18.0567 18.75 17 18.75C15.9569 18.75 14.6057 18.8781 13.4867 19.2978C12.9566 19.4965 12.4166 19.7887 12 20.2045C11.5834 19.7887 11.0434 19.4965 10.5133 19.2978C9.39425 18.8781 8.04309 18.75 6.99999 18.75Z" fill="#110529"/>
</svg>
