<svg width="24" height="24" viewBox="0 0 24 24" fill="none" xmlns="http://www.w3.org/2000/svg">
<path fill-rule="evenodd" clip-rule="evenodd" d="M19.5 12C19.5 16.1421 16.1421 19.5 12 19.5C9.32844 19.5 6.98313 18.1032 5.65456 16H5.76933H9V14.5H3V20.5H4.5V16.9767C6.11238 19.4017 8.86954 21 12 21C16.9706 21 21 16.9706 21 12H19.5ZM18.3454 8C17.0169 5.89683 14.6716 4.5 12 4.5C10.6747 4.5 9.42967 4.84376 8.34923 5.44697C8.05322 5.61223 7.76957 5.79697 7.5 5.99945C5.67833 7.36776 4.5 9.54627 4.5 12H3C3 8.66873 4.80989 5.76018 7.5 4.20404C7.77426 4.04539 8.05766 3.9008 8.34923 3.77125C9.46501 3.27549 10.7003 3 12 3C15.1305 3 17.8876 4.59826 19.5 7.02331V3.5H21V9.5H15V8H18.2307H18.3454Z" fill="#110529"/>
</svg>
