<svg width="24" height="24" viewBox="0 0 24 24" fill="none" xmlns="http://www.w3.org/2000/svg">
<path d="M4.61333 6.98248C6.70583 6.98248 8.32583 8.60248 8.32583 10.83V14.2725C8.32583 16.635 6.74333 18.225 4.45583 18.225C3.31583 18.225 2.28833 17.79 1.55333 16.9425L2.70083 15.87C3.11333 16.4025 3.75833 16.74 4.45583 16.74C5.79833 16.74 6.72833 15.66 6.72833 14.475V13.185C6.12083 13.7925 5.29583 14.1525 4.40333 14.1525C2.38583 14.1525 0.908325 12.6225 0.908325 10.605C0.908325 8.57998 2.59583 6.98248 4.61333 6.98248ZM2.49833 10.605C2.49833 11.775 3.43583 12.72 4.60583 12.72C5.77583 12.72 6.72833 11.775 6.72833 10.605C6.72833 9.44998 5.78333 8.48998 4.61333 8.48998C3.44333 8.48998 2.49833 9.43498 2.49833 10.605Z" fill="#110529"/>
<path d="M13.2847 18.225C11.0872 18.225 9.51973 16.6575 9.51973 14.46V10.74C9.51973 8.54248 11.0872 6.97498 13.2847 6.97498C15.4822 6.97498 17.0497 8.54248 17.0497 10.74V14.46C17.0497 16.6575 15.4822 18.225 13.2847 18.225ZM11.1172 14.5575C11.1172 15.765 12.0772 16.725 13.2847 16.725C14.4922 16.725 15.4522 15.765 15.4522 14.5575V10.6275C15.4522 9.42748 14.4922 8.46748 13.2847 8.46748C12.0772 8.46748 11.1172 9.42748 11.1172 10.6275V14.5575Z" fill="#110529"/>
<path d="M20.3438 12.375C18.8588 12.375 17.6438 11.175 17.6438 9.67498C17.6438 8.20497 18.9038 6.97498 20.3438 6.97498C21.8288 6.97498 23.0438 8.17498 23.0438 9.67498C23.0438 11.175 21.8288 12.375 20.3438 12.375ZM19.0013 9.67498C19.0013 10.4025 19.6163 11.0175 20.3438 11.0175C21.0713 11.0175 21.6863 10.4025 21.6863 9.67498C21.6863 8.94748 21.0713 8.33248 20.3438 8.33248C19.6163 8.33248 19.0013 8.94748 19.0013 9.67498Z" fill="#110529"/>
</svg>
