<svg width="24" height="24" viewBox="0 0 24 24" fill="none" xmlns="http://www.w3.org/2000/svg">
<path fill-rule="evenodd" clip-rule="evenodd" d="M15.4925 4.90644C14.306 5.28881 13.25 6.40221 13.25 8.45024V9.72389H12.5C10.8333 9.72389 8.96408 9.15152 7.32732 8.25676C6.11149 7.5921 4.97524 6.7228 4.12514 5.71852C3.89568 6.45759 3.84204 7.31871 3.98938 8.12108C4.21538 9.35183 4.84252 10.1561 5.67104 10.3299L5.36308 11.798C4.9961 11.721 4.66717 11.5879 4.37423 11.4113C4.50007 11.9954 4.76152 12.4016 5.05271 12.686C5.61571 13.2359 6.41546 13.4537 7.0273 13.4537V14.9537C6.64331 14.9537 6.20169 14.8979 5.75076 14.7646C5.98621 15.2239 6.33634 15.5777 6.74371 15.836C7.52471 16.3311 8.51783 16.4724 9.3181 16.2724L9.95 17.6L9.5 17C9.95 17.6 9.95035 17.5997 9.95 17.6L9.94861 17.601L9.94702 17.6022L9.94328 17.605L9.93354 17.6121C9.92603 17.6175 9.9165 17.6243 9.90494 17.6323C9.8818 17.6484 9.85051 17.6696 9.81094 17.695C9.73179 17.7459 9.61955 17.814 9.47323 17.8929C9.18048 18.0508 8.75184 18.2521 8.17965 18.4472C7.37854 18.7205 6.30051 18.9803 4.9256 19.0941C5.72942 19.5745 6.72867 19.9165 7.83649 20.0993C9.67426 20.4026 11.6864 20.2446 13.317 19.6559C15.2297 18.9653 16.8875 17.7801 18.0708 16.0473C19.2543 14.3143 19.9934 11.9891 19.9934 8.97075V8.6442L20.2289 8.42498L20.233 8.42096C20.2391 8.41486 20.2508 8.40301 20.2671 8.38549C20.2997 8.3504 20.3506 8.29295 20.4124 8.21393C20.5364 8.05543 20.7017 7.81336 20.8526 7.49371C21.0662 7.04139 21.2539 6.42836 21.2499 5.66217C20.8176 5.85772 20.2851 6.07808 19.8056 6.21474L19.3189 6.35343L19.0081 5.95407C18.1676 4.87396 16.7305 4.5075 15.4925 4.90644ZM21.5262 3.86036C21.7347 3.74959 21.9833 3.74353 22.1971 3.84402C22.4108 3.94453 22.5647 4.13986 22.6125 4.37119C22.9437 5.97663 22.6245 7.25397 22.2091 8.13407C22.0029 8.57072 21.7746 8.90707 21.594 9.13793C21.5577 9.18435 21.5233 9.22662 21.4912 9.26472C21.4444 12.3975 20.6485 14.9325 19.3095 16.8932C17.9288 18.9151 16.0008 20.2817 13.8263 21.0667C11.933 21.7503 9.65933 21.9204 7.59225 21.5793C5.53982 21.2406 3.56483 20.3745 2.404 18.8548C2.229 18.6257 2.2008 18.3166 2.33146 18.0596C2.46213 17.8026 2.72852 17.6433 3.01674 17.6497C4.40321 17.6807 5.53274 17.5534 6.4229 17.3701C6.25749 17.2906 6.09625 17.2015 5.94051 17.1028C4.86045 16.418 4.04666 15.2682 3.94495 13.6995C3.07197 12.8087 2.59856 11.4582 2.87432 9.59641C2.70761 9.20862 2.58882 8.7992 2.51404 8.392C2.23395 6.86671 2.49897 5.08041 3.39675 3.82486C3.54506 3.61744 3.7886 3.49959 4.04329 3.51198C4.29798 3.52438 4.52892 3.66533 4.65639 3.88617C5.32165 5.03873 6.56736 6.13181 8.04683 6.94059C9.26145 7.60458 10.5742 8.04428 11.7551 8.1796C11.8495 5.66929 13.257 4.0509 15.0325 3.47874C16.66 2.95424 18.5579 3.33176 19.8352 4.62601C20.1542 4.50807 20.4908 4.36184 20.7876 4.224C21.0028 4.12406 21.189 4.03232 21.3211 3.96573C21.3871 3.93249 21.4393 3.90565 21.4745 3.88735L21.5143 3.86663L21.5238 3.8616L21.5262 3.86036C21.5262 3.86035 21.5261 3.86037 21.5262 3.86036Z" fill="#110529"/>
</svg>
