<svg width="24" height="24" viewBox="0 0 24 24" fill="none" xmlns="http://www.w3.org/2000/svg">
<path d="M7.5 14.5H5.5V16.5H7.5V14.5Z" fill="#110529"/>
<path d="M9.5 14.5H11.5V16.5H9.5V14.5Z" fill="#110529"/>
<path d="M16.5 14.5H18.5V16.5H16.5V14.5Z" fill="#110529"/>
<path fill-rule="evenodd" clip-rule="evenodd" d="M13 4.25H3.5C2.80964 4.25 2.25 4.80964 2.25 5.5V11.5C2.25 11.6778 2.28711 11.8469 2.35401 12C2.28711 12.1531 2.25 12.3222 2.25 12.5V18.5C2.25 19.1904 2.80964 19.75 3.5 19.75H20.5C21.1904 19.75 21.75 19.1904 21.75 18.5V12.5C21.75 12.3222 21.7129 12.1531 21.646 12C21.7129 11.8469 21.75 11.6778 21.75 11.5V11.25H20.25H3.75V5.75H13C13 5.31838 13 4.25 13 4.25ZM20.25 12.75H3.75V18.25H20.25V12.75Z" fill="#110529"/>
<path d="M7.5 7.5H5.5V9.5H7.5V7.5Z" fill="#110529"/>
<path d="M11.5 7.5H9.5V9.5H11.5V7.5Z" fill="#110529"/>
<path d="M22 5C22 6.65685 20.6569 8 19 8C17.3431 8 16 6.65685 16 5C16 3.34315 17.3431 2 19 2C20.6569 2 22 3.34315 22 5Z" fill="#49CC49"/>
</svg>
