<svg width="24" height="24" viewBox="0 0 24 24" fill="none" xmlns="http://www.w3.org/2000/svg">
<path fill-rule="evenodd" clip-rule="evenodd" d="M4.67495 3.01806C4.8648 2.51541 5.3546 2.23418 5.84585 2.25827C7.26457 2.32783 8.30128 2.8342 9.40754 3.67193C10.1866 3.46893 11.1067 3.37494 12 3.37495C12.8933 3.37495 13.8134 3.46894 14.5925 3.67193C15.6987 2.8342 16.7354 2.32783 18.1541 2.25827C18.6454 2.23418 19.1352 2.51542 19.325 3.01807C19.7287 4.08698 19.718 5.44324 19.335 6.64225C19.868 7.45672 20.1641 8.18844 20.3234 8.85749C20.5001 9.59964 20.5 10.2355 20.5 10.7326V10.75C20.5 12.6216 19.6936 14.019 18.4664 14.9935C17.566 15.7085 16.4535 16.187 15.2908 16.4916C15.7502 17.3758 15.7501 18.2409 15.75 18.9675L15.75 22H14.25V19C14.25 18.0111 14.2365 17.2971 13.4697 16.5303L13.8767 15.2602C15.3078 15.0216 16.6076 14.5542 17.5336 13.8189C18.4314 13.1059 19 12.1283 19 10.75C19 10.2496 18.9979 9.76659 18.8641 9.20492C18.732 8.65014 18.4628 7.98824 17.8897 7.18589L17.6513 6.85218L17.8036 6.47141C18.1626 5.57405 18.2122 4.5443 17.9955 3.77326C16.9986 3.86974 16.2376 4.27035 15.2185 5.08561L14.8999 5.3405L14.5128 5.21147C13.8641 4.99524 12.9506 4.87495 12 4.87495C11.0494 4.87494 10.1359 4.99523 9.48718 5.21146L9.1001 5.3405L8.78148 5.08561C7.76241 4.27035 7.00143 3.86973 6.00448 3.77326C5.78783 4.54429 5.83741 5.57405 6.19636 6.47141L6.34866 6.85218L6.1103 7.18589C5.53719 7.98824 5.26795 8.65013 5.13585 9.20492C5.00212 9.76659 5 10.2496 5 10.75C5 12.1283 5.56857 13.1059 6.46641 13.8189C7.39242 14.5542 8.69219 15.0216 10.1233 15.2602L10.5303 16.5303C9.76351 17.2971 9.75 18.0111 9.75 19V22H8.25V20.7267C7.29892 20.666 6.14535 20.4665 5.13577 19.9056C4.47606 19.5391 3.86979 19.0137 3.4321 18.2716C2.99437 17.5293 2.75 16.6122 2.75 15.5H4.25C4.25 16.3878 4.44313 17.0331 4.72415 17.5096C5.00521 17.9862 5.39894 18.3358 5.86423 18.5943C6.58408 18.9943 7.45339 19.1638 8.25 19.223L8.25 18.9674C8.24989 18.2409 8.24977 17.3757 8.7092 16.4916C7.54651 16.187 6.43396 15.7085 5.53359 14.9935C4.30643 14.019 3.5 12.6216 3.5 10.75V10.7326C3.49998 10.2355 3.49994 9.59964 3.67665 8.85749C3.83594 8.18845 4.13195 7.45672 4.66503 6.64225C4.282 5.44324 4.27124 4.08697 4.67495 3.01806Z" fill="#110529"/>
</svg>
