<svg width="24" height="24" viewBox="0 0 24 24" fill="none" xmlns="http://www.w3.org/2000/svg">
<path fill-rule="evenodd" clip-rule="evenodd" d="M15.5 11.134C16.1667 11.5189 16.1667 12.4811 15.5 12.866L11 15.4641C10.3333 15.849 9.5 15.3679 9.5 14.5981V9.40194C9.5 8.63214 10.3333 8.15102 11 8.53592L15.5 11.134ZM11 10.268L14 12L11 13.7321V10.268Z" fill="#110529"/>
<path fill-rule="evenodd" clip-rule="evenodd" d="M23 12C23 12 23 8.0475 22.4973 6.15413C22.2212 5.11075 21.405 4.28837 20.3655 4.00575C18.4856 3.5 12 3.5 12 3.5C12 3.5 5.5177 3.5 3.6345 4.00575C2.5994 4.28412 1.7821 5.10756 1.5027 6.15413C1 8.0475 1 12 1 12C1 12 1 15.9525 1.5027 17.8459C1.7788 18.8893 2.595 19.7116 3.6345 19.9942C5.5177 20.5 12 20.5 12 20.5C12 20.5 18.4856 20.5 20.3655 19.9942C21.4006 19.7159 22.2179 18.8924 22.4973 17.8459C23 15.9525 23 12 23 12ZM21.0475 6.53905L21.0472 6.53785C20.908 6.01185 20.4946 5.596 19.9738 5.4537C19.6485 5.36653 19.0138 5.27936 18.1434 5.2084C17.3042 5.13998 16.3433 5.09356 15.4267 5.06235C14.5125 5.03122 13.6544 5.0156 13.0242 5.00779C12.7094 5.00388 12.4522 5.00194 12.2742 5.00097C12.1852 5.00048 12.116 5.00024 12.0694 5.00012L12.0168 5.00001H11.9832L11.9306 5.00012C11.884 5.00024 11.8149 5.00048 11.726 5.00097C11.5481 5.00194 11.291 5.00388 10.9763 5.00779C10.3463 5.0156 9.48855 5.03121 8.57451 5.06235C7.65814 5.09356 6.6974 5.13998 5.85795 5.2084C4.98624 5.27946 4.3501 5.36681 4.02406 5.45428C3.51349 5.59179 3.09531 6.00539 2.9522 6.54008C2.74592 7.31775 2.62394 8.63446 2.56087 9.86393C2.53046 10.4566 2.5152 10.9935 2.50757 11.3823C2.50376 11.5763 2.50186 11.7327 2.50092 11.8396C2.50045 11.8931 2.50022 11.9342 2.50011 11.9614L2.50001 11.9917L2.5 12.0002L2.50001 12.0083L2.50011 12.0386C2.50022 12.0658 2.50045 12.1069 2.50092 12.1604C2.50186 12.2673 2.50376 12.4237 2.50757 12.6177C2.5152 13.0065 2.53046 13.5434 2.56087 14.1361C2.62397 15.3661 2.74603 16.6834 2.95247 17.461L2.95279 17.4622C3.09195 17.988 3.50526 18.4038 4.0259 18.5462C4.35249 18.6335 4.98788 18.7207 5.85795 18.7916C6.6974 18.86 7.65814 18.9064 8.57451 18.9377C9.48855 18.9688 10.3463 18.9844 10.9763 18.9922C11.291 18.9961 11.5481 18.9981 11.726 18.999C11.8149 18.9995 11.884 18.9998 11.9306 18.9999L11.9832 19H12.0168L12.0694 18.9999C12.116 18.9998 12.1852 18.9995 12.2742 18.999C12.4522 18.9981 12.7094 18.9961 13.0242 18.9922C13.6544 18.9844 14.5125 18.9688 15.4267 18.9377C16.3433 18.9064 17.3042 18.86 18.1434 18.7916C19.0156 18.7205 19.6511 18.6331 19.9758 18.5458C20.4868 18.4083 20.9049 17.9945 21.048 17.4593C21.2541 16.6816 21.3761 15.3652 21.4391 14.1361C21.4695 13.5434 21.4848 13.0065 21.4924 12.6177C21.4962 12.4237 21.4981 12.2673 21.4991 12.1604C21.4995 12.1069 21.4998 12.0658 21.4999 12.0386L21.5 12.0083L21.5 12.0014V11.9986L21.5 11.9917L21.4999 11.9614L21.4992 11.8591L21.4991 11.8396C21.4981 11.7327 21.4962 11.5763 21.4924 11.3823C21.4848 10.9935 21.4695 10.4566 21.4391 9.86393C21.376 8.63392 21.254 7.31659 21.0475 6.53905Z" fill="#110529"/>
</svg>
