<svg width="24" height="24" viewBox="0 0 24 24" fill="none" xmlns="http://www.w3.org/2000/svg">
<path d="M12 20.5C16.6944 20.5 20.5 16.6944 20.5 12C20.5 11.6796 20.4823 11.3634 20.4478 11.0522L21.7466 9.75337C21.9124 10.4755 22 11.2275 22 12C22 17.5228 17.5228 22 12 22C6.47715 22 2 17.5228 2 12C2 6.47715 6.47715 2 12 2C13.8638 2 15.6085 2.50988 17.1022 3.39777L16.0012 4.49876C14.8088 3.86137 13.4466 3.5 12 3.5C7.30558 3.5 3.5 7.30558 3.5 12C3.5 16.6944 7.30558 20.5 12 20.5Z" fill="#110529"/>
<path d="M20.5303 6.53033L19.4697 5.46967L11 13.9393L8.03033 10.9697L6.96967 12.0303L11 16.0607L20.5303 6.53033Z" fill="#110529"/>
</svg>
