<svg width="24" height="24" viewBox="0 0 24 24" fill="none" xmlns="http://www.w3.org/2000/svg">
<path d="M8 9C8.55228 9 9 8.55229 9 8C9 7.44772 8.55228 7 8 7C7.44772 7 7 7.44772 7 8C7 8.55229 7.44772 9 8 9Z" fill="#110529"/>
<path d="M7.25 10V17H8.75V10H7.25Z" fill="#110529"/>
<path d="M13.7841 11.4367C12.7211 11.485 11.75 12.234 11.75 13.5V17H10.25V10H11.75V10.5934C12.3381 10.1918 13.0345 9.96925 13.7159 9.93827C14.5676 9.89956 15.4565 10.1497 16.1405 10.7612C16.8368 11.3836 17.25 12.3172 17.25 13.5V17H15.75V13.5C15.75 12.6828 15.4757 12.1789 15.1408 11.8795C14.7935 11.5691 14.3074 11.4129 13.7841 11.4367Z" fill="#110529"/>
<path fill-rule="evenodd" clip-rule="evenodd" d="M21 6C21 4.34315 19.6569 3 18 3H6C4.34315 3 3 4.34315 3 6V18C3 19.6569 4.34315 21 6 21H18C19.6569 21 21 19.6569 21 18V6ZM6 4.5H18C18.8284 4.5 19.5 5.17157 19.5 6V18C19.5 18.8284 18.8284 19.5 18 19.5H6C5.17157 19.5 4.5 18.8284 4.5 18L4.5 6C4.5 5.17157 5.17157 4.5 6 4.5Z" fill="#110529"/>
</svg>
