<svg width="24" height="24" viewBox="0 0 24 24" fill="none" xmlns="http://www.w3.org/2000/svg">
<path fill-rule="evenodd" clip-rule="evenodd" d="M12 7.5H19.5V6C19.5 5.17157 18.8284 4.5 18 4.5H6C5.17157 4.5 4.5 5.17157 4.5 6V7.5H12ZM3 9V8.25V7.5V6C3 4.34315 4.34315 3 6 3H18C19.6569 3 21 4.34315 21 6V7.5V8.25V9V13.5V14.25V15V18C21 19.6569 19.6569 21 18 21H13V19.5H18C18.8284 19.5 19.5 18.8284 19.5 18V15H13V13.5H19.5V9H12.75V11H11.25V9H4.5V11H3V9ZM8 16V12.5H6.5V16H3V17.5H6.5V21H8V17.5H11.5V16H8Z" fill="#110529"/>
</svg>
