<svg xmlns="http://www.w3.org/2000/svg" width="64" height="64" viewBox="0 0 64 64" fill="none">
  <path d="M29 21.9143C29 21.5943 29 21.4343 28.9377 21.3121C28.8829 21.2045 28.7955 21.1171 28.688 21.0623C28.5658 21.0001 28.4057 21.0001 28.0857 21.0001H13.9143C13.5943 21.0001 13.4342 21.0001 13.312 21.0623C13.2045 21.1171 13.1171 21.2045 13.0623 21.3121C13 21.4343 13 21.5943 13 21.9143V37.0001H17.5714H24.4286H29V21.9143Z" fill="white" stroke="#110529"/>
  <path d="M24.4286 37.0001H17.5714H13.9143C13.5943 37.0001 13.4342 37.0001 13.312 37.0623C13.2045 37.1171 13.1171 37.2045 13.0623 37.3121C13 37.4343 13 37.5943 13 37.9143V48.0858C13 48.4058 13 48.5658 13.0623 48.6881C13.1171 48.7956 13.2045 48.883 13.312 48.9378C13.4342 49.0001 13.5943 49.0001 13.9143 49.0001H28.0857C28.4057 49.0001 28.5658 49.0001 28.688 48.9378C28.7955 48.883 28.8829 48.7956 28.9377 48.6881C29 48.5658 29 48.4058 29 48.0858V37.9143C29 37.5943 29 37.4343 28.9377 37.3121C28.8829 37.2045 28.7955 37.1171 28.688 37.0623C28.5658 37.0001 28.4057 37.0001 28.0857 37.0001H24.4286Z" fill="#DEDBFF" stroke="#110529"/>
  <path d="M21 7.00006L21 21.0001" stroke="#110529"/>
  <path d="M21 49.0001L21 57.0001" stroke="#110529"/>
  <path d="M24 57.0001L18 57.0001" stroke="#110529"/>
  <path d="M24 7.00006L18 7.00006" stroke="#110529"/>
  <circle cx="42" cy="53.5" r="1.5" fill="#845CFF"/>
  <circle cx="41.5" cy="42.5" r="1.5" fill="#845CFF"/>
  <circle cx="45" cy="23.5" r="1.5" fill="#845CFF"/>
  <circle cx="42" cy="15.5" r="1.5" fill="#845CFF"/>
  <circle cx="46" cy="45.5" r="1.5" fill="#845CFF"/>
  <circle cx="42" cy="26.5" r="1.5" fill="#845CFF"/>
  <circle cx="41" cy="24.5" r="1.5" fill="#845CFF"/>
  <circle cx="41" cy="17.5" r="1.5" fill="#845CFF"/>
  <circle cx="40" cy="26.5" r="1.5" fill="#845CFF"/>
  <circle cx="48.5" cy="27.5" r="1.5" fill="#845CFF"/>
  <circle cx="46" cy="34.5" r="1.5" fill="#845CFF"/>
  <circle cx="46" cy="17.5" r="1.5" fill="#845CFF"/>
  <circle cx="43" cy="31" r="1.5" fill="#845CFF"/>
  <circle cx="38.5" cy="30.5" r="1.5" fill="#845CFF"/>
  <circle cx="42.5" cy="37.5" r="1.5" fill="#845CFF"/>
  <circle cx="44.5" cy="21.5" r="1.5" fill="#845CFF"/>
  <circle cx="37" cy="21.5" r="1.5" fill="#845CFF"/>
  <circle cx="43" cy="10.5" r="1.5" fill="#845CFF"/>
</svg>