<svg width="64" height="64" viewBox="0 0 64 64" fill="none" xmlns="http://www.w3.org/2000/svg">
<path d="M8 55V34.4444C31 31 39.5 23 56 11V32.5556C35 33.5 25 39.5 8 55Z" fill="#DEDBFF"/>
<path d="M8 45L56 21" stroke="#845CFF"/>
<rect x="5" y="9" width="1" height="1" fill="#110529"/>
<rect x="5" y="12" width="1" height="1" fill="#110529"/>
<rect x="5" y="15" width="1" height="1" fill="#110529"/>
<rect x="5" y="18" width="1" height="1" fill="#110529"/>
<rect x="5" y="21" width="1" height="1" fill="#110529"/>
<rect x="5" y="24" width="1" height="1" fill="#110529"/>
<rect x="5" y="27" width="1" height="1" fill="#110529"/>
<rect x="5" y="30" width="1" height="1" fill="#110529"/>
<rect x="5" y="33" width="1" height="1" fill="#110529"/>
<rect x="5" y="36" width="1" height="1" fill="#110529"/>
<rect x="5" y="39" width="1" height="1" fill="#110529"/>
<rect x="5" y="42" width="1" height="1" fill="#110529"/>
<rect x="5" y="45" width="1" height="1" fill="#110529"/>
<rect x="5" y="48" width="1" height="1" fill="#110529"/>
<rect x="5" y="51" width="1" height="1" fill="#110529"/>
<rect x="5" y="54" width="1" height="1" fill="#110529"/>
<rect x="5" y="57" width="54" height="1" fill="#110529"/>
<path d="M14.7503 43.2993C14.0328 43.7135 13.1154 43.4677 12.7012 42.7503C12.287 42.0328 12.5328 41.1154 13.2503 40.7012C13.9677 40.287 14.8851 40.5328 15.2993 41.2503C15.7135 41.9677 15.4677 42.8851 14.7503 43.2993Z" fill="white" stroke="black"/>
<path d="M22.2501 44.7988C21.5326 45.213 20.6152 44.9672 20.201 44.2498C19.7868 43.5323 20.0326 42.6149 20.7501 42.2007C21.4675 41.7865 22.3849 42.0323 22.7991 42.7498C23.2133 43.4672 22.9675 44.3846 22.2501 44.7988Z" fill="white" stroke="black"/>
<circle cx="20.8247" cy="34.9457" r="1.5" transform="rotate(60 20.8247 34.9457)" fill="white" stroke="black"/>
<circle cx="47.0493" cy="32.049" r="1.5" transform="rotate(60 47.0493 32.049)" fill="white" stroke="black"/>
<circle cx="36.049" cy="29.049" r="1.5" transform="rotate(60 36.049 29.049)" fill="white" stroke="black"/>
<path d="M35.2502 32.7988C34.5328 33.213 33.6154 32.9672 33.2012 32.2498C32.7869 31.5323 33.0328 30.6149 33.7502 30.2007C34.4676 29.7865 35.385 30.0323 35.7992 30.7498C36.2134 31.4672 35.9676 32.3846 35.2502 32.7988Z" fill="white" stroke="black"/>
<path d="M36.2504 41.7993C35.533 42.2135 34.6156 41.9677 34.2014 41.2503C33.7872 40.5328 34.033 39.6154 34.7504 39.2012C35.4679 38.787 36.3853 39.0328 36.7995 39.7503C37.2137 40.4677 36.9679 41.3851 36.2504 41.7993Z" fill="white" stroke="black"/>
<circle cx="28.0489" cy="29.0486" r="1.5" transform="rotate(60 28.0489 29.0486)" fill="white" stroke="black"/>
<path d="M27.2502 36.7988C26.5328 37.213 25.6154 36.9672 25.2012 36.2498C24.7869 35.5323 25.0328 34.6149 25.7502 34.2007C26.4676 33.7865 27.385 34.0323 27.7992 34.7498C28.2134 35.4672 27.9676 36.3846 27.2502 36.7988Z" fill="white" stroke="black"/>
<path d="M42.2504 18.7992C41.533 19.2134 40.6156 18.9676 40.2014 18.2502C39.7872 17.5328 40.033 16.6154 40.7504 16.2012C41.4679 15.7869 42.3853 16.0328 42.7995 16.7502C43.2137 17.4676 42.9679 18.385 42.2504 18.7992Z" fill="white" stroke="black"/>
<path d="M49.7502 25.7992C49.0328 26.2134 48.1154 25.9676 47.7012 25.2502C47.2869 24.5328 47.5328 23.6154 48.2502 23.2012C48.9676 22.7869 49.885 23.0328 50.2992 23.7502C50.7134 24.4676 50.4676 25.385 49.7502 25.7992Z" fill="white" stroke="black"/>
</svg>
