<svg width="64" height="64" viewBox="0 0 64 64" fill="none" xmlns="http://www.w3.org/2000/svg">
<rect x="5" y="9" width="1" height="1" fill="#110529"/>
<rect x="5" y="12" width="1" height="1" fill="#110529"/>
<rect x="5" y="15" width="1" height="1" fill="#110529"/>
<rect x="5" y="18" width="1" height="1" fill="#110529"/>
<rect x="5" y="21" width="1" height="1" fill="#110529"/>
<rect x="5" y="24" width="1" height="1" fill="#110529"/>
<rect x="5" y="27" width="1" height="1" fill="#110529"/>
<rect x="5" y="30" width="1" height="1" fill="#110529"/>
<rect x="5" y="33" width="1" height="1" fill="#110529"/>
<rect x="5" y="36" width="1" height="1" fill="#110529"/>
<rect x="5" y="39" width="1" height="1" fill="#110529"/>
<rect x="5" y="42" width="1" height="1" fill="#110529"/>
<rect x="5" y="45" width="1" height="1" fill="#110529"/>
<rect x="5" y="48" width="1" height="1" fill="#110529"/>
<rect x="5" y="51" width="1" height="1" fill="#110529"/>
<rect x="5" y="54" width="1" height="1" fill="#110529"/>
<rect x="5" y="57" width="54" height="1" fill="#110529"/>
<path d="M58 54.5H9C8.72386 54.5 8.5 54.2761 8.5 54V37.195C8.5 37.0696 8.54713 36.9488 8.63203 36.8565L19.8514 24.6615C19.9461 24.5586 20.0796 24.5 20.2194 24.5H32.7929C32.9255 24.5 33.0527 24.4473 33.1464 24.3536L44.6952 12.8048C44.8703 12.6296 45.1473 12.6091 45.3464 12.7566L58.2976 22.3501C58.4249 22.4444 58.5 22.5934 58.5 22.7519V54C58.5 54.2761 58.2761 54.5 58 54.5Z" fill="white" stroke="black"/>
<path d="M58 54.5H9C8.72386 54.5 8.5 54.2761 8.5 54V50.661C8.5 50.5563 8.53288 50.4543 8.59399 50.3692L19.8504 34.7082C19.9443 34.5775 20.0954 34.5 20.2564 34.5H32.8055C32.9306 34.5 33.0512 34.4531 33.1434 34.3686L44.8721 23.6172C44.9549 23.5413 45.061 23.4955 45.173 23.4872L57.9631 22.5398C58.253 22.5183 58.5 22.7477 58.5 23.0384V54C58.5 54.2761 58.2761 54.5 58 54.5Z" fill="#DEDBFF" stroke="black"/>
<path d="M58 54.5H9.83699C9.37454 54.5 9.15994 53.9261 9.5089 53.6227L19.8589 44.6227C19.9499 44.5436 20.0664 44.5 20.187 44.5H32.819C32.9359 44.5 33.0492 44.459 33.1391 44.3841L44.8364 34.6364C44.9409 34.5492 45.0764 34.5085 45.2117 34.5235L58.0552 35.9506C58.3084 35.9787 58.5 36.1927 58.5 36.4475V54C58.5 54.2761 58.2761 54.5 58 54.5Z" fill="#C1ADFF" stroke="black"/>
</svg>
