<svg xmlns="http://www.w3.org/2000/svg" width="64" height="64" viewBox="0 0 64 64" fill="none">
  <circle cx="20" cy="32" r="20" transform="rotate(-90 20 32)" fill="#DEDBFF"/>
  <circle cx="12.5" cy="22.5" r="1.5" transform="rotate(-90 12.5 22.5)" fill="#DEDBFF" stroke="#110529"/>
  <circle cx="21.5" cy="22.5" r="2.5" transform="rotate(-90 21.5 22.5)" fill="#DEDBFF" stroke="#110529"/>
  <circle cx="17.5" cy="42.5" r="2.5" transform="rotate(-90 17.5 42.5)" fill="#DEDBFF" stroke="#110529"/>
  <circle cx="10" cy="33" r="5" transform="rotate(-90 10 33)" fill="#DEDBFF" stroke="#110529"/>
  <circle cx="24.5" cy="32.5" r="3.5" transform="rotate(-90 24.5 32.5)" fill="#DEDBFF" stroke="#110529"/>
  <circle cx="14.5" cy="29.5" r="2.5" transform="rotate(-90 14.5 29.5)" fill="#DEDBFF" stroke="#110529"/>
  <circle cx="21.5" cy="34.5" r="1.5" transform="rotate(-90 21.5 34.5)" fill="#DEDBFF" stroke="#110529"/>
  <ellipse cx="45.5" cy="22.5" rx="14.5" ry="14.5" fill="white"/>
  <path d="M35.0607 21.8536C34.8654 21.6583 34.8654 21.3417 35.0607 21.1464L39.1464 17.0607C39.3417 16.8654 39.6583 16.8654 39.8536 17.0607L43.9393 21.1464C44.1346 21.3417 44.1346 21.6583 43.9393 21.8536L39.8536 25.9393C39.6583 26.1346 39.3417 26.1346 39.1464 25.9393L35.0607 21.8536Z" fill="white" stroke="#110529"/>
  <path d="M47.0607 27.8536C46.8654 27.6583 46.8654 27.3417 47.0607 27.1464L50.1464 24.0607C50.3417 23.8654 50.6583 23.8654 50.8536 24.0607L53.9393 27.1464C54.1346 27.3417 54.1346 27.6583 53.9393 27.8536L50.8536 30.9393C50.6583 31.1346 50.3417 31.1346 50.1464 30.9393L47.0607 27.8536Z" fill="white" stroke="#110529"/>
  <path d="M41.0607 29.8536C40.8654 29.6583 40.8654 29.3417 41.0607 29.1464L42.1464 28.0607C42.3417 27.8654 42.6583 27.8654 42.8536 28.0607L43.9393 29.1464C44.1346 29.3417 44.1346 29.6583 43.9393 29.8536L42.8536 30.9393C42.6583 31.1346 42.3417 31.1346 42.1464 30.9393L41.0607 29.8536Z" fill="white" stroke="#110529"/>
  <path d="M45.0607 14.8536C44.8654 14.6583 44.8654 14.3417 45.0607 14.1464L46.1464 13.0607C46.3417 12.8654 46.6583 12.8654 46.8536 13.0607L47.9393 14.1464C48.1346 14.3417 48.1346 14.6583 47.9393 14.8536L46.8536 15.9393C46.6583 16.1346 46.3417 16.1346 46.1464 15.9393L45.0607 14.8536Z" fill="white" stroke="#110529"/>
  <path d="M42.0607 21.8536C41.8654 21.6583 41.8654 21.3417 42.0607 21.1464L44.1464 19.0607C44.3417 18.8654 44.6583 18.8654 44.8536 19.0607L46.9393 21.1464C47.1346 21.3417 47.1346 21.6583 46.9393 21.8536L44.8536 23.9393C44.6583 24.1346 44.3417 24.1346 44.1464 23.9393L42.0607 21.8536Z" fill="white" stroke="#110529"/>
  <path d="M50.0607 18.8536C49.8654 18.6583 49.8654 18.3417 50.0607 18.1464L52.1464 16.0607C52.3417 15.8654 52.6583 15.8654 52.8536 16.0607L54.9393 18.1464C55.1346 18.3417 55.1346 18.6583 54.9393 18.8536L52.8536 20.9393C52.6583 21.1346 52.3417 21.1346 52.1464 20.9393L50.0607 18.8536Z" fill="white" stroke="#110529"/>
  <circle cx="38" cy="46" r="10" transform="rotate(90 38 46)" fill="#C1ADFF"/>
  <rect x="38" y="51" width="5" height="5" rx="0.5" transform="rotate(-90 38 51)" fill="#C1ADFF" stroke="#110529"/>
  <rect x="32" y="44" width="3" height="3" rx="0.5" fill="#C1ADFF" stroke="#110529"/>
  <rect x="38" y="40" width="3" height="3" rx="0.5" fill="#C1ADFF" stroke="#110529"/>
</svg>