<svg xmlns="http://www.w3.org/2000/svg" width="64" height="64" viewBox="0 0 64 64" fill="none">
  <circle cx="1.5" cy="1.5" r="1.5" transform="matrix(-1 0 0 1 24.5 4)" fill="#110529"/>
  <circle cx="1.5" cy="1.5" r="1.5" transform="matrix(-1 0 0 1 21 36)" fill="#110529"/>
  <circle cx="1.5" cy="1.5" r="1.5" transform="matrix(-1 0 0 1 19 47)" fill="#110529"/>
  <circle cx="1.5" cy="1.5" r="1.5" transform="matrix(-1 0 0 1 15 43)" fill="#110529"/>
  <circle cx="1.5" cy="1.5" r="1.5" transform="matrix(-1 0 0 1 21 29)" fill="#110529"/>
  <circle cx="1.5" cy="1.5" r="1.5" transform="matrix(-1 0 0 1 25 23)" fill="#110529"/>
  <circle cx="1.5" cy="1.5" r="1.5" transform="matrix(-1 0 0 1 26 45)" fill="#110529"/>
  <circle cx="1.5" cy="1.5" r="1.5" transform="matrix(-1 0 0 1 25 41)" fill="#110529"/>
  <circle cx="1.5" cy="1.5" r="1.5" transform="matrix(-1 0 0 1 24 37)" fill="#110529"/>
  <circle cx="1.5" cy="1.5" r="1.5" transform="matrix(-1 0 0 1 23 32)" fill="#110529"/>
  <circle cx="1.5" cy="1.5" r="1.5" transform="matrix(-1 0 0 1 18 42)" fill="#110529"/>
  <circle cx="1.5" cy="1.5" r="1.5" transform="matrix(-1 0 0 1 26 34)" fill="#110529"/>
  <circle cx="1.5" cy="1.5" r="1.5" transform="matrix(-1 0 0 1 32 45)" fill="#110529"/>
  <circle cx="1.5" cy="1.5" r="1.5" transform="matrix(-1 0 0 1 30 33)" fill="#110529"/>
  <circle cx="1.5" cy="1.5" r="1.5" transform="matrix(-1 0 0 1 34 43)" fill="#110529"/>
  <circle cx="1.5" cy="1.5" r="1.5" transform="matrix(-1 0 0 1 26 49)" fill="#110529"/>
  <circle cx="1.5" cy="1.5" r="1.5" transform="matrix(-1 0 0 1 20 14)" fill="#110529"/>
  <circle cx="1.5" cy="1.5" r="1.5" transform="matrix(-1 0 0 1 26 12)" fill="#110529"/>
  <circle cx="1.5" cy="1.5" r="1.5" transform="matrix(-1 0 0 1 30.5 17)" fill="#110529"/>
  <circle cx="1.5" cy="1.5" r="1.5" transform="matrix(-1 0 0 1 29 47)" fill="#110529"/>
  <circle cx="1.5" cy="1.5" r="1.5" transform="matrix(-1 0 0 1 20 44)" fill="#110529"/>
  <circle cx="1.5" cy="1.5" r="1.5" transform="matrix(-1 0 0 1 28 42)" fill="#110529"/>
  <circle cx="1.5" cy="1.5" r="1.5" transform="matrix(-1 0 0 1 23 49)" fill="#110529"/>
  <circle cx="1.5" cy="1.5" r="1.5" transform="matrix(-1 0 0 1 18 38)" fill="#110529"/>
  <circle cx="1.5" cy="1.5" r="1.5" transform="matrix(-1 0 0 1 26 17)" fill="#110529"/>
  <circle cx="1.5" cy="1.5" r="1.5" transform="matrix(-1 0 0 1 18 17)" fill="#110529"/>
  <circle cx="1.5" cy="1.5" r="1.5" transform="matrix(-1 0 0 1 22 18)" fill="#110529"/>
  <circle cx="1.5" cy="1.5" r="1.5" transform="matrix(-1 0 0 1 24 15)" fill="#110529"/>
  <circle cx="1.5" cy="1.5" r="1.5" transform="matrix(-1 0 0 1 21 20)" fill="#110529"/>
  <circle cx="1.5" cy="1.5" r="1.5" transform="matrix(-1 0 0 1 22 26)" fill="#110529"/>
  <circle cx="1.5" cy="1.5" r="1.5" transform="matrix(-1 0 0 1 28.5 36.5)" fill="#110529"/>
  <circle cx="1.5" cy="1.5" r="1.5" transform="matrix(-1 0 0 1 16.5 35)" fill="#110529"/>
  <circle cx="1.5" cy="1.5" r="1.5" transform="matrix(-1 0 0 1 33 36)" fill="#110529"/>
  <circle cx="1.5" cy="1.5" r="1.5" transform="matrix(-1 0 0 1 19 32)" fill="#110529"/>
  <circle cx="1.5" cy="1.5" r="1.5" transform="matrix(-1 0 0 1 28 29)" fill="#110529"/>
  <circle cx="1.5" cy="1.5" r="1.5" transform="matrix(-1 0 0 1 31 40)" fill="#110529"/>
  <circle cx="1.5" cy="1.5" r="1.5" transform="matrix(-1 0 0 1 35 39)" fill="#110529"/>
  <circle cx="1.5" cy="1.5" r="1.5" transform="matrix(-1 0 0 1 27 38)" fill="#110529"/>
  <circle cx="1.5" cy="1.5" r="1.5" transform="matrix(-1 0 0 1 22 41)" fill="#110529"/>
  <circle cx="1.5" cy="1.5" r="1.5" transform="matrix(-1 0 0 1 14 39)" fill="#110529"/>
  <circle cx="1.5" cy="1.5" r="1.5" transform="matrix(-1 0 0 1 27 26)" fill="#110529"/>
  <circle cx="1.5" cy="1.5" r="1.5" transform="matrix(-1 0 0 1 24.5 58)" fill="#110529"/>
  <circle cx="1.5" cy="1.5" r="1.5" transform="matrix(-1 0 0 1 24.5 52)" fill="#110529"/>
  <circle cx="1.5" cy="1.5" r="1.5" transform="matrix(-1 0 0 1 47.5 45)" fill="#845CFF"/>
  <circle cx="1.5" cy="1.5" r="1.5" transform="matrix(-1 0 0 1 47.5 15)" fill="#845CFF"/>
  <circle cx="1.5" cy="1.5" r="1.5" transform="matrix(-1 0 0 1 47.5 19)" fill="#845CFF"/>
  <circle cx="1.5" cy="1.5" r="1.5" transform="matrix(-1 0 0 1 47.5 21)" fill="#845CFF"/>
  <circle cx="1.5" cy="1.5" r="1.5" transform="matrix(-1 0 0 1 48.5 27)" fill="#845CFF"/>
  <circle cx="1.5" cy="1.5" r="1.5" transform="matrix(-1 0 0 1 47.5 31)" fill="#845CFF"/>
  <circle cx="1.5" cy="1.5" r="1.5" transform="matrix(-1 0 0 1 44.5 30)" fill="#845CFF"/>
  <circle cx="1.5" cy="1.5" r="1.5" transform="matrix(-1 0 0 1 44.5 27)" fill="#845CFF"/>
  <circle cx="1.5" cy="1.5" r="1.5" transform="matrix(-1 0 0 1 46.5 24)" fill="#845CFF"/>
  <circle cx="1.5" cy="1.5" r="1.5" transform="matrix(-1 0 0 1 41.5 26)" fill="#845CFF"/>
  <circle cx="1.5" cy="1.5" r="1.5" transform="matrix(-1 0 0 1 44 23)" fill="#845CFF"/>
  <circle cx="1.5" cy="1.5" r="1.5" transform="matrix(-1 0 0 1 52 26.5)" fill="#845CFF"/>
  <circle cx="1.5" cy="1.5" r="1.5" transform="matrix(-1 0 0 1 50.5 29.5)" fill="#845CFF"/>
  <circle cx="1.5" cy="1.5" r="1.5" transform="matrix(-1 0 0 1 49 32.5)" fill="#845CFF"/>
  <circle cx="1.5" cy="1.5" r="1.5" transform="matrix(-1 0 0 1 45 37.5)" fill="#845CFF"/>
  <circle cx="1.5" cy="1.5" r="1.5" transform="matrix(-1 0 0 1 50 38.5)" fill="#845CFF"/>
  <circle cx="1.5" cy="1.5" r="1.5" transform="matrix(-1 0 0 1 48.5 36)" fill="#845CFF"/>
  <circle cx="1.5" cy="1.5" r="1.5" transform="matrix(-1 0 0 1 50.5 23)" fill="#845CFF"/>
  <circle cx="1.5" cy="1.5" r="1.5" transform="matrix(-1 0 0 1 53.5 25)" fill="#845CFF"/>
  <circle cx="1.5" cy="1.5" r="1.5" transform="matrix(-1 0 0 1 46.5 34)" fill="#845CFF"/>
  <circle cx="1.5" cy="1.5" r="1.5" transform="matrix(-1 0 0 1 47.5 41)" fill="#845CFF"/>
  <circle cx="1.5" cy="1.5" r="1.5" transform="matrix(-1 0 0 1 23.5 45)" fill="#110529"/>
  <circle cx="1.5" cy="1.5" r="1.5" transform="matrix(-1 0 0 1 24.5 29)" fill="#110529"/>
  <circle cx="1.5" cy="1.5" r="1.5" transform="matrix(-1 0 0 1 24.5 9)" fill="#110529"/>
  <circle cx="1.5" cy="1.5" r="1.5" transform="matrix(-1 0 0 1 25 20)" fill="#110529"/>
  <circle cx="1.5" cy="1.5" r="1.5" transform="matrix(-1 0 0 1 28 20)" fill="#110529"/>
  <circle cx="1.5" cy="1.5" r="1.5" transform="matrix(-1 0 0 1 29 14)" fill="#110529"/>
  <circle cx="1.5" cy="1.5" r="1.5" transform="matrix(-1 0 0 1 23 12)" fill="#110529"/>
  <circle cx="1.5" cy="1.5" r="1.5" transform="matrix(-1 0 0 1 23 23)" fill="#110529"/>
</svg>