<svg width="24" height="24" viewBox="0 0 24 24" fill="none" xmlns="http://www.w3.org/2000/svg">
<path d="M18.3578 4.32109C18.2104 4.3948 18.2104 4.60516 18.3578 4.67886L18.9404 4.97016C18.9791 4.98952 19.0105 5.0209 19.0298 5.05961L19.3211 5.64221C19.3948 5.78962 19.6052 5.78962 19.6789 5.64221L19.9702 5.05961C19.9895 5.0209 20.0209 4.98952 20.0596 4.97016L20.6422 4.67886C20.7896 4.60516 20.7896 4.3948 20.6422 4.32109L20.0596 4.02979C20.0209 4.01044 19.9895 3.97906 19.9702 3.94035L19.6789 3.35775C19.6052 3.21034 19.3948 3.21034 19.3211 3.35775L19.0298 3.94035C19.0105 3.97906 18.9791 4.01044 18.9404 4.02979L18.3578 4.32109Z" fill="#fff"/>
<path fill-rule="evenodd" clip-rule="evenodd" d="M19.1573 14.2492C18.2087 14.7294 17.136 15 16 15C12.134 15 9 11.866 9 7.99998C9 6.86403 9.27058 5.79127 9.75081 4.84265L9.77821 4.7891C9.83867 4.67217 9.90234 4.55717 9.96908 4.4442C10.0299 4.34126 10.0933 4.24 10.1592 4.14053C10.4192 3.74771 10.1191 3.18413 9.66405 3.3061C9.48653 3.35367 9.31118 3.40654 9.13817 3.46453C9.01891 3.5045 8.90077 3.5469 8.7838 3.59166C8.76089 3.60043 8.73803 3.60929 8.71521 3.61824C5.3692 4.93055 3 8.18858 3 12C3 16.9705 7.02944 21 12 21C15.8114 21 19.0694 18.6308 20.3817 15.2848C20.3907 15.2619 20.3995 15.2391 20.4083 15.2162C20.4531 15.0992 20.4955 14.9811 20.5354 14.8618C20.5934 14.6888 20.6463 14.5134 20.6939 14.3359C20.8158 13.8809 20.2523 13.5807 19.8595 13.8408C19.76 13.9067 19.6587 13.9701 19.5558 14.0309C19.4428 14.0976 19.3278 14.1613 19.2109 14.2218L19.1573 14.2492ZM18.2083 16.2099C17.5036 16.3991 16.7631 16.5 16 16.5C11.3056 16.5 7.5 12.6944 7.5 7.99998C7.5 7.23684 7.60088 6.49637 7.79006 5.79167C5.80401 7.14136 4.5 9.41945 4.5 12C4.5 16.1421 7.85786 19.5 12 19.5C14.5805 19.5 16.8586 18.196 18.2083 16.2099Z" fill="#fff"/>
<path d="M16.4602 7.4005L15.7321 5.58028C15.6483 5.37074 15.3517 5.37074 15.2679 5.58028L14.5398 7.4005C14.5144 7.46403 14.464 7.51436 14.4005 7.53977L12.5803 8.26786C12.3708 8.35167 12.3708 8.64828 12.5803 8.7321L14.4005 9.46019C14.464 9.4856 14.5144 9.53593 14.5398 9.59946L15.2679 11.4197C15.3517 11.6292 15.6483 11.6292 15.7321 11.4197L16.4602 9.59946C16.4856 9.53593 16.536 9.4856 16.5995 9.46019L18.4197 8.7321C18.6292 8.64828 18.6292 8.35167 18.4197 8.26786L16.5995 7.53977C16.536 7.51436 16.4856 7.46403 16.4602 7.4005Z" fill="#fff"/>
</svg>
