<svg width="64" height="64" viewBox="0 0 64 64" fill="none" xmlns="http://www.w3.org/2000/svg">
<rect x="5" y="9" width="1" height="1" fill="#110529"/>
<rect x="5" y="12" width="1" height="1" fill="#110529"/>
<rect x="5" y="15" width="1" height="1" fill="#110529"/>
<rect x="5" y="18" width="1" height="1" fill="#110529"/>
<rect x="5" y="21" width="1" height="1" fill="#110529"/>
<rect x="5" y="24" width="1" height="1" fill="#110529"/>
<rect x="5" y="27" width="1" height="1" fill="#110529"/>
<rect x="5" y="30" width="1" height="1" fill="#110529"/>
<rect x="5" y="33" width="1" height="1" fill="#110529"/>
<rect x="5" y="36" width="1" height="1" fill="#110529"/>
<rect x="5" y="39" width="1" height="1" fill="#110529"/>
<rect x="5" y="42" width="1" height="1" fill="#110529"/>
<rect x="5" y="45" width="1" height="1" fill="#110529"/>
<rect x="5" y="48" width="1" height="1" fill="#110529"/>
<rect x="5" y="51" width="1" height="1" fill="#110529"/>
<rect x="5" y="54" width="1" height="1" fill="#110529"/>
<rect x="5" y="57" width="54" height="1" fill="#110529"/>
<circle cx="2" cy="2" r="2" transform="matrix(-1 0 0 1 14 48.9996)" fill="white" stroke="#110529"/>
<circle cx="2" cy="2" r="2" transform="matrix(-1 0 0 1 14 44.9996)" fill="white" stroke="#110529"/>
<circle cx="2" cy="2" r="2" transform="matrix(-1 0 0 1 57 48.9996)" fill="white" stroke="#110529"/>
<circle cx="38" cy="51" r="2" fill="white" stroke="#110529"/>
<circle cx="38" cy="46.9999" r="2" fill="white" stroke="#110529"/>
<circle cx="38" cy="42.9998" r="2" fill="white" stroke="#110529"/>
<circle cx="38" cy="38.9996" r="2" fill="white" stroke="#110529"/>
<circle cx="38" cy="34.9996" r="2" fill="white" stroke="#110529"/>
<circle cx="38" cy="30.9996" r="2" fill="white" stroke="#110529"/>
<circle cx="34" cy="51.0001" r="2" fill="white" stroke="#110529"/>
<circle cx="34" cy="47" r="2" fill="white" stroke="#110529"/>
<circle cx="34" cy="42.9999" r="2" fill="white" stroke="#110529"/>
<circle cx="34" cy="38.9998" r="2" fill="white" stroke="#110529"/>
<circle cx="34" cy="34.9996" r="2" fill="white" stroke="#110529"/>
<circle cx="34" cy="30.9996" r="2" fill="white" stroke="#110529"/>
<circle cx="34" cy="26.9996" r="2" fill="white" stroke="#110529"/>
<circle cx="34" cy="22.9996" r="2" fill="white" stroke="#110529"/>
<circle cx="34" cy="18.9996" r="2" fill="white" stroke="#110529"/>
<circle cx="34" cy="14.9996" r="2" fill="white" stroke="#110529"/>
<circle cx="27" cy="50.9996" r="2" fill="white" stroke="#110529"/>
<circle cx="27" cy="46.9996" r="2" fill="white" stroke="#110529"/>
<circle cx="27" cy="42.9996" r="2" fill="white" stroke="#110529"/>
<circle cx="27" cy="38.9996" r="2" fill="white" stroke="#110529"/>
<circle cx="27" cy="34.9996" r="2" fill="white" stroke="#110529"/>
<circle cx="19" cy="30.9996" r="2" fill="white" stroke="#110529"/>
<circle cx="19" cy="26.9996" r="2" fill="white" stroke="#110529"/>
<circle cx="23" cy="50.9996" r="2" fill="white" stroke="#110529"/>
<circle cx="23" cy="46.9996" r="2" fill="white" stroke="#110529"/>
<circle cx="23" cy="42.9996" r="2" fill="white" stroke="#110529"/>
<circle cx="23" cy="38.9996" r="2" fill="white" stroke="#110529"/>
<circle cx="19" cy="38.9996" r="2" fill="white" stroke="#110529"/>
<circle cx="19" cy="34.9996" r="2" fill="white" stroke="#110529"/>
<circle cx="19" cy="50.9996" r="2" fill="white" stroke="#110529"/>
<circle cx="19" cy="46.9996" r="2" fill="white" stroke="#110529"/>
<circle cx="19" cy="42.9996" r="2" fill="white" stroke="#110529"/>
<circle cx="2" cy="2" r="2" transform="matrix(-1 0 0 1 47 48.9996)" fill="white" stroke="#110529"/>
<circle cx="2" cy="2" r="2" transform="matrix(-1 0 0 1 47 44.9996)" fill="white" stroke="#110529"/>
<circle cx="2" cy="2" r="2" transform="matrix(-1 0 0 1 51 40.9996)" fill="white" stroke="#110529"/>
<circle cx="2" cy="2" r="2" transform="matrix(-1 0 0 1 51 36.9996)" fill="white" stroke="#110529"/>
<circle cx="2" cy="2" r="2" transform="matrix(-1 0 0 1 51 44.9996)" fill="white" stroke="#110529"/>
<circle cx="2" cy="2" r="2" transform="matrix(-1 0 0 1 51 48.9996)" fill="white" stroke="#110529"/>
</svg>
