<svg xmlns="http://www.w3.org/2000/svg" width="64" height="64" viewBox="0 0 64 64" fill="none">
  <path d="M20.9999 7.00006L20.9999 21.0001" stroke="#110529"/>
  <path d="M20.9999 49.0001L20.9999 57.0001" stroke="#110529"/>
  <path d="M23.9999 57.0001L17.9999 57.0001" stroke="#110529"/>
  <path d="M23.9999 7.00006L17.9999 7.00006" stroke="#110529"/>
  <path d="M28.9999 21.9143C28.9999 21.5943 28.9999 21.4343 28.9377 21.3121C28.8829 21.2045 28.7955 21.1171 28.6879 21.0623C28.5657 21.0001 28.4057 21.0001 28.0857 21.0001H13.9142C13.5942 21.0001 13.4342 21.0001 13.3119 21.0623C13.2044 21.1171 13.117 21.2045 13.0622 21.3121C12.9999 21.4343 12.9999 21.5943 12.9999 21.9143V37.0001H17.5714H24.4285H28.9999V21.9143Z" fill="white" stroke="#110529"/>
  <path d="M24.4285 37.0001H17.5714H13.9142C13.5942 37.0001 13.4342 37.0001 13.3119 37.0623C13.2044 37.1171 13.117 37.2045 13.0622 37.3121C12.9999 37.4343 12.9999 37.5943 12.9999 37.9143V48.0858C12.9999 48.4058 12.9999 48.5658 13.0622 48.6881C13.117 48.7956 13.2044 48.883 13.3119 48.9378C13.4342 49.0001 13.5942 49.0001 13.9142 49.0001H28.0857C28.4057 49.0001 28.5657 49.0001 28.6879 48.9378C28.7955 48.883 28.8829 48.7956 28.9377 48.6881C28.9999 48.5658 28.9999 48.4058 28.9999 48.0858V37.9143C28.9999 37.5943 28.9999 37.4343 28.9377 37.3121C28.8829 37.2045 28.7955 37.1171 28.6879 37.0623C28.5657 37.0001 28.4057 37.0001 28.0857 37.0001H24.4285Z" fill="#DEDBFF" stroke="#110529"/>
  <path d="M50.9999 16.9142C50.9999 16.5942 50.9999 16.4342 50.9377 16.3119C50.8829 16.2044 50.7955 16.117 50.6879 16.0622C50.5657 15.9999 50.4057 15.9999 50.0857 15.9999H35.9142C35.5942 15.9999 35.4342 15.9999 35.3119 16.0622C35.2044 16.117 35.117 16.2044 35.0622 16.3119C34.9999 16.4342 34.9999 16.5942 34.9999 16.9142V27.9999H39.5714H46.4285H50.9999V16.9142Z" fill="white" stroke="#110529"/>
  <path d="M46.4285 27.9999H39.5714H35.9142C35.5942 27.9999 35.4342 27.9999 35.3119 28.0622C35.2044 28.117 35.117 28.2044 35.0622 28.3119C34.9999 28.4342 34.9999 28.5942 34.9999 28.9142V33.0857C34.9999 33.4057 34.9999 33.5657 35.0622 33.6879C35.117 33.7955 35.2044 33.8829 35.3119 33.9377C35.4342 33.9999 35.5942 33.9999 35.9142 33.9999H50.0857C50.4057 33.9999 50.5657 33.9999 50.6879 33.9377C50.7955 33.8829 50.8829 33.7955 50.9377 33.6879C50.9999 33.5657 50.9999 33.4057 50.9999 33.0857V28.9142C50.9999 28.5942 50.9999 28.4342 50.9377 28.3119C50.8829 28.2044 50.7955 28.117 50.6879 28.0622C50.5657 27.9999 50.4057 27.9999 50.0857 27.9999H46.4285Z" fill="#DEDBFF" stroke="#110529"/>
  <path d="M42.9999 9.99994L42.9999 15.9999" stroke="#110529"/>
  <path d="M42.9999 33.9999L42.9999 45.9999" stroke="#110529"/>
  <path d="M45.9999 45.9999L39.9999 45.9999" stroke="#110529"/>
  <path d="M45.9999 9.99994L39.9999 9.99994" stroke="#110529"/>
</svg>