<svg xmlns="http://www.w3.org/2000/svg" width="64" height="64" viewBox="0 0 64 64" fill="none">
  <path d="M14 46H22V54H14.5C14.2239 54 14 53.7761 14 53.5V46Z" fill="#DEDBFF" stroke="#110529"/>
  <path d="M14 14.5C14 14.2239 14.2239 14 14.5 14H22V22H14V14.5Z" fill="#C1ADFF" stroke="#110529"/>
  <rect x="14" y="22" width="8" height="8" fill="#C1ADFF" stroke="#110529"/>
  <rect x="38" y="38" width="8" height="8" fill="#DEDBFF" stroke="#110529"/>
  <rect x="30" y="30" width="8" height="8" fill="#DEDBFF" stroke="#110529"/>
  <rect x="22" y="30" width="8" height="8" fill="white" stroke="#110529"/>
  <rect x="22" y="22" width="8" height="8" fill="#DEDBFF" stroke="#110529"/>
  <rect x="30" y="22" width="8" height="8" fill="white" stroke="#110529"/>
  <rect x="38" y="22" width="8" height="8" fill="#DEDBFF" stroke="#110529"/>
  <rect x="38" y="14" width="8" height="8" fill="#DEDBFF" stroke="#110529"/>
  <rect x="14" y="30" width="8" height="8" fill="#C1ADFF" stroke="#110529"/>
  <rect x="14" y="38" width="8" height="8" fill="#DEDBFF" stroke="#110529"/>
  <rect x="46" y="22" width="8" height="8" fill="white" stroke="#110529"/>
  <rect x="22" y="14" width="8" height="8" fill="#C1ADFF" stroke="#110529"/>
  <rect x="30" y="14" width="8" height="8" fill="#C1ADFF" stroke="#110529"/>
  <path d="M46 14H53.5C53.7761 14 54 14.2239 54 14.5V22H46V14Z" fill="#DEDBFF" stroke="#110529"/>
  <rect x="46" y="30" width="8" height="8" fill="white" stroke="#110529"/>
  <rect x="46" y="38" width="8" height="8" fill="white" stroke="#110529"/>
  <rect x="38" y="30" width="8" height="8" fill="white" stroke="#110529"/>
  <rect x="30" y="38" width="8" height="8" fill="white" stroke="#110529"/>
  <rect x="22" y="38" width="8" height="8" fill="#DEDBFF" stroke="#110529"/>
  <path d="M46 46H54V53.5C54 53.7761 53.7761 54 53.5 54H46V46Z" fill="white" stroke="#110529"/>
  <rect x="38" y="46" width="8" height="8" fill="white" stroke="#110529"/>
  <rect x="30" y="46" width="8" height="8" fill="white" stroke="#110529"/>
  <rect x="22" y="46" width="8" height="8" fill="white" stroke="#110529"/>
  <path d="M18 13L18 10.5C18 10.2239 18.2239 10 18.5 10L25.5 10C25.7761 10 26 10.2239 26 10.5L26 13" stroke="#110529"/>
  <path d="M42 13L42 10.5C42 10.2239 42.2239 10 42.5 10L49.5 10C49.7761 10 50 10.2239 50 10.5L50 13" stroke="#110529"/>
  <path d="M46 10L46 7.5C46 7.22386 45.7761 7 45.5 7L34.5 7C34.2239 7 34 7.22386 34 7.5L34 13" stroke="#110529"/>
  <path d="M40 7L40 4.5C40 4.22386 39.7761 4 39.5 4L22.5 4C22.2239 4 22 4.22386 22 4.5L22 10" stroke="#110529"/>
  <path d="M13 18H10.5C10.2239 18 10 18.2239 10 18.5V25.5C10 25.7761 10.2239 26 10.5 26H13" stroke="#110529"/>
  <path d="M13 42H10.5C10.2239 42 10 42.2239 10 42.5V49.5C10 49.7761 10.2239 50 10.5 50H13" stroke="#110529"/>
  <path d="M10 46L7.5 46C7.22386 46 7 45.7761 7 45.5L7 34.5C7 34.2239 7.22386 34 7.5 34L13 34" stroke="#110529"/>
  <path d="M7 40H4.5C4.22386 40 4 39.7761 4 39.5L4 22.5C4 22.2239 4.22386 22 4.5 22H10" stroke="#110529"/>
</svg>