<svg xmlns="http://www.w3.org/2000/svg" width="64" height="64" viewBox="0 0 64 64" fill="none">
  <path d="M16 42.4998C31.754 42.5001 32.2463 21.5 48 21.5" stroke="#110529"/>
  <path d="M11 33H16M21 33H16M16 33V52M16 52H21M16 52H11" stroke="#110529"/>
  <path d="M43 11.9999H48M53 11.9999H48M48 11.9999V30.9999M48 30.9999H53M48 30.9999H43" stroke="#110529"/>
  <circle cx="1.5" cy="1.5" r="1.5" transform="matrix(1 0 0 -1 45.5001 8.99988)" fill="#845CFF"/>
  <circle cx="1.5" cy="1.5" r="1.5" transform="matrix(1 0 0 -1 43.0001 19.9999)" fill="#845CFF"/>
  <circle cx="1.5" cy="1.5" r="1.5" transform="matrix(1 0 0 -1 46.5001 22.9999)" fill="#845CFF"/>
  <circle cx="1.5" cy="1.5" r="1.5" transform="matrix(1 0 0 -1 48.5001 39.9999)" fill="#845CFF"/>
  <circle cx="1.5" cy="1.5" r="1.5" transform="matrix(1 0 0 -1 45.5001 48)" fill="#845CFF"/>
  <circle cx="1.5" cy="1.5" r="1.5" transform="matrix(1 0 0 -1 49.5001 17)" fill="#845CFF"/>
  <circle cx="1.5" cy="1.5" r="1.5" transform="matrix(1 0 0 -1 45.5001 37)" fill="#845CFF"/>
  <circle cx="1.5" cy="1.5" r="1.5" transform="matrix(1 0 0 -1 44.5001 39)" fill="#845CFF"/>
  <circle cx="1.5" cy="1.5" r="1.5" transform="matrix(1 0 0 -1 44.5001 46)" fill="#845CFF"/>
  <circle cx="1.5" cy="1.5" r="1.5" transform="matrix(1 0 0 -1 43.5001 37)" fill="#845CFF"/>
  <circle cx="1.5" cy="1.5" r="1.5" transform="matrix(1 0 0 -1 52.0001 36)" fill="#845CFF"/>
  <circle cx="1.5" cy="1.5" r="1.5" transform="matrix(1 0 0 -1 49.5001 28.9999)" fill="#845CFF"/>
  <circle cx="1.5" cy="1.5" r="1.5" transform="matrix(1 0 0 -1 49.5001 45.9999)" fill="#845CFF"/>
  <circle cx="1.5" cy="1.5" r="1.5" transform="matrix(1 0 0 -1 46.5001 32.5)" fill="#845CFF"/>
  <circle cx="1.5" cy="1.5" r="1.5" transform="matrix(1 0 0 -1 48.0001 42)" fill="#845CFF"/>
  <circle cx="1.5" cy="1.5" r="1.5" transform="matrix(1 0 0 -1 40.5001 42)" fill="#845CFF"/>
  <circle cx="1.5" cy="1.5" r="1.5" transform="matrix(1 0 0 -1 46.5001 52.9999)" fill="#845CFF"/>
  <circle cx="1.5" cy="1.5" r="1.5" transform="matrix(-1 0 0 1 20.0001 25)" fill="#110529"/>
  <circle cx="1.5" cy="1.5" r="1.5" transform="matrix(-1 0 0 1 18.0001 25)" fill="#110529"/>
  <circle cx="1.5" cy="1.5" r="1.5" transform="matrix(-1 0 0 1 19.0001 23)" fill="#110529"/>
  <circle cx="1.5" cy="1.5" r="1.5" transform="matrix(1 0 0 -1 13.0001 23)" fill="#110529"/>
  <circle cx="1.5" cy="1.5" r="1.5" transform="matrix(1 0 0 -1 14.5001 32)" fill="#110529"/>
  <circle cx="1.5" cy="1.5" r="1.5" transform="matrix(1 0 0 -1 14.5001 44)" fill="#110529"/>
  <circle cx="1.5" cy="1.5" r="1.5" transform="matrix(1 0 0 -1 11.5001 30)" fill="#110529"/>
  <circle cx="1.5" cy="1.5" r="1.5" transform="matrix(1 0 0 -1 14.5001 18)" fill="#110529"/>
  <circle cx="1.5" cy="1.5" r="1.5" transform="matrix(1 0 0 -1 14.5001 57)" fill="#110529"/>
  <circle cx="1.5" cy="1.5" r="1.5" transform="matrix(1 0 0 -1 11.0001 48)" fill="#110529"/>
  <circle cx="1.5" cy="1.5" r="1.5" transform="matrix(1 0 0 -1 11.5001 50)" fill="#110529"/>
  <circle cx="1.5" cy="1.5" r="1.5" transform="matrix(1 0 0 -1 18.0001 47)" fill="#110529"/>
  <circle cx="1.5" cy="1.5" r="1.5" transform="matrix(1 0 0 -1 18.0001 38)" fill="#110529"/>
  <circle cx="1.5" cy="1.5" r="1.5" transform="matrix(1 0 0 -1 7.00012 34.5)" fill="#110529"/>
  <circle cx="1.5" cy="1.5" r="1.5" transform="matrix(1 0 0 -1 11.0001 40)" fill="#110529"/>
</svg>