<svg width="64" height="64" viewBox="0 0 64 64" fill="none" xmlns="http://www.w3.org/2000/svg">
<rect x="5" y="9" width="1" height="1" fill="#110529"/>
<rect x="5" y="12" width="1" height="1" fill="#110529"/>
<rect x="5" y="15" width="1" height="1" fill="#110529"/>
<rect x="5" y="18" width="1" height="1" fill="#110529"/>
<rect x="5" y="21" width="1" height="1" fill="#110529"/>
<rect x="5" y="24" width="1" height="1" fill="#110529"/>
<rect x="5" y="27" width="1" height="1" fill="#110529"/>
<rect x="5" y="30" width="1" height="1" fill="#110529"/>
<rect x="5" y="33" width="1" height="1" fill="#110529"/>
<rect x="5" y="36" width="1" height="1" fill="#110529"/>
<rect x="5" y="39" width="1" height="1" fill="#110529"/>
<rect x="5" y="42" width="1" height="1" fill="#110529"/>
<rect x="5" y="45" width="1" height="1" fill="#110529"/>
<rect x="5" y="48" width="1" height="1" fill="#110529"/>
<rect x="5" y="51" width="1" height="1" fill="#110529"/>
<rect x="5" y="54" width="1" height="1" fill="#110529"/>
<rect x="5" y="57" width="54" height="1" fill="#110529"/>
<path d="M11.5607 23.8536C11.3654 23.6583 11.3654 23.3417 11.5607 23.1464L13.6464 21.0607C13.8417 20.8654 14.1583 20.8654 14.3536 21.0607L16.4393 23.1464C16.6346 23.3417 16.6346 23.6583 16.4393 23.8536L14.3536 25.9393C14.1583 26.1346 13.8417 26.1346 13.6464 25.9393L11.5607 23.8536Z" fill="white" stroke="#110529"/>
<path d="M31.0607 33.8536C30.8654 33.6583 30.8654 33.3417 31.0607 33.1464L33.1464 31.0607C33.3417 30.8654 33.6583 30.8654 33.8536 31.0607L35.9393 33.1464C36.1346 33.3417 36.1346 33.6583 35.9393 33.8536L33.8536 35.9393C33.6583 36.1346 33.3417 36.1346 33.1464 35.9393L31.0607 33.8536Z" fill="#DEDBFF" stroke="#110529"/>
<path d="M40.0607 31.8536C39.8654 31.6583 39.8654 31.3417 40.0607 31.1464L42.1464 29.0607C42.3417 28.8654 42.6583 28.8654 42.8536 29.0607L44.9393 31.1464C45.1346 31.3417 45.1346 31.6583 44.9393 31.8536L42.8536 33.9393C42.6583 34.1346 42.3417 34.1346 42.1464 33.9393L40.0607 31.8536Z" fill="#DEDBFF" stroke="#110529"/>
<path d="M31.0607 40.8536C30.8654 40.6583 30.8654 40.3417 31.0607 40.1464L33.1464 38.0607C33.3417 37.8654 33.6583 37.8654 33.8536 38.0607L35.9393 40.1464C36.1346 40.3417 36.1346 40.6583 35.9393 40.8536L33.8536 42.9393C33.6583 43.1346 33.3417 43.1346 33.1464 42.9393L31.0607 40.8536Z" fill="#DEDBFF" stroke="#110529"/>
<path d="M27.5607 27.8536C27.3654 27.6583 27.3654 27.3417 27.5607 27.1464L29.6464 25.0607C29.8417 24.8654 30.1583 24.8654 30.3536 25.0607L32.4393 27.1464C32.6346 27.3417 32.6346 27.6583 32.4393 27.8536L30.3536 29.9393C30.1583 30.1346 29.8417 30.1346 29.6464 29.9393L27.5607 27.8536Z" fill="#DEDBFF" stroke="#110529"/>
<path d="M25.5607 37.8536C25.3654 37.6583 25.3654 37.3417 25.5607 37.1464L27.6464 35.0607C27.8417 34.8654 28.1583 34.8654 28.3536 35.0607L30.4393 37.1464C30.6346 37.3417 30.6346 37.6583 30.4393 37.8536L28.3536 39.9393C28.1583 40.1346 27.8417 40.1346 27.6464 39.9393L25.5607 37.8536Z" fill="#DEDBFF" stroke="#110529"/>
<path d="M11.5607 48.8536C11.3654 48.6583 11.3654 48.3417 11.5607 48.1464L13.6464 46.0607C13.8417 45.8654 14.1583 45.8654 14.3536 46.0607L16.4393 48.1464C16.6346 48.3417 16.6346 48.6583 16.4393 48.8536L14.3536 50.9393C14.1583 51.1346 13.8417 51.1346 13.6464 50.9393L11.5607 48.8536Z" fill="#DEDBFF" stroke="#110529"/>
<path d="M25.5607 44.8536C25.3654 44.6583 25.3654 44.3417 25.5607 44.1464L27.6464 42.0607C27.8417 41.8654 28.1583 41.8654 28.3536 42.0607L30.4393 44.1464C30.6346 44.3417 30.6346 44.6583 30.4393 44.8536L28.3536 46.9393C28.1583 47.1346 27.8417 47.1346 27.6464 46.9393L25.5607 44.8536Z" fill="white" stroke="#110529"/>
<path d="M18.5607 48.8536C18.3654 48.6583 18.3654 48.3417 18.5607 48.1464L20.6464 46.0607C20.8417 45.8654 21.1583 45.8654 21.3536 46.0607L23.4393 48.1464C23.6346 48.3417 23.6346 48.6583 23.4393 48.8536L21.3536 50.9393C21.1583 51.1346 20.8417 51.1346 20.6464 50.9393L18.5607 48.8536Z" fill="white" stroke="#110529"/>
<path d="M18.5607 41.8536C18.3654 41.6583 18.3654 41.3417 18.5607 41.1464L20.6464 39.0607C20.8417 38.8654 21.1583 38.8654 21.3536 39.0607L23.4393 41.1464C23.6346 41.3417 23.6346 41.6583 23.4393 41.8536L21.3536 43.9393C21.1583 44.1346 20.8417 44.1346 20.6464 43.9393L18.5607 41.8536Z" fill="white" stroke="#110529"/>
<path d="M40.0607 44.8536C39.8654 44.6583 39.8654 44.3417 40.0607 44.1464L42.1464 42.0607C42.3417 41.8654 42.6583 41.8654 42.8536 42.0607L44.9393 44.1464C45.1346 44.3417 45.1346 44.6583 44.9393 44.8536L42.8536 46.9393C42.6583 47.1346 42.3417 47.1346 42.1464 46.9393L40.0607 44.8536Z" fill="white" stroke="#110529"/>
<path d="M48.0607 37.8536C47.8654 37.6583 47.8654 37.3417 48.0607 37.1464L50.1464 35.0607C50.3417 34.8654 50.6583 34.8654 50.8536 35.0607L52.9393 37.1464C53.1346 37.3417 53.1346 37.6583 52.9393 37.8536L50.8536 39.9393C50.6583 40.1346 50.3417 40.1346 50.1464 39.9393L48.0607 37.8536Z" fill="#DEDBFF" stroke="#110529"/>
<path d="M40.0607 20.8536C39.8654 20.6583 39.8654 20.3417 40.0607 20.1464L42.1464 18.0607C42.3417 17.8654 42.6583 17.8654 42.8536 18.0607L44.9393 20.1464C45.1346 20.3417 45.1346 20.6583 44.9393 20.8536L42.8536 22.9393C42.6583 23.1346 42.3417 23.1346 42.1464 22.9393L40.0607 20.8536Z" fill="white" stroke="#110529"/>
<path d="M48.0607 12.8536C47.8654 12.6583 47.8654 12.3417 48.0607 12.1464L50.1464 10.0607C50.3417 9.8654 50.6583 9.8654 50.8536 10.0607L52.9393 12.1464C53.1346 12.3417 53.1346 12.6583 52.9393 12.8536L50.8536 14.9393C50.6583 15.1346 50.3417 15.1346 50.1464 14.9393L48.0607 12.8536Z" fill="white" stroke="#110529"/>
<path d="M29 13L31 15M33 17L31 15M31 15L33 13M31 15L29 17" stroke="#110529"/>
<path d="M47 25L49 27M51 29L49 27M49 27L51 25M49 27L47 29" stroke="#110529"/>
<path d="M38 36L40 38M42 40L40 38M40 38L42 36M40 38L38 40" stroke="#110529"/>
<path d="M33 48L35 50M37 52L35 50M35 50L37 48M35 50L33 52" stroke="#110529"/>
<path d="M19 33L21 35M23 37L21 35M21 35L23 33M21 35L19 37" stroke="#110529"/>
</svg>
