<svg xmlns="http://www.w3.org/2000/svg" width="16" height="16" fill="none"><g clip-path="url(#a)"><path fill="#110529" fill-rule="evenodd" d="M11.5 4.5h-10v10h10zM1.5 3A1.5 1.5 0 0 0 0 4.5v10A1.5 1.5 0 0 0 1.5 16h10a1.5 1.5 0 0 0 1.5-1.5v-10A1.5 1.5 0 0 0 11.5 3zm5.75 3.5v2.25H9.5v1.5H7.25v2.25h-1.5v-2.25H3.5v-1.5h2.25V6.5zM6 1.5H3V0h3zM11 0v1.5H8V0zm3.5 1.5H13V0h1.5A1.5 1.5 0 0 1 16 1.5V3h-1.5zm0 6.5V5H16v3zm0 5v-3H16v3z" clip-rule="evenodd"/></g><defs><clipPath id="a"><path fill="#fff" d="M0 0h16v16H0z"/></clipPath></defs></svg>