<svg xmlns="http://www.w3.org/2000/svg" width="24" height="24" fill="none"><path fill="#110529" fill-rule="evenodd" d="M4.25 1.25v1.5h2V5H4a1 1 0 0 0-1 1v1.586a1 1 0 0 0 .293.707L5 10l-1.707 1.707a1 1 0 0 0-.293.707V16a1 1 0 0 0 1 1h2.25v4.25h-2v1.5h5.5v-1.5h-2V17H10a1 1 0 0 0 1-1v-3.586a1 1 0 0 0-.293-.707L9 10l1.707-1.707A1 1 0 0 0 11 7.586V6a1 1 0 0 0-1-1H7.75V2.75h2v-1.5zm3.379 9.5H6.37L4.5 12.621V15.5h5v-2.879zm0-1.5H6.37L4.5 7.379V6.5h5v.879z" clip-rule="evenodd"/><path fill="#07AD3E" d="M18 2a1 1 0 1 0-2 0 1 1 0 0 0 2 0"/><path fill="#07AD3E" fill-rule="evenodd" d="M16.25 6.75V9H14a1 1 0 0 0-1 1v1.692a1 1 0 0 0 .316.73L15 14l-1.707 1.707a1 1 0 0 0-.293.707V18a1 1 0 0 0 1 1h2.25v2.25h-2v1.5h5.5v-1.5h-2V19H20a1 1 0 0 0 1-1v-1.586a1 1 0 0 0-.293-.707L19 14l1.684-1.579a1 1 0 0 0 .316-.73V10a1 1 0 0 0-1-1h-2.25V6.75h2v-1.5h-5.5v1.5zm1.357 6.5 1.893-1.775V10.5h-5v.975l1.893 1.775zm-1.236 1.5h1.258l1.871 1.871v.879h-5v-.879z" clip-rule="evenodd"/></svg>