<svg xmlns="http://www.w3.org/2000/svg" width="24" height="24" fill="none"><path fill="#110529" fill-rule="evenodd" d="M4.25 1.25v1.5h2V5H4a1 1 0 0 0-1 1v10a1 1 0 0 0 1 1h2.25v4.25h-2v1.5h5.5v-1.5h-2V17H10a1 1 0 0 0 1-1V6a1 1 0 0 0-1-1H7.75V2.75h2v-1.5zm.25 9.5h5v4.75h-5zm5-1.5h-5V6.5h5z" clip-rule="evenodd"/><path fill="#07AD3E" d="M17 1a1 1 0 1 1 0 2 1 1 0 0 1 0-2"/><path fill="#07AD3E" fill-rule="evenodd" d="M16.25 6.75V9H14a1 1 0 0 0-1 1v8a1 1 0 0 0 1 1h2.25v2.25h-2v1.5h5.5v-1.5h-2V19H20a1 1 0 0 0 1-1v-8a1 1 0 0 0-1-1h-2.25V6.75h2v-1.5h-5.5v1.5zM14.5 10.5v2.75h5V10.5zm0 4.25h5v2.75h-5z" clip-rule="evenodd"/></svg>