<svg xmlns="http://www.w3.org/2000/svg" width="24" height="24" fill="none"><path fill="#110529" fill-rule="evenodd" d="M13.5 3H6a3 3 0 0 0-3 3v12a3 3 0 0 0 3 3h12a3 3 0 0 0 3-3v-7.5h-1.5V18a1.5 1.5 0 0 1-1.5 1.5H6A1.5 1.5 0 0 1 4.5 18V6A1.5 1.5 0 0 1 6 4.5h7.5zm-4.25 8.25v-2h2v2zM7.782 12a1 1 0 0 1-.032-.25v-3a1 1 0 0 1 1-1h3a1 1 0 0 1 1 1v2.5h2.5a1 1 0 0 1 1 1v3a1 1 0 0 1-1 1h-3a1 1 0 0 1-.25-.032 1 1 0 0 1-.25.032h-3a1 1 0 0 1-1-1v-3q0-.13.032-.25m4.968 2.75v-2h2v2zm-3.5-2h2v2h-2z" clip-rule="evenodd"/><mask id="a" fill="#fff"><rect width="5" height="5" x="16" y="3" rx="1"/></mask><rect width="5" height="5" x="16" y="3" stroke="#110529" stroke-width="3" mask="url(#a)" rx="1"/></svg>