<svg xmlns="http://www.w3.org/2000/svg" width="24" height="24" fill="none"><path fill="#110529" fill-rule="evenodd" d="M10.95 9.55c.3.3.675.45 1.05.45s.75-.15 1.05-.45L15.3 7.3c.3-.3.45-.675.45-1.05s-.15-.75-.45-1.05l-2.25-2.25c-.3-.3-.675-.45-1.05-.45s-.75.15-1.05.45L8.7 5.2c-.3.3-.45.675-.45 1.05S8.4 7 8.7 7.3zm-1.2-3.3L12 4l2.25 2.25L12 8.5zm6.95 9.05c.3.3.675.45 1.05.45s.75-.15 1.05-.45l2.25-2.25c.3-.3.45-.675.45-1.05s-.15-.75-.45-1.05L18.8 8.7c-.3-.3-.675-.45-1.05-.45s-.75.15-1.05.45l-2.25 2.25c-.3.3-.45.675-.45 1.05s.15.75.45 1.05zM15.5 12l2.25-2.25L20 12l-2.25 2.25zM12 21.5c-.375 0-.75-.15-1.05-.45L8.7 18.8c-.3-.3-.45-.675-.45-1.05s.15-.75.45-1.05l2.25-2.25c.3-.3.675-.45 1.05-.45s.75.15 1.05.45l2.25 2.25c.3.3.45.675.45 1.05s-.15.75-.45 1.05l-2.25 2.25c-.3.3-.675.45-1.05.45m0-6-2.25 2.25L12 20l2.25-2.25zm-6.8-.2c.3.3.675.45 1.05.45S7 15.6 7.3 15.3l2.25-2.25c.3-.3.45-.675.45-1.05s-.15-.75-.45-1.05L7.3 8.7c-.3-.3-.675-.45-1.05-.45s-.75.15-1.05.45l-2.25 2.25c-.3.3-.45.675-.45 1.05s.15.75.45 1.05zM4 12l2.25-2.25L8.5 12l-2.25 2.25z" clip-rule="evenodd"/></svg>