<svg xmlns="http://www.w3.org/2000/svg" width="24" height="24" fill="none"><path fill="#110529" fill-rule="evenodd" d="M7.5 1.5V6H9V1.5zm7.5 0V6h1.5V1.5z" clip-rule="evenodd"/><path fill="#110529" fill-rule="evenodd" d="M21 6a3 3 0 0 0-3-3H6a3 3 0 0 0-3 3v12a3 3 0 0 0 3 3h12a3 3 0 0 0 3-3zM6 4.5h12A1.5 1.5 0 0 1 19.5 6v12a1.5 1.5 0 0 1-1.5 1.5H6A1.5 1.5 0 0 1 4.5 18V6A1.5 1.5 0 0 1 6 4.5" clip-rule="evenodd"/><path fill="#110529" d="M4 7v1.5h16V7z"/><path fill="#110529" fill-rule="evenodd" d="M7.5 11.5H6V10h1.5zm-1.5 3h1.5V13H6zm4.5-3H9V10h1.5zm-1.5 3h1.5V13H9zm3-3h1.5V10H12z" clip-rule="evenodd"/></svg>