<svg xmlns="http://www.w3.org/2000/svg" width="24" height="24" fill="none"><path fill="#110529" d="M12 3.25c-2.347 0-4.048 1.043-5.147 2.34-.866 1.021-1.377 2.22-1.543 3.223-2.04.366-4.26 2.304-4.26 5.387 0 3.414 2.736 5.55 4.95 5.55v-1.5c-1.386 0-3.45-1.464-3.45-4.05 0-2.564 2.042-3.95 3.45-3.95h.75V9.5c0-.7.372-1.908 1.247-2.94.85-1.003 2.15-1.81 4.003-1.81s3.152.807 4.003 1.81c.875 1.032 1.247 2.24 1.247 2.94v.75H18c1.408 0 3.45 1.386 3.45 3.95 0 2.586-2.064 4.05-3.45 4.05v1.5c2.214 0 4.95-2.136 4.95-5.55 0-3.083-2.22-5.021-4.26-5.387-.166-1.002-.677-2.202-1.543-3.223-1.1-1.297-2.8-2.34-5.147-2.34"/><path fill="#110529" d="m12 10.94-4.53 4.53 1.06 1.06 2.72-2.72V22h1.5v-8.19l2.72 2.72 1.06-1.06z"/></svg>