<svg xmlns="http://www.w3.org/2000/svg" width="24" height="24" fill="none"><path fill="#110529" fill-rule="evenodd" d="m3.53 21.53 18-18-1.06-1.06-3.231 3.23-.092-.11c-1.1-1.297-2.8-2.34-5.147-2.34S7.952 4.293 6.853 5.59C5.987 6.611 5.476 7.81 5.31 8.813c-2.04.366-4.26 2.304-4.26 5.387 0 2.32 1.264 4.05 2.769 4.92l-1.35 1.35zm1.403-3.524C3.75 17.49 2.55 16.171 2.55 14.2c0-2.564 2.042-3.95 3.45-3.95h.75V9.5c0-.7.372-1.908 1.247-2.94.85-1.003 2.15-1.81 4.003-1.81s3.152.807 4.003 1.81q.087.103.168.208z" clip-rule="evenodd"/><path fill="#110529" d="M18 18.25H9.306l-1.5 1.5H18c2.214 0 4.95-2.136 4.95-5.55 0-3.06-2.188-4.993-4.216-5.379l-1.428 1.429H18c1.408 0 3.45 1.386 3.45 3.95 0 2.586-2.064 4.05-3.45 4.05"/></svg>