<svg xmlns="http://www.w3.org/2000/svg" width="24" height="24" fill="none"><path fill="#110529" fill-rule="evenodd" d="M7.308 7a7.5 7.5 0 0 1-.72-1.75h9.256a7.3 7.3 0 0 0 .335-1.5H6.311q-.061-.587-.062-1.25h-1.5c0 2.96.868 5.022 2.21 6.598 1.027 1.207 2.315 2.105 3.597 2.902q.508.314 1.008.613l.097.059a44 44 0 0 1 1.979 1.245c.702.481 1.351.992 1.918 1.583H13V17h3.692c.295.516.54 1.093.72 1.75H13v1.5h4.688q.061.587.062 1.25h1.5c0-2.96-.869-5.022-2.21-6.598q-.411-.48-.87-.902-.333-.306-.684-.585a16 16 0 0 0-.907-.673q-.314-.217-.632-.423l-.023-.015-.431-.273-.05-.031q-.508-.314-1.007-.613l-.05-.03-.386-.233a39 39 0 0 1-1.662-1.055l-.022-.016-.174-.12A11.6 11.6 0 0 1 8.441 8.5h4.838c.565-.419 1.056-.852 1.476-1.346q.064-.075.127-.154zm6.115 3.23c.933-.622 1.778-1.285 2.475-2.104C16.994 6.838 17.75 5.128 17.75 2.5h1.5c0 2.96-.869 5.022-2.21 6.598-.659.774-1.424 1.42-2.226 1.995-.478-.311-.948-.596-1.391-.863" clip-rule="evenodd"/><path fill="#110529" fill-rule="evenodd" d="M7.5 13v3.5H11V18H7.5v3.5H6V18H2.5v-1.5H6V13z" clip-rule="evenodd"/></svg>