<svg xmlns="http://www.w3.org/2000/svg" width="24" height="24" fill="none"><path fill="#110529" fill-rule="evenodd" d="M12.25 8.5v-4H7A1.5 1.5 0 0 0 5.5 6v12A1.5 1.5 0 0 0 7 19.5h10a1.5 1.5 0 0 0 1.5-1.5v-7.25h-4a2.25 2.25 0 0 1-2.25-2.25m7.63.75c.079.24.12.493.12.75v8a3 3 0 0 1-3 3H7a3 3 0 0 1-3-3V6a3 3 0 0 1 3-3h6a2.41 2.41 0 0 1 1.707.707l4.586 4.586c.27.27.47.6.588.957m-6.13-4.379 4.379 4.379H14.5a.75.75 0 0 1-.75-.75z" clip-rule="evenodd"/><path fill="#110529" d="M13 16.25H7v1.5h6zM7 13h3v1.5H7z"/></svg>