<svg xmlns="http://www.w3.org/2000/svg" width="24" height="24" fill="none"><path fill="#110529" fill-rule="evenodd" d="M12.25 8.5v-4H7A1.5 1.5 0 0 0 5.5 6v5.5H4V6a3 3 0 0 1 3-3h6a2.41 2.41 0 0 1 1.707.707l4.586 4.586A2.42 2.42 0 0 1 20 10v8a3 3 0 0 1-3 3h-3.5v-1.5H17a1.5 1.5 0 0 0 1.5-1.5v-7.25h-4a2.25 2.25 0 0 1-2.25-2.25m1.5-3.629 4.379 4.379H14.5a.75.75 0 0 1-.75-.75zM9 16v-3.5H7.5V16H4v1.5h3.5V21H9v-3.5h3.5V16z" clip-rule="evenodd"/><path fill="#110529" fill-rule="evenodd" d="M9 12.5V16h3.5v1.5H9V21H7.5v-3.5H4V16h3.5v-3.5z" clip-rule="evenodd"/></svg>