<svg xmlns="http://www.w3.org/2000/svg" width="24" height="24" fill="none"><path fill="#110529" fill-rule="evenodd" d="M2.5 6.25A2.75 2.75 0 0 1 5.25 3.5h5.146a1.5 1.5 0 0 1 .67.158L13.75 5h5a2.75 2.75 0 0 1 2.75 2.75v10a2.75 2.75 0 0 1-2.75 2.75H15.5V19h3.25c.69 0 1.25-.56 1.25-1.25v-10c0-.69-.56-1.25-1.25-1.25h-5.046a1.5 1.5 0 0 1-.67-.158L10.35 5h-5.1C4.56 5 4 5.56 4 6.25v11.5c0 .69.56 1.25 1.25 1.25h6v-6.19l-2.22 2.22-1.06-1.06L12 9.94l4.03 4.03-1.06 1.06-2.22-2.22v6.44c0 .69-.56 1.25-1.25 1.25H5.25a2.75 2.75 0 0 1-2.75-2.75z" clip-rule="evenodd"/></svg>