<svg xmlns="http://www.w3.org/2000/svg" width="24" height="24" fill="none"><path fill="#07AD3E" d="M18 3a1 1 0 1 1-2 0 1 1 0 0 1 2 0M17 15a1 1 0 1 1-2 0 1 1 0 0 1 2 0M18 17.5a1 1 0 1 0 0-2 1 1 0 0 0 0 2M17 6.5a1 1 0 1 1-2 0 1 1 0 0 1 2 0M18 9.5a1 1 0 1 0 0-2 1 1 0 0 0 0 2M21 15a1 1 0 1 1-2 0 1 1 0 0 1 2 0M15 13.5a1 1 0 1 0 0-2 1 1 0 0 0 0 2M15 16.5a1 1 0 1 1-2 0 1 1 0 0 1 2 0M16 19a1 1 0 1 0 0-2 1 1 0 0 0 0 2M18 11a1 1 0 1 1-2 0 1 1 0 0 1 2 0M18 14.5a1 1 0 1 0 0-2 1 1 0 0 0 0 2M18 20.5a1 1 0 1 1-2 0 1 1 0 0 1 2 0"/><path fill="#110529" d="M8 3a1 1 0 1 0-2 0 1 1 0 0 0 2 0M6 4.5a1 1 0 1 1 0 2 1 1 0 0 1 0-2M5 7a1 1 0 1 0-2 0 1 1 0 0 0 2 0M8 6a1 1 0 1 1 0 2 1 1 0 0 1 0-2M7 8.5a1 1 0 1 0-2 0 1 1 0 0 0 2 0M8 20.5a1 1 0 1 0-2 0 1 1 0 0 0 2 0M7 17a1 1 0 1 0-2 0 1 1 0 0 0 2 0M8 14a1 1 0 1 1 0 2 1 1 0 0 1 0-2M11 8.5a1 1 0 1 0-2 0 1 1 0 0 0 2 0M5 10a1 1 0 1 1 0 2 1 1 0 0 1 0-2M8 12.5a1 1 0 1 0-2 0 1 1 0 0 0 2 0M8 9a1 1 0 1 1 0 2 1 1 0 0 1 0-2"/></svg>