<svg xmlns="http://www.w3.org/2000/svg" width="24" height="24" fill="none"><path fill="#110529" fill-rule="evenodd" d="M6.662 18.38c-.966.547-2.15.87-3.662.87h-.75v1.5H3c2.08 0 3.691-.538 4.98-1.428a3 3 0 0 1-1.318-.942M15.62 7.037 15.652 7C16.858 5.655 18.47 4.75 21 4.75h.75v-1.5H21c-2.94 0-4.942 1.073-6.42 2.7.432.268.79.642 1.04 1.087M3.75 5.5V4h-1.5v1.5zm0 3V7h-1.5v1.5zm0 1.5v1.5h-1.5V10zm0 4.5V13h-1.5v1.5zm0 1.5v1.5h-1.5V16zm16.5-9.5V8h1.5V6.5zm0 4.5V9.5h1.5V11zm0 1.5V14h1.5v-1.5zm0 4.5v-1.5h1.5V17zm0 3v-1.5h1.5V20z" clip-rule="evenodd"/><path fill="#07AD3E" d="M13 3a1 1 0 1 1-2 0 1 1 0 0 1 2 0M12 15a1 1 0 1 1-2 0 1 1 0 0 1 2 0M13 17.5a1 1 0 1 0 0-2 1 1 0 0 0 0 2M12 6.5a1 1 0 1 1-2 0 1 1 0 0 1 2 0M13 9.5a1 1 0 1 0 0-2 1 1 0 0 0 0 2M16 15a1 1 0 1 1-2 0 1 1 0 0 1 2 0M10 13.5a1 1 0 1 0 0-2 1 1 0 0 0 0 2M10 16.5a1 1 0 1 1-2 0 1 1 0 0 1 2 0M11 19a1 1 0 1 0 0-2 1 1 0 0 0 0 2M13 11a1 1 0 1 1-2 0 1 1 0 0 1 2 0M13 14.5a1 1 0 1 0 0-2 1 1 0 0 0 0 2M13 20.5a1 1 0 1 1-2 0 1 1 0 0 1 2 0"/></svg>