<svg xmlns="http://www.w3.org/2000/svg" width="24" height="24" fill="none"><path fill="#110529" fill-rule="evenodd" d="M7.872 17.486C6.722 18.56 5.212 19.25 3 19.25h-.75v1.5H3c2.01 0 3.582-.502 4.848-1.34a4.3 4.3 0 0 1 .024-1.924m8.711-11.36C17.673 5.276 19.068 4.75 21 4.75h.75v-1.5H21c-2.256 0-3.96.632-5.298 1.66q.235.416.374.88.266.15.507.335M3.75 5.5V4h-1.5v1.5zm0 3V7h-1.5v1.5zm0 1.5v1.5h-1.5V10zm0 4.5V13h-1.5v1.5zm0 1.5v1.5h-1.5V16zm16.5-9.5V8h1.5V6.5zm0 4.5V9.5h1.5V11zm0 1.5V14h1.5v-1.5zm0 4.5v-1.5h1.5V17zm0 3v-1.5h1.5V20z" clip-rule="evenodd"/><path fill="#07AD3E" fill-rule="evenodd" d="M9.75 7a2.25 2.25 0 1 1 4.485.262 2.25 2.25 0 0 1 0 4.476q.015.129.015.262a2.25 2.25 0 1 1-4.485-.262 2.25 2.25 0 0 1 0-4.476A2 2 0 0 1 9.75 7M12 6.25a.75.75 0 1 0 0 1.5.75.75 0 0 0 0-1.5M9.25 9.5a.75.75 0 1 1 1.5 0 .75.75 0 0 1-1.5 0M14 8.75a.75.75 0 1 0 0 1.5.75.75 0 0 0 0-1.5M9.75 18.5a2.25 2.25 0 1 1 4.5 0 2.25 2.25 0 0 1-4.5 0m2.25-.75a.75.75 0 1 0 0 1.5.75.75 0 0 0 0-1.5M11.25 12a.75.75 0 1 1 1.5 0 .75.75 0 0 1-1.5 0" clip-rule="evenodd"/></svg>