<svg xmlns="http://www.w3.org/2000/svg" width="24" height="24" fill="none"><path fill="#110529" d="M12.016 9.963c.59 0 1.147.25 1.577.691l.176.201v.001l3.048 3.867c.413.52.756 1.112.693 1.792-.063.677-.504 1.207-1.022 1.666l-1.402 1.255.314 1.388.002.007c.14.646-.03 1.274-.454 1.733-.415.45-1.023.686-1.678.686h-.003l-2.52-.01v-.002c-1.255-.002-2.443-1.062-2.129-2.427l.319-1.398-1.395-1.242v-.001c-.54-.449-.983-.978-1.037-1.663-.054-.681.298-1.278.708-1.793l3.049-3.859c.447-.566 1.08-.892 1.754-.892M10.08 21.146v.002c-.028.12.002.249.113.368a.75.75 0 0 0 .555.223h.003l2.518.01c.303 0 .486-.105.576-.201.08-.088.129-.213.091-.393l-.277-1.226h-3.303zm2.679-7.496a.75.75 0 0 1-1.5 0v-1.638l-2.871 3.633-.001.001c-.36.454-.394.66-.387.744.005.061.046.218.362.507l.154.134.022.019 1.55 1.38h3.874l1.527-1.369.003-.002c.451-.4.516-.6.524-.681.007-.078-.017-.272-.373-.722l-.002-.002-2.882-3.657zM10.62 1.38a1.95 1.95 0 0 1 2.76 0l.78.78c.72.72.759 1.851.118 2.617l4.41 4.41c.233-.101.491-.157.762-.157.07 0 .136.013.2.03h.9c1.074 0 1.95.876 1.95 1.95v1.09c0 1.074-.876 1.95-1.95 1.95h-1.1a1.963 1.963 0 0 1-1.95-1.96v-1.1c0-.256.05-.502.142-.728l-4.427-4.427a1.95 1.95 0 0 1-2.397.025l-.037-.022-4.424 4.424c.092.226.143.472.143.728v1.1c0 1.066-.868 1.96-1.95 1.96h-1.1A1.954 1.954 0 0 1 1.5 12.1v-1.09c0-1.074.876-1.95 1.95-1.95h.9a.8.8 0 0 1 .2-.03c.27 0 .528.056.762.156l4.4-4.4a1.95 1.95 0 0 1 .125-2.613l.78-.79zm-6.07 9.18h-1.1a.454.454 0 0 0-.45.45v1.09c0 .246.205.45.45.45h1.1c.237 0 .45-.207.45-.46v-1.1a.465.465 0 0 0-.331-.44 1 1 0 0 1-.12.01m14.78-.01a.465.465 0 0 0-.33.44v1.1c0 .253.213.46.45.46h1.1c.245 0 .45-.204.45-.45v-1.09a.454.454 0 0 0-.45-.45h-1.1a1 1 0 0 1-.12-.01m-7.01-8.11a.45.45 0 0 0-.64 0l-.777.787-.003.003a.45.45 0 0 0-.057.569l.057.07.003.004.648.656q.07.043.13.1a.45.45 0 0 0 .638 0l.78-.78a.44.44 0 0 0 0-.628z"/></svg>