<svg xmlns="http://www.w3.org/2000/svg" width="24" height="24" fill="none"><path fill="#110529" fill-rule="evenodd" d="M11.787 10.55 8 5.5H6.25l5.08 6.774.928 1.237L16 18.5h1.75l-5.035-6.713zm1.077-1.065L8.87 4.16A.4.4 0 0 0 8.55 4h-3.7a.8.8 0 0 0-.64 1.28l5.746 7.662-5.663 6.733a.2.2 0 0 0 .153.329h1.343a.4.4 0 0 0 .306-.143l4.785-5.688.178.238 4.072 5.429a.4.4 0 0 0 .32.16h3.7a.8.8 0 0 0 .64-1.28l-5.875-7.833-.127-.17L19.16 4.33A.2.2 0 0 0 19.007 4h-1.343a.4.4 0 0 0-.306.142z" clip-rule="evenodd"/></svg>