<svg xmlns="http://www.w3.org/2000/svg" width="24" height="24" fill="none"><path fill="#110529" d="M12 16a4 4 0 0 0 3.249-6.334l-1.084 1.083a2.5 2.5 0 1 1-1.636-1.193l1.176-1.175A4 4 0 1 0 12 16"/><path fill="#110529" fill-rule="evenodd" d="M1.228 11.556C3.295 7.64 7.183 3.002 12 3s8.705 4.64 10.772 8.556a.95.95 0 0 1 0 .889C20.705 16.36 16.817 21.002 12 21c-4.816-.002-8.705-4.64-10.772-8.555a.95.95 0 0 1 0-.889M2.692 12c.966 1.774 2.304 3.643 3.894 5.075 1.672 1.505 3.506 2.424 5.415 2.425 1.907.001 3.74-.918 5.413-2.423 1.59-1.432 2.927-3.303 3.894-5.077-.966-1.773-2.304-3.644-3.895-5.076-1.671-1.505-3.505-2.425-5.412-2.424-1.909.001-3.743.92-5.415 2.425C4.996 8.357 3.658 10.227 2.692 12" clip-rule="evenodd"/></svg>