<svg xmlns="http://www.w3.org/2000/svg" width="24" height="24" fill="none"><path fill="#110529" fill-rule="evenodd" d="M18.358 4.679a.2.2 0 0 1 0-.358l.582-.291a.2.2 0 0 0 .09-.09l.291-.582a.2.2 0 0 1 .358 0l.291.582a.2.2 0 0 0 .09.09l.582.291a.2.2 0 0 1 0 .358l-.582.291a.2.2 0 0 0-.09.09l-.291.582a.2.2 0 0 1-.358 0l-.291-.582a.2.2 0 0 0-.09-.09zm-2.626.901.728 1.82a.25.25 0 0 0 .14.14l1.82.728a.25.25 0 0 1 0 .464l-1.82.728a.25.25 0 0 0-.14.14l-.728 1.82a.25.25 0 0 1-.464 0L14.54 9.6a.25.25 0 0 0-.14-.14l-1.82-.728a.25.25 0 0 1 0-.464l1.82-.728a.25.25 0 0 0 .14-.14l.728-1.82a.25.25 0 0 1 .464 0M16 16.5c.763 0 1.503-.1 2.208-.29A7.5 7.5 0 1 1 7.79 5.792 8.5 8.5 0 0 0 16 16.5m4.485-1.49c.236-.666-.607-1.139-1.233-.81A7 7 0 0 1 9.8 4.748c.329-.626-.144-1.469-.81-1.232A9 9 0 0 0 12 21c3.915 0 7.246-2.5 8.485-5.99" clip-rule="evenodd"/></svg>