<svg xmlns="http://www.w3.org/2000/svg" width="24" height="24" fill="none"><path fill="#110529" d="M13 12.5a.5.5 0 1 0 0-1 .5.5 0 0 0 0 1"/><path fill="#110529" fill-rule="evenodd" d="M12 19.5a5.5 5.5 0 0 1-5.461-6.154C7.109 13.199 8.054 13 9 13c1.5 0 3 .5 3 .5s.9.3 2.002.435a1 1 0 0 1 1.996 0 12 12 0 0 0 1.49-.288q.012.176.012.353a5.5 5.5 0 0 1-5.5 5.5M9 16a1 1 0 1 0 0-2 1 1 0 0 0 0 2m2 1.5a.5.5 0 1 0 0-1 .5.5 0 0 0 0 1" clip-rule="evenodd"/><path fill="#110529" fill-rule="evenodd" d="M8 1.25c-.69 0-1.25.56-1.25 1.25V6c0 .302.107.578.285.794a8.75 8.75 0 1 0 9.93 0c.178-.216.285-.492.285-.794V2.5c0-.69-.56-1.25-1.25-1.25zm.25 4.5v-3h7.5v3H14.5V7.2l.672.278a7.25 7.25 0 1 1-6.343 0L9.5 7.2V5.75H8.25M13.5 12a.5.5 0 1 1-1 0 .5.5 0 0 1 1 0m-7 2a5.5 5.5 0 1 0 10.989-.353c-.367.096-.9.216-1.491.288a1 1 0 0 0-1.996 0C12.9 13.8 12 13.5 12 13.5s-1.5-.5-3-.5c-.946 0-1.892.199-2.461.346A6 6 0 0 0 6.5 14m3.5 1a1 1 0 1 1-2 0 1 1 0 0 1 2 0m1 2.5a.5.5 0 1 0 0-1 .5.5 0 0 0 0 1" clip-rule="evenodd"/></svg>