<svg width="16" height="16" viewBox="0 0 16 16" fill="none" xmlns="http://www.w3.org/2000/svg">
<g clip-path="url(#clip0_5416_56117)">
<path fill-rule="evenodd" clip-rule="evenodd" d="M7.68628 9.58876L8.86999 8.40505C9.87885 7.3962 9.87885 5.76052 8.86999 4.75166C7.86114 3.74281 6.22546 3.74281 5.21661 4.75166L2.38819 7.58009C1.37933 8.58894 1.37933 10.2246 2.38818 11.2335C2.94545 11.7907 3.69398 12.0402 4.42248 11.9818L5.6655 13.2248C4.20913 13.7772 2.50035 13.467 1.32752 12.2941C-0.26712 10.6995 -0.267115 8.11407 1.32753 6.51943L4.15595 3.691C5.75059 2.09636 8.33601 2.09636 9.93066 3.691C11.5253 5.28565 11.5253 7.87107 9.93065 9.46571L8.74694 10.6494L7.68628 9.58876Z" fill="#110529"/>
<path fill-rule="evenodd" clip-rule="evenodd" d="M11.8164 12.2941C10.2218 13.8888 7.63634 13.8888 6.04169 12.2941C4.44705 10.6995 4.44706 8.11407 6.0417 6.51943L7.21476 5.34636L8.27542 6.40702L7.10236 7.58009C6.0935 8.58894 6.0935 10.2246 7.10235 11.2335C8.11121 12.2423 9.74689 12.2423 10.7557 11.2335L13.5842 8.40505C14.593 7.3962 14.593 5.76052 13.5842 4.75166C13.0219 4.18938 12.2649 3.94049 11.5302 4.00498L10.2914 2.76618C11.7511 2.20576 13.4679 2.51403 14.6448 3.691C16.2395 5.28564 16.2395 7.87107 14.6448 9.46571L11.8164 12.2941Z" fill="#110529"/>
</g>
<defs>
<clipPath id="clip0_5416_56117">
<rect width="16" height="16" fill="white"/>
</clipPath>
</defs>
</svg>
