<svg xmlns="http://www.w3.org/2000/svg" width="24" height="24" fill="none"><path fill="#110529" fill-rule="evenodd" d="M8.33 11.72C6.424 14.02 4.75 16.847 4.75 22h-1.5c0-5.56 1.835-8.716 3.926-11.237a17.6 17.6 0 0 1 2.874-2.764c.394-.299.724-.52.96-.668a9 9 0 0 1 .356-.214l.022-.012.007-.004.003-.002.356.66.354.661-.012.007-.056.032q-.077.044-.23.14a12 12 0 0 0-.853.595 16 16 0 0 0-2.626 2.527" clip-rule="evenodd"/><path fill="#110529" fill-rule="evenodd" d="M18.234 2.014A1.245 1.245 0 0 1 19.5 3.271c-.034 2.367-.296 4.047-.559 5.15-.131.552-.262.958-.364 1.234a6 6 0 0 1-.167.406l-.013.027-.005.009-.002.004v.001s-.001.002-.668-.342l.667.344a.75.75 0 0 1-.667.406H15.71l.746 1.986a.75.75 0 0 1-.18.802c-2.17 2.104-5.152 3.677-8.403 4.202l-.24-1.48a14.4 14.4 0 0 0 7.242-3.466l-.95-2.53a.75.75 0 0 1 .702-1.014h2.588a10 10 0 0 0 .267-.936c.226-.949.466-2.433.513-4.555-5.456.144-8.511 1.84-10.234 4.058-1.776 2.289-2.257 5.285-2.257 8.183v.75h-1.5v-.75c0-3.017.49-6.421 2.573-9.103 2.108-2.716 5.73-4.543 11.657-4.643" clip-rule="evenodd"/><path fill="#07AD3E" fill-rule="evenodd" d="M16 22H7v-1.5h9zm2-1.5h3V22h-3z" clip-rule="evenodd"/></svg>