<svg xmlns="http://www.w3.org/2000/svg" width="24" height="24" fill="none"><path fill="#110529" d="M12 3.25c-2.347 0-4.048 1.043-5.147 2.34-.866 1.021-1.377 2.22-1.543 3.223-2.04.366-4.26 2.304-4.26 5.387 0 3.414 2.736 5.55 4.95 5.55h3v-1.5H6c-1.386 0-3.45-1.464-3.45-4.05 0-2.564 2.042-3.95 3.45-3.95h.75V9.5c0-.7.372-1.908 1.247-2.94.85-1.003 2.15-1.81 4.003-1.81s3.152.807 4.003 1.81c.875 1.032 1.247 2.24 1.247 2.94h1.5c0-1.1-.528-2.642-1.603-3.91-1.1-1.297-2.8-2.34-5.147-2.34"/><path fill="#110529" d="m22.543 13.017-1.086-1.034-6.124 6.43-2.79-2.93-1.086 1.034 3.876 4.07z"/></svg>