<svg xmlns="http://www.w3.org/2000/svg" width="24" height="24" fill="none"><path fill="#110529" fill-rule="evenodd" d="M16.5 9.25q.525 0 1.025-.096a3.25 3.25 0 0 0 2.975 2.837V12a8.5 8.5 0 1 1-9.497-8.442L11 3.75a5.5 5.5 0 0 0 5.5 5.5m2.507-.657c.028-.311-.041-.64-.262-.862a.9.9 0 0 0-.93-.202 4 4 0 0 1-5.22-4.655c.095-.419-.166-.874-.595-.874C6.477 2 2 6.477 2 12s4.477 10 10 10 10-4.477 10-10q0-.603-.07-1.187c-.04-.338-.413-.513-.735-.404-.155.052-.314.091-.445.091a1.75 1.75 0 0 1-1.743-1.907M13 18v-1h-1v1zm8-14h1v1h-1zm-11 7v1h1v-1zm8 3.5a1.5 1.5 0 1 1-3 0 1.5 1.5 0 0 1 3 0M16.5 5a1.5 1.5 0 1 0 0-3 1.5 1.5 0 0 0 0 3m-6 3a1.5 1.5 0 1 1-3 0 1.5 1.5 0 0 1 3 0M8 17a1.5 1.5 0 1 0 0-3 1.5 1.5 0 0 0 0 3" clip-rule="evenodd"/></svg>