<svg xmlns="http://www.w3.org/2000/svg" width="24" height="24" fill="none"><path fill="#110529" fill-rule="evenodd" d="M16 8h2.25v1.5h-2.5c-.69 0-1.25-.56-1.25-1.25v-3c0-.69.56-1.25 1.25-1.25h2.5v1.5H16z" clip-rule="evenodd"/><path fill="#110529" fill-rule="evenodd" d="M12 7.5h3.25V6h-3.5c-.69 0-1.25.56-1.25 1.25v4c0 .69.56 1.25 1.25 1.25h6.5V11H12z" clip-rule="evenodd"/><path fill="#110529" fill-rule="evenodd" d="M3.75 18.5c-.69 0-1.25-.56-1.25-1.25v-7.5c0-.69.56-1.25 1.25-1.25h7.5V10H4v7h3.25v1.5zM20 23V1.5h1.5V23z" clip-rule="evenodd"/><path fill="#07AD3E" fill-rule="evenodd" d="M4 17v-3.5H2.5v3.75c0 .69.56 1.25 1.25 1.25h3.5V17z" clip-rule="evenodd"/><path fill="#07AD3E" fill-rule="evenodd" d="M8 16.5h10.25V15H7.75c-.69 0-1.25.56-1.25 1.25v3c0 .69.56 1.25 1.25 1.25h10.5V19H8z" clip-rule="evenodd"/></svg>