<svg xmlns="http://www.w3.org/2000/svg" width="24" height="24" fill="none"><path fill="#110529" d="M16.125 2a2.76 2.76 0 0 1 1.93.786l2.15 2.104c.508.496.795 1.177.795 1.887V19a3 3 0 0 1-2.846 2.996L18 22H6a3 3 0 0 1-2.996-2.846L3 19V5a3 3 0 0 1 3-3zM6 3.5A1.5 1.5 0 0 0 4.5 5v14A1.5 1.5 0 0 0 6 20.5h12a1.5 1.5 0 0 0 1.5-1.5V7.527h-1.875a2.25 2.25 0 0 1-2.25-2.25V3.5zM18 13H6v-1.58h12zm0-3.42H6V8h12zm-1.125-4.303c0 .415.336.75.75.75h1.592q-.03-.033-.06-.065l-2.151-2.103a1 1 0 0 0-.131-.11z" style="fill:#110529;fill:color(display-p3 .0661 .0192 .16);fill-opacity:1"/><path fill="#07AD3E" fill-rule="evenodd" d="M10.322 14.94q.768 0 1.179.583.411.582.411 1.662 0 .737-.183 1.25-.182.51-.54.777-.354.268-.867.268-.51 0-.867-.268-.354-.267-.54-.776-.183-.514-.183-1.251 0-1.08.412-1.662.414-.583 1.178-.583m0 .77q-.356.001-.549.346-.192.345-.192 1.129 0 .799.192 1.163.192.36.55.36.362 0 .551-.36.19-.363.19-1.163 0-.784-.19-1.13-.189-.344-.552-.344" clip-rule="evenodd" style="fill:#07ad3e;fill:color(display-p3 .0272 .68 .2448);fill-opacity:1"/><path fill="#07AD3E" d="M13.803 14.946q.402-.003.699.147.3.148.474.466.176.315.204.815h-.78a1.3 1.3 0 0 0-.088-.33.5.5 0 0 0-.185-.234.6.6 0 0 0-.342-.087.68.68 0 0 0-.492.18 1.03 1.03 0 0 0-.27.507 3.2 3.2 0 0 0-.083.78q0 .462.09.801.092.339.275.522a.64.64 0 0 0 .465.183q.207 0 .366-.057a.7.7 0 0 0 .258-.156v-.747h-.642v-.732h1.401l-.003 1.875a1.8 1.8 0 0 1-1.353.594q-.54 0-.921-.273-.381-.276-.585-.789-.201-.513-.201-1.22 0-.705.201-1.207.204-.501.588-.768t.924-.27M17.053 14.958q.633 0 .996.327.366.328.423.982h-.79a.65.65 0 0 0-.095-.316.53.53 0 0 0-.22-.201.7.7 0 0 0-.326-.07.85.85 0 0 0-.456.112.38.38 0 0 0-.178.342q0 .17.07.29a.7.7 0 0 0 .243.224q.177.1.492.227.267.106.515.207.25.099.445.234a1 1 0 0 1 .314.34q.117.203.117.52a1.16 1.16 0 0 1-.198.691q-.198.285-.546.435-.345.147-.795.147-.467 0-.83-.15a1.2 1.2 0 0 1-.57-.47q-.204-.325-.198-.835h.81q.005.255.102.42a.58.58 0 0 0 .278.237q.18.075.433.076a1 1 0 0 0 .375-.064.5.5 0 0 0 .233-.18.45.45 0 0 0 .081-.261.42.42 0 0 0-.095-.287.8.8 0 0 0-.297-.199 10 10 0 0 0-.51-.204 4 4 0 0 1-.654-.318 1.44 1.44 0 0 1-.456-.44 1.12 1.12 0 0 1-.165-.619q0-.396.189-.663t.519-.4q.33-.134.744-.134M6.587 18.636h1.82v.753h-2.67v-4.362h.85z" style="fill:#07ad3e;fill:color(display-p3 .0272 .68 .2448);fill-opacity:1"/></svg>