<svg xmlns="http://www.w3.org/2000/svg" width="24" height="24" fill="none"><mask id="a" fill="#fff"><path fill-rule="evenodd" d="M4 3a1 1 0 0 0-1 1v3a1 1 0 0 0 1 1h3a1 1 0 0 0 1-1V4a1 1 0 0 0-1-1zm6.5 0a1 1 0 0 0-1 1v3a1 1 0 0 0 1 1h3a1 1 0 0 0 1-1V4a1 1 0 0 0-1-1zm-1 7.5a1 1 0 0 1 1-1h3a1 1 0 0 1 1 1v3a1 1 0 0 1-1 1h-3a1 1 0 0 1-1-1zm7.5-1a1 1 0 0 0-1 1v3a1 1 0 0 0 1 1h3a1 1 0 0 0 1-1v-3a1 1 0 0 0-1-1zM3 17a1 1 0 0 1 1-1h3a1 1 0 0 1 1 1v3a1 1 0 0 1-1 1H4a1 1 0 0 1-1-1zm14-1a1 1 0 0 0-1 1v3a1 1 0 0 0 1 1h3a1 1 0 0 0 1-1v-3a1 1 0 0 0-1-1z" clip-rule="evenodd"/></mask><path fill="#fff" fill-rule="evenodd" d="M4 3a1 1 0 0 0-1 1v3a1 1 0 0 0 1 1h3a1 1 0 0 0 1-1V4a1 1 0 0 0-1-1zm6.5 0a1 1 0 0 0-1 1v3a1 1 0 0 0 1 1h3a1 1 0 0 0 1-1V4a1 1 0 0 0-1-1zm-1 7.5a1 1 0 0 1 1-1h3a1 1 0 0 1 1 1v3a1 1 0 0 1-1 1h-3a1 1 0 0 1-1-1zm7.5-1a1 1 0 0 0-1 1v3a1 1 0 0 0 1 1h3a1 1 0 0 0 1-1v-3a1 1 0 0 0-1-1zM3 17a1 1 0 0 1 1-1h3a1 1 0 0 1 1 1v3a1 1 0 0 1-1 1H4a1 1 0 0 1-1-1zm14-1a1 1 0 0 0-1 1v3a1 1 0 0 0 1 1h3a1 1 0 0 0 1-1v-3a1 1 0 0 0-1-1z" clip-rule="evenodd"/><path fill="#110529" d="M4.5 4a.5.5 0 0 1-.5.5v-3A2.5 2.5 0 0 0 1.5 4zm0 3V4h-3v3zM4 6.5a.5.5 0 0 1 .5.5h-3A2.5 2.5 0 0 0 4 9.5zm3 0H4v3h3zm-.5.5a.5.5 0 0 1 .5-.5v3A2.5 2.5 0 0 0 9.5 7zm0-3v3h3V4zm.5.5a.5.5 0 0 1-.5-.5h3A2.5 2.5 0 0 0 7 1.5zm-3 0h3v-3H4zm7-.5a.5.5 0 0 1-.5.5v-3A2.5 2.5 0 0 0 8 4zm0 3V4H8v3zm-.5-.5a.5.5 0 0 1 .5.5H8a2.5 2.5 0 0 0 2.5 2.5zm3 0h-3v3h3zM13 7a.5.5 0 0 1 .5-.5v3A2.5 2.5 0 0 0 16 7zm0-3v3h3V4zm.5.5A.5.5 0 0 1 13 4h3a2.5 2.5 0 0 0-2.5-2.5zm-3 0h3v-3h-3zm0 3.5A2.5 2.5 0 0 0 8 10.5h3a.5.5 0 0 1-.5.5zm3 0h-3v3h3zm2.5 2.5A2.5 2.5 0 0 0 13.5 8v3a.5.5 0 0 1-.5-.5zm0 3v-3h-3v3zM13.5 16a2.5 2.5 0 0 0 2.5-2.5h-3a.5.5 0 0 1 .5-.5zm-3 0h3v-3h-3zM8 13.5a2.5 2.5 0 0 0 2.5 2.5v-3a.5.5 0 0 1 .5.5zm0-3v3h3v-3zm9.5 0a.5.5 0 0 1-.5.5V8a2.5 2.5 0 0 0-2.5 2.5zm0 3v-3h-3v3zM17 13a.5.5 0 0 1 .5.5h-3A2.5 2.5 0 0 0 17 16zm3 0h-3v3h3zm-.5.5a.5.5 0 0 1 .5-.5v3a2.5 2.5 0 0 0 2.5-2.5zm0-3v3h3v-3zm.5.5a.5.5 0 0 1-.5-.5h3A2.5 2.5 0 0 0 20 8zm-3 0h3V8h-3zM4 14.5A2.5 2.5 0 0 0 1.5 17h3a.5.5 0 0 1-.5.5zm3 0H4v3h3zM9.5 17A2.5 2.5 0 0 0 7 14.5v3a.5.5 0 0 1-.5-.5zm0 3v-3h-3v3zM7 22.5A2.5 2.5 0 0 0 9.5 20h-3a.5.5 0 0 1 .5-.5zm-3 0h3v-3H4zM1.5 20A2.5 2.5 0 0 0 4 22.5v-3a.5.5 0 0 1 .5.5zm0-3v3h3v-3zm16 0a.5.5 0 0 1-.5.5v-3a2.5 2.5 0 0 0-2.5 2.5zm0 3v-3h-3v3zm-.5-.5a.5.5 0 0 1 .5.5h-3a2.5 2.5 0 0 0 2.5 2.5zm3 0h-3v3h3zm-.5.5a.5.5 0 0 1 .5-.5v3a2.5 2.5 0 0 0 2.5-2.5zm0-3v3h3v-3zm.5.5a.5.5 0 0 1-.5-.5h3a2.5 2.5 0 0 0-2.5-2.5zm-3 0h3v-3h-3z" mask="url(#a)"/><mask id="b" fill="#fff"><path fill-rule="evenodd" d="M17.5 4.5v2h2v-2zM17 3a1 1 0 0 0-1 1v3a1 1 0 0 0 1 1h3a1 1 0 0 0 1-1V4a1 1 0 0 0-1-1zM4.5 11v2h2v-2zM4 9.5a1 1 0 0 0-1 1v3a1 1 0 0 0 1 1h3a1 1 0 0 0 1-1v-3a1 1 0 0 0-1-1zm7 10v-2h2v2zM9.5 17a1 1 0 0 1 1-1h3a1 1 0 0 1 1 1v3a1 1 0 0 1-1 1h-3a1 1 0 0 1-1-1z" clip-rule="evenodd"/></mask><path fill="#07AD3E" fill-rule="evenodd" d="M17.5 4.5v2h2v-2zM17 3a1 1 0 0 0-1 1v3a1 1 0 0 0 1 1h3a1 1 0 0 0 1-1V4a1 1 0 0 0-1-1zM4.5 11v2h2v-2zM4 9.5a1 1 0 0 0-1 1v3a1 1 0 0 0 1 1h3a1 1 0 0 0 1-1v-3a1 1 0 0 0-1-1zm7 10v-2h2v2zM9.5 17a1 1 0 0 1 1-1h3a1 1 0 0 1 1 1v3a1 1 0 0 1-1 1h-3a1 1 0 0 1-1-1z" clip-rule="evenodd"/><path fill="#07AD3E" d="M17.5 6.5H16V8h1.5zm0-2V3H16v1.5zm2 2V8H21V6.5zm0-2H21V3h-1.5zM4.5 13H3v1.5h1.5zm0-2V9.5H3V11zm2 2v1.5H8V13zm0-2H8V9.5H6.5zm4.5 6.5V16H9.5v1.5zm0 2H9.5V21H11zm2-2h1.5V16H13zm0 2V21h1.5v-1.5zm6-13v-2h-3v2zm.5-1.5h-2v3h2zM18 4.5v2h3v-2zM17.5 6h2V3h-2zm0-2a.5.5 0 0 1-.5.5v-3A2.5 2.5 0 0 0 14.5 4zm0 3V4h-3v3zm-.5-.5a.5.5 0 0 1 .5.5h-3A2.5 2.5 0 0 0 17 9.5zm3 0h-3v3h3zm-.5.5a.5.5 0 0 1 .5-.5v3A2.5 2.5 0 0 0 22.5 7zm0-3v3h3V4zm.5.5a.5.5 0 0 1-.5-.5h3A2.5 2.5 0 0 0 20 1.5zm-3 0h3v-3h-3zM6 13v-2H3v2zm.5-1.5h-2v3h2zM5 11v2h3v-2zm-.5 1.5h2v-3h-2zm0-2a.5.5 0 0 1-.5.5V8a2.5 2.5 0 0 0-2.5 2.5zm0 3v-3h-3v3zM4 13a.5.5 0 0 1 .5.5h-3A2.5 2.5 0 0 0 4 16zm3 0H4v3h3zm-.5.5A.5.5 0 0 1 7 13v3a2.5 2.5 0 0 0 2.5-2.5zm0-3v3h3v-3zm.5.5a.5.5 0 0 1-.5-.5h3A2.5 2.5 0 0 0 7 8zm-3 0h3V8H4zm5.5 6.5v2h3v-2zM13 16h-2v3h2zm1.5 3.5v-2h-3v2zM11 21h2v-3h-2zm-.5-6.5A2.5 2.5 0 0 0 8 17h3a.5.5 0 0 1-.5.5zm3 0h-3v3h3zM16 17a2.5 2.5 0 0 0-2.5-2.5v3a.5.5 0 0 1-.5-.5zm0 3v-3h-3v3zm-2.5 2.5A2.5 2.5 0 0 0 16 20h-3a.5.5 0 0 1 .5-.5zm-3 0h3v-3h-3zM8 20a2.5 2.5 0 0 0 2.5 2.5v-3a.5.5 0 0 1 .5.5zm0-3v3h3v-3z" mask="url(#b)"/></svg>