<svg xmlns="http://www.w3.org/2000/svg" width="24" height="24" fill="none"><path fill="#110529" fill-rule="evenodd" d="M2.25 20.5h19.5V22H2.25zM3.75 2.5V4h-1.5V2.5zM3.75 5.5V7h-1.5V5.5zM3.75 8.5V10h-1.5V8.5zM3.75 11.5V13h-1.5v-1.5zM3.75 14.5V16h-1.5v-1.5zM3.75 17.5V19h-1.5v-1.5z" clip-rule="evenodd"/><path fill="#07AD3E" fill-rule="evenodd" d="m21.63 5.406-4.394 6.836a1 1 0 0 1-1.158.408l-5.262-1.754-4.185 6.51-1.262-.811 4.395-6.837a1 1 0 0 1 1.158-.408l5.262 1.754 4.185-6.51z" clip-rule="evenodd"/></svg>