<svg xmlns="http://www.w3.org/2000/svg" width="24" height="24" fill="none"><path fill="#110529" d="M4.613 6.982c2.093 0 3.713 1.62 3.713 3.848v3.443c0 2.362-1.583 3.952-3.87 3.952-1.14 0-2.168-.435-2.903-1.283l1.148-1.072c.412.533 1.057.87 1.755.87 1.342 0 2.272-1.08 2.272-2.265v-1.29a3.28 3.28 0 0 1-2.325.967c-2.017 0-3.495-1.53-3.495-3.547 0-2.025 1.688-3.623 3.705-3.623m-2.115 3.623c0 1.17.938 2.115 2.108 2.115s2.122-.945 2.122-2.115A2.12 2.12 0 0 0 4.613 8.49c-1.17 0-2.115.945-2.115 2.115M13.285 18.225c-2.198 0-3.765-1.568-3.765-3.765v-3.72c0-2.198 1.567-3.765 3.765-3.765 2.197 0 3.765 1.567 3.765 3.765v3.72c0 2.197-1.568 3.765-3.765 3.765m-2.168-3.668c0 1.208.96 2.168 2.168 2.168 1.207 0 2.167-.96 2.167-2.168v-3.93c0-1.2-.96-2.16-2.167-2.16-1.208 0-2.168.96-2.168 2.16zM20.344 12.375c-1.485 0-2.7-1.2-2.7-2.7 0-1.47 1.26-2.7 2.7-2.7 1.485 0 2.7 1.2 2.7 2.7s-1.215 2.7-2.7 2.7M19 9.675a1.36 1.36 0 0 0 1.343 1.342 1.36 1.36 0 0 0 1.342-1.342 1.36 1.36 0 0 0-1.342-1.343A1.36 1.36 0 0 0 19 9.675"/></svg>