<svg xmlns="http://www.w3.org/2000/svg" width="24" height="24" fill="none"><path fill="#110529" fill-rule="evenodd" d="M12 8.25a10 10 0 0 0-1.544.118l-.735-2.574-1.442.412.717 2.51A9.7 9.7 0 0 0 5.94 10.38L4.03 8.47 2.97 9.53l1.862 1.863q-.172.18-.331.36a13.3 13.3 0 0 0-2.064 3.156 8 8 0 0 0-.126.293l-.008.02-.002.005v.002l-.001.001.7.27.7.27.003-.01a4 4 0 0 1 .1-.228c.073-.163.188-.4.346-.685.316-.574.801-1.339 1.475-2.1C6.969 11.227 9.03 9.75 12 9.75s5.03 1.476 6.375 2.997a11.8 11.8 0 0 1 1.822 2.785 6 6 0 0 1 .1.228l.003.01.7-.27.7-.27-.002-.003-.002-.006-.007-.019a6 6 0 0 0-.127-.293 13.304 13.304 0 0 0-2.395-3.516L21.03 9.53l-1.06-1.06-1.91 1.91a9.7 9.7 0 0 0-3.056-1.663l.717-2.51-1.442-.413-.736 2.574A10 10 0 0 0 12 8.25M14.5 15a2.5 2.5 0 1 1-5 0 2.5 2.5 0 0 1 5 0m1.5 0a4 4 0 1 1-8 0 4 4 0 0 1 8 0" clip-rule="evenodd"/></svg>