<svg xmlns="http://www.w3.org/2000/svg" width="24" height="24" fill="none"><path fill="#110529" fill-rule="evenodd" d="M10.237 17.879C11.56 16.906 12 16.4 12 15.675c0-.266-.1-.597-.38-1.025-.283-.431-.687-.87-1.164-1.333-.151-.146-.33-.313-.514-.485a25 25 0 0 1-.9-.868 5.2 5.2 0 0 1-.634-.78C8.232 10.908 8 10.46 8 9.9c0-.765.342-1.333.64-1.706.194-.244.469-.515.655-.698l.133-.133c.4-.407.572-.673.572-1.138 0-.543-.203-.807-.944-1.346l-.22-.155c-.235-.163-.532-.37-.836-.63-.304.26-.6.467-.836.63l-.22.155C6.204 5.418 6 5.682 6 6.225c0 .454.161.695.56 1.093q.049.05.12.118c.19.184.478.462.688.73.313.4.632.973.632 1.734 0 .548-.214.995-.396 1.29a5 5 0 0 1-.641.805c-.268.282-.626.614-.958.924-.167.154-.327.303-.467.437-.48.46-.882.89-1.162 1.314-.277.418-.376.741-.376 1.005 0 .726.44 1.231 1.763 2.204l.285.207c.584.423 1.306.945 1.952 1.624.646-.68 1.368-1.201 1.952-1.624zm-1.313 3.04c-.402.453-.73.967-.924 1.581-.195-.614-.522-1.128-.924-1.58-.56-.634-1.265-1.149-1.953-1.65-1.345-.983-2.623-1.916-2.623-3.595 0-1.552 1.398-2.85 2.542-3.91.79-.733 1.458-1.352 1.458-1.865 0-.547-.38-.916-.809-1.333C5.136 8.028 4.5 7.41 4.5 6.225c0-1.446.91-2.096 1.812-2.739.238-.17.476-.339.696-.523.458-.382.84-.826.992-1.463.152.637.534 1.081.992 1.463.22.184.458.353.696.523.901.643 1.812 1.293 1.812 2.739 0 1.203-.656 1.851-1.217 2.404-.418.413-.783.773-.783 1.271 0 .467.64 1.064 1.408 1.78 1.152 1.076 2.592 2.42 2.592 3.995 0 1.679-1.278 2.612-2.623 3.594-.687.502-1.392 1.017-1.953 1.65" clip-rule="evenodd"/><path fill="#07AD3E" fill-rule="evenodd" d="M16 3a1 1 0 1 1 2 0 1 1 0 0 1-2 0m2 1.5a1 1 0 1 0 0 2 1 1 0 0 0 0-2M16 6a1 1 0 1 0 0 2 1 1 0 0 0 0-2m1 2.5a1 1 0 1 1 2 0 1 1 0 0 1-2 0m-1 12a1 1 0 1 1 2 0 1 1 0 0 1-2 0m1-3.5a1 1 0 1 1 2 0 1 1 0 0 1-2 0m-1-3a1 1 0 1 0 0 2 1 1 0 0 0 0-2m-3-5.5a1 1 0 1 1 2 0 1 1 0 0 1-2 0m6 1.5a1 1 0 1 0 0 2 1 1 0 0 0 0-2m0-3a1 1 0 1 1 2 0 1 1 0 0 1-2 0m-3 5.5a1 1 0 1 1 2 0 1 1 0 0 1-2 0M16 9a1 1 0 1 0 0 2 1 1 0 0 0 0-2" clip-rule="evenodd"/></svg>