<svg xmlns="http://www.w3.org/2000/svg" width="16" height="16" fill="none"><path fill="#07AD3E" d="M.037 13h1.52l.734-2.275h4.137L7.178 13h1.518L5.42 2.92H3.313zM2.74 9.353l1.61-4.97 1.631 4.97zM11.387 13.21c1.225 0 2.1-.42 2.723-1.309V13h1.295V8.345c0-.63-.028-1.176-.266-1.673-.469-.994-1.519-1.442-2.87-1.442-1.75 0-2.8.826-3.164 2.121l1.365.42c.26-.84.987-1.19 1.785-1.19 1.183 0 1.66.49 1.708 1.533-1.225.168-2.47.329-3.346.588-1.169.371-1.785 1.099-1.785 2.24 0 1.232.882 2.268 2.555 2.268m-1.106-2.282c0-.595.441-.917 1.043-1.12.637-.189 1.484-.308 2.625-.476-.007.35-.035.833-.154 1.183-.168.735-.903 1.498-2.149 1.498-.938 0-1.365-.497-1.365-1.085"/></svg>