<svg xmlns="http://www.w3.org/2000/svg" width="24" height="24" fill="none"><path fill="#07AD3E" d="M2.375 15.125 12 21.25l9.625-6.125.05.031a1 1 0 0 1 0 1.688l-9.138 5.814a1 1 0 0 1-1.074 0l-9.137-5.814a1 1 0 0 1 0-1.688z"/><path fill="#110529" d="M11.25 12V7.75H7v-1.5h4.25V2h1.5v4.25H17v1.5h-4.25V12z"/><path fill="#110529" d="M2.326 12.844a1 1 0 0 1 0-1.688l1.746-1.11 1.387.866L3.75 12 12 17.25 20.25 12l-1.709-1.088 1.388-.867 1.746 1.111a1 1 0 0 1 0 1.688l-9.137 5.814a1 1 0 0 1-1.074 0z"/></svg>