<svg xmlns="http://www.w3.org/2000/svg" width="24" height="24" fill="none"><path fill="#110529" fill-rule="evenodd" d="M9.5 2h5A1.5 1.5 0 0 1 16 3.5v2A1.5 1.5 0 0 1 14.5 7h-5A1.5 1.5 0 0 1 8 5.5v-2A1.5 1.5 0 0 1 9.5 2m0 1.5h5v2h-5z" clip-rule="evenodd"/><path fill="#110529" d="M5.813 3.5H6V5h-.187C5.088 5 4.5 5.588 4.5 6.313V18.5A1.5 1.5 0 0 0 6 20h12a1.5 1.5 0 0 0 1.5-1.5v-12A1.5 1.5 0 0 0 18 5V3.5a3 3 0 0 1 3 3v12a3 3 0 0 1-3 3H6a3 3 0 0 1-3-3V6.313A2.813 2.813 0 0 1 5.813 3.5"/><path fill="#110529" d="M16 12.25H8v-1.5h8zM8 16.25h8v-1.5H8z"/></svg>