<svg xmlns="http://www.w3.org/2000/svg" width="24" height="24" fill="none"><path fill="#fff" d="M0 0h24v24H0z"/><path fill="#110529" fill-rule="evenodd" d="M12 3.732 4.84 7.866v8.268L12 20.268l7.16-4.134V7.866zm.5-1.443a1 1 0 0 0-1 0L3.84 6.71a1 1 0 0 0-.5.866v8.846a1 1 0 0 0 .5.866l7.66 4.422a1 1 0 0 0 1 0l7.66-4.422a1 1 0 0 0 .5-.866V7.577a1 1 0 0 0-.5-.866z" clip-rule="evenodd"/><path fill="#110529" fill-rule="evenodd" d="m12 11.14 7.632-4.294.736 1.308-7.618 4.285V21h-1.5v-8.561L3.632 8.154l.736-1.308z" clip-rule="evenodd"/></svg>