<svg xmlns="http://www.w3.org/2000/svg" width="24" height="24" fill="none"><path fill="#110529" d="m11.222 15.221 2.348-2.348a4.25 4.25 0 1 0-6.01-6.01l-4.243 4.242a4.25 4.25 0 0 0 3.94 7.152l1.196 1.196a5.751 5.751 0 0 1-6.197-9.409L6.5 5.802a5.75 5.75 0 0 1 8.132 8.131l-2.349 2.35z"/><path fill="#07AD3E" d="M17.46 18.176a5.75 5.75 0 1 1-8.132-8.132l2.358-2.358 1.06 1.06-2.358 2.359a4.25 4.25 0 1 0 6.01 6.01l4.243-4.242a4.25 4.25 0 0 0-3.923-7.155L15.52 4.52a5.751 5.751 0 0 1 6.182 9.413z"/></svg>