<svg xmlns="http://www.w3.org/2000/svg" width="24" height="24" fill="none"><path fill="#110529" d="M12 3.75a8.25 8.25 0 1 1-8.05 10.067l1.398 1.015.882-1.213L2.79 11.12.293 14.559l1.214.882.97-1.337C3.44 18.479 7.338 21.75 12 21.75c5.385 0 9.75-4.365 9.75-9.75S17.385 2.25 12 2.25"/><path fill="#110529" d="M12 3.75a8 8 0 0 0-.649.025l-.116-1.495q.38-.03.765-.03M8.842 4.376a8 8 0 0 1 1.23-.4l-.348-1.459a10 10 0 0 0-1.456.473zM6.642 5.726a8 8 0 0 1 1.047-.762l-.784-1.278q-.656.404-1.237.9zM4.964 7.69q.341-.555.762-1.048l-1.14-.974a10 10 0 0 0-.9 1.236zM3.976 10.073a8 8 0 0 1 .4-1.23L2.99 8.267a10 10 0 0 0-.473 1.456z"/><path fill="#110529" fill-rule="evenodd" d="M8.75 8c0-.69.56-1.25 1.25-1.25h4c.69 0 1.25.56 1.25 1.25v1.039a2.75 2.75 0 0 1-1.032 2.147L13.2 12l1.017.814a2.75 2.75 0 0 1 1.032 2.147V16c0 .69-.56 1.25-1.25 1.25h-4c-.69 0-1.25-.56-1.25-1.25v-1.039c0-.835.38-1.625 1.032-2.147L10.8 12l-1.017-.814A2.75 2.75 0 0 1 8.75 9.04zM12 11.04l1.28-1.025a1.25 1.25 0 0 0 .47-.976V8.25h-3.5v.789c0 .38.173.739.47.976zm0 1.92-1.28 1.025a1.25 1.25 0 0 0-.47.976v.789h3.5v-.789c0-.38-.173-.739-.47-.976z" clip-rule="evenodd"/></svg>