<svg xmlns="http://www.w3.org/2000/svg" width="24" height="24" fill="none"><path fill="#110529" fill-rule="evenodd" d="M10.648 4.239c.52.325.99.744 1.352 1.264.363-.52.833-.94 1.352-1.264C14.5 3.522 15.897 3.25 17 3.25c1.55 0 3.084.284 3.776.43.582.124.974.636.974 1.209v10.855a.954.954 0 0 1-1.16.93c-.58-.127-2.094-.424-3.59-.424-.957 0-2.106.122-2.987.452-.902.339-1.263.777-1.263 1.298h-1.5c0-.52-.36-.96-1.263-1.298-.881-.33-2.03-.452-2.987-.452-1.496 0-3.01.297-3.59.425-.566.125-1.16-.288-1.16-.927V4.886c0-.577.397-1.083.974-1.205C3.916 3.534 5.45 3.25 7 3.25c1.103 0 2.5.272 3.648.989M3.75 15.076V5.104C4.469 4.96 5.742 4.75 7 4.75c.897 0 2 .228 2.852.761.82.512 1.398 1.29 1.398 2.489v7.641a5 5 0 0 0-.737-.343c-1.119-.42-2.47-.548-3.513-.548-1.231 0-2.452.179-3.25.326m9.737.222a5 5 0 0 0-.737.343V8c0-1.199.578-1.977 1.398-2.489C15 4.978 16.103 4.75 17 4.75c1.258 0 2.531.21 3.25.354v9.972c-.798-.147-2.019-.326-3.25-.326-1.043 0-2.394.128-3.513.548" clip-rule="evenodd"/><path fill="#110529" d="M7 18.75c-1.057 0-2.101.131-2.873.26a21 21 0 0 0-1.208.238l-.072.017-.02.005-.006.002h-.003l-.728.182.364 1.456.728-.182.003-.001.014-.004a10 10 0 0 1 .302-.068c.21-.045.51-.105.872-.165A16.5 16.5 0 0 1 7 20.25c.957 0 2.106.122 2.987.452.902.339 1.263.777 1.263 1.298h1.5c0-.52.36-.96 1.263-1.298.881-.33 2.03-.452 2.987-.452.943 0 1.899.119 2.627.24a20 20 0 0 1 1.174.233l.014.004h.003l.728.183.364-1.456-.728-.182h-.003l-.006-.002-.02-.005a10 10 0 0 0-.34-.076 21 21 0 0 0-.94-.179A18 18 0 0 0 17 18.75c-1.043 0-2.394.128-3.513.548-.53.199-1.07.49-1.487.907-.417-.416-.957-.708-1.487-.907-1.119-.42-2.47-.548-3.513-.548"/></svg>