<svg xmlns="http://www.w3.org/2000/svg" width="262" height="182" fill="none"><rect width="260" height="180" x="1" y="1" stroke="#845CFF" stroke-dasharray="10 5" rx="5"/><circle cx="37" cy="37" r="9" stroke="#110529" stroke-width="1.5"/><circle cx="167" cy="37" r="9" stroke="#DFE0E6" stroke-width="1.5"/><path fill="#9BABCC" fill-opacity=".16" d="M17 85c0-11.046 8.954-20 20-20s20 8.954 20 20-8.954 20-20 20-20-8.954-20-20"/><circle cx="37" cy="85" r="9" stroke="#110529" stroke-width="1.5"/><path fill="#38383D" d="M147 85c0-11.046 8.954-20 20-20s20 8.954 20 20-8.954 20-20 20-20-8.954-20-20"/><circle cx="167" cy="85" r="9" stroke="#fff" stroke-width="1.5"/><rect width="26" height="26" x="24" y="120" stroke="#49CC49" stroke-width="2" rx="13"/><circle cx="37" cy="133" r="9" stroke="#110529" stroke-width="1.5"/><rect width="26" height="26" x="154" y="120" stroke="#49CC49" stroke-width="2" rx="13"/><circle cx="167" cy="133" r="9" stroke="#fff" stroke-width="1.5"/><circle cx="85" cy="37" r="9" stroke="#110529" stroke-width="1.5"/><path fill="#110529" d="M85 32.5a4.5 4.5 0 1 0 0 9 4.5 4.5 0 0 0 0-9"/><circle cx="215" cy="37" r="9" stroke="#DFE0E6" stroke-width="1.5"/><path fill="#DFE0E6" d="M215 32.5a4.5 4.5 0 1 0 0 8.999 4.5 4.5 0 0 0 0-8.999"/><path fill="#9BABCC" fill-opacity=".16" d="M65 85c0-11.046 8.954-20 20-20s20 8.954 20 20-8.954 20-20 20-20-8.954-20-20"/><circle cx="85" cy="85" r="9" stroke="#110529" stroke-width="1.5"/><path fill="#110529" d="M85 80.5a4.5 4.5 0 1 0 0 9 4.5 4.5 0 0 0 0-9"/><path fill="#38383D" d="M195 85c0-11.046 8.954-20 20-20s20 8.954 20 20-8.954 20-20 20-20-8.954-20-20"/><circle cx="215" cy="85" r="9" stroke="#fff" stroke-width="1.5"/><path fill="#fff" d="M215 80.5a4.5 4.5 0 1 0 0 8.999 4.5 4.5 0 0 0 0-8.999"/><rect width="26" height="26" x="72" y="120" stroke="#49CC49" stroke-width="2" rx="13"/><circle cx="85" cy="133" r="9" stroke="#110529" stroke-width="1.5"/><path fill="#110529" d="M85 128.5a4.5 4.5 0 0 0-4.157 2.778A4.5 4.5 0 1 0 85 128.5"/><rect width="26" height="26" x="202" y="120" stroke="#49CC49" stroke-width="2" rx="13"/><circle cx="215" cy="133" r="9" stroke="#fff" stroke-width="1.5"/><path fill="#fff" d="M215 128.5a4.5 4.5 0 0 0-4.157 2.778 4.5 4.5 0 0 0 .975 4.904 4.502 4.502 0 0 0 6.364-6.364A4.5 4.5 0 0 0 215 128.5"/></svg>