<svg xmlns="http://www.w3.org/2000/svg" width="24" height="24" fill="none"><path fill="#110529" fill-rule="evenodd" d="M6.944 4.879C6.204 5.418 6 5.682 6 6.225c0 .454.161.695.56 1.093q.049.05.12.118c.19.184.478.462.688.73.313.4.632.973.632 1.734 0 .548-.214.995-.396 1.29a5 5 0 0 1-.641.805c-.268.282-.626.614-.958.924-.167.154-.327.303-.467.437-.48.46-.882.89-1.162 1.314-.277.418-.376.741-.376 1.005 0 .726.44 1.231 1.763 2.204l.285.207c.584.423 1.306.945 1.952 1.624.646-.68 1.368-1.201 1.952-1.624l.285-.207C11.56 16.906 12 16.4 12 15.675c0-.266-.1-.597-.38-1.025-.283-.431-.687-.87-1.164-1.333-.151-.146-.33-.313-.514-.485a25 25 0 0 1-.9-.868 5.2 5.2 0 0 1-.634-.78C8.232 10.908 8 10.46 8 9.9c0-.765.342-1.333.64-1.706.194-.244.469-.515.655-.698l.133-.133c.4-.407.572-.673.572-1.138 0-.543-.203-.807-.944-1.346l-.22-.155c-.235-.163-.532-.37-.836-.63-.304.26-.6.467-.836.63zm.064-1.916c-.22.184-.458.353-.696.523C5.411 4.13 4.5 4.78 4.5 6.225c0 1.185.636 1.803 1.191 2.342.429.417.809.786.809 1.333 0 .513-.668 1.132-1.458 1.865-1.143 1.06-2.542 2.358-2.542 3.91 0 1.679 1.278 2.612 2.623 3.594.687.502 1.392 1.017 1.953 1.65.402.453.73.967.924 1.581.195-.614.522-1.128.924-1.58.56-.634 1.266-1.149 1.953-1.65 1.345-.983 2.623-1.916 2.623-3.595 0-1.575-1.44-2.919-2.592-3.994C10.14 10.964 9.5 10.367 9.5 9.9c0-.498.365-.858.783-1.27.56-.554 1.217-1.202 1.217-2.405 0-1.446-.91-2.096-1.812-2.739-.238-.17-.476-.339-.696-.523-.458-.382-.84-.826-.992-1.463-.152.637-.534 1.081-.992 1.463" clip-rule="evenodd"/><path fill="#07AD3E" fill-rule="evenodd" d="M18.371 7.987c.943.912 1.129 1.206 1.129 1.513s-.186.601-1.129 1.513l-.084.082c-.236.227-.51.492-.787.8-.277-.308-.551-.573-.787-.8l-.084-.082C15.686 10.101 15.5 9.807 15.5 9.5s.186-.601 1.129-1.513l.084-.081c.236-.228.51-.493.787-.801.277.308.551.573.787.8zm.035-2.13c-.43-.525-.779-1.12-.906-1.857-.127.737-.476 1.332-.906 1.856-.311.379-.664.72-1.008 1.053C14.766 7.702 14 8.442 14 9.5s.766 1.798 1.586 2.591c.344.333.697.675 1.008 1.053.43.524.779 1.119.906 1.856.127-.737.476-1.332.906-1.856.311-.379.664-.72 1.008-1.053C20.234 11.298 21 10.558 21 9.5s-.766-1.798-1.586-2.591c-.344-.333-.697-.674-1.008-1.053M17.5 19a1 1 0 1 0 0-2 1 1 0 0 0 0 2" clip-rule="evenodd"/></svg>