<svg width="16" height="16" viewBox="0 0 16 16" fill="none" xmlns="http://www.w3.org/2000/svg">
<g clip-path="url(#clip0_5855_11729)">
<path d="M8 1.75C4.54822 1.75 1.75 4.54822 1.75 8C1.75 11.4518 4.54822 14.25 8 14.25C11.4518 14.25 14.25 11.4518 14.25 8C14.25 7.68358 14.2265 7.37265 14.1811 7.06887L15.4371 5.81288C15.6407 6.5065 15.75 7.24049 15.75 8C15.75 12.2802 12.2802 15.75 8 15.75C3.71979 15.75 0.25 12.2802 0.25 8C0.25 3.71979 3.71979 0.25 8 0.25C9.51274 0.25 10.9243 0.683415 12.1171 1.43284L11.0221 2.5279C10.1264 2.03219 9.09616 1.75 8 1.75Z" fill="#110529"/>
<path d="M14.6607 3.79999L13.6 2.73933L7.29999 9.03933L4.84999 6.58933L3.78933 7.64999L7.29999 11.1607L14.6607 3.79999Z" fill="#110529"/>
</g>
<defs>
<clipPath id="clip0_5855_11729">
<rect width="16" height="16" fill="white"/>
</clipPath>
</defs>
</svg>
