<svg width="122" height="42" viewBox="0 0 122 42" fill="none" xmlns="http://www.w3.org/2000/svg">
<rect x="1" y="1" width="120" height="40" rx="5" stroke="#845CFF" stroke-dasharray="10 5"/>
<path d="M28.4343 14.5657L25.3657 17.6343C24.9373 18.0627 24.7231 18.2769 24.7086 18.4608C24.6961 18.6203 24.7607 18.7763 24.8824 18.8802C25.0226 19 25.3256 19 25.9314 19H32.0686C32.6744 19 32.9774 19 33.1176 18.8802C33.2393 18.7763 33.3039 18.6203 33.2914 18.4608C33.2769 18.2769 33.0627 18.0627 32.6343 17.6343L29.5657 14.5657C29.3677 14.3677 29.2687 14.2687 29.1545 14.2316C29.0541 14.1989 28.9459 14.1989 28.8455 14.2316C28.7313 14.2687 28.6323 14.3677 28.4343 14.5657Z" fill="#CFD1DB"/>
<path d="M28.4343 27.4343L25.3657 24.3657C24.9373 23.9373 24.7231 23.7231 24.7086 23.5392C24.6961 23.3797 24.7607 23.2237 24.8824 23.1198C25.0226 23 25.3256 23 25.9314 23H32.0686C32.6744 23 32.9774 23 33.1176 23.1198C33.2393 23.2237 33.3039 23.3797 33.2914 23.5392C33.2769 23.7231 33.0627 23.9373 32.6343 24.3657L29.5657 27.4343C29.3677 27.6323 29.2687 27.7313 29.1545 27.7684C29.0541 27.8011 28.9459 27.8011 28.8455 27.7684C28.7313 27.7313 28.6323 27.6323 28.4343 27.4343Z" fill="#CFD1DB"/>
<path d="M60.4343 14.5657L57.3657 17.6343C56.9373 18.0627 56.7231 18.2769 56.7086 18.4608C56.6961 18.6203 56.7607 18.7763 56.8824 18.8802C57.0226 19 57.3256 19 57.9314 19H64.0686C64.6744 19 64.9774 19 65.1176 18.8802C65.2393 18.7763 65.3039 18.6203 65.2914 18.4608C65.2769 18.2769 65.0627 18.0627 64.6343 17.6343L61.5657 14.5657C61.3677 14.3677 61.2687 14.2687 61.1545 14.2316C61.0541 14.1989 60.9459 14.1989 60.8455 14.2316C60.7313 14.2687 60.6323 14.3677 60.4343 14.5657Z" fill="#CFD1DB"/>
<path d="M60.4343 27.4343L57.3657 24.3657C56.9373 23.9373 56.7231 23.7231 56.7086 23.5392C56.6961 23.3797 56.7607 23.2237 56.8824 23.1198C57.0226 23 57.3256 23 57.9314 23H64.0686C64.6744 23 64.9774 23 65.1176 23.1198C65.2393 23.2237 65.3039 23.3797 65.2914 23.5392C65.2769 23.7231 65.0627 23.9373 64.6343 24.3657L61.5657 27.4343C61.3677 27.6323 61.2687 27.7313 61.1545 27.7684C61.0541 27.8011 60.9459 27.8011 60.8455 27.7684C60.7313 27.7313 60.6323 27.6323 60.4343 27.4343Z" fill="#110529"/>
<path d="M92.4343 14.5657L89.3657 17.6343C88.9373 18.0627 88.7231 18.2769 88.7086 18.4608C88.6961 18.6203 88.7607 18.7763 88.8824 18.8802C89.0226 19 89.3256 19 89.9314 19H96.0686C96.6744 19 96.9774 19 97.1176 18.8802C97.2393 18.7763 97.3039 18.6203 97.2914 18.4608C97.2769 18.2769 97.0627 18.0627 96.6343 17.6343L93.5657 14.5657C93.3677 14.3677 93.2687 14.2687 93.1545 14.2316C93.0541 14.1989 92.9459 14.1989 92.8455 14.2316C92.7313 14.2687 92.6323 14.3677 92.4343 14.5657Z" fill="#110529"/>
<path d="M92.4343 27.4343L89.3657 24.3657C88.9373 23.9373 88.7231 23.7231 88.7086 23.5392C88.6961 23.3797 88.7607 23.2237 88.8824 23.1198C89.0226 23 89.3256 23 89.9314 23H96.0686C96.6744 23 96.9774 23 97.1176 23.1198C97.2393 23.2237 97.3039 23.3797 97.2914 23.5392C97.2769 23.7231 97.0627 23.9373 96.6343 24.3657L93.5657 27.4343C93.3677 27.6323 93.2687 27.7313 93.1545 27.7684C93.0541 27.8011 92.9459 27.8011 92.8455 27.7684C92.7313 27.7313 92.6323 27.6323 92.4343 27.4343Z" fill="#CFD1DB"/>
</svg>
