<svg width="24" height="24" viewBox="0 0 24 24" fill="none" xmlns="http://www.w3.org/2000/svg">
<path fill-rule="evenodd" clip-rule="evenodd" d="M8.57722 10.961C6.66902 13.2611 4.75 16.8465 4.75 22H3.25C3.25 16.4392 5.33098 12.5246 7.42278 10.0032C8.46587 8.74596 9.50979 7.83673 10.2966 7.2396C10.6903 6.9408 11.0207 6.71937 11.2558 6.57088C11.3735 6.49661 11.4674 6.44052 11.5337 6.40205C11.5668 6.38281 11.5931 6.36798 11.6119 6.35747L11.6346 6.34495L11.6417 6.34111L11.6441 6.33979L11.6451 6.33928C11.6455 6.33906 11.6458 6.33887 12 6.99998C12.3542 7.66109 12.3545 7.66092 12.3547 7.66078L12.3538 7.6613L12.3422 7.66773C12.3307 7.67409 12.3121 7.68463 12.2866 7.6994C12.2357 7.72894 12.1578 7.77538 12.0567 7.83923C11.8543 7.96697 11.5597 8.16407 11.2034 8.43446C10.4902 8.97573 9.53413 9.80757 8.57722 10.961Z" fill="#110529"/>
<path fill-rule="evenodd" clip-rule="evenodd" d="M18.4802 1.25433C19.1682 1.24271 19.7565 1.80055 19.7464 2.51128C19.7129 4.87861 19.45 6.55839 19.1875 7.66147C19.0563 8.21291 18.9253 8.61971 18.8235 8.89571C18.7726 9.03369 18.729 9.13888 18.6963 9.21302C18.68 9.25009 18.6665 9.27939 18.6561 9.30113L18.643 9.32809L18.6383 9.33737L18.6365 9.34097L18.6357 9.34251C18.6355 9.34284 18.635 9.34387 17.9684 9.00009L18.635 9.34387C18.5063 9.59335 18.2491 9.75009 17.9684 9.75009L15.9565 9.75006L16.7021 11.7364C16.807 12.0158 16.7363 12.3308 16.522 12.5385C14.352 14.6422 11.3704 16.2151 8.11959 16.7404L7.88034 15.2596C10.6443 14.813 13.1999 13.5239 15.1216 11.7943L14.1716 9.26363C14.0852 9.0333 14.1172 8.7752 14.2573 8.57295C14.3974 8.37071 14.6278 8.25004 14.8738 8.25005L17.4613 8.25008C17.5367 8.03155 17.6311 7.72229 17.7282 7.31424C17.9539 6.36564 18.1943 4.88121 18.2416 2.75981C12.7855 2.90324 9.73044 4.59854 8.00781 6.81731C6.23095 9.10591 5.75002 12.1021 5.75 15L5.75 15.75L4.25 15.75L4.25 15C4.25002 11.9835 4.74078 8.57932 6.82298 5.89742C8.93183 3.18122 12.5526 1.35447 18.4802 1.25433ZM17.2994 8.6611C17.2994 8.66115 17.2994 8.66113 17.2994 8.6611Z" fill="#110529"/>
<path fill-rule="evenodd" clip-rule="evenodd" d="M16 22H7V20.5H16V22ZM18 20.5H21V22H18V20.5Z" fill="#07AD3E"/>
</svg>
