<svg width="24" height="24" viewBox="0 0 24 24" fill="none" xmlns="http://www.w3.org/2000/svg">
<path d="M2.37504 15.1251L11.9999 21.25L21.625 15.1249L21.6744 15.1564C22.2919 15.5493 22.2919 16.4508 21.6744 16.8437L12.5371 22.6584C12.2095 22.8668 11.7909 22.8669 11.4633 22.6584L2.32595 16.8437C1.70845 16.4508 1.70845 15.5493 2.32595 15.1564L2.37504 15.1251Z" fill="#07AD3E"/>
<path d="M11.25 12V7.75H7V6.25H11.25V2H12.75V6.25H17V7.75H12.75V12H11.25Z" fill="#110529"/>
<path d="M2.32592 12.8437C1.70842 12.4507 1.70842 11.5493 2.32592 11.1563L4.07215 10.0451L5.45919 10.912L3.74951 12L11.9995 17.25L20.2495 12L18.5403 10.9123L19.928 10.045L21.6744 11.1563C22.2919 11.5493 22.2919 12.4507 21.6744 12.8437L12.537 18.6583C12.2095 18.8668 11.7909 18.8668 11.4633 18.6583L2.32592 12.8437Z" fill="#110529"/>
</svg>
