<svg width="24" height="24" viewBox="0 0 24 24" fill="none" xmlns="http://www.w3.org/2000/svg">
<path fill-rule="evenodd" clip-rule="evenodd" d="M2.25 20.5H21.75V22H2.25V20.5Z" fill="#110529"/>
<path fill-rule="evenodd" clip-rule="evenodd" d="M3.75 2.5L3.75 4L2.25 4L2.25 2.5L3.75 2.5Z" fill="#110529"/>
<path fill-rule="evenodd" clip-rule="evenodd" d="M3.75 5.5L3.75 7H2.25L2.25 5.5H3.75Z" fill="#110529"/>
<path fill-rule="evenodd" clip-rule="evenodd" d="M3.75 8.5L3.75 10H2.25L2.25 8.5H3.75Z" fill="#110529"/>
<path fill-rule="evenodd" clip-rule="evenodd" d="M3.75 11.5L3.75 13H2.25L2.25 11.5H3.75Z" fill="#110529"/>
<path fill-rule="evenodd" clip-rule="evenodd" d="M3.75 14.5L3.75 16H2.25L2.25 14.5H3.75Z" fill="#110529"/>
<path fill-rule="evenodd" clip-rule="evenodd" d="M3.75 17.5L3.75 19H2.25L2.25 17.5H3.75Z" fill="#110529"/>
<path fill-rule="evenodd" clip-rule="evenodd" d="M10.25 11.5C10.25 10.2574 11.2574 9.25 12.5 9.25C13.7426 9.25 14.75 10.2574 14.75 11.5C14.75 12.7426 13.7426 13.75 12.5 13.75C11.2574 13.75 10.25 12.7426 10.25 11.5ZM12.5 10.75C12.0858 10.75 11.75 11.0858 11.75 11.5C11.75 11.9142 12.0858 12.25 12.5 12.25C12.9142 12.25 13.25 11.9142 13.25 11.5C13.25 11.0858 12.9142 10.75 12.5 10.75Z" fill="#07AD3E"/>
<path fill-rule="evenodd" clip-rule="evenodd" d="M10.25 14.5C10.25 13.2574 11.2574 12.25 12.5 12.25C13.7426 12.25 14.75 13.2574 14.75 14.5C14.75 15.7426 13.7426 16.75 12.5 16.75C11.2574 16.75 10.25 15.7426 10.25 14.5ZM12.5 13.75C12.0858 13.75 11.75 14.0858 11.75 14.5C11.75 14.9142 12.0858 15.25 12.5 15.25C12.9142 15.25 13.25 14.9142 13.25 14.5C13.25 14.0858 12.9142 13.75 12.5 13.75Z" fill="#07AD3E"/>
<path fill-rule="evenodd" clip-rule="evenodd" d="M10.25 17.5C10.25 16.2574 11.2574 15.25 12.5 15.25C13.7426 15.25 14.75 16.2574 14.75 17.5C14.75 18.7426 13.7426 19.75 12.5 19.75C11.2574 19.75 10.25 18.7426 10.25 17.5ZM12.5 16.75C12.0858 16.75 11.75 17.0858 11.75 17.5C11.75 17.9142 12.0858 18.25 12.5 18.25C12.9142 18.25 13.25 17.9142 13.25 17.5C13.25 17.0858 12.9142 16.75 12.5 16.75Z" fill="#07AD3E"/>
<path fill-rule="evenodd" clip-rule="evenodd" d="M5.25 17.5C5.25 16.2574 6.25736 15.25 7.5 15.25C8.74264 15.25 9.75 16.2574 9.75 17.5C9.75 18.7426 8.74264 19.75 7.5 19.75C6.25736 19.75 5.25 18.7426 5.25 17.5ZM7.5 16.75C7.08579 16.75 6.75 17.0858 6.75 17.5C6.75 17.9142 7.08579 18.25 7.5 18.25C7.91421 18.25 8.25 17.9142 8.25 17.5C8.25 17.0858 7.91421 16.75 7.5 16.75Z" fill="#07AD3E"/>
<path fill-rule="evenodd" clip-rule="evenodd" d="M13.25 8.5C13.25 7.25736 14.2574 6.25 15.5 6.25C16.7426 6.25 17.75 7.25736 17.75 8.5C17.75 9.74264 16.7426 10.75 15.5 10.75C14.2574 10.75 13.25 9.74264 13.25 8.5ZM15.5 7.75C15.0858 7.75 14.75 8.08579 14.75 8.5C14.75 8.91421 15.0858 9.25 15.5 9.25C15.9142 9.25 16.25 8.91421 16.25 8.5C16.25 8.08579 15.9142 7.75 15.5 7.75Z" fill="#07AD3E"/>
<path fill-rule="evenodd" clip-rule="evenodd" d="M13.25 5.5C13.25 4.25736 14.2574 3.25 15.5 3.25C16.7426 3.25 17.75 4.25736 17.75 5.5C17.75 6.74264 16.7426 7.75 15.5 7.75C14.2574 7.75 13.25 6.74264 13.25 5.5ZM15.5 4.75C15.0858 4.75 14.75 5.08579 14.75 5.5C14.75 5.91421 15.0858 6.25 15.5 6.25C15.9142 6.25 16.25 5.91421 16.25 5.5C16.25 5.08579 15.9142 4.75 15.5 4.75Z" fill="#07AD3E"/>
<path fill-rule="evenodd" clip-rule="evenodd" d="M13.25 17.5C13.25 16.2574 14.2574 15.25 15.5 15.25C16.7426 15.25 17.75 16.2574 17.75 17.5C17.75 18.7426 16.7426 19.75 15.5 19.75C14.2574 19.75 13.25 18.7426 13.25 17.5ZM15.5 16.75C15.0858 16.75 14.75 17.0858 14.75 17.5C14.75 17.9142 15.0858 18.25 15.5 18.25C15.9142 18.25 16.25 17.9142 16.25 17.5C16.25 17.0858 15.9142 16.75 15.5 16.75Z" fill="#07AD3E"/>
<path fill-rule="evenodd" clip-rule="evenodd" d="M16.25 17.5C16.25 16.2574 17.2574 15.25 18.5 15.25C19.7426 15.25 20.75 16.2574 20.75 17.5C20.75 18.7426 19.7426 19.75 18.5 19.75C17.2574 19.75 16.25 18.7426 16.25 17.5ZM18.5 16.75C18.0858 16.75 17.75 17.0858 17.75 17.5C17.75 17.9142 18.0858 18.25 18.5 18.25C18.9142 18.25 19.25 17.9142 19.25 17.5C19.25 17.0858 18.9142 16.75 18.5 16.75Z" fill="#07AD3E"/>
<path fill-rule="evenodd" clip-rule="evenodd" d="M16.25 14.5C16.25 13.2574 17.2574 12.25 18.5 12.25C19.7426 12.25 20.75 13.2574 20.75 14.5C20.75 15.7426 19.7426 16.75 18.5 16.75C17.2574 16.75 16.25 15.7426 16.25 14.5ZM18.5 13.75C18.0858 13.75 17.75 14.0858 17.75 14.5C17.75 14.9142 18.0858 15.25 18.5 15.25C18.9142 15.25 19.25 14.9142 19.25 14.5C19.25 14.0858 18.9142 13.75 18.5 13.75Z" fill="#07AD3E"/>
<path fill-rule="evenodd" clip-rule="evenodd" d="M13.25 14.5C13.25 13.2574 14.2574 12.25 15.5 12.25C16.7426 12.25 17.75 13.2574 17.75 14.5C17.75 15.7426 16.7426 16.75 15.5 16.75C14.2574 16.75 13.25 15.7426 13.25 14.5ZM15.5 13.75C15.0858 13.75 14.75 14.0858 14.75 14.5C14.75 14.9142 15.0858 15.25 15.5 15.25C15.9142 15.25 16.25 14.9142 16.25 14.5C16.25 14.0858 15.9142 13.75 15.5 13.75Z" fill="#07AD3E"/>
<path fill-rule="evenodd" clip-rule="evenodd" d="M13.25 11.5C13.25 10.2574 14.2574 9.25 15.5 9.25C16.7426 9.25 17.75 10.2574 17.75 11.5C17.75 12.7426 16.7426 13.75 15.5 13.75C14.2574 13.75 13.25 12.7426 13.25 11.5ZM15.5 10.75C15.0858 10.75 14.75 11.0858 14.75 11.5C14.75 11.9142 15.0858 12.25 15.5 12.25C15.9142 12.25 16.25 11.9142 16.25 11.5C16.25 11.0858 15.9142 10.75 15.5 10.75Z" fill="#07AD3E"/>
</svg>
