<svg width="24" height="24" viewBox="0 0 24 24" fill="none" xmlns="http://www.w3.org/2000/svg">
<path fill-rule="evenodd" clip-rule="evenodd" d="M4.25 1.25V2.75H6.25V5H4C3.44772 5 3 5.44772 3 6V7.58579C3 7.851 3.10536 8.10536 3.29289 8.29289L5 10L3.29289 11.7071C3.10536 11.8946 3 12.149 3 12.4142V16C3 16.5523 3.44772 17 4 17H6.25V21.25H4.25V22.75H9.75V21.25H7.75V17H10C10.5523 17 11 16.5523 11 16V12.4142C11 12.149 10.8946 11.8946 10.7071 11.7071L9 10L10.7071 8.29289C10.8946 8.10536 11 7.851 11 7.58579V6C11 5.44771 10.5523 5 10 5H7.75V2.75H9.75V1.25H4.25ZM7.62868 10.75H6.37132L4.5 12.6213V15.5H9.5V12.6213L7.62868 10.75ZM7.62868 9.25H6.37132L4.5 7.37868V6.5H9.5V7.37868L7.62868 9.25Z" fill="#110529"/>
<path d="M18 2C18 1.44772 17.5523 1 17 1C16.4477 1 16 1.44772 16 2C16 2.55228 16.4477 3 17 3C17.5523 3 18 2.55228 18 2Z" fill="#07AD3E"/>
<path fill-rule="evenodd" clip-rule="evenodd" d="M16.25 6.75V9H14C13.4477 9 13 9.44771 13 10V11.6918C13 11.9682 13.1144 12.2323 13.3161 12.4213L15 14L13.2929 15.7071C13.1054 15.8946 13 16.149 13 16.4142V18C13 18.5523 13.4477 19 14 19H16.25L16.25 21.25H14.25V22.75H19.75V21.25H17.75V19H20C20.5523 19 21 18.5523 21 18V16.4142C21 16.149 20.8946 15.8946 20.7071 15.7071L19 14L20.6839 12.4213C20.8856 12.2323 21 11.9682 21 11.6918V10C21 9.44771 20.5523 9 20 9H17.75V6.75H19.75V5.25H14.25V6.75H16.25ZM17.6068 13.25L19.5 11.4752V10.5H14.5V11.4752L16.3932 13.25H17.6068ZM16.3713 14.75H17.6287L19.5 16.6213V17.5H14.5V16.6213L16.3713 14.75Z" fill="#07AD3E"/>
</svg>
