<svg width="24" height="24" viewBox="0 0 24 24" fill="none" xmlns="http://www.w3.org/2000/svg">
<path fill-rule="evenodd" clip-rule="evenodd" d="M2.25 20.5H21.75V22H2.25V20.5Z" fill="#110529"/>
<path fill-rule="evenodd" clip-rule="evenodd" d="M3.75 2.5L3.75 4L2.25 4L2.25 2.5L3.75 2.5Z" fill="#110529"/>
<path fill-rule="evenodd" clip-rule="evenodd" d="M3.75 5.5L3.75 7H2.25L2.25 5.5H3.75Z" fill="#110529"/>
<path fill-rule="evenodd" clip-rule="evenodd" d="M3.75 8.5L3.75 10H2.25L2.25 8.5H3.75Z" fill="#110529"/>
<path fill-rule="evenodd" clip-rule="evenodd" d="M3.75 11.5L3.75 13H2.25L2.25 11.5H3.75Z" fill="#110529"/>
<path fill-rule="evenodd" clip-rule="evenodd" d="M3.75 14.5L3.75 16H2.25L2.25 14.5H3.75Z" fill="#110529"/>
<path fill-rule="evenodd" clip-rule="evenodd" d="M3.75 17.5L3.75 19H2.25L2.25 17.5H3.75Z" fill="#110529"/>
<path fill-rule="evenodd" clip-rule="evenodd" d="M14.9656 7.47351L19.9695 2.46967L21.0301 3.53033L16.0263 8.53417C15.4679 9.09257 14.5722 9.1224 13.9779 8.60238L11.034 6.02648L6.03014 11.0303L4.96948 9.96967L9.97333 4.96582C10.5317 4.40742 11.4274 4.37759 12.0217 4.89761L14.9656 7.47351Z" fill="#07AD3E"/>
<path fill-rule="evenodd" clip-rule="evenodd" d="M6.25 19V14H7.75V19H6.25Z" fill="#110529"/>
<path fill-rule="evenodd" clip-rule="evenodd" d="M10.25 19L10.25 10L11.75 10V19H10.25Z" fill="#110529"/>
<path fill-rule="evenodd" clip-rule="evenodd" d="M14.25 19V12H15.75V19H14.25Z" fill="#110529"/>
<path fill-rule="evenodd" clip-rule="evenodd" d="M18.25 19V9L19.75 9L19.75 19H18.25Z" fill="#110529"/>
</svg>
