<svg width="24" height="24" viewBox="0 0 24 24" fill="none" xmlns="http://www.w3.org/2000/svg">
<path fill-rule="evenodd" clip-rule="evenodd" d="M4.25 1.25V2.75H6.25L6.25 5H4C3.44772 5 3 5.44772 3 6V16C3 16.5523 3.44772 17 4 17H6.25L6.25 21.25H4.25V22.75H9.75V21.25H7.75V17H10C10.5523 17 11 16.5523 11 16V6C11 5.44771 10.5523 5 10 5H7.75V2.75H9.75V1.25H4.25ZM4.5 10.75H9.5V15.5H4.5V10.75ZM9.5 9.25H4.5V6.5H9.5V9.25Z" fill="#110529"/>
<path d="M18 3C18 3.55228 17.5523 4 17 4C16.4477 4 16 3.55228 16 3C16 2.44772 16.4477 2 17 2C17.5523 2 18 2.44772 18 3Z" fill="#07AD3E"/>
<path d="M17 15C17 15.5523 16.5523 16 16 16C15.4477 16 15 15.5523 15 15C15 14.4477 15.4477 14 16 14C16.5523 14 17 14.4477 17 15Z" fill="#07AD3E"/>
<path d="M18 17.5C18.5523 17.5 19 17.0523 19 16.5C19 15.9477 18.5523 15.5 18 15.5C17.4477 15.5 17 15.9477 17 16.5C17 17.0523 17.4477 17.5 18 17.5Z" fill="#07AD3E"/>
<path d="M17 6.5C17 7.05228 16.5523 7.5 16 7.5C15.4477 7.5 15 7.05228 15 6.5C15 5.94772 15.4477 5.5 16 5.5C16.5523 5.5 17 5.94772 17 6.5Z" fill="#07AD3E"/>
<path d="M18 9.5C18.5523 9.5 19 9.05228 19 8.5C19 7.94772 18.5523 7.5 18 7.5C17.4477 7.5 17 7.94772 17 8.5C17 9.05228 17.4477 9.5 18 9.5Z" fill="#07AD3E"/>
<path d="M21 15C21 15.5523 20.5523 16 20 16C19.4477 16 19 15.5523 19 15C19 14.4477 19.4477 14 20 14C20.5523 14 21 14.4477 21 15Z" fill="#07AD3E"/>
<path d="M15 13.5C15.5523 13.5 16 13.0523 16 12.5C16 11.9477 15.5523 11.5 15 11.5C14.4477 11.5 14 11.9477 14 12.5C14 13.0523 14.4477 13.5 15 13.5Z" fill="#07AD3E"/>
<path d="M15 16.5C15 17.0523 14.5523 17.5 14 17.5C13.4477 17.5 13 17.0523 13 16.5C13 15.9477 13.4477 15.5 14 15.5C14.5523 15.5 15 15.9477 15 16.5Z" fill="#07AD3E"/>
<path d="M16 19C16.5523 19 17 18.5523 17 18C17 17.4477 16.5523 17 16 17C15.4477 17 15 17.4477 15 18C15 18.5523 15.4477 19 16 19Z" fill="#07AD3E"/>
<path d="M18 11C18 11.5523 17.5523 12 17 12C16.4477 12 16 11.5523 16 11C16 10.4477 16.4477 10 17 10C17.5523 10 18 10.4477 18 11Z" fill="#07AD3E"/>
<path d="M18 14.5C18.5523 14.5 19 14.0523 19 13.5C19 12.9477 18.5523 12.5 18 12.5C17.4477 12.5 17 12.9477 17 13.5C17 14.0523 17.4477 14.5 18 14.5Z" fill="#07AD3E"/>
<path d="M18 20.5C18 21.0523 17.5523 21.5 17 21.5C16.4477 21.5 16 21.0523 16 20.5C16 19.9477 16.4477 19.5 17 19.5C17.5523 19.5 18 19.9477 18 20.5Z" fill="#07AD3E"/>
</svg>
