<svg width="24" height="24" viewBox="0 0 24 24" fill="none" xmlns="http://www.w3.org/2000/svg">
<path fill-rule="evenodd" clip-rule="evenodd" d="M7.75 3H11.25V1H12.75V3H16.25V1H17.75V3.0168C19.4588 3.18166 20.8183 4.54118 20.9832 6.25H23V7.75H21V11.25H23V12.75H21V16.25H23V17.75H20.9832C20.8183 19.4588 19.4588 20.8183 17.75 20.9832V23H16.25V21H12.75V23H11.25V21H7.75V23H6.25V20.9832C4.54118 20.8183 3.18166 19.4588 3.0168 17.75H1V16.25H3V12.75H1V11.25H3V7.75H1V6.25H3.0168C3.18166 4.54118 4.54118 3.18166 6.25 3.0168V1H7.75V3ZM17.4 4.5H6.6C5.4402 4.5 4.5 5.4402 4.5 6.6V17.4C4.5 18.5598 5.4402 19.5 6.6 19.5H17.4C18.5598 19.5 19.5 18.5598 19.5 17.4V6.6C19.5 5.4402 18.5598 4.5 17.4 4.5ZM7.5 7.5H16.5V16.5H7.5V7.5ZM6 7.5C6 6.67157 6.67157 6 7.5 6H16.5C17.3284 6 18 6.67157 18 7.5V16.5C18 17.3284 17.3284 18 16.5 18H7.5C6.67157 18 6 17.3284 6 16.5V7.5Z" fill="#110529"/>
</svg>
