<svg width="24" height="24" viewBox="0 0 24 24" fill="none" xmlns="http://www.w3.org/2000/svg">
<path fill-rule="evenodd" clip-rule="evenodd" d="M10.5951 8.76689C9.7962 8.43389 8.91957 8.25 8 8.25C4.27208 8.25 1.25 11.2721 1.25 15C1.25 18.7279 4.27208 21.75 8 21.75C11.7279 21.75 14.75 18.7279 14.75 15C14.75 12.7693 13.6679 10.7913 12 9.56231C11.5866 9.86693 11.2092 10.2176 10.8753 10.6067C12.3055 11.5446 13.25 13.162 13.25 15C13.25 17.8995 10.8995 20.25 8 20.25C5.10051 20.25 2.75 17.8995 2.75 15C2.75 12.1005 5.10051 9.75 8 9.75C8.51 9.75 9.00302 9.82272 9.46924 9.95836C9.80438 9.52487 10.1817 9.12566 10.5951 8.76689Z" fill="#110529"/>
<path fill-rule="evenodd" clip-rule="evenodd" d="M12 2.75C9.10051 2.75 6.75 5.10051 6.75 8C6.75 10.8995 9.10051 13.25 12 13.25C14.8995 13.25 17.25 10.8995 17.25 8C17.25 5.10051 14.8995 2.75 12 2.75ZM5.25 8C5.25 4.27208 8.27208 1.25 12 1.25C15.7279 1.25 18.75 4.27208 18.75 8C18.75 11.7279 15.7279 14.75 12 14.75C8.27208 14.75 5.25 11.7279 5.25 8Z" fill="#07AD3E"/>
<path d="M21.25 15C21.25 12.9441 20.0683 11.1643 18.3471 10.3026C18.5192 9.82834 18.6396 9.32933 18.7016 8.81237C21.0847 9.85434 22.75 12.2327 22.75 15C22.75 18.7279 19.7279 21.75 16 21.75C13.9499 21.75 12.1132 20.836 10.8753 19.3933C11.2961 19.1174 11.6749 18.7825 12 18.4005C12.963 19.5322 14.3977 20.25 16 20.25C18.8995 20.25 21.25 17.8995 21.25 15Z" fill="#110529"/>
<path d="M11.1556 17.0269C10.8943 16.4032 10.75 15.7185 10.75 15C10.75 12.1005 13.1005 9.75 16 9.75C16.3146 9.75 16.6227 9.77767 16.922 9.83069C17.0939 9.36877 17.2026 8.87611 17.2376 8.36321C16.8364 8.28886 16.4227 8.25 16 8.25C12.2721 8.25 9.25 11.2721 9.25 15C9.25 16.139 9.53213 17.2122 10.0303 18.1534C10.481 17.8626 10.8653 17.4779 11.1556 17.0269Z" fill="#110529"/>
</svg>
