<svg width="24" height="24" viewBox="0 0 24 24" fill="none" xmlns="http://www.w3.org/2000/svg">
<path d="M11.9998 3.25C9.65273 3.25 7.95205 4.29341 6.85282 5.59C5.98696 6.61133 5.47615 7.81075 5.31011 8.81312C3.27025 9.1788 1.0498 11.1171 1.0498 14.2C1.0498 17.6143 3.78583 19.75 6 19.75H9V18.25H6C4.61417 18.25 2.5498 16.7857 2.5498 14.2C2.5498 11.6358 4.59225 10.25 6 10.25H6.75V9.5C6.75 8.79913 7.12219 7.59186 7.99698 6.56C8.84766 5.55659 10.1469 4.75 11.9998 4.75C13.8527 4.75 15.1521 5.55659 16.0028 6.56003C16.8777 7.5919 17.25 8.79917 17.25 9.5H18.75C18.75 8.40083 18.2222 6.8581 17.147 5.58997C16.0476 4.29341 14.3469 3.25 11.9998 3.25Z" fill="#110529"/>
<path d="M22.5431 13.0172L21.4569 11.9828L15.3333 18.4125L12.5431 15.4828L11.4569 16.5172L15.3333 20.5875L22.5431 13.0172Z" fill="#110529"/>
</svg>
