<svg width="24" height="24" viewBox="0 0 24 24" fill="none" xmlns="http://www.w3.org/2000/svg">
<path d="M3.75 6C3.75 4.75736 4.75736 3.75 6 3.75H13V2.25H6C3.92893 2.25 2.25 3.92893 2.25 6V18C2.25 20.0711 3.92893 21.75 6 21.75H18C20.0711 21.75 21.75 20.0711 21.75 18V11H20.25V18C20.25 19.2426 19.2426 20.25 18 20.25H6C4.75736 20.25 3.75 19.2426 3.75 18V6Z" fill="#110529"/>
<path fill-rule="evenodd" clip-rule="evenodd" d="M8.5 7.25C7.80964 7.25 7.25 7.80964 7.25 8.5V11.5C7.25 11.6778 7.28711 11.8469 7.35401 12C7.28711 12.1531 7.25 12.3222 7.25 12.5V15.5C7.25 16.1904 7.80964 16.75 8.5 16.75H11.5C11.6778 16.75 11.8469 16.7129 12 16.646C12.1531 16.7129 12.3222 16.75 12.5 16.75H15.5C16.1904 16.75 16.75 16.1904 16.75 15.5V12.5C16.75 11.8096 16.1904 11.25 15.5 11.25H12.75V8.5C12.75 7.80964 12.1904 7.25 11.5 7.25H8.5ZM11.25 15.25V12.75H8.75V15.25H11.25ZM12.75 15.25H15.25V12.75H12.75V15.25ZM11.25 11.25V8.75H8.75V11.25H11.25Z" fill="#110529"/>
<path fill-rule="evenodd" clip-rule="evenodd" d="M16.25 3.5C16.25 2.80964 16.8096 2.25 17.5 2.25H20.5C21.1904 2.25 21.75 2.80964 21.75 3.5V6.5C21.75 7.19036 21.1904 7.75 20.5 7.75H17.5C16.8096 7.75 16.25 7.19036 16.25 6.5V3.5ZM17.75 3.75V6.25H20.25V3.75H17.75Z" fill="#07AD3E"/>
</svg>
