<svg width="24" height="24" viewBox="0 0 24 24" fill="none" xmlns="http://www.w3.org/2000/svg">
<path d="M3.5 6C2.67157 6 2 6.67157 2 7.5V19C2 20.6569 3.34315 22 5 22H16.5C17.3284 22 18 21.3284 18 20.5H5C4.17157 20.5 3.5 19.8284 3.5 19V6Z" fill="#110529"/>
<path d="M7.5 16.5H20.5V12H22V16.5C22 17.3284 21.3284 18 20.5 18H7.5C6.67157 18 6 17.3284 6 16.5V3.5C6 2.67157 6.67157 2 7.5 2H12V3.5H7.5V16.5Z" fill="#110529"/>
<path d="M16.25 12V7.75H12V6.25H16.25V2H17.75V6.25H22V7.75H17.75V12H16.25Z" fill="#110529"/>
</svg>
