<svg width="24" height="24" viewBox="0 0 24 24" fill="none" xmlns="http://www.w3.org/2000/svg">
<path d="M15.5 2.25H12V3.75H15.25V11.25H13.5C12.8096 11.25 12.25 11.8096 12.25 12.5V21H13.75V12.75H18.25V16.25H17.5C16.8096 16.25 16.25 16.8096 16.25 17.5V21H17.75V17.75H20.25V21H21.75V17.5C21.75 16.8096 21.1904 16.25 20.5 16.25H19.75V12.5C19.75 11.8096 19.1904 11.25 18.5 11.25H16.75V3.5C16.75 2.80964 16.1904 2.25 15.5 2.25Z" fill="#110529"/>
<path d="M10.5 3.75H7.25V7.25H8.5C9.19036 7.25 9.75 7.80964 9.75 8.5V21H8.25V8.75H4.75V21H3.25V8.5C3.25 7.80965 3.80964 7.25 4.5 7.25H5.75V3.5C5.75 2.80964 6.30964 2.25 7 2.25H10.5V3.75Z" fill="#07AD3E"/>
</svg>
