<svg width="24" height="24" viewBox="0 0 24 24" fill="none" xmlns="http://www.w3.org/2000/svg">
<path d="M6 3.75C4.75736 3.75 3.75 4.75736 3.75 6V18C3.75 19.2426 4.75736 20.25 6 20.25H18C19.2426 20.25 20.25 19.2426 20.25 18V14H21.75V18C21.75 20.0711 20.0711 21.75 18 21.75H6C3.92893 21.75 2.25 20.0711 2.25 18V6C2.25 3.92893 3.92893 2.25 6 2.25H10V3.75H6Z" fill="#110529"/>
<path fill-rule="evenodd" clip-rule="evenodd" d="M19.1893 3.75H14V2.25H21.75V10H20.25V4.81066L10.5303 14.5303L9.46967 13.4697L19.1893 3.75Z" fill="#110529"/>
</svg>
