<svg width="24" height="24" viewBox="0 0 24 24" fill="none" xmlns="http://www.w3.org/2000/svg">
<path d="M16 6.25H17.5V7.75H16V6.25Z" fill="#110529"/>
<path fill-rule="evenodd" clip-rule="evenodd" d="M3 3.5C3 2.80965 3.55964 2.25 4.25 2.25H19.75C20.4404 2.25 21 2.80964 21 3.5V5.96467C21 7.44961 20.5103 8.89312 19.6068 10.0716L15.25 15.7544V18.7169C15.25 19.156 15.0196 19.5629 14.6431 19.7888L10.6431 22.1888C9.80996 22.6887 8.75 22.0885 8.75 21.1169V15.7544L4.39316 10.0716C3.48967 8.89312 3 7.44961 3 5.96467V3.5ZM4.5 3.75V5.96467C4.5 6.06003 4.5026 6.15517 4.50776 6.25H14V7.75H4.81289C4.9948 8.25307 5.25373 8.72871 5.58357 9.15893L10.25 15.2456V20.6754L13.75 18.5754V15.2456L18.4164 9.15893C19.1191 8.24235 19.5 7.11962 19.5 5.96467V3.75H4.5Z" fill="#110529"/>
</svg>
