<svg width="24" height="24" viewBox="0 0 24 24" fill="none" xmlns="http://www.w3.org/2000/svg">
<path fill-rule="evenodd" clip-rule="evenodd" d="M3.53038 21.5303L21.5304 3.53033L20.4697 2.46967L17.72 5.21937C16.0414 3.88947 14.1097 2.99934 11.9998 3.00021C7.18333 3.00218 3.29477 7.64011 1.22806 11.5563C1.08116 11.8347 1.08117 12.1662 1.22808 12.4446C2.17922 14.2467 3.51622 16.2017 5.15195 17.7874L2.46972 20.4697L3.53038 21.5303ZM6.21275 16.7266C4.78583 15.3477 3.5817 13.633 2.69196 12.0004C3.6583 10.2271 4.99551 8.35698 6.58622 6.92538C8.25788 5.42091 10.092 4.50099 12.0005 4.50021C13.6223 4.49954 15.1907 5.16398 16.6515 6.2879L14.2482 8.6912C13.6075 8.25498 12.8334 8 11.9998 8C9.79071 8 7.99985 9.79086 7.99985 12C7.99985 12.8336 8.25483 13.6076 8.69105 14.2483L6.21275 16.7266ZM9.78287 13.1565C9.60208 12.8107 9.49985 12.4173 9.49985 12C9.49985 10.6193 10.6191 9.5 11.9998 9.5C12.4171 9.5 12.8105 9.60223 13.1564 9.78301L9.78287 13.1565Z" fill="#110529"/>
<path d="M15.9778 11.5778L11.5776 15.978C11.7164 15.9925 11.8572 16 11.9998 16C14.209 16 15.9998 14.2091 15.9998 12C15.9998 11.8574 15.9924 11.7165 15.9778 11.5778Z" fill="#110529"/>
<path d="M12.0005 19.5002C10.9277 19.4998 9.87853 19.2089 8.86845 18.6872L7.76344 19.7922C9.06555 20.5416 10.4869 20.9996 11.9998 21.0002C16.8163 21.0022 20.7049 16.3606 22.7716 12.4446C22.9185 12.1662 22.9185 11.8347 22.7716 11.5563C22.0658 10.2187 21.1474 8.79644 20.0521 7.50352L18.9875 8.56811C19.8959 9.65528 20.68 10.8484 21.3078 12.0004C20.3413 13.774 19.004 15.6449 17.4133 17.0768C15.7417 18.5816 13.9081 19.501 12.0005 19.5002Z" fill="#110529"/>
</svg>
