<svg width="24" height="24" viewBox="0 0 24 24" fill="none" xmlns="http://www.w3.org/2000/svg">
<path d="M15.5 19.7483C18.4485 18.4143 20.5 15.4467 20.5 12C20.5 7.30558 16.6944 3.5 12 3.5C7.30558 3.5 3.5 7.30558 3.5 12C3.5 15.4467 5.55148 18.4143 8.5 19.7483V21.3704C4.70333 19.9517 2 16.2915 2 12C2 6.47715 6.47715 2 12 2C17.5228 2 22 6.47715 22 12C22 16.2915 19.2967 19.9517 15.5 21.3704V19.7483Z" fill="#110529"/>
<path d="M11.25 21.5V20H12.75V21.5H11.25Z" fill="#110529"/>
<path d="M12 6.75C10.7476 6.75 9.54595 7.05349 8.64898 7.83835C7.73432 8.63867 7.25 9.83929 7.25 11.3889H8.75C8.75 10.1607 9.12282 9.41689 9.63674 8.96721C10.1683 8.50206 10.9667 8.25 12 8.25C13.0333 8.25 13.8317 8.50206 14.3633 8.96721C14.8772 9.41689 15.25 10.1607 15.25 11.3889C15.25 12.5448 14.7863 13.3026 14.176 13.788C13.5411 14.2931 12.7123 14.5278 12 14.5278C11.5858 14.5278 11.25 14.8636 11.25 15.2778V17.5H12.75V15.9702C13.5541 15.848 14.3994 15.527 15.1097 14.962C16.0709 14.1974 16.75 13.0107 16.75 11.3889C16.75 9.83929 16.2657 8.63867 15.351 7.83835C14.454 7.05349 13.2524 6.75 12 6.75Z" fill="#110529"/>
</svg>
