<svg width="24" height="24" viewBox="0 0 24 24" fill="none" xmlns="http://www.w3.org/2000/svg">
<rect width="24" height="24" fill="white"/>
<path fill-rule="evenodd" clip-rule="evenodd" d="M12 3.73207L4.83975 7.86605V16.134L12 20.268L19.1603 16.134V7.86605L12 3.73207ZM12.5 2.2887C12.1906 2.11007 11.8094 2.11007 11.5 2.2887L3.83975 6.71135C3.53035 6.88998 3.33975 7.22011 3.33975 7.57737V16.4227C3.33975 16.7799 3.53035 17.1101 3.83975 17.2887L11.5 21.7113C11.8094 21.89 12.1906 21.89 12.5 21.7113L20.1603 17.2887C20.4697 17.1101 20.6603 16.7799 20.6603 16.4227V7.57737C20.6603 7.22011 20.4697 6.88998 20.1603 6.71135L12.5 2.2887Z" fill="#110529"/>
<path fill-rule="evenodd" clip-rule="evenodd" d="M12 11.1395L19.6323 6.84634L20.3677 8.1537L12.75 12.4387V21H11.25V12.4387L3.63231 8.1537L4.3677 6.84634L12 11.1395Z" fill="#110529"/>
</svg>
