<svg width="24" height="24" viewBox="0 0 24 24" fill="none" xmlns="http://www.w3.org/2000/svg">
<path fill-rule="evenodd" clip-rule="evenodd" d="M5.93373 18.8731C8.17928 21.1186 11.82 21.1187 14.0656 18.8733L19.3692 13.5702L20.4298 14.6309L15.1263 19.934C12.2948 22.7652 7.70439 22.7651 4.87307 19.9338C2.04168 17.1024 2.04168 12.5118 4.87307 9.68036L11.2366 3.31686C13.287 1.26645 16.6114 1.26645 18.6618 3.31686C20.7122 5.36727 20.7122 8.69164 18.6618 10.7421L12.6517 16.7521C11.3825 18.0213 9.32462 18.0213 8.05537 16.7521C6.78613 15.4828 6.78613 13.425 8.05537 12.1557L13.005 7.20608L14.0657 8.26674L9.11603 13.2164C8.43257 13.8999 8.43257 15.008 9.11603 15.6914C9.7995 16.3749 10.9076 16.3749 11.5911 15.6914L17.6011 9.68139C19.0657 8.21677 19.0657 5.84214 17.6011 4.37752C16.1365 2.9129 13.7619 2.9129 12.2972 4.37752L5.93373 10.741C3.68812 12.9866 3.68812 16.6275 5.93373 18.8731Z" fill="#110529"/>
</svg>
