<svg width="262" height="182" viewBox="0 0 262 182" fill="none" xmlns="http://www.w3.org/2000/svg">
<rect x="1" y="1" width="260" height="180" rx="5" stroke="#845CFF" stroke-dasharray="10 5"/>
<circle cx="37" cy="37" r="9" stroke="#110529" stroke-width="1.5"/>
<circle cx="167" cy="37" r="9" stroke="#DFE0E6" stroke-width="1.5"/>
<path d="M17 85C17 73.9543 25.9543 65 37 65C48.0457 65 57 73.9543 57 85C57 96.0457 48.0457 105 37 105C25.9543 105 17 96.0457 17 85Z" fill="#9BABCC" fill-opacity="0.16"/>
<circle cx="37" cy="85" r="9" stroke="#110529" stroke-width="1.5"/>
<path d="M147 85C147 73.9543 155.954 65 167 65C178.046 65 187 73.9543 187 85C187 96.0457 178.046 105 167 105C155.954 105 147 96.0457 147 85Z" fill="#38383D"/>
<circle cx="167" cy="85" r="9" stroke="white" stroke-width="1.5"/>
<rect x="24" y="120" width="26" height="26" rx="13" stroke="#49CC49" stroke-width="2"/>
<circle cx="37" cy="133" r="9" stroke="#110529" stroke-width="1.5"/>
<rect x="154" y="120" width="26" height="26" rx="13" stroke="#49CC49" stroke-width="2"/>
<circle cx="167" cy="133" r="9" stroke="white" stroke-width="1.5"/>
<circle cx="85" cy="37" r="9" stroke="#110529" stroke-width="1.5"/>
<path d="M85 32.5C84.11 32.5 83.24 32.7639 82.4999 33.2584C81.7599 33.7529 81.1831 34.4557 80.8425 35.2779C80.5019 36.1002 80.4128 37.005 80.5865 37.8779C80.7601 38.7508 81.1887 39.5526 81.818 40.182C82.4474 40.8113 83.2492 41.2399 84.1221 41.4135C84.995 41.5872 85.8998 41.4981 86.7221 41.1575C87.5443 40.8169 88.2471 40.2401 88.7416 39.5001C89.2361 38.76 89.5 37.89 89.5 37C89.5 35.8065 89.0259 34.6619 88.182 33.818C87.3381 32.9741 86.1935 32.5 85 32.5Z" fill="#110529"/>
<circle cx="215" cy="37" r="9" stroke="#DFE0E6" stroke-width="1.5"/>
<path d="M215 32.5C214.11 32.5 213.24 32.7639 212.5 33.2584C211.76 33.7529 211.183 34.4557 210.843 35.2779C210.502 36.1002 210.413 37.005 210.586 37.8779C210.76 38.7508 211.189 39.5526 211.818 40.182C212.447 40.8113 213.249 41.2399 214.122 41.4135C214.995 41.5872 215.9 41.4981 216.722 41.1575C217.544 40.8169 218.247 40.2401 218.742 39.5001C219.236 38.76 219.5 37.89 219.5 37C219.5 35.8065 219.026 34.6619 218.182 33.818C217.338 32.9741 216.193 32.5 215 32.5Z" fill="#DFE0E6"/>
<path d="M65 85C65 73.9543 73.9543 65 85 65C96.0457 65 105 73.9543 105 85C105 96.0457 96.0457 105 85 105C73.9543 105 65 96.0457 65 85Z" fill="#9BABCC" fill-opacity="0.16"/>
<circle cx="85" cy="85" r="9" stroke="#110529" stroke-width="1.5"/>
<path d="M85 80.5C84.11 80.5 83.24 80.7639 82.4999 81.2584C81.7599 81.7529 81.1831 82.4557 80.8425 83.2779C80.5019 84.1002 80.4128 85.005 80.5865 85.8779C80.7601 86.7508 81.1887 87.5526 81.818 88.182C82.4474 88.8113 83.2492 89.2399 84.1221 89.4135C84.995 89.5872 85.8998 89.4981 86.7221 89.1575C87.5443 88.8169 88.2471 88.2401 88.7416 87.5001C89.2361 86.76 89.5 85.89 89.5 85C89.5 83.8065 89.0259 82.6619 88.182 81.818C87.3381 80.9741 86.1935 80.5 85 80.5Z" fill="#110529"/>
<path d="M195 85C195 73.9543 203.954 65 215 65C226.046 65 235 73.9543 235 85C235 96.0457 226.046 105 215 105C203.954 105 195 96.0457 195 85Z" fill="#38383D"/>
<circle cx="215" cy="85" r="9" stroke="white" stroke-width="1.5"/>
<path d="M215 80.5C214.11 80.5 213.24 80.7639 212.5 81.2584C211.76 81.7529 211.183 82.4557 210.843 83.2779C210.502 84.1002 210.413 85.005 210.586 85.8779C210.76 86.7508 211.189 87.5526 211.818 88.182C212.447 88.8113 213.249 89.2399 214.122 89.4135C214.995 89.5872 215.9 89.4981 216.722 89.1575C217.544 88.8169 218.247 88.2401 218.742 87.5001C219.236 86.76 219.5 85.89 219.5 85C219.5 83.8065 219.026 82.6619 218.182 81.818C217.338 80.9741 216.193 80.5 215 80.5Z" fill="white"/>
<rect x="72" y="120" width="26" height="26" rx="13" stroke="#49CC49" stroke-width="2"/>
<circle cx="85" cy="133" r="9" stroke="#110529" stroke-width="1.5"/>
<path d="M85 128.5C84.11 128.5 83.24 128.764 82.4999 129.258C81.7599 129.753 81.1831 130.456 80.8425 131.278C80.5019 132.1 80.4128 133.005 80.5865 133.878C80.7601 134.751 81.1887 135.553 81.818 136.182C82.4474 136.811 83.2492 137.24 84.1221 137.414C84.995 137.587 85.8998 137.498 86.7221 137.157C87.5443 136.817 88.2471 136.24 88.7416 135.5C89.2361 134.76 89.5 133.89 89.5 133C89.5 131.807 89.0259 130.662 88.182 129.818C87.3381 128.974 86.1935 128.5 85 128.5Z" fill="#110529"/>
<rect x="202" y="120" width="26" height="26" rx="13" stroke="#49CC49" stroke-width="2"/>
<circle cx="215" cy="133" r="9" stroke="white" stroke-width="1.5"/>
<path d="M215 128.5C214.11 128.5 213.24 128.764 212.5 129.258C211.76 129.753 211.183 130.456 210.843 131.278C210.502 132.1 210.413 133.005 210.586 133.878C210.76 134.751 211.189 135.553 211.818 136.182C212.447 136.811 213.249 137.24 214.122 137.414C214.995 137.587 215.9 137.498 216.722 137.157C217.544 136.817 218.247 136.24 218.742 135.5C219.236 134.76 219.5 133.89 219.5 133C219.5 131.807 219.026 130.662 218.182 129.818C217.338 128.974 216.193 128.5 215 128.5Z" fill="white"/>
</svg>
