<svg width="24" height="24" viewBox="0 0 24 24" fill="none" xmlns="http://www.w3.org/2000/svg">
<path d="M20.5 12C20.5 10.3189 20.0015 8.67547 19.0675 7.27766C18.1335 5.87984 16.806 4.79037 15.2528 4.14703C13.6996 3.50368 11.9906 3.33536 10.3417 3.66333C8.6929 3.9913 7.17834 4.80085 5.9896 5.9896C4.80085 7.17834 3.9913 8.6929 3.66333 10.3417C3.33536 11.9906 3.50368 13.6996 4.14703 15.2528C4.79037 16.806 5.87984 18.1335 7.27766 19.0675C8.18407 19.6731 9.19374 20.0957 10.25 20.3179V12.75H7V11.25H10.25V8C10.25 6.48122 11.4812 5.25 13 5.25C14.5188 5.25 15.75 6.48122 15.75 8V8.5H14.25V8C14.25 7.30964 13.6904 6.75 13 6.75C12.3096 6.75 11.75 7.30964 11.75 8V11.25H15V12.75H11.75V21.9969C9.85961 21.9496 8.01943 21.3672 6.4443 20.3147C4.79981 19.2159 3.51809 17.6541 2.76121 15.8268C2.00433 13.9996 1.8063 11.9889 2.19215 10.0491C2.578 8.10929 3.53041 6.32746 4.92894 4.92894C6.32746 3.53041 8.10929 2.578 10.0491 2.19215C11.9889 1.8063 13.9996 2.00433 15.8268 2.76121C17.6541 3.51809 19.2159 4.79981 20.3147 6.4443C21.4135 8.08879 22 10.0222 22 12H20.5Z" fill="#110529"/>
<path d="M19.0607 18L21.5303 15.5303L20.4697 14.4697L18 16.9393L15.5303 14.4697L14.4697 15.5303L16.9393 18L14.4697 20.4697L15.5303 21.5303L18 19.0607L20.4697 21.5303L21.5303 20.4697L19.0607 18Z" fill="#07AD3E"/>
</svg>
