<svg width="24" height="24" viewBox="0 0 24 24" fill="none" xmlns="http://www.w3.org/2000/svg">
<path d="M18 4.5C18 3.94772 17.5523 3.5 17 3.5C16.4477 3.5 16 3.94772 16 4.5C16 5.05228 16.4477 5.5 17 5.5C17.5523 5.5 18 5.05228 18 4.5Z" fill="#07AD3E"/>
<path d="M17 18.5C17.5523 18.5 18 18.9477 18 19.5C18 20.0523 17.5523 20.5 17 20.5C16.4477 20.5 16 20.0523 16 19.5C16 18.9477 16.4477 18.5 17 18.5Z" fill="#07AD3E"/>
<path d="M16 16.5C16.5523 16.5 17 16.9477 17 17.5C17 18.0523 16.5523 18.5 16 18.5C15.4477 18.5 15 18.0523 15 17.5C15 16.9477 15.4477 16.5 16 16.5Z" fill="#07AD3E"/>
<path d="M17 17.5C17 16.9477 17.4477 16.5 18 16.5C18.5523 16.5 19 16.9477 19 17.5C19 18.0523 18.5523 18.5 18 18.5C17.4477 18.5 17 18.0523 17 17.5Z" fill="#07AD3E"/>
<path d="M17 14.5C17.5523 14.5 18 14.9477 18 15.5C18 16.0523 17.5523 16.5 17 16.5C16.4477 16.5 16 16.0523 16 15.5C16 14.9477 16.4477 14.5 17 14.5Z" fill="#07AD3E"/>
<path fill-rule="evenodd" clip-rule="evenodd" d="M16 7C16.5523 7 17 7.44772 17 8C17 8.55228 16.5523 9 16 9C15.4477 9 15 8.55228 15 8C15 7.44772 15.4477 7 16 7ZM17 10C17 9.44772 16.5523 9 16 9C15.4477 9 15 9.44772 15 10C15 9.44772 14.5523 9 14 9C13.4477 9 13 9.44772 13 10C13 10.5523 13.4477 11 14 11C14.5523 11 15 10.5523 15 10C15 10.5523 15.4477 11 16 11C15.4477 11 15 11.4477 15 12C15 12.5523 15.4477 13 16 13C16.5523 13 17 12.5523 17 12C17 12.5523 17.4477 13 18 13C18.5523 13 19 12.5523 19 12C19 11.4477 18.5523 11 18 11C18.5523 11 19 10.5523 19 10C19 10.5523 19.4477 11 20 11C20.5523 11 21 10.5523 21 10C21 9.44772 20.5523 9 20 9C19.4477 9 19 9.44772 19 10C19 9.44772 18.5523 9 18 9C18.5523 9 19 8.55228 19 8C19 7.44772 18.5523 7 18 7C17.4477 7 17 7.44772 17 8C17 8.55228 17.4477 9 18 9C17.4477 9 17 9.44772 17 10ZM17 10C17 10.5523 17.4477 11 18 11C17.4477 11 17 11.4477 17 12C17 11.4477 16.5523 11 16 11C16.5523 11 17 10.5523 17 10Z" fill="#07AD3E"/>
<path d="M7 5.5C7.55228 5.5 8 5.05228 8 4.5C8 3.94772 7.55228 3.5 7 3.5C6.44772 3.5 6 3.94772 6 4.5C6 5.05228 6.44772 5.5 7 5.5Z" fill="#110529"/>
<path fill-rule="evenodd" clip-rule="evenodd" d="M8 15C8.55228 15 9 14.5523 9 14C9 14.5523 9.44772 15 10 15C10.5523 15 11 14.5523 11 14C11 13.4477 10.5523 13 10 13C9.44772 13 9 13.4477 9 14C9 13.4477 8.55228 13 8 13C8.55228 13 9 12.5523 9 12C9 11.4477 8.55228 11 8 11C7.44772 11 7 11.4477 7 12C7 11.4477 6.55228 11 6 11C5.44772 11 5 11.4477 5 12C5 12.5523 5.44772 13 6 13C5.44772 13 5 13.4477 5 14C5 13.4477 4.55228 13 4 13C3.44772 13 3 13.4477 3 14C3 14.5523 3.44772 15 4 15C4.55228 15 5 14.5523 5 14C5 14.5523 5.44772 15 6 15C5.44772 15 5 15.4477 5 16C5 16.5523 5.44772 17 6 17C6.55228 17 7 16.5523 7 16C7 16.5523 7.44772 17 8 17C8.55228 17 9 16.5523 9 16C9 15.4477 8.55228 15 8 15ZM8 15C7.44772 15 7 15.4477 7 16C7 15.4477 6.55228 15 6 15C6.55228 15 7 14.5523 7 14C7 14.5523 7.44772 15 8 15ZM7 14C7 13.4477 6.55228 13 6 13C6.55228 13 7 12.5523 7 12C7 12.5523 7.44772 13 8 13C7.44772 13 7 13.4477 7 14Z" fill="#110529"/>
<path d="M6 7.5C6.55228 7.5 7 7.05228 7 6.5C7 7.05228 7.44772 7.5 8 7.5C8.55228 7.5 9 7.05228 9 6.5C9 5.94772 8.55228 5.5 8 5.5C7.44772 5.5 7 5.94772 7 6.5C7 5.94772 6.55228 5.5 6 5.5C5.44772 5.5 5 5.94772 5 6.5C5 7.05228 5.44772 7.5 6 7.5Z" fill="#110529"/>
<path d="M7 9.5C7.55228 9.5 8 9.05228 8 8.5C8 7.94772 7.55228 7.5 7 7.5C6.44772 7.5 6 7.94772 6 8.5C6 9.05228 6.44772 9.5 7 9.5Z" fill="#110529"/>
<path d="M8 19.5C8 20.0523 7.55228 20.5 7 20.5C6.44772 20.5 6 20.0523 6 19.5C6 18.9477 6.44772 18.5 7 18.5C7.55228 18.5 8 18.9477 8 19.5Z" fill="#110529"/>
</svg>
