<svg width="24" height="24" viewBox="0 0 24 24" fill="none" xmlns="http://www.w3.org/2000/svg">
<path d="M6 20.25C4.75736 20.25 3.75 19.2426 3.75 18V6C3.75 4.75736 4.75736 3.75 6 3.75H18C19.2426 3.75 20.25 4.75736 20.25 6V9H21.75V6C21.75 3.92893 20.0711 2.25 18 2.25H6C3.92893 2.25 2.25 3.92893 2.25 6V18C2.25 20.0711 3.92893 21.75 6 21.75H11V20.25H6Z" fill="#110529"/>
<path d="M12 7.75H6V6.25H12V7.75Z" fill="#110529"/>
<path d="M6 11.75H9V10.25H6V11.75Z" fill="#110529"/>
<path d="M16.0001 9L21.5194 14.2986L20.4807 15.3807L16.7501 11.7993V22.0397H15.2501V11.7993L11.5194 15.3807L10.4807 14.2986L16.0001 9Z" fill="#110529"/>
</svg>
