<svg width="24" height="24" viewBox="0 0 24 24" fill="none" xmlns="http://www.w3.org/2000/svg">
<g clip-path="url(#clip0_6653_204)">
<path d="M14.9993 5.57655C14.5865 5.12702 14.131 4.71737 13.6392 4.35403C14.3854 4.1239 15.1783 4 16 4C20.4183 4 24 7.58172 24 12C24 16.4183 20.4183 20 16 20C11.5817 20 8 16.4183 8 12C8 10.221 8.58068 8.57764 9.56283 7.24909C10.0538 7.41052 10.5113 7.64593 10.9219 7.94215C10.2114 8.8302 9.7289 9.9087 9.56336 11.0888L12.0648 9.08771C12.3613 9.50088 12.5964 9.96112 12.7568 10.4551L9.57635 12.9994C9.65887 13.5341 9.80656 14.0473 10.0111 14.5307L12.998 12.1411C12.9721 13.0763 12.6894 13.9473 12.2179 14.6861L10.7626 15.8504C11.946 17.4573 13.8512 18.5 16 18.5C19.5899 18.5 22.5 15.5899 22.5 12C22.5 8.41015 19.5899 5.5 16 5.5C15.6597 5.5 15.3255 5.52615 14.9993 5.57655Z" fill="black"/>
<path d="M9.00069 18.4234C8.6745 18.4738 8.3403 18.5 8 18.5C4.41015 18.5 1.5 15.5899 1.5 12C1.5 8.41015 4.41015 5.5 8 5.5C11.5898 5.5 14.5 8.41015 14.5 12C14.5 13.535 13.9679 14.9458 13.0781 16.0578C13.4887 16.3541 13.9462 16.5895 14.4372 16.7509C15.4193 15.4224 16 13.779 16 12C16 7.58172 12.4183 4 8 4C3.58172 4 0 7.58172 0 12C0 16.4183 3.58172 20 8 20C8.82175 20 9.61456 19.8761 10.3608 19.646C9.86896 19.2826 9.41346 18.873 9.00069 18.4234Z" fill="#07AD3E"/>
</g>
<defs>
<clipPath id="clip0_6653_204">
<rect width="24" height="24" fill="white"/>
</clipPath>
</defs>
</svg>
