<svg width="24" height="24" viewBox="0 0 24 24" fill="none" xmlns="http://www.w3.org/2000/svg">
<path d="M9.25 6V9.25H6V10.75H9.25V14H10.75V10.75H14V9.25H10.75V6H9.25Z" fill="#110529"/>
<path fill-rule="evenodd" clip-rule="evenodd" d="M10 18C14.4183 18 18 14.4183 18 10C18 5.58172 14.4183 2 10 2C5.58172 2 2 5.58172 2 10C2 14.4183 5.58172 18 10 18ZM10 16.5C13.5899 16.5 16.5 13.5899 16.5 10C16.5 6.41015 13.5899 3.5 10 3.5C6.41015 3.5 3.5 6.41015 3.5 10C3.5 13.5899 6.41015 16.5 10 16.5Z" fill="#110529"/>
<path d="M21.4697 22.5303L16.4697 17.5303L17.5303 16.4697L22.5303 21.4697L21.4697 22.5303Z" fill="#110529"/>
</svg>
