
<svg width="400" height="212" viewBox="0 0 400 212" fill="none" xmlns="http://www.w3.org/2000/svg">
<ellipse cx="200" cy="180" rx="200" ry="32" fill="#9BABCC" fill-opacity="0.16"/>
<path d="M326.182 82.8271C326.51 98.4078 317.912 109.188 311.564 115.052L300.368 102.934C303.253 100.268 309.963 94.4176 309.463 83.834C308.833 70.504 297.919 65.5859 289.233 61.119C282.694 57.7561 285.047 49.4864 290.861 48.0712C295.502 46.9415 299.434 47.8676 304.246 50.2684C306.962 51.6235 309.605 53.4346 312.061 55.5813C319.992 62.5134 325.974 72.9454 326.182 82.8271Z" fill="white"/>
<path fill-rule="evenodd" clip-rule="evenodd" d="M290.684 47.3415C295.559 46.1548 299.679 47.1509 304.581 49.5964C307.361 50.9834 310.056 52.832 312.555 55.0157C320.598 62.046 326.719 72.6631 326.932 82.8105C327.266 98.6972 318.496 109.668 312.073 115.602L311.523 116.111L299.308 102.891L299.859 102.382C299.938 102.309 300.02 102.234 300.104 102.156C303.098 99.3986 309.183 93.7947 308.714 83.8685C308.135 71.6226 298.602 66.7499 290.089 62.3989C289.687 62.1934 289.287 61.989 288.89 61.785C285.316 59.9468 284.121 56.7054 284.678 53.7261C285.225 50.7942 287.468 48.1242 290.684 47.3415ZM303.911 50.9386C299.188 48.5825 295.444 47.7265 291.038 48.799C288.44 49.4315 286.6 51.604 286.152 54.0014C285.713 56.3515 286.612 58.9264 289.576 60.4511C290.008 60.6731 290.447 60.8968 290.891 61.1233C299.277 65.3991 309.591 70.6581 310.212 83.7977C310.699 94.1105 304.555 100.089 301.428 102.976L311.603 113.988C317.806 108.091 325.744 97.6766 325.432 82.842C325.23 73.226 319.387 62.9791 311.568 56.1451C309.154 54.0354 306.564 52.262 303.911 50.9386Z" fill="#E1E3EB"/>
<path d="M311.111 156.333C312.963 154.296 316.926 144.646 315.556 129.111C314.275 114.593 302.488 96.7398 282.778 91.5891C278.353 90.4327 273.528 89.9166 268.333 90.2222C264.776 90.4314 261.471 91.0119 258.333 91.8564C251.541 93.6847 245.532 96.7507 239.445 99.9675C233.976 102.857 228.444 105.869 222.222 108.214C219.584 109.208 216.823 110.083 213.889 110.778L207.222 111.333L198.55 146.889L190.556 179.667L205 184.111C210.788 185.163 223.554 183.724 230.552 178.848C231.301 178.326 232.156 177.962 233.065 177.874C245.706 176.651 255.344 173.36 263.889 168C266.996 169.281 271.415 169.667 274.445 169.667C272.963 170.407 269.834 172.668 271.667 176.333C273.889 180.778 284.529 182.091 296.667 176.889C308.333 171.889 312.222 164.111 312.778 161.333C313.222 159.111 312.037 156.889 311.111 156.333Z" fill="white"/>
<path fill-rule="evenodd" clip-rule="evenodd" d="M282.588 92.3147C278.24 91.1785 273.495 90.6699 268.378 90.9709C264.875 91.1769 261.621 91.7483 258.528 92.5806C251.826 94.3846 245.884 97.4129 239.795 100.631C239.364 100.858 238.932 101.087 238.499 101.317C233.454 103.989 228.266 106.737 222.487 108.916C219.823 109.92 217.03 110.804 214.062 111.508L214.007 111.52L207.823 112.036L191.452 179.158L205.178 183.381C207.958 183.877 212.479 183.788 217.193 182.964C221.932 182.135 226.752 180.582 230.123 178.233C230.955 177.653 231.931 177.23 232.993 177.128C244.949 175.971 254.163 172.954 262.306 168.09C260.539 167.181 258.793 165.954 257.417 164.891C256.554 164.225 255.824 163.613 255.31 163.168C255.052 162.946 254.849 162.764 254.708 162.638C254.667 162.6 254.63 162.567 254.6 162.54C254.58 162.521 254.562 162.505 254.547 162.491L254.505 162.452L254.489 162.438C254.489 162.438 254.489 162.437 255 161.889C255.512 161.34 255.512 161.34 255.512 161.34L255.514 161.342L255.523 161.351L255.561 161.386C255.595 161.417 255.646 161.463 255.713 161.524C255.846 161.644 256.042 161.818 256.291 162.034C256.79 162.465 257.497 163.058 258.334 163.704C260.018 165.005 262.177 166.483 264.175 167.307C267.144 168.531 271.444 168.917 274.445 168.917C276.583 168.917 279.006 168.514 281.089 167.842C283.214 167.156 284.825 166.243 285.511 165.328L286.711 166.228C285.731 167.535 283.731 168.566 281.55 169.269C279.387 169.967 276.887 170.394 274.629 170.416C273.954 170.776 273.03 171.423 272.439 172.317C271.836 173.228 271.551 174.425 272.338 175.998C272.791 176.905 273.71 177.72 275.109 178.341C276.503 178.961 278.326 179.366 280.488 179.479C284.81 179.706 290.39 178.763 296.371 176.199C307.84 171.284 311.541 163.693 312.043 161.186C312.231 160.245 312.076 159.282 311.761 158.484C311.434 157.655 310.988 157.134 310.725 156.976C310.533 156.861 310.402 156.665 310.369 156.443C310.337 156.22 310.405 155.995 310.556 155.829C310.936 155.411 311.491 154.516 312.09 153.111C312.681 151.723 313.294 149.883 313.811 147.617C314.844 143.086 315.487 136.868 314.809 129.177C313.553 114.945 301.965 97.378 282.588 92.3147ZM272.159 170.35C269.519 170.199 266.419 169.77 263.965 168.837C255.39 174.146 245.722 177.403 233.138 178.621C232.382 178.694 231.647 178.999 230.981 179.463C227.355 181.99 222.292 183.595 217.452 184.441C212.611 185.288 207.877 185.396 204.866 184.849L204.822 184.841L189.66 180.176L206.622 110.631L213.771 110.035C216.649 109.351 219.362 108.491 221.958 107.512C227.644 105.369 232.75 102.664 237.808 99.985C238.237 99.7578 238.666 99.5308 239.094 99.3043C245.18 96.0885 251.255 92.9847 258.139 91.1321C261.322 90.2755 264.677 89.686 268.29 89.4735C273.562 89.1633 278.465 89.6869 282.968 90.8634C303.013 96.1015 314.997 114.241 316.303 129.045C316.995 136.889 316.342 143.264 315.273 147.951C314.739 150.293 314.1 152.219 313.47 153.699C313.019 154.757 312.563 155.613 312.137 156.233C312.543 156.68 312.899 157.282 313.156 157.933C313.554 158.94 313.77 160.199 313.513 161.48C312.904 164.529 308.827 172.493 296.962 177.578C290.806 180.217 284.997 181.218 280.409 180.977C278.117 180.857 276.104 180.425 274.499 179.712C272.898 179 271.654 177.984 270.996 176.669C269.95 174.577 270.314 172.811 271.188 171.49C271.473 171.059 271.809 170.679 272.159 170.35Z" fill="#E1E3EB"/>
<path d="M207.222 111.333L213.889 110.778C216.822 110.083 219.584 109.208 222.222 108.214C228.444 105.869 233.976 102.857 239.444 99.9675C245.532 96.7507 251.54 93.6847 258.333 91.8564C261.471 91.0119 264.776 90.4314 268.333 90.2222C273.528 89.9166 278.353 90.4327 282.778 91.5891C286.667 97.4444 292.193 118.555 282.778 131.333C267.222 152.444 253.889 143 245.555 143C233.333 143 231.951 147.535 223.889 150.222C217.222 152.444 206.811 148.555 198.55 146.889L207.222 111.333Z" fill="#9BABCC" fill-opacity="0.16"/>
<path fill-rule="evenodd" clip-rule="evenodd" d="M282.306 92.2421C278.035 91.157 273.384 90.6764 268.377 90.9709C264.875 91.1769 261.621 91.7483 258.528 92.5806C251.826 94.3846 245.884 97.4129 239.795 100.631C239.364 100.858 238.932 101.087 238.498 101.317C233.453 103.989 228.266 106.737 222.487 108.916C219.823 109.92 217.03 110.804 214.062 111.508L214.007 111.52L207.823 112.036L199.463 146.313C201.281 146.701 203.187 147.181 205.108 147.665L205.24 147.698C207.485 148.263 209.752 148.831 211.966 149.279C216.426 150.18 220.522 150.554 223.652 149.511C226.367 148.606 228.25 147.516 230.133 146.426C231.002 145.923 231.871 145.42 232.821 144.935C235.811 143.41 239.33 142.25 245.556 142.25C247.413 142.25 249.503 142.697 251.693 143.166C252.077 143.248 252.464 143.33 252.853 143.412C255.507 143.965 258.364 144.469 261.425 144.334C267.477 144.068 274.504 141.297 282.174 130.888C286.726 124.71 287.703 116.454 287.02 108.933C286.355 101.61 284.133 95.1581 282.306 92.2421ZM284.341 92.8131C302.662 98.4477 313.591 115.379 314.808 129.177C315.487 136.868 314.844 143.086 313.811 147.617C313.294 149.883 312.681 151.723 312.089 153.111C311.491 154.516 310.936 155.411 310.556 155.829L311.666 156.838C312.213 156.237 312.847 155.162 313.47 153.699C314.1 152.219 314.739 150.293 315.273 147.951C316.342 143.264 316.995 136.889 316.303 129.045C314.996 114.241 303.012 96.1015 282.967 90.8634C278.465 89.6869 273.562 89.1633 268.289 89.4735C264.677 89.686 261.321 90.2755 258.138 91.1321C251.255 92.9847 245.18 96.0885 239.094 99.3043C238.665 99.5308 238.237 99.7578 237.808 99.985C232.75 102.664 227.643 105.369 221.958 107.512C219.362 108.491 216.649 109.351 213.77 110.035L206.622 110.631L197.636 147.47L198.402 147.624C200.412 148.029 202.554 148.569 204.76 149.124L204.874 149.153C207.113 149.716 209.414 150.293 211.669 150.749C216.147 151.654 220.589 152.113 224.126 150.934C226.988 149.98 229.086 148.767 231.029 147.645C231.866 147.161 232.675 146.694 233.503 146.271C236.275 144.857 239.559 143.75 245.556 143.75C247.241 143.75 249.146 144.156 251.348 144.626C251.738 144.709 252.137 144.795 252.547 144.88C255.223 145.438 258.233 145.976 261.491 145.833C268.078 145.543 275.496 142.48 283.382 131.778C288.244 125.179 289.212 116.49 288.514 108.797C287.921 102.273 286.118 96.3335 284.341 92.8131Z" fill="#E1E3EB"/>
<path d="M126.667 116.333L217.778 105.777L210 112.444L216.667 118L208.889 121.888L216.667 130.222L208.889 135.222L215 140.777L206.667 146.333L212.222 153.555L204.445 161.888L208.889 166.888L202.778 171.888L208.889 178.555L202.778 183.555L208.889 191.333C173.148 190.592 101.333 187.888 100 187C98.3334 185.888 97.3334 164 99.0001 157.888L126.667 116.333Z" fill="white"/>
<path fill-rule="evenodd" clip-rule="evenodd" d="M218.277 105.217C218.436 105.36 218.528 105.563 218.528 105.777V109.666H217.028V107.408L211.162 112.436L217.147 117.423C217.341 117.585 217.441 117.835 217.412 118.086C217.383 118.337 217.229 118.557 217.002 118.67L210.122 122.11L217.215 129.71C217.367 129.873 217.439 130.094 217.411 130.315C217.383 130.535 217.259 130.732 217.072 130.853L210.117 135.324L215.505 140.222C215.675 140.378 215.765 140.603 215.748 140.833C215.731 141.064 215.608 141.273 215.416 141.401L207.751 146.512L212.817 153.098C213.04 153.389 213.021 153.799 212.771 154.067L205.459 161.901L209.45 166.39C209.585 166.543 209.653 166.744 209.637 166.948C209.62 167.151 209.522 167.34 209.364 167.469L203.867 171.967L209.442 178.048C209.581 178.2 209.652 178.403 209.637 178.609C209.622 178.814 209.524 179.005 209.364 179.136L203.822 183.67L209.479 190.87C209.658 191.098 209.69 191.408 209.56 191.668C209.431 191.927 209.163 192.089 208.873 192.083C190.997 191.712 164.103 190.851 141.513 189.971C130.217 189.531 119.995 189.087 112.511 188.696C108.77 188.501 105.71 188.32 103.54 188.159C102.457 188.078 101.588 188.002 100.966 187.932C100.656 187.897 100.396 187.862 100.197 187.827C100.099 187.809 100.003 187.79 99.9189 187.767C99.8607 187.751 99.7162 187.712 99.5841 187.624C99.2897 187.427 99.1169 187.102 99.0099 186.86C98.8879 186.584 98.7805 186.244 98.6837 185.866C98.4892 185.107 98.3154 184.103 98.1627 182.939C97.8567 180.605 97.6262 177.55 97.5007 174.348C97.3751 171.146 97.3539 167.782 97.4694 164.83C97.5841 161.897 97.8354 159.308 98.2765 157.691C98.2977 157.614 98.3312 157.54 98.3758 157.473L126.042 115.917C126.165 115.734 126.361 115.613 126.58 115.588L217.692 105.032C217.904 105.008 218.117 105.075 218.277 105.217ZM202.504 171.143L207.809 166.803L203.884 162.387C203.627 162.097 203.632 161.66 203.896 161.377L210.432 154.374L99.595 158.616C99.2764 160.087 99.0696 162.297 98.9683 164.888C98.8546 167.794 98.8751 171.117 98.9995 174.29C99.124 177.463 99.3518 180.47 99.65 182.744C99.7994 183.884 99.964 184.82 100.137 185.494C100.224 185.833 100.307 186.084 100.382 186.254C100.398 186.291 100.413 186.32 100.425 186.343C100.436 186.345 100.447 186.347 100.459 186.35C100.613 186.377 100.836 186.408 101.134 186.441C101.728 186.509 102.574 186.583 103.651 186.663C105.804 186.822 108.852 187.004 112.589 187.199C120.063 187.588 130.278 188.033 141.571 188.472C163.498 189.326 189.477 190.163 207.32 190.549L202.188 184.018C201.936 183.697 201.987 183.233 202.303 182.975L207.8 178.477L202.454 172.645L113.881 174.299L103.319 185.297L102.237 184.258L112.517 173.554L101.235 161.74L102.32 160.704L113.871 172.799L202.504 171.143ZM100.291 186.313C100.291 186.313 100.295 186.314 100.302 186.317C100.294 186.314 100.291 186.313 100.291 186.313ZM100.437 157.083L210.742 152.861L206.072 146.79C205.946 146.626 205.893 146.416 205.927 146.211C205.961 146.006 206.078 145.824 206.251 145.709L213.785 140.686L208.384 135.777C208.212 135.62 208.122 135.392 208.142 135.159C208.161 134.927 208.287 134.717 208.483 134.591L215.505 130.077L208.341 122.4C208.179 122.227 208.109 121.988 208.151 121.756C208.193 121.523 208.342 121.323 208.554 121.218L215.306 117.842L209.52 113.02C209.35 112.879 209.252 112.67 209.25 112.449C209.249 112.228 209.344 112.018 209.512 111.875L215.427 106.805L127.098 117.038L100.437 157.083Z" fill="#E1E3EB"/>
<path fill-rule="evenodd" clip-rule="evenodd" d="M67.4697 124.53L64 121.061L65.0607 120L68.5303 123.47L72 120L73.0607 121.061L69.591 124.53L73.0607 128L72 129.061L68.5303 125.591L65.0607 129.061L64 128L67.4697 124.53Z" fill="#E1E3EB"/>
<path fill-rule="evenodd" clip-rule="evenodd" d="M142.47 63.5303L140 61.0607L141.061 60L143.53 62.4697L146 60L147.061 61.0607L144.591 63.5303L147.061 66L146 67.0607L143.53 64.591L141.061 67.0607L140 66L142.47 63.5303Z" fill="#E1E3EB"/>
<path fill-rule="evenodd" clip-rule="evenodd" d="M355.939 143L353.47 140.53L354.53 139.47L357 141.939L359.47 139.47L360.53 140.53L358.061 143L360.53 145.47L359.47 146.53L357 144.061L354.53 146.53L353.47 145.47L355.939 143Z" fill="#E1E3EB"/>
<path fill-rule="evenodd" clip-rule="evenodd" d="M259.75 1.5C258.507 1.5 257.5 2.50736 257.5 3.75C257.5 4.99264 258.507 6 259.75 6C260.993 6 262 4.99264 262 3.75C262 2.50736 260.993 1.5 259.75 1.5ZM256 3.75C256 1.67893 257.679 0 259.75 0C261.821 0 263.5 1.67893 263.5 3.75C263.5 5.82107 261.821 7.5 259.75 7.5C257.679 7.5 256 5.82107 256 3.75Z" fill="#E1E3EB"/>
<path fill-rule="evenodd" clip-rule="evenodd" d="M110.722 92.5273C110.308 92.5273 109.972 92.8631 109.972 93.2773C109.972 93.6916 110.308 94.0273 110.722 94.0273C111.136 94.0273 111.472 93.6916 111.472 93.2773C111.472 92.8631 111.136 92.5273 110.722 92.5273ZM108.472 93.2773C108.472 92.0347 109.48 91.0273 110.722 91.0273C111.965 91.0273 112.972 92.0347 112.972 93.2773C112.972 94.52 111.965 95.5273 110.722 95.5273C109.48 95.5273 108.472 94.52 108.472 93.2773Z" fill="#E1E3EB"/>
<path d="M182.483 8.15261C185.902 8.50893 189.011 9.45325 191.811 10.9856C194.614 12.4856 196.959 14.4276 198.846 16.8114C200.765 19.1986 202.17 21.9402 203.06 25.0362C203.949 28.1322 204.208 31.4398 203.835 34.9592C203.66 36.6058 203.338 38.2533 202.867 39.9017C202.432 41.5212 201.785 43.1187 200.927 44.6941C200.105 46.2406 199.024 47.7437 197.684 49.2037C196.381 50.6347 194.773 51.985 192.861 53.2547C191.197 54.3544 189.407 55.4082 187.49 56.4162C185.605 57.4276 183.855 58.5673 182.24 59.8352C180.657 61.1065 179.361 62.6199 178.352 64.3755C177.343 66.131 176.913 68.3223 177.063 70.9494L168.273 70.0332C168.065 68.5752 168.025 67.2489 168.152 66.0543C168.36 64.0848 168.872 62.359 169.688 60.8771C170.503 59.3952 171.5 58.0628 172.679 56.8799C173.893 55.6681 175.226 54.5829 176.677 53.6243C178.164 52.6367 179.666 51.667 181.182 50.7152C182.731 49.7668 184.234 48.7809 185.692 47.7577C187.182 46.7379 188.52 45.6043 189.706 44.3568C190.927 43.0804 191.951 41.6529 192.777 40.0741C193.602 38.4953 194.126 36.6566 194.349 34.5579C194.571 32.4592 194.43 30.3717 193.926 28.2952C193.422 26.2187 192.585 24.336 191.414 22.6471C190.276 20.9616 188.813 19.5522 187.024 18.4191C185.238 17.2536 183.174 16.5487 180.83 16.3044C178.648 16.077 176.649 16.3093 174.831 17.0012C173.049 17.6642 171.479 18.6594 170.121 19.9868C168.795 21.3175 167.721 22.9031 166.901 24.7436C166.084 26.5518 165.566 28.4891 165.347 30.5555C165.268 31.2981 165.201 32.0908 165.144 32.9337C165.124 33.7476 165.147 34.6151 165.214 35.5361L156.383 35.9377C156.145 34.7703 156.017 33.6471 156 32.568C156.015 31.4924 156.078 30.438 156.187 29.4048C156.529 26.176 157.422 23.1843 158.866 20.4295C160.343 17.6781 162.237 15.3294 164.55 13.3833C166.863 11.4372 169.551 9.98732 172.614 9.03353C175.678 8.07975 178.967 7.78611 182.483 8.15261ZM177.694 83.1588C177.616 83.9014 177.396 84.5803 177.034 85.1955C176.702 85.8464 176.266 86.3886 175.726 86.822C175.187 87.2554 174.561 87.5656 173.85 87.7526C173.168 87.9753 172.453 88.0477 171.704 87.9696C170.956 87.8916 170.255 87.6716 169.602 87.3098C168.978 86.9836 168.448 86.5529 168.011 86.0177C167.574 85.4825 167.245 84.8606 167.024 84.152C166.799 83.4757 166.726 82.7663 166.805 82.0237C166.883 81.2811 167.104 80.6022 167.465 79.987C167.83 79.3395 168.282 78.799 168.822 78.3656C169.361 77.9322 169.972 77.6042 170.654 77.3814C171.368 77.1621 172.1 77.0915 172.849 77.1695C173.598 77.2476 174.282 77.4658 174.902 77.8243C175.555 78.1861 176.1 78.6347 176.537 79.1699C176.974 79.7051 177.287 80.3253 177.476 81.0305C177.7 81.7068 177.773 82.4162 177.694 83.1588Z" fill="#9BABCC" fill-opacity="0.16"/>
<path fill-rule="evenodd" clip-rule="evenodd" d="M182.406 8.89856C178.981 8.54153 175.794 8.82904 172.837 9.74962C169.863 10.6756 167.265 12.0792 165.033 13.9572C162.796 15.8393 160.962 18.1118 159.529 20.7809C158.132 23.4474 157.266 26.3462 156.933 29.4838C156.826 30.4898 156.765 31.5176 156.75 32.5673C156.764 33.3991 156.847 34.2628 157 35.1589L164.42 34.8215C164.388 34.1595 164.379 33.5239 164.395 32.9148L164.395 32.8992L164.396 32.8836C164.453 32.0323 164.521 31.2298 164.601 30.4764C164.828 28.335 165.366 26.3203 166.217 24.4364C167.072 22.5194 168.195 20.857 169.589 19.4574L169.597 19.4503C171.029 18.0503 172.688 16.9988 174.567 16.2993C176.507 15.5613 178.625 15.3206 180.907 15.5584C183.355 15.8136 185.535 16.5527 187.429 17.7882C189.299 18.9731 190.836 20.4519 192.033 22.2237C193.257 23.9904 194.13 25.9573 194.655 28.1183C195.179 30.2774 195.326 32.4515 195.094 34.6369C194.864 36.8125 194.318 38.7453 193.441 40.4216C192.583 42.0622 191.519 43.5473 190.248 44.8749C189.026 46.1609 187.649 47.3271 186.119 48.3742C184.651 49.4048 183.137 50.3976 181.577 51.3525C180.068 52.3003 178.573 53.2658 177.092 54.249L177.091 54.25C175.681 55.1812 174.387 56.2346 173.209 57.4102C172.081 58.5424 171.126 59.8179 170.345 61.2387C169.585 62.6196 169.097 64.2462 168.897 66.1333C168.795 67.0989 168.808 68.1696 168.941 69.3488L176.285 70.1142C176.263 67.7568 176.721 65.7079 177.702 64.0018C178.757 62.165 180.115 60.5801 181.77 59.2504L181.777 59.2452C183.428 57.9495 185.214 56.7864 187.135 55.7554L187.141 55.7524C189.038 54.7551 190.806 53.7139 192.447 52.6291C194.317 51.3876 195.875 50.0763 197.13 48.6986L197.132 48.6966C198.434 47.2775 199.476 45.8256 200.265 44.342L200.268 44.3353C201.1 42.8082 201.724 41.2657 202.142 39.7072L202.145 39.6957C202.605 38.0873 202.919 36.4823 203.089 34.8801C203.453 31.4474 203.199 28.2377 202.339 25.2434C201.475 22.2381 200.115 19.5869 198.262 17.2813L198.258 17.2769C196.438 14.9774 194.174 13.1007 191.457 11.6469L191.451 11.6435C188.745 10.1626 185.733 9.24536 182.406 8.89856ZM172.392 8.31743C175.562 7.33044 178.954 7.03067 182.561 7.40664C186.07 7.77235 189.275 8.74325 192.168 10.3259C195.055 11.8716 197.48 13.8775 199.432 16.3439C201.416 18.8122 202.865 21.6434 203.78 24.829C204.699 28.0267 204.963 31.4323 204.581 35.0382C204.402 36.7274 204.071 38.4156 203.589 40.1022C203.138 41.7795 202.47 43.4287 201.587 45.0495C200.732 46.6572 199.614 48.2101 198.238 49.7093C196.886 51.193 195.23 52.582 193.276 53.8795L193.275 53.8803C191.589 54.9944 189.778 56.0604 187.842 57.0786C185.996 58.0693 184.285 59.1841 182.706 60.4225C181.197 61.635 179.964 63.076 179.002 64.7492C178.085 66.3457 177.668 68.3821 177.812 70.9068L177.862 71.7868L167.613 70.7184L167.531 70.1389C167.316 68.6329 167.271 67.2433 167.406 65.9752C167.623 63.9233 168.16 62.0984 169.031 60.5156C169.879 58.9729 170.918 57.5838 172.147 56.3505L172.149 56.3489C173.399 55.1015 174.771 53.9847 176.263 52.999C177.755 52.0081 179.262 51.0351 180.783 50.08L180.79 50.0756C182.326 49.1351 183.816 48.1579 185.261 47.1438L185.269 47.1387C186.718 46.1472 188.015 45.0475 189.162 43.8401L189.164 43.8382C190.336 42.6133 191.319 41.2434 192.112 39.7265C192.887 38.2452 193.389 36.5007 193.603 34.4789C193.816 32.4669 193.681 30.4659 193.197 28.4721C192.714 26.4816 191.914 24.6844 190.798 23.0743L190.793 23.0668C189.715 21.4705 188.328 20.1328 186.623 19.0527L186.614 19.0472C184.938 17.9535 182.99 17.2837 180.752 17.0504C178.672 16.8336 176.793 17.0571 175.098 17.7021L175.093 17.7041C173.411 18.3301 171.931 19.2674 170.648 20.5197C169.393 21.7805 168.371 23.2875 167.586 25.049L167.585 25.0524C166.802 26.7844 166.304 28.6438 166.093 30.6345C166.016 31.3617 165.95 32.1395 165.894 32.968C165.875 33.7502 165.897 34.5879 165.962 35.4817L166.018 36.2504L155.777 36.7161L155.649 36.0877C155.402 34.8795 155.268 33.71 155.25 32.5801L155.25 32.5687L155.25 32.5574C155.266 31.4597 155.329 30.3824 155.441 29.3257C155.793 26.0071 156.712 22.9235 158.202 20.0813L158.205 20.0748C159.725 17.2426 161.68 14.8187 164.067 12.8094C166.461 10.7953 169.239 9.29902 172.392 8.31743ZM170.88 78.0965C170.284 78.2921 169.756 78.577 169.291 78.9504C168.832 79.3196 168.44 79.7847 168.118 80.3551L168.112 80.3669C167.807 80.8857 167.619 81.4613 167.551 82.1027C167.483 82.7442 167.546 83.3457 167.735 83.9157L167.74 83.9285C167.934 84.5525 168.22 85.0877 168.592 85.5433C168.963 85.9985 169.414 86.3651 169.949 86.6451L169.958 86.6494L169.966 86.6538C170.529 86.9663 171.133 87.156 171.782 87.2237C172.431 87.2913 173.041 87.2281 173.617 87.0397L173.638 87.0329L173.66 87.0273C174.275 86.8653 174.804 86.6006 175.257 86.2372C175.709 85.8738 176.079 85.4164 176.366 84.8545L176.376 84.8347L176.388 84.8156C176.692 84.2968 176.881 83.7212 176.949 83.0798C177.017 82.4383 176.953 81.8367 176.764 81.2668L176.757 81.2457L176.751 81.2242C176.588 80.6158 176.322 80.0925 175.956 79.6442C175.584 79.1885 175.115 78.7997 174.539 78.4803L174.527 78.4738C174.003 78.1707 173.42 77.9832 172.771 77.9155C172.124 77.848 171.496 77.9085 170.88 78.0965ZM170.434 76.6645C171.245 76.4153 172.078 76.3351 172.927 76.4236C173.773 76.5117 174.557 76.7597 175.272 77.1716C175.999 77.5753 176.618 78.0824 177.118 78.6955C177.622 79.3121 177.979 80.022 178.194 80.8153C178.449 81.5915 178.529 82.4017 178.44 83.2378C178.352 84.074 178.104 84.8497 177.692 85.5562C177.316 86.2875 176.817 86.9078 176.196 87.4067C175.575 87.9056 174.86 88.2596 174.062 88.4723C173.282 88.724 172.467 88.8032 171.627 88.7156C170.781 88.6275 169.986 88.3787 169.246 87.9701C168.538 87.5983 167.93 87.1049 167.43 86.492C166.929 85.8789 166.557 85.1725 166.31 84.3818C166.052 83.6012 165.97 82.786 166.059 81.9446C166.148 81.1033 166.399 80.3231 166.815 79.6131C167.223 78.891 167.734 78.2771 168.352 77.7809C168.965 77.2887 169.657 76.9183 170.421 76.6685L170.434 76.6645Z" fill="#E1E3EB"/>
<path fill-rule="evenodd" clip-rule="evenodd" d="M237.778 54.9713C236.369 55.0274 234.73 55.7002 233.35 58.0909L232.051 57.3409C233.67 54.5354 235.76 53.5504 237.719 53.4725C239.609 53.3974 241.261 54.1715 242.091 54.6506C242.921 55.1297 244.417 56.1729 245.297 57.848C246.209 59.5831 246.401 61.8854 244.781 64.6909C243.878 66.2544 242.816 67.0959 241.641 67.5401C240.616 67.9279 239.535 67.9941 238.567 68.0533C238.473 68.0591 238.379 68.0648 238.287 68.0708C237.211 68.1402 236.241 68.2388 235.31 68.6789C234.4 69.1093 233.459 69.9017 232.546 71.4832L232.246 72.0028L230.947 71.2528L231.247 70.7332C232.284 68.9371 233.435 67.9062 234.669 67.3229C235.882 66.7493 237.108 66.6437 238.191 66.5739C238.275 66.5684 238.359 66.5632 238.441 66.558C239.453 66.4944 240.308 66.4406 241.111 66.1371C241.93 65.8273 242.735 65.2352 243.482 63.9409C244.862 61.5502 244.626 59.7946 243.969 58.5458C243.282 57.2371 242.07 56.3705 241.341 55.9496C240.612 55.5287 239.256 54.9126 237.778 54.9713ZM228.547 75.4097L229.147 74.3705L230.446 75.1205L229.846 76.1597L228.547 75.4097Z" fill="#E1E3EB"/>
<path fill-rule="evenodd" clip-rule="evenodd" d="M89.295 67.1843C88.2612 69.1515 87.9214 71.8839 90.0239 75.5255L88.7248 76.2755C86.3829 72.2191 86.6778 68.9399 87.9672 66.4865C89.2251 64.0931 91.3731 62.5901 92.5783 61.8943C93.7834 61.1985 96.159 60.0898 98.8607 60.1971C101.63 60.3072 104.618 61.6913 106.959 65.7477C108.259 67.9993 108.531 69.9018 108.246 71.6478C107.993 73.1941 107.302 74.5805 106.658 75.8735C106.596 75.9973 106.535 76.1203 106.475 76.2425C105.766 77.6764 105.144 79.0481 105.013 80.6434C104.884 82.2161 105.228 84.0825 106.611 86.4771L107.055 87.2469L105.756 87.9969L105.312 87.2271C103.805 84.6179 103.36 82.4499 103.518 80.5206C103.675 78.6141 104.418 77.0166 105.13 75.5776C105.187 75.4621 105.244 75.3478 105.3 75.2346C105.962 73.9021 106.551 72.7168 106.765 71.4057C106.99 70.0348 106.805 68.4801 105.66 66.4977C103.558 62.8562 101.022 61.7842 98.8012 61.6959C96.513 61.605 94.4325 62.5558 93.3283 63.1934C92.224 63.8309 90.3604 65.1573 89.295 67.1843Z" fill="#E1E3EB"/>
</svg>
