<svg width="64" height="64" viewBox="0 0 64 64" fill="none" xmlns="http://www.w3.org/2000/svg">
<rect x="5" y="9" width="1" height="1" fill="#110529"/>
<rect x="5" y="12" width="1" height="1" fill="#110529"/>
<rect x="5" y="15" width="1" height="1" fill="#110529"/>
<rect x="5" y="18" width="1" height="1" fill="#110529"/>
<rect x="5" y="21" width="1" height="1" fill="#110529"/>
<rect x="5" y="24" width="1" height="1" fill="#110529"/>
<rect x="5" y="27" width="1" height="1" fill="#110529"/>
<rect x="5" y="30" width="1" height="1" fill="#110529"/>
<rect x="5" y="33" width="1" height="1" fill="#110529"/>
<rect x="5" y="36" width="1" height="1" fill="#110529"/>
<rect x="5" y="39" width="1" height="1" fill="#110529"/>
<rect x="5" y="42" width="1" height="1" fill="#110529"/>
<rect x="5" y="45" width="1" height="1" fill="#110529"/>
<rect x="5" y="48" width="1" height="1" fill="#110529"/>
<rect x="5" y="51" width="1" height="1" fill="#110529"/>
<rect x="5" y="54" width="1" height="1" fill="#110529"/>
<rect x="5" y="57" width="54" height="1" fill="#110529"/>
<path d="M9.5 57.5H16.5L16.5 37C16.5 36.7239 16.2761 36.5 16 36.5H10C9.72386 36.5 9.5 36.7239 9.5 37L9.5 57.5Z" fill="#DEDBFF" stroke="#110529"/>
<path d="M16.5 57.5H23.5V43C23.5 42.7239 23.2761 42.5 23 42.5H17C16.7239 42.5 16.5 42.7239 16.5 43L16.5 57.5Z" fill="#DEDBFF" stroke="#110529"/>
<path d="M23.5 57.5H30.5L30.5 27C30.5 26.7239 30.2761 26.5 30 26.5H24C23.7239 26.5 23.5 26.7239 23.5 27L23.5 57.5Z" fill="#DEDBFF" stroke="#110529"/>
<rect x="0.5" y="-0.5" width="7" height="44" rx="0.5" transform="matrix(1 0 0 -1 30 57)" fill="#DEDBFF" stroke="#110529"/>
<rect x="0.5" y="-0.5" width="7" height="37" rx="0.5" transform="matrix(1 0 0 -1 37 57)" fill="#DEDBFF" stroke="#110529"/>
<path d="M44.5 57.5H51.5V33C51.5 32.7239 51.2761 32.5 51 32.5H45C44.7239 32.5 44.5 32.7239 44.5 33V57.5Z" fill="#DEDBFF" stroke="#110529"/>
<path d="M51.5 57.5H58.5V27C58.5 26.7239 58.2761 26.5 58 26.5H52C51.7239 26.5 51.5 26.7239 51.5 27L51.5 57.5Z" fill="#DEDBFF" stroke="#110529"/>
<path d="M9.5 33C23 33 21.5 9.5 34 9.5C44 9.5 46 22.9999 58.5 22.9999" stroke="#110529" stroke-linecap="square"/>
</svg>
