<svg width="16" height="16" viewBox="0 0 16 16" fill="none" xmlns="http://www.w3.org/2000/svg">
<path d="M0.0372314 13H1.55623L2.29123 10.725H6.42823L7.17723 13H8.69623L5.42023 2.92H3.31323L0.0372314 13ZM2.73923 9.353L4.34923 4.383L5.98023 9.353H2.73923Z" fill="#07AD3E"/>
<path d="M11.3871 13.21C12.6121 13.21 13.4871 12.79 14.1101 11.901V13H15.4051V8.345C15.4051 7.715 15.3771 7.169 15.1391 6.672C14.6701 5.678 13.6201 5.23 12.2691 5.23C10.5191 5.23 9.46908 6.056 9.10508 7.351L10.4701 7.771C10.7291 6.931 11.4571 6.581 12.2551 6.581C13.4381 6.581 13.9141 7.071 13.9631 8.114C12.7381 8.282 11.4921 8.443 10.6171 8.702C9.44808 9.073 8.83208 9.801 8.83208 10.942C8.83208 12.174 9.71408 13.21 11.3871 13.21ZM10.2811 10.928C10.2811 10.333 10.7221 10.011 11.3241 9.808C11.9611 9.619 12.8081 9.5 13.9491 9.332C13.9421 9.682 13.9141 10.165 13.7951 10.515C13.6271 11.25 12.8921 12.013 11.6461 12.013C10.7081 12.013 10.2811 11.516 10.2811 10.928Z" fill="#07AD3E"/>
</svg>
