<svg width="16" height="16" viewBox="0 0 16 16" fill="none" xmlns="http://www.w3.org/2000/svg">
<path fill-rule="evenodd" clip-rule="evenodd" d="M12.591 2.53029C11.7123 1.6516 10.2876 1.65161 9.40896 2.53031L1.61612 10.3232C1.3817 10.5576 1.25 10.8755 1.25 11.2071V13.4999C1.25 14.1903 1.80965 14.7499 2.5 14.7499L14 14.75V13.25L6.81059 13.25L13.4697 6.59091C14.3483 5.71223 14.3483 4.28762 13.4696 3.40895L12.591 2.53029ZM2.75 11.3106L8.85711 5.2035L10.7964 7.14283L4.68933 13.2499H2.75V11.3106ZM12.409 5.53027L11.8571 6.08216L9.91777 4.14284L10.4696 3.59095C10.7625 3.29805 11.2374 3.29805 11.5303 3.59095L12.409 4.46961C12.7019 4.7625 12.7019 5.23737 12.409 5.53027Z" fill="#110529"/>
</svg>
