<svg width="24" height="24" viewBox="0 0 24 24" fill="none" xmlns="http://www.w3.org/2000/svg">
<mask id="path-1-inside-1_6128_12051" fill="white">
<path fill-rule="evenodd" clip-rule="evenodd" d="M4 9.5C3.44772 9.5 3 9.94772 3 10.5L3 13.5C3 14.0523 3.44772 14.5 4 14.5H7C7.55228 14.5 8 14.0523 8 13.5V10.5C8 9.94772 7.55228 9.5 7 9.5H4ZM10.5 9.5C9.94772 9.5 9.5 9.94772 9.5 10.5V13.5C9.5 14.0523 9.94772 14.5 10.5 14.5L13.5 14.5C14.0523 14.5 14.5 14.0523 14.5 13.5V10.5C14.5 9.94772 14.0523 9.5 13.5 9.5H10.5ZM3 17C3 16.4477 3.44772 16 4 16H7C7.55228 16 8 16.4477 8 17L8 20C8 20.5523 7.55228 21 7 21H4C3.44772 21 3 20.5523 3 20L3 17ZM10.5 16C9.94772 16 9.5 16.4477 9.5 17L9.5 20C9.5 20.5523 9.94772 21 10.5 21H13.5C14.0523 21 14.5 20.5523 14.5 20V17C14.5 16.4477 14.0523 16 13.5 16L10.5 16Z"/>
</mask>
<path fill-rule="evenodd" clip-rule="evenodd" d="M4 9.5C3.44772 9.5 3 9.94772 3 10.5L3 13.5C3 14.0523 3.44772 14.5 4 14.5H7C7.55228 14.5 8 14.0523 8 13.5V10.5C8 9.94772 7.55228 9.5 7 9.5H4ZM10.5 9.5C9.94772 9.5 9.5 9.94772 9.5 10.5V13.5C9.5 14.0523 9.94772 14.5 10.5 14.5L13.5 14.5C14.0523 14.5 14.5 14.0523 14.5 13.5V10.5C14.5 9.94772 14.0523 9.5 13.5 9.5H10.5ZM3 17C3 16.4477 3.44772 16 4 16H7C7.55228 16 8 16.4477 8 17L8 20C8 20.5523 7.55228 21 7 21H4C3.44772 21 3 20.5523 3 20L3 17ZM10.5 16C9.94772 16 9.5 16.4477 9.5 17L9.5 20C9.5 20.5523 9.94772 21 10.5 21H13.5C14.0523 21 14.5 20.5523 14.5 20V17C14.5 16.4477 14.0523 16 13.5 16L10.5 16Z" fill="white"/>
<path d="M4.5 10.5C4.5 10.7761 4.27614 11 4 11V8C2.61929 8 1.5 9.11929 1.5 10.5H4.5ZM4.5 13.5L4.5 10.5H1.5L1.5 13.5H4.5ZM4 13C4.27614 13 4.5 13.2239 4.5 13.5H1.5C1.5 14.8807 2.61929 16 4 16L4 13ZM7 13H4L4 16H7V13ZM6.5 13.5C6.5 13.2239 6.72386 13 7 13V16C8.38071 16 9.5 14.8807 9.5 13.5H6.5ZM6.5 10.5V13.5H9.5V10.5L6.5 10.5ZM7 11C6.72386 11 6.5 10.7761 6.5 10.5L9.5 10.5C9.5 9.11929 8.38071 8 7 8V11ZM4 11H7V8L4 8V11ZM11 10.5C11 10.7761 10.7761 11 10.5 11V8C9.11929 8 8 9.11929 8 10.5L11 10.5ZM11 13.5V10.5L8 10.5V13.5L11 13.5ZM10.5 13C10.7761 13 11 13.2239 11 13.5L8 13.5C8 14.8807 9.11929 16 10.5 16V13ZM13.5 13H10.5V16L13.5 16L13.5 13ZM13 13.5C13 13.2239 13.2239 13 13.5 13L13.5 16C14.8807 16 16 14.8807 16 13.5H13ZM13 10.5V13.5H16V10.5H13ZM13.5 11C13.2239 11 13 10.7761 13 10.5H16C16 9.11929 14.8807 8 13.5 8V11ZM10.5 11H13.5V8L10.5 8V11ZM4 14.5C2.61929 14.5 1.5 15.6193 1.5 17H4.5C4.5 17.2761 4.27614 17.5 4 17.5L4 14.5ZM7 14.5H4L4 17.5H7V14.5ZM9.5 17C9.5 15.6193 8.38071 14.5 7 14.5V17.5C6.72386 17.5 6.5 17.2761 6.5 17H9.5ZM9.5 20L9.5 17H6.5V20H9.5ZM7 22.5C8.38071 22.5 9.5 21.3807 9.5 20H6.5C6.5 19.7239 6.72386 19.5 7 19.5V22.5ZM4 22.5H7V19.5H4L4 22.5ZM1.5 20C1.5 21.3807 2.61929 22.5 4 22.5L4 19.5C4.27614 19.5 4.5 19.7239 4.5 20H1.5ZM1.5 17L1.5 20H4.5L4.5 17H1.5ZM11 17C11 17.2761 10.7761 17.5 10.5 17.5V14.5C9.11929 14.5 8 15.6193 8 17H11ZM11 20V17H8L8 20H11ZM10.5 19.5C10.7761 19.5 11 19.7239 11 20H8C8 21.3807 9.11929 22.5 10.5 22.5V19.5ZM13.5 19.5H10.5V22.5H13.5V19.5ZM13 20C13 19.7239 13.2239 19.5 13.5 19.5V22.5C14.8807 22.5 16 21.3807 16 20H13ZM13 17V20H16V17H13ZM13.5 17.5C13.2239 17.5 13 17.2761 13 17H16C16 15.6193 14.8807 14.5 13.5 14.5L13.5 17.5ZM10.5 17.5H13.5L13.5 14.5L10.5 14.5V17.5Z" fill="#110529" mask="url(#path-1-inside-1_6128_12051)"/>
<path fill-rule="evenodd" clip-rule="evenodd" d="M4.5 6V4.5L13 4.5V6L4.5 6ZM3 4C3 3.44772 3.44772 3 4 3L13.5 3C14.0523 3 14.5 3.44772 14.5 4V6.5C14.5 7.05228 14.0523 7.5 13.5 7.5L4 7.5C3.44772 7.5 3 7.05228 3 6.5L3 4ZM19.5 19.5H18V11H19.5L19.5 19.5ZM17.5 21C16.9477 21 16.5 20.5523 16.5 20L16.5 10.5C16.5 9.94771 16.9477 9.5 17.5 9.5H20C20.5523 9.5 21 9.94772 21 10.5L21 20C21 20.5523 20.5523 21 20 21H17.5Z" fill="#07AD3E"/>
</svg>
