<svg width="24" height="24" viewBox="0 0 24 24" fill="none" xmlns="http://www.w3.org/2000/svg">
<path fill-rule="evenodd" clip-rule="evenodd" d="M2.25 20.5H21.75V22H2.25V20.5Z" fill="#110529"/>
<path fill-rule="evenodd" clip-rule="evenodd" d="M3.75 2.5L3.75 4L2.25 4L2.25 2.5L3.75 2.5Z" fill="#110529"/>
<path fill-rule="evenodd" clip-rule="evenodd" d="M3.75 5.5L3.75 7H2.25L2.25 5.5H3.75Z" fill="#110529"/>
<path fill-rule="evenodd" clip-rule="evenodd" d="M3.75 8.5L3.75 10H2.25L2.25 8.5H3.75Z" fill="#110529"/>
<path fill-rule="evenodd" clip-rule="evenodd" d="M3.75 11.5L3.75 13H2.25L2.25 11.5H3.75Z" fill="#110529"/>
<path fill-rule="evenodd" clip-rule="evenodd" d="M3.75 14.5L3.75 16H2.25L2.25 14.5H3.75Z" fill="#110529"/>
<path fill-rule="evenodd" clip-rule="evenodd" d="M3.75 17.5L3.75 19H2.25L2.25 17.5H3.75Z" fill="#110529"/>
<path fill-rule="evenodd" clip-rule="evenodd" d="M14.25 16.5C14.25 15.2574 15.2574 14.25 16.5 14.25C17.7426 14.25 18.75 15.2574 18.75 16.5C18.75 17.7426 17.7426 18.75 16.5 18.75C15.2574 18.75 14.25 17.7426 14.25 16.5ZM16.5 15.75C16.0858 15.75 15.75 16.0858 15.75 16.5C15.75 16.9142 16.0858 17.25 16.5 17.25C16.9142 17.25 17.25 16.9142 17.25 16.5C17.25 16.0858 16.9142 15.75 16.5 15.75Z" fill="#07AD3E"/>
<path fill-rule="evenodd" clip-rule="evenodd" d="M5.25 15.5C5.25 13.7051 6.70507 12.25 8.5 12.25C10.2949 12.25 11.75 13.7051 11.75 15.5C11.75 17.2949 10.2949 18.75 8.5 18.75C6.70507 18.75 5.25 17.2949 5.25 15.5ZM8.5 13.75C7.5335 13.75 6.75 14.5335 6.75 15.5C6.75 16.4665 7.5335 17.25 8.5 17.25C9.4665 17.25 10.25 16.4665 10.25 15.5C10.25 14.5335 9.4665 13.75 8.5 13.75Z" fill="#07AD3E"/>
<path fill-rule="evenodd" clip-rule="evenodd" d="M10.25 8C10.25 5.37665 12.3766 3.25 15 3.25C17.6234 3.25 19.75 5.37665 19.75 8C19.75 10.6234 17.6234 12.75 15 12.75C12.3766 12.75 10.25 10.6234 10.25 8ZM15 4.75C13.2051 4.75 11.75 6.20507 11.75 8C11.75 9.79493 13.2051 11.25 15 11.25C16.7949 11.25 18.25 9.79493 18.25 8C18.25 6.20508 16.7949 4.75 15 4.75Z" fill="#07AD3E"/>
</svg>
