<svg width="24" height="24" viewBox="0 0 24 24" fill="none" xmlns="http://www.w3.org/2000/svg">
<path fill-rule="evenodd" clip-rule="evenodd" d="M2.25 20.5H21.75V22H2.25V20.5Z" fill="#110529"/>
<path fill-rule="evenodd" clip-rule="evenodd" d="M3.75 2.5L3.75 4L2.25 4L2.25 2.5L3.75 2.5Z" fill="#110529"/>
<path fill-rule="evenodd" clip-rule="evenodd" d="M3.75 5.5L3.75 7H2.25L2.25 5.5H3.75Z" fill="#110529"/>
<path fill-rule="evenodd" clip-rule="evenodd" d="M3.75 8.5L3.75 10H2.25L2.25 8.5H3.75Z" fill="#110529"/>
<path fill-rule="evenodd" clip-rule="evenodd" d="M3.75 11.5L3.75 13H2.25L2.25 11.5H3.75Z" fill="#110529"/>
<path fill-rule="evenodd" clip-rule="evenodd" d="M3.75 14.5L3.75 16H2.25L2.25 14.5H3.75Z" fill="#110529"/>
<path fill-rule="evenodd" clip-rule="evenodd" d="M3.75 17.5L3.75 19H2.25L2.25 17.5H3.75Z" fill="#110529"/>
<path fill-rule="evenodd" clip-rule="evenodd" d="M10.5 11.5H7.5V17.5H10.5V11.5ZM12 11V18C12 18.5523 11.5523 19 11 19H7C6.44772 19 6 18.5523 6 18V11C6 10.4477 6.44772 10 7 10H11C11.5523 10 12 10.4477 12 11Z" fill="#07AD3E"/>
<path fill-rule="evenodd" clip-rule="evenodd" d="M9.75 7.25V14H8.25V7.25H9.75Z" fill="#07AD3E"/>
<path fill-rule="evenodd" clip-rule="evenodd" d="M18.5 6.5H15.5V17.5H18.5V6.5ZM20 6V18C20 18.5523 19.5523 19 19 19H15C14.4477 19 14 18.5523 14 18V6C14 5.44771 14.4477 5 15 5H19C19.5523 5 20 5.44772 20 6Z" fill="#110529"/>
<path fill-rule="evenodd" clip-rule="evenodd" d="M17.75 2.25V9.75H16.25V2.25H17.75Z" fill="#110529"/>
</svg>
