<svg width="24" height="24" viewBox="0 0 24 24" fill="none" xmlns="http://www.w3.org/2000/svg">
<path fill-rule="evenodd" clip-rule="evenodd" d="M4.25 1.25V2.75H6.25L6.25 5H4C3.44772 5 3 5.44772 3 6V16C3 16.5523 3.44772 17 4 17H6.25V21.25H4.25V22.75H9.75V21.25H7.75V17H10C10.5523 17 11 16.5523 11 16V6C11 5.44771 10.5523 5 10 5H7.75V2.75H9.75V1.25H4.25ZM4.5 10.75H9.5V15.5H4.5V10.75ZM9.5 9.25H4.5V6.5H9.5V9.25Z" fill="#110529"/>
<path d="M17 1C17.5523 1 18 1.44772 18 2C18 2.55228 17.5523 3 17 3C16.4477 3 16 2.55228 16 2C16 1.44772 16.4477 1 17 1Z" fill="#07AD3E"/>
<path fill-rule="evenodd" clip-rule="evenodd" d="M16.25 6.75L16.25 9H14C13.4477 9 13 9.44771 13 10V18C13 18.5523 13.4477 19 14 19H16.25L16.25 21.25H14.25V22.75H19.75V21.25H17.75V19H20C20.5523 19 21 18.5523 21 18V10C21 9.44771 20.5523 9 20 9H17.75V6.75H19.75V5.25H14.25V6.75H16.25ZM14.5 10.5V13.25H19.5V10.5H14.5ZM14.5 14.75H19.5V17.5H14.5V14.75Z" fill="#07AD3E"/>
</svg>
