<svg width="24" height="24" viewBox="0 0 24 24" fill="none" xmlns="http://www.w3.org/2000/svg">
<path fill-rule="evenodd" clip-rule="evenodd" d="M10.2552 7.75512C11.0348 6.83446 12.1991 6.25 13.5 6.25C15.8472 6.25 17.75 8.15279 17.75 10.5C17.75 11.8009 17.1655 12.9652 16.2449 13.7448C16.2483 13.6636 16.25 13.582 16.25 13.5C16.25 10.3244 13.6756 7.75 10.5 7.75C10.418 7.75 10.3364 7.75172 10.2552 7.75512ZM8.21983 8.21983C9.10256 6.17845 11.1345 4.75 13.5 4.75C16.6756 4.75 19.25 7.32436 19.25 10.5C19.25 12.8655 17.8215 14.8974 15.7802 15.7802C14.8974 17.8215 12.8655 19.25 10.5 19.25C7.32436 19.25 4.75 16.6756 4.75 13.5C4.75 11.1345 6.17845 9.10256 8.21983 8.21983ZM13.7448 16.2449C12.9652 17.1655 11.8009 17.75 10.5 17.75C8.15279 17.75 6.25 15.8472 6.25 13.5C6.25 12.1991 6.83446 11.0348 7.75512 10.2552C7.75172 10.3364 7.75 10.418 7.75 10.5C7.75 13.6756 10.3244 16.25 13.5 16.25C13.582 16.25 13.6636 16.2483 13.7448 16.2449ZM14.6049 14.6049C14.2526 14.6996 13.8822 14.75 13.5 14.75C11.1528 14.75 9.25 12.8472 9.25 10.5C9.25 10.1178 9.30045 9.74739 9.39505 9.39505C9.74739 9.30045 10.1178 9.25 10.5 9.25C12.8472 9.25 14.75 11.1528 14.75 13.5C14.75 13.8822 14.6996 14.2526 14.6049 14.6049Z" fill="#07AD3E"/>
</svg>
