<svg width="24" height="24" viewBox="0 0 24 24" fill="none" xmlns="http://www.w3.org/2000/svg">
<path fill-rule="evenodd" clip-rule="evenodd" d="M16.25 16.25V18.5H14.75V16C14.75 15.3096 15.3096 14.75 16 14.75H19C19.6904 14.75 20.25 15.3096 20.25 16V18.5H18.75V16.25H16.25Z" fill="#110529"/>
<path fill-rule="evenodd" clip-rule="evenodd" d="M16.75 12.25V15.5H18.25V12C18.25 11.3096 17.6904 10.75 17 10.75H13C12.3096 10.75 11.75 11.3096 11.75 12V18.5H13.25V12.25H16.75Z" fill="#110529"/>
<path fill-rule="evenodd" clip-rule="evenodd" d="M5.75 4C5.75 3.30964 6.30964 2.75 7 2.75H14.5C15.1904 2.75 15.75 3.30964 15.75 4V11.5H14.25V4.25H7.25V7.5H5.75V4Z" fill="#110529"/>
<path fill-rule="evenodd" clip-rule="evenodd" d="M1.25 20.25H22.75V21.75H1.25V20.25Z" fill="#110529"/>
<path fill-rule="evenodd" clip-rule="evenodd" d="M7.25 4.25H10.75V2.75H7C6.30964 2.75 5.75 3.30964 5.75 4V7.5H7.25V4.25Z" fill="#07AD3E"/>
<path fill-rule="evenodd" clip-rule="evenodd" d="M7.75 8.25V18.5H9.25V8C9.25 7.30964 8.69036 6.75 8 6.75H5C4.30964 6.75 3.75 7.30964 3.75 8V18.5H5.25V8.25H7.75Z" fill="#07AD3E"/>
</svg>
