<svg width="24" height="24" viewBox="0 0 24 24" fill="none" xmlns="http://www.w3.org/2000/svg">
<path fill-rule="evenodd" clip-rule="evenodd" d="M9.75 2.25H4.25V3.75H6.25L6.25 9.35352C5.09575 9.67998 4.25 10.7412 4.25 12C4.25 13.2588 5.09575 14.32 6.25 14.6465L6.25 20.25H4.25V21.75H9.75V20.25H7.75L7.75 14.6465C8.90425 14.32 9.75 13.2588 9.75 12C9.75 10.7412 8.90425 9.67998 7.75 9.35352V3.75H9.75V2.25ZM7 13.25C7.69036 13.25 8.25 12.6904 8.25 12C8.25 11.3096 7.69036 10.75 7 10.75C6.30964 10.75 5.75 11.3096 5.75 12C5.75 12.6904 6.30964 13.25 7 13.25Z" fill="#110529"/>
<path fill-rule="evenodd" clip-rule="evenodd" d="M19.75 4.25H14.25V5.75H16.25L16.25 9.35352C15.0957 9.67998 14.25 10.7412 14.25 12C14.25 13.2588 15.0957 14.32 16.25 14.6465L16.25 18.25H14.25V19.75H19.75L19.75 18.25H17.75V14.6465C18.9043 14.32 19.75 13.2588 19.75 12C19.75 10.7412 18.9043 9.67998 17.75 9.35352L17.75 5.75L19.75 5.75L19.75 4.25ZM17 13.25C17.6904 13.25 18.25 12.6904 18.25 12C18.25 11.3096 17.6904 10.75 17 10.75C16.3096 10.75 15.75 11.3096 15.75 12C15.75 12.6904 16.3096 13.25 17 13.25Z" fill="#07AD3E"/>
</svg>
