<svg xmlns="http://www.w3.org/2000/svg" width="24" height="24" viewBox="0 0 24 24" fill="none">
  <path fill-rule="evenodd" clip-rule="evenodd" d="M19 4C20.6569 4 22 5.34315 22 7V17C22 18.6569 20.6569 20 19 20H5C3.34315 20 2 18.6569 2 17V7C2 5.34315 3.34315 4 5 4H19ZM19 5.5H5C4.17157 5.5 3.5 6.17157 3.5 7V9.25H16H20.5V7C20.5 6.17157 19.8284 5.5 19 5.5ZM20.5 10.75H16H3.5L3.5 17C3.5 17.8284 4.17157 18.5 5 18.5H19C19.8284 18.5 20.5 17.8284 20.5 17V10.75ZM6 15.75H10V14.25H6V15.75Z" fill="#110529"/>
</svg>