<svg width="24" height="24" viewBox="0 0 24 24" fill="none" xmlns="http://www.w3.org/2000/svg">
<path fill-rule="evenodd" clip-rule="evenodd" d="M3 8.25006L21 8.25006V9.75006L3 9.75006L3 8.25006Z" fill="#110529"/>
<path fill-rule="evenodd" clip-rule="evenodd" d="M12 4.9394L9.53033 2.46973L8.46967 3.53039L12 7.06072L15.5303 3.53039L14.4697 2.46973L12 4.9394Z" fill="#110529"/>
<path fill-rule="evenodd" clip-rule="evenodd" d="M4.5 13.5001V18.5001H19.5V13.5001H4.5ZM4 12.0001C3.44772 12.0001 3 12.4478 3 13.0001V19.0001C3 19.5523 3.44772 20.0001 4 20.0001H20C20.5523 20.0001 21 19.5523 21 19.0001V13.0001C21 12.4478 20.5523 12.0001 20 12.0001H4Z" fill="#110529"/>
</svg>
