<svg width="24" height="24" viewBox="0 0 24 24" fill="none" xmlns="http://www.w3.org/2000/svg">
<path d="M5.75693 18V16.1175H0.881927V14.6325L4.39193 7.19998H6.18443L2.67443 14.6325H5.75693V11.7075H7.34693V14.6325H8.41943V16.1175H7.34693V18H5.75693Z" fill="#110529"/>
<path d="M12.5225 18.225C10.8575 18.225 9.46251 17.1225 9.02001 15.5475L10.5275 15.1425C10.775 16.1025 11.6675 16.71 12.5675 16.71C13.7525 16.71 14.69 15.7575 14.69 14.6025C14.69 13.4175 13.7225 12.4875 12.5675 12.4875C11.6825 12.4875 11.075 12.9075 10.7375 13.3575L9.37251 12.8775L9.70251 7.19998H15.53V8.67748H11.105L10.925 11.6475C11.4575 11.265 12.1325 11.0625 12.77 11.0625C14.7875 11.0625 16.2725 12.5775 16.2725 14.6025C16.2725 16.6125 14.54 18.225 12.5225 18.225Z" fill="#110529"/>
<path d="M19.2651 12.375C17.7801 12.375 16.5651 11.175 16.5651 9.67498C16.5651 8.20497 17.8251 6.97498 19.2651 6.97498C20.7501 6.97498 21.9651 8.17498 21.9651 9.67498C21.9651 11.175 20.7501 12.375 19.2651 12.375ZM17.9226 9.67498C17.9226 10.4025 18.5376 11.0175 19.2651 11.0175C19.9926 11.0175 20.6076 10.4025 20.6076 9.67498C20.6076 8.94748 19.9926 8.33248 19.2651 8.33248C18.5376 8.33248 17.9226 8.94748 17.9226 9.67498Z" fill="#110529"/>
</svg>
