<svg width="24" height="24" viewBox="0 0 24 24" fill="none" xmlns="http://www.w3.org/2000/svg">
<path fill-rule="evenodd" clip-rule="evenodd" d="M12 7.5H19.5V6C19.5 5.17157 18.8284 4.5 18 4.5H6C5.17157 4.5 4.5 5.17157 4.5 6V7.5H12ZM3 9V8.25V7.5V6C3 4.34315 4.34315 3 6 3H18C19.6569 3 21 4.34315 21 6V7.5V8.25V9V13.5V14.25V15V18C21 19.6569 19.6569 21 18 21H6C4.34315 21 3 19.6569 3 18V9ZM19.5 13.5V9H12.75V13.5H19.5ZM12.75 15H19.5V18C19.5 18.8284 18.8284 19.5 18 19.5H12.75V15ZM11.25 13.5V9H4.5V13.5H11.25ZM4.5 15H11.25V19.5H6C5.17157 19.5 4.5 18.8284 4.5 18V15Z" fill="#110529"/>
</svg>
