<svg xmlns="http://www.w3.org/2000/svg" width="16" height="16" fill="none"><path fill="#110529" fill-rule="evenodd" d="M6 1h4a1 1 0 0 1 1 1v2a1 1 0 0 1-1 1H6a1 1 0 0 1-1-1V2a1 1 0 0 1 1-1m3.5 1.5h-3v1h3z" clip-rule="evenodd"/><path fill="#110529" d="M2.75 4.5a.75.75 0 0 1 .75-.75v-1.5A2.25 2.25 0 0 0 1.25 4.5V12A2.75 2.75 0 0 0 4 14.75h8A2.75 2.75 0 0 0 14.75 12V4.5a2.25 2.25 0 0 0-2.25-2.25v1.5a.75.75 0 0 1 .75.75V12c0 .69-.56 1.25-1.25 1.25H4c-.69 0-1.25-.56-1.25-1.25z"/><path fill="#110529" d="M11 8.25H5v-1.5h6zM5 11.25h6v-1.5H5z"/></svg>