<svg xmlns="http://www.w3.org/2000/svg" width="16" height="16" fill="none"><path fill="#110529" fill-rule="evenodd" d="M10 1H6a1 1 0 0 0-1 1v2a1 1 0 0 0 1 1h4a1 1 0 0 0 1-1V2a1 1 0 0 0-1-1M6.5 2.5h3v1h-3z" clip-rule="evenodd"/><path fill="#110529" d="M3.5 3.75a.75.75 0 0 0-.75.75V12c0 .69.56 1.25 1.25 1.25h8c.69 0 1.25-.56 1.25-1.25V8h1.5v4A2.75 2.75 0 0 1 12 14.75H4A2.75 2.75 0 0 1 1.25 12V4.5A2.25 2.25 0 0 1 3.5 2.25z"/><path fill="#110529" d="m7.8 11.046 7.222-7.008-1.044-1.076L7.8 8.955 5.523 6.74 4.477 7.816z"/></svg>