<svg xmlns="http://www.w3.org/2000/svg" width="126" height="42" fill="none"><rect width="124" height="40" x="1" y="1" fill="#fff" rx="5"/><rect width="124" height="40" x="1" y="1" stroke="#845CFF" stroke-dasharray="10 5" rx="5"/><path fill="#CFD1DB" d="M107 17.623a.5.5 0 0 0-.834-.372l-3.753 3.377a.5.5 0 0 0 0 .744l3.753 3.377a.5.5 0 0 0 .834-.372zM75 24.377a.5.5 0 0 0 .835.372l3.752-3.377a.5.5 0 0 0 0-.744l-3.752-3.377a.5.5 0 0 0-.835.372zM45.707 19a.5.5 0 0 0-.353.854l3.292 3.293a.5.5 0 0 0 .708 0l3.292-3.293a.5.5 0 0 0-.353-.854zM17.623 23a.5.5 0 0 1-.372-.834l3.377-3.753a.5.5 0 0 1 .744 0l3.377 3.753a.5.5 0 0 1-.372.834z"/></svg>