<svg xmlns="http://www.w3.org/2000/svg" width="24" height="24" fill="none"><path fill="#110529" fill-rule="evenodd" d="M2.25 20.5h19.5V22H2.25zM3.75 2.5V4h-1.5V2.5zM3.75 5.5V7h-1.5V5.5zM3.75 8.5V10h-1.5V8.5zM3.75 11.5V13h-1.5v-1.5zM3.75 14.5V16h-1.5v-1.5zM3.75 17.5V19h-1.5v-1.5z" clip-rule="evenodd"/><path fill="#07AD3E" fill-rule="evenodd" d="M10.5 11.5h-3v6h3zM12 11v7a1 1 0 0 1-1 1H7a1 1 0 0 1-1-1v-7a1 1 0 0 1 1-1h4a1 1 0 0 1 1 1" clip-rule="evenodd"/><path fill="#07AD3E" fill-rule="evenodd" d="M9.75 7.25V14h-1.5V7.25z" clip-rule="evenodd"/><path fill="#110529" fill-rule="evenodd" d="M18.5 6.5h-3v11h3zM20 6v12a1 1 0 0 1-1 1h-4a1 1 0 0 1-1-1V6a1 1 0 0 1 1-1h4a1 1 0 0 1 1 1" clip-rule="evenodd"/><path fill="#110529" fill-rule="evenodd" d="M17.75 2.25v7.5h-1.5v-7.5z" clip-rule="evenodd"/></svg>