<svg xmlns="http://www.w3.org/2000/svg" width="24" height="24" fill="none"><path fill="#110529" fill-rule="evenodd" d="M7.75 3h3.5V1h1.5v2h3.5V1h1.5v2.017a3.6 3.6 0 0 1 3.233 3.233H23v1.5h-2v3.5h2v1.5h-2v3.5h2v1.5h-2.017a3.6 3.6 0 0 1-3.233 3.233V23h-1.5v-2h-3.5v2h-1.5v-2h-3.5v2h-1.5v-2.017a3.6 3.6 0 0 1-3.233-3.233H1v-1.5h2v-3.5H1v-1.5h2v-3.5H1v-1.5h2.017A3.6 3.6 0 0 1 6.25 3.017V1h1.5zm9.65 1.5H6.6a2.1 2.1 0 0 0-2.1 2.1v10.8c0 1.16.94 2.1 2.1 2.1h10.8a2.1 2.1 0 0 0 2.1-2.1V6.6a2.1 2.1 0 0 0-2.1-2.1m-9.9 3h9v9h-9zM6 7.5A1.5 1.5 0 0 1 7.5 6h9A1.5 1.5 0 0 1 18 7.5v9a1.5 1.5 0 0 1-1.5 1.5h-9A1.5 1.5 0 0 1 6 16.5z" clip-rule="evenodd"/></svg>