<svg xmlns="http://www.w3.org/2000/svg" width="24" height="24" fill="none"><path fill="#110529" fill-rule="evenodd" d="M10.595 8.767A6.75 6.75 0 1 0 12 9.562a6.8 6.8 0 0 0-1.125 1.045 5.25 5.25 0 1 1-1.406-.648 8.3 8.3 0 0 1 1.126-1.192" clip-rule="evenodd"/><path fill="#07AD3E" fill-rule="evenodd" d="M12 2.75a5.25 5.25 0 1 0 0 10.5 5.25 5.25 0 0 0 0-10.5M5.25 8a6.75 6.75 0 1 1 13.5 0 6.75 6.75 0 0 1-13.5 0" clip-rule="evenodd"/><path fill="#110529" d="M21.25 15a5.25 5.25 0 0 0-2.903-4.697q.26-.714.355-1.49a6.752 6.752 0 1 1-7.827 10.58c.421-.276.8-.61 1.125-.992a5.25 5.25 0 0 0 9.25-3.4M11.156 17.027a5.25 5.25 0 0 1 5.766-7.196c.172-.462.28-.955.316-1.468a6.75 6.75 0 0 0-7.207 9.79 3.8 3.8 0 0 0 1.125-1.126"/></svg>