<svg xmlns="http://www.w3.org/2000/svg" width="24" height="24" fill="none"><path fill="#110529" fill-rule="evenodd" d="M20.25 12.75V15h1.5v-2.25H24v-1.5h-2.25V9h-1.5v2.25H18v1.5z" clip-rule="evenodd"/><path fill="#110529" fill-rule="evenodd" d="M2.25 18A3.75 3.75 0 0 0 6 21.75h12A3.75 3.75 0 0 0 21.75 18h-1.5A2.25 2.25 0 0 1 18 20.25h-5.25V3.75H18A2.25 2.25 0 0 1 20.25 6h1.5A3.75 3.75 0 0 0 18 2.25H6A3.75 3.75 0 0 0 2.25 6zM6 20.25A2.25 2.25 0 0 1 3.75 18V6A2.25 2.25 0 0 1 6 3.75h5.25v16.5z" clip-rule="evenodd"/></svg>