<svg xmlns="http://www.w3.org/2000/svg" width="24" height="24" fill="none"><path fill="#110529" fill-rule="evenodd" d="M14.5 2h-5A1.5 1.5 0 0 0 8 3.5v2A1.5 1.5 0 0 0 9.5 7h5A1.5 1.5 0 0 0 16 5.5v-2A1.5 1.5 0 0 0 14.5 2m0 1.5h-5v2h5z" clip-rule="evenodd"/><path fill="#110529" d="M6 3.5h-.187A2.813 2.813 0 0 0 3 6.313V18.5a3 3 0 0 0 3 3h12a3 3 0 0 0 3-3V12h-1.5v6.5A1.5 1.5 0 0 1 18 20H6a1.5 1.5 0 0 1-1.5-1.5V6.313C4.5 5.588 5.088 5 5.813 5H6z"/><path fill="#110529" d="m21.03 6.53-1.06-1.06-8.47 8.47-2.97-2.97-1.06 1.06 4.03 4.03z"/></svg>