<svg xmlns="http://www.w3.org/2000/svg" width="24" height="24" fill="none"><path fill="#110529" d="M22 4a1.5 1.5 0 0 1-2.667.942L5 10.001a1.5 1.5 0 1 1-.333-.943L19 3.999A1.5 1.5 0 0 1 22 4M20.5 9.5a1.5 1.5 0 1 0-1.444-1.093L4.367 18.776a1.5 1.5 0 1 0 .577.817L19.633 9.224c.245.174.544.276.867.276"/><path fill="#07AD3E" d="M22 20a1.5 1.5 0 0 0-2.667-.942L5 13.999a1.5 1.5 0 1 0-.333.943L19 20.001A1.5 1.5 0 0 0 22 20M20.5 14.5a1.5 1.5 0 1 1-1.444 1.093L4.367 5.224a1.5 1.5 0 1 1 .577-.817l14.689 10.369c.245-.174.544-.276.867-.276"/></svg>