<svg xmlns="http://www.w3.org/2000/svg" width="24" height="24" fill="none"><path fill="#110529" d="M16.692 7c.295-.516.54-1.093.72-1.75H8.157a7.3 7.3 0 0 1-.336-1.5h9.867q.061-.587.062-1.25h1.5c0 2.96-.868 5.022-2.21 6.598-1.027 1.207-2.315 2.105-3.597 2.902q-.508.314-1.008.613l-.097.059a44 44 0 0 0-1.979 1.245c-.702.481-1.351.992-1.918 1.583h4.838q.402.297.755.61a7.6 7.6 0 0 1 .848.89H7.308a7.5 7.5 0 0 0-.72 1.75h9.256c.15.44.266.936.335 1.5H6.312q-.061.587-.062 1.25h-1.5c0-2.96.868-5.022 2.21-6.598q.411-.48.87-.902.333-.306.684-.585a16 16 0 0 1 .907-.673q.314-.217.632-.423l.023-.015q.216-.14.431-.273l.05-.031q.508-.314 1.007-.613l.05-.03.386-.233a39 39 0 0 0 1.662-1.055l.022-.016.174-.12c.62-.438 1.193-.903 1.701-1.433h-4.838c-.565-.419-1.056-.852-1.476-1.346L9.118 7z"/><path fill="#110529" d="M10.577 10.23C9.644 9.608 8.8 8.945 8.102 8.126 7.007 6.838 6.25 5.128 6.25 2.5h-1.5c0 2.96.868 5.022 2.21 6.598.659.774 1.424 1.42 2.226 1.995.478-.311.948-.596 1.391-.863M17.75 21.5h1.5c0-2.96-.868-5.022-2.21-6.598-.659-.774-1.424-1.42-2.226-1.995-.478.311-.948.596-1.391.863.759.505 1.46 1.04 2.07 1.661a9 9 0 0 1 .405.443A7.3 7.3 0 0 1 17.34 18.5c.224.73.366 1.56.401 2.518q.009.236.009.482"/></svg>