<svg xmlns="http://www.w3.org/2000/svg" width="24" height="24" fill="none"><path fill="#110529" fill-rule="evenodd" d="M18.25 6.75h3.25v1.5H18c-.69 0-1.25-.56-1.25-1.25V4c0-.69.56-1.25 1.25-1.25h3.5v1.5h-3.25z" clip-rule="evenodd"/><path fill="#110529" fill-rule="evenodd" d="M13.25 6.25h4.25v-1.5H13c-.69 0-1.25.56-1.25 1.25v5c0 .69.56 1.25 1.25 1.25h8.5v-1.5h-8.25z" clip-rule="evenodd"/><path fill="#110529" fill-rule="evenodd" d="M2.75 12.5V9c0-.69.56-1.25 1.25-1.25h8.5v1.5H4.25v3.25z" clip-rule="evenodd"/><path fill="#07AD3E" fill-rule="evenodd" d="M4.25 17.25V14h-1.5v3.5c0 .69.56 1.25 1.25 1.25h4.5v-1.5z" clip-rule="evenodd"/><path fill="#07AD3E" fill-rule="evenodd" d="M9.25 16.25H21.5v-1.5H9c-.69 0-1.25.56-1.25 1.25v4c0 .69.56 1.25 1.25 1.25h12.5v-1.5H9.25z" clip-rule="evenodd"/></svg>