<svg xmlns="http://www.w3.org/2000/svg" width="24" height="24" fill="none"><path fill="#110529" d="M18.358 4.321a.2.2 0 0 0 0 .358l.582.291a.2.2 0 0 1 .09.09l.291.582a.2.2 0 0 0 .358 0l.291-.582a.2.2 0 0 1 .09-.09l.582-.291a.2.2 0 0 0 0-.358l-.582-.291a.2.2 0 0 1-.09-.09l-.291-.582a.2.2 0 0 0-.358 0l-.291.582a.2.2 0 0 1-.09.09z"/><path fill="#110529" fill-rule="evenodd" d="M19.157 14.25a7 7 0 0 1-9.406-9.407l.027-.054a7 7 0 0 1 .381-.648c.26-.393-.04-.957-.495-.835a9 9 0 0 0-.949.312 9 9 0 1 0 11.979 10.718c.122-.455-.442-.755-.834-.495a7 7 0 0 1-.65.38zm-.949 1.96A8.5 8.5 0 0 1 7.79 5.792 7.5 7.5 0 1 0 18.208 16.21" clip-rule="evenodd"/><path fill="#110529" d="m16.46 7.4-.728-1.82a.25.25 0 0 0-.464 0L14.54 7.4a.25.25 0 0 1-.14.14l-1.82.728a.25.25 0 0 0 0 .464l1.82.728a.25.25 0 0 1 .14.14l.728 1.82c.084.21.38.21.464 0l.728-1.82a.25.25 0 0 1 .14-.14l1.82-.728a.25.25 0 0 0 0-.464L16.6 7.54a.25.25 0 0 1-.14-.14"/></svg>