<svg xmlns="http://www.w3.org/2000/svg" width="25" height="25" fill="none"><path fill="#110529" d="M16 7.25h1.5v1.5H16z"/><path fill="#110529" fill-rule="evenodd" d="M3 4.5c0-.69.56-1.25 1.25-1.25h15.5c.69 0 1.25.56 1.25 1.25v2.465a6.75 6.75 0 0 1-1.393 4.107l-4.357 5.682v2.963c0 .439-.23.846-.607 1.072l-4 2.4a1.25 1.25 0 0 1-1.893-1.072v-5.363l-4.357-5.682A6.75 6.75 0 0 1 3 6.965zm1.5.25v2.215q0 .143.008.285H14v1.5H4.813c.182.503.44.979.77 1.409l4.667 6.087v5.43l3.5-2.1v-3.33l4.666-6.087A5.25 5.25 0 0 0 19.5 6.965V4.75z" clip-rule="evenodd"/><circle cx="19" cy="6" r="4.5" fill="#49CC49" stroke="#fff" stroke-width="3"/></svg>