<svg xmlns="http://www.w3.org/2000/svg" width="24" height="24" fill="none"><path fill="#110529" fill-rule="evenodd" d="M3 7a4 4 0 1 1 8 0 4 4 0 0 1-8 0m4 2.5a2.5 2.5 0 1 1 0-5 2.5 2.5 0 0 1 0 5M13 17a4 4 0 1 1 8 0 4 4 0 0 1-8 0m4 2.5a2.5 2.5 0 1 1 0-5 2.5 2.5 0 0 1 0 5" clip-rule="evenodd"/><path fill="#07AD3E" fill-rule="evenodd" d="M12.707 7.707a1 1 0 0 1 0-1.414l3.586-3.586a1 1 0 0 1 1.414 0l3.586 3.586a1 1 0 0 1 0 1.414l-3.586 3.586a1 1 0 0 1-1.414 0zM17 9.88 14.121 7 17 4.121 19.879 7zM4.5 13.25c-.69 0-1.25.56-1.25 1.25v5c0 .69.56 1.25 1.25 1.25h5c.69 0 1.25-.56 1.25-1.25v-5c0-.69-.56-1.25-1.25-1.25zm.25 6v-4.5h4.5v4.5z" clip-rule="evenodd"/></svg>