<svg xmlns="http://www.w3.org/2000/svg" width="24" height="24" fill="none"><path fill="#110529" d="M15.5 19.748a8.5 8.5 0 1 0-7 0v1.622A10 10 0 0 1 2 12C2 6.477 6.477 2 12 2s10 4.477 10 10c0 4.291-2.703 7.952-6.5 9.37z"/><path fill="#110529" d="M11.25 21.5V20h1.5v1.5zM12 6.75c-1.252 0-2.454.303-3.351 1.088-.915.8-1.399 2.001-1.399 3.55h1.5c0-1.227.373-1.971.887-2.42.531-.466 1.33-.718 2.363-.718s1.832.252 2.363.717c.514.45.887 1.194.887 2.422 0 1.156-.464 1.914-1.074 2.399-.635.505-1.464.74-2.176.74a.75.75 0 0 0-.75.75V17.5h1.5v-1.53a5 5 0 0 0 2.36-1.008c.96-.765 1.64-1.951 1.64-3.573 0-1.55-.484-2.75-1.399-3.55C14.454 7.052 13.252 6.75 12 6.75"/></svg>