<svg xmlns="http://www.w3.org/2000/svg" width="24" height="24" fill="none"><path fill="#07AD3E" d="M2.375 15.125 12 21.25l9.625-6.125.05.031a1 1 0 0 1 0 1.688l-9.138 5.814a1 1 0 0 1-1.073 0l-9.138-5.814a1 1 0 0 1 0-1.688z"/><path fill="#110529" fill-rule="evenodd" d="M2.326 7.156a1 1 0 0 0 0 1.688l9.138 5.814a1 1 0 0 0 1.073 0l9.138-5.814a1 1 0 0 0 0-1.688l-9.138-5.814a1 1 0 0 0-1.073 0zM3.75 8 12 13.25 20.25 8 12 2.75z" clip-rule="evenodd"/><path fill="#110529" d="m12 17.25-9.625-6.125-.049.031a1 1 0 0 0 0 1.688l9.138 5.814a1 1 0 0 0 1.073 0l9.138-5.814a1 1 0 0 0 0-1.688l-.05-.031z"/></svg>