<svg xmlns="http://www.w3.org/2000/svg" width="24" height="24" fill="none"><g fill="#110529" clip-path="url(#a)"><path d="M12.75 5V0h-1.5v5zM12.75 24v-5h-1.5v5zM0 12.75h5v-1.5H0zM19 12.75h5v-1.5h-5z"/><path fill-rule="evenodd" d="M12 17a5 5 0 1 0 0-10 5 5 0 0 0 0 10m0-1.5a3.5 3.5 0 1 0 0-7 3.5 3.5 0 0 0 0 7" clip-rule="evenodd"/><path d="m4.398 5.46 1.06-1.061L7.58 6.52 6.52 7.58zM19.601 5.46 17.48 7.58l-1.061-1.06 2.121-2.121zM6.52 16.42l1.06 1.06-2.121 2.122-1.06-1.061zM19.6 18.54l-1.06 1.062-2.121-2.122 1.06-1.06z"/></g><defs><clipPath id="a"><path fill="#fff" d="M0 0h24v24H0z"/></clipPath></defs></svg>