<svg xmlns="http://www.w3.org/2000/svg" width="182" height="130" fill="none"><rect width="180" height="128" x="1" y="1" stroke="#9747FF" stroke-dasharray="10 5" rx="5"/><path fill="#110529" d="M35.25 42V24h1.5v18zM41.47 29.47l1.06 1.06L40.06 33l2.47 2.47-1.06 1.06L37.94 33zM33 26.25h-7v1.5h7zM33 30.25h-9v1.5h9zM33 34.25h-5v1.5h5zM33 38.25h-9v1.5h9zM107.25 24v18h1.5V24zM113.47 29.47 109.939 33l3.531 3.53 1.06-1.06-2.469-2.47 2.469-2.47z"/><path fill="#110529" fill-rule="evenodd" d="M103.5 25.5h-5v15h5zm1.5-.5a1 1 0 0 0-1-1h-6a1 1 0 0 0-1 1v16a1 1 0 0 0 1 1h6a1 1 0 0 0 1-1zM24 75.25h18v1.5H24zM36.53 81.47l-1.06 1.06L33 80.06l-2.47 2.47-1.06-1.06L33 77.94zM39.75 66v7h-1.5v-7zm-4-2v9h-1.5v-9zm-4 4v5h-1.5v-5zm-4-4v9h-1.5v-9zM96 74.985h18v1.5H96zM108.53 81.205l-1.06 1.06-2.47-2.47-2.47 2.47-1.06-1.06 3.53-3.53zM97.5 66.5v5h15v-5zM97 65a1 1 0 0 0-1 1v6a1 1 0 0 0 1 1h16a1 1 0 0 0 1-1v-6a1 1 0 0 0-1-1zM66.75 42h-1.5V24h1.5zM69 26.25h7v1.5h-7zm-8.47 3.22L64.06 33l-3.53 3.53-1.06-1.06L61.94 33l-2.47-2.47zm8.47.78h9v1.5h-9zm0 4h5v1.5h-5zm0 4h9v1.5h-9zM137.25 42V24h1.5v18zM133.939 33l-2.469 2.47 1.06 1.06 3.531-3.53-3.531-3.53-1.06 1.06zM147.5 25.5h-5v15h5zm1.5-.5a1 1 0 0 0-1-1h-6a1 1 0 0 0-1 1v16a1 1 0 0 0 1 1h6a1 1 0 0 0 1-1zM60 69.25h18v1.5H60zM69 65.94l-2.47-2.47-1.06 1.06L69 68.06l3.53-3.53-1.06-1.06zM75.75 73v7h-1.5v-7zm-4 0v9h-1.5v-9zm-4 0v5h-1.5v-5zm-4 0v9h-1.5v-9zM132 69.25h18v1.5h-18zM141 65.94l-2.47-2.47-1.06 1.06 3.53 3.53 3.53-3.53-1.06-1.06zM133.5 74.5v5h15v-5zM133 73a1 1 0 0 0-1 1v6a1 1 0 0 0 1 1h16a1 1 0 0 0 1-1v-6a1 1 0 0 0-1-1z" clip-rule="evenodd"/></svg>