<svg xmlns="http://www.w3.org/2000/svg" width="24" height="24" fill="none"><path fill="#110529" fill-rule="evenodd" d="M20 15.5H4a.5.5 0 0 0-.5.5v4a.5.5 0 0 0 .5.5h16a.5.5 0 0 0 .5-.5v-4a.5.5 0 0 0-.5-.5M4 14a2 2 0 0 0-2 2v4a2 2 0 0 0 2 2h16a2 2 0 0 0 2-2v-4a2 2 0 0 0-2-2z" clip-rule="evenodd"/><path fill="#110529" fill-rule="evenodd" d="M13 18.75H5v-1.5h8z" clip-rule="evenodd"/><path fill="#110529" d="M11.25 5V1h1.5v4zM11.25 12V8h1.5v4zM16.388 3.1l.75 1.3-3.464 2-.75-1.3zM10.326 6.6l.75 1.3-3.464 2-.75-1.3zM7.612 3.1l3.464 2-.75 1.3-3.464-2zM12.924 7.9l3.464 2 .75-1.3-3.464-2z"/></svg>