<svg xmlns="http://www.w3.org/2000/svg" width="210" height="66" fill="none"><rect width="208" height="64" x="1" y="1" stroke="#9747FF" stroke-dasharray="10 5" rx="5"/><path fill="#110529" d="M29.815 39.225c-2.198 0-3.765-1.568-3.765-3.765v-3.72c0-2.197 1.567-3.765 3.765-3.765s3.765 1.567 3.765 3.765v3.72c0 2.197-1.567 3.765-3.765 3.765m-2.168-3.668c0 1.208.96 2.168 2.168 2.168 1.207 0 2.168-.96 2.168-2.168v-3.93c0-1.2-.96-2.16-2.168-2.16-1.207 0-2.168.96-2.168 2.16zM36.874 33.375c-1.485 0-2.7-1.2-2.7-2.7 0-1.47 1.26-2.7 2.7-2.7 1.485 0 2.7 1.2 2.7 2.7s-1.215 2.7-2.7 2.7m-1.343-2.7a1.36 1.36 0 0 0 1.343 1.342 1.36 1.36 0 0 0 1.343-1.342 1.36 1.36 0 0 0-1.343-1.343 1.36 1.36 0 0 0-1.343 1.343"/><path fill="#CFD1DB" d="M62.757 39v-1.883h-4.875v-1.484l3.51-7.433h1.792l-3.51 7.433h3.083v-2.925h1.59v2.925h1.072v1.484h-1.072V39zM69.523 39.225c-1.665 0-3.06-1.102-3.503-2.678l1.508-.404c.247.96 1.14 1.567 2.04 1.567a2.113 2.113 0 0 0 2.122-2.108 2.12 2.12 0 0 0-2.123-2.114c-.884 0-1.492.42-1.83.87l-1.364-.48.33-5.678h5.827v1.477h-4.425l-.18 2.97a3.23 3.23 0 0 1 1.845-.584c2.017 0 3.502 1.514 3.502 3.54 0 2.01-1.732 3.622-3.75 3.622M76.265 33.375c-1.485 0-2.7-1.2-2.7-2.7 0-1.47 1.26-2.7 2.7-2.7 1.485 0 2.7 1.2 2.7 2.7s-1.215 2.7-2.7 2.7m-1.342-2.7a1.36 1.36 0 0 0 1.342 1.342 1.36 1.36 0 0 0 1.343-1.342 1.36 1.36 0 0 0-1.343-1.343 1.36 1.36 0 0 0-1.342 1.343M97.613 27.983c2.093 0 3.713 1.62 3.713 3.847v3.443c0 2.362-1.583 3.952-3.87 3.952-1.14 0-2.168-.435-2.903-1.282l1.148-1.073c.412.533 1.057.87 1.755.87 1.342 0 2.272-1.08 2.272-2.265v-1.29a3.28 3.28 0 0 1-2.325.968c-2.017 0-3.495-1.53-3.495-3.548 0-2.025 1.688-3.622 3.705-3.622m-2.115 3.622c0 1.17.938 2.115 2.108 2.115s2.122-.945 2.122-2.115a2.12 2.12 0 0 0-2.115-2.115c-1.17 0-2.115.945-2.115 2.115M106.285 39.225c-2.198 0-3.765-1.568-3.765-3.765v-3.72c0-2.197 1.567-3.765 3.765-3.765 2.197 0 3.765 1.567 3.765 3.765v3.72c0 2.197-1.568 3.765-3.765 3.765m-2.168-3.668c0 1.208.96 2.168 2.168 2.168 1.207 0 2.167-.96 2.167-2.168v-3.93c0-1.2-.96-2.16-2.167-2.16-1.208 0-2.168.96-2.168 2.16zM113.344 33.375c-1.485 0-2.7-1.2-2.7-2.7 0-1.47 1.26-2.7 2.7-2.7 1.485 0 2.7 1.2 2.7 2.7s-1.215 2.7-2.7 2.7m-1.343-2.7a1.36 1.36 0 0 0 1.343 1.342 1.36 1.36 0 0 0 1.342-1.342 1.36 1.36 0 0 0-1.342-1.343 1.36 1.36 0 0 0-1.343 1.343"/></svg>