<svg xmlns="http://www.w3.org/2000/svg" width="24" height="24" fill="none"><path fill="#07AD3E" d="M18 4.5a1 1 0 1 0-2 0 1 1 0 0 0 2 0M17 18.5a1 1 0 1 1 0 2 1 1 0 0 1 0-2M16 16.5a1 1 0 1 1 0 2 1 1 0 0 1 0-2"/><path fill="#07AD3E" d="M17 17.5a1 1 0 1 1 2 0 1 1 0 0 1-2 0M17 14.5a1 1 0 1 1 0 2 1 1 0 0 1 0-2"/><path fill="#07AD3E" fill-rule="evenodd" d="M16 7a1 1 0 1 1 0 2 1 1 0 0 1 0-2m1 3a1 1 0 1 0-2 0 1 1 0 1 0-2 0 1 1 0 0 0 2 0 1 1 0 0 0 1 1 1 1 0 1 0 1 1 1 1 0 1 0 1-1 1 1 0 0 0 1-1 1 1 0 1 0 2 0 1 1 0 0 0-2 0 1 1 0 0 0-1-1 1 1 0 1 0 0-2 1 1 0 0 0 0 2 1 1 0 0 0-1 1m0 0a1 1 0 0 0 1 1 1 1 0 0 0-1 1 1 1 0 0 0-1-1 1 1 0 0 0 1-1" clip-rule="evenodd"/><path fill="#110529" d="M7 5.5a1 1 0 1 0 0-2 1 1 0 0 0 0 2"/><path fill="#110529" fill-rule="evenodd" d="M8 15a1 1 0 0 0 1-1 1 1 0 1 0 2 0 1 1 0 0 0-2 0 1 1 0 0 0-1-1 1 1 0 1 0-1-1 1 1 0 1 0-1 1 1 1 0 0 0-1 1 1 1 0 1 0-2 0 1 1 0 0 0 2 0 1 1 0 0 0 1 1 1 1 0 1 0 1 1 1 1 0 1 0 1-1m0 0a1 1 0 0 0-1 1 1 1 0 0 0-1-1 1 1 0 0 0 1-1 1 1 0 0 0 1 1m-1-1a1 1 0 0 0-1-1 1 1 0 0 0 1-1 1 1 0 0 0 1 1 1 1 0 0 0-1 1" clip-rule="evenodd"/><path fill="#110529" d="M6 7.5a1 1 0 0 0 1-1 1 1 0 1 0 2 0 1 1 0 0 0-2 0 1 1 0 1 0-1 1"/><path fill="#110529" d="M7 9.5a1 1 0 1 0 0-2 1 1 0 0 0 0 2M8 19.5a1 1 0 1 1-2 0 1 1 0 0 1 2 0"/></svg>