<svg xmlns="http://www.w3.org/2000/svg" width="24" height="24" fill="none"><path fill="#110529" fill-rule="evenodd" d="M6 3.75A2.25 2.25 0 0 0 3.75 6v12A2.25 2.25 0 0 0 6 20.25h1.25V15.5c0-.69.56-1.25 1.25-1.25h7c.69 0 1.25.56 1.25 1.25v4.75H18A2.25 2.25 0 0 0 20.25 18V9.828c0-.331-.132-.649-.366-.883l-4.828-4.829a1.25 1.25 0 0 0-.884-.366H8.75v4.5h6.5v1.5H8.5c-.69 0-1.25-.56-1.25-1.25V3.75zm9.25 16.5v-4.5h-6.5v4.5zM2.25 6A3.75 3.75 0 0 1 6 2.25h8.172c.729 0 1.428.29 1.944.805l4.829 4.829a2.75 2.75 0 0 1 .805 1.944V18A3.75 3.75 0 0 1 18 21.75H6A3.75 3.75 0 0 1 2.25 18z" clip-rule="evenodd"/></svg>