<svg width="64" height="64" viewBox="0 0 64 64" fill="none" xmlns="http://www.w3.org/2000/svg">
<rect x="5" y="9" width="1" height="1" fill="#110529"/>
<rect x="5" y="12" width="1" height="1" fill="#110529"/>
<rect x="5" y="15" width="1" height="1" fill="#110529"/>
<rect x="5" y="18" width="1" height="1" fill="#110529"/>
<rect x="5" y="21" width="1" height="1" fill="#110529"/>
<rect x="5" y="24" width="1" height="1" fill="#110529"/>
<rect x="5" y="27" width="1" height="1" fill="#110529"/>
<rect x="5" y="30" width="1" height="1" fill="#110529"/>
<rect x="5" y="33" width="1" height="1" fill="#110529"/>
<rect x="5" y="36" width="1" height="1" fill="#110529"/>
<rect x="5" y="39" width="1" height="1" fill="#110529"/>
<rect x="5" y="42" width="1" height="1" fill="#110529"/>
<rect x="5" y="45" width="1" height="1" fill="#110529"/>
<rect x="5" y="48" width="1" height="1" fill="#110529"/>
<rect x="5" y="51" width="1" height="1" fill="#110529"/>
<rect x="5" y="54" width="1" height="1" fill="#110529"/>
<rect x="5" y="57" width="54" height="1" fill="#110529"/>
<rect x="0.5" y="-0.5" width="7" height="27" rx="0.5" transform="matrix(1 0 0 -1 10 57)" fill="white" stroke="#110529"/>
<path d="M22.5 57.5H29.5V43C29.5 42.7239 29.2761 42.5 29 42.5H23C22.7239 42.5 22.5 42.7239 22.5 43L22.5 57.5Z" fill="#DEDBFF" stroke="#110529"/>
<rect x="0.5" y="-0.5" width="7" height="47" rx="0.5" transform="matrix(1 0 0 -1 34 57)" fill="white" stroke="#110529"/>
<path d="M46.5 57.5H53.5L53.5 25C53.5 24.7239 53.2761 24.5 53 24.5H47C46.7239 24.5 46.5 24.7239 46.5 25L46.5 57.5Z" fill="#DEDBFF" stroke="#110529"/>
</svg>
