<svg xmlns="http://www.w3.org/2000/svg" width="64" height="64" viewBox="0 0 64 64" fill="none">
  <path d="M29 21.9143C29 21.5943 29 21.4343 28.9377 21.3121C28.8829 21.2045 28.7955 21.1171 28.688 21.0623C28.5658 21.0001 28.4057 21.0001 28.0857 21.0001H13.9143C13.5943 21.0001 13.4342 21.0001 13.312 21.0623C13.2045 21.1171 13.1171 21.2045 13.0623 21.3121C13 21.4343 13 21.5943 13 21.9143V37.0001H17.5714H24.4286H29V21.9143Z" fill="white" stroke="#110529"/>
  <path d="M24.4286 37.0001H17.5714H13.9143C13.5943 37.0001 13.4342 37.0001 13.312 37.0623C13.2045 37.1171 13.1171 37.2045 13.0623 37.3121C13 37.4343 13 37.5943 13 37.9143V48.0858C13 48.4058 13 48.5658 13.0623 48.6881C13.1171 48.7956 13.2045 48.883 13.312 48.9378C13.4342 49.0001 13.5943 49.0001 13.9143 49.0001H28.0857C28.4057 49.0001 28.5658 49.0001 28.688 48.9378C28.7955 48.883 28.8829 48.7956 28.9377 48.6881C29 48.5658 29 48.4058 29 48.0858V37.9143C29 37.5943 29 37.4343 28.9377 37.3121C28.8829 37.2045 28.7955 37.1171 28.688 37.0623C28.5658 37.0001 28.4057 37.0001 28.0857 37.0001H24.4286Z" fill="#DEDBFF" stroke="#110529"/>
  <path d="M21 7.00006L21 21.0001" stroke="#110529"/>
  <path d="M21 49.0001L21 57.0001" stroke="#110529"/>
  <path d="M24 57.0001L18 57.0001" stroke="#110529"/>
  <path d="M24 7.00006L18 7.00006" stroke="#110529"/>
  <path d="M50.9999 16.9142C50.9999 16.5942 50.9999 16.4342 50.9376 16.3119C50.8828 16.2044 50.7954 16.117 50.6879 16.0622C50.5656 15.9999 50.4056 15.9999 50.0856 15.9999H35.9142C35.5941 15.9999 35.4341 15.9999 35.3119 16.0622C35.2044 16.117 35.1169 16.2044 35.0622 16.3119C34.9999 16.4342 34.9999 16.5942 34.9999 16.9142V27.9999H39.5713H46.4284H50.9999V16.9142Z" fill="white" stroke="#110529"/>
  <path d="M46.4284 27.9999H39.5713H35.9142C35.5941 27.9999 35.4341 27.9999 35.3119 28.0622C35.2044 28.117 35.1169 28.2044 35.0622 28.3119C34.9999 28.4342 34.9999 28.5942 34.9999 28.9142V33.0857C34.9999 33.4057 34.9999 33.5657 35.0622 33.6879C35.1169 33.7955 35.2044 33.8829 35.3119 33.9377C35.4341 33.9999 35.5941 33.9999 35.9142 33.9999H50.0856C50.4056 33.9999 50.5656 33.9999 50.6879 33.9377C50.7954 33.8829 50.8828 33.7955 50.9376 33.6879C50.9999 33.5657 50.9999 33.4057 50.9999 33.0857V28.9142C50.9999 28.5942 50.9999 28.4342 50.9376 28.3119C50.8828 28.2044 50.7954 28.117 50.6879 28.0622C50.5656 27.9999 50.4056 27.9999 50.0856 27.9999H46.4284Z" fill="#DEDBFF" stroke="#110529"/>
  <path d="M42.9999 9.99994L42.9999 15.9999" stroke="#110529"/>
  <path d="M42.9999 33.9999L42.9999 45.9999" stroke="#110529"/>
  <path d="M45.9999 45.9999L39.9999 45.9999" stroke="#110529"/>
  <path d="M45.9999 9.99994L39.9999 9.99994" stroke="#110529"/>
  <path d="M21 53.5L43 50.5" stroke="#845CFF"/>
  <path d="M21 13.5L43 27.5" stroke="#845CFF"/>
  <path d="M21 30.5L43 38.5" stroke="#845CFF"/>
  <path d="M21 18.5L43 12.5" stroke="#845CFF"/>
  <path d="M21 41.5L43 30.5" stroke="#845CFF"/>
  <path d="M21 44.5L43 38.5" stroke="#845CFF"/>
  <circle cx="1.5" cy="1.5" r="1.5" transform="matrix(-1 0 0 1 44.5 11)" fill="#845CFF"/>
  <circle cx="1.5" cy="1.5" r="1.5" transform="matrix(-1 0 0 1 44.5 37)" fill="#845CFF"/>
  <circle cx="1.5" cy="1.5" r="1.5" transform="matrix(-1 0 0 1 44.5 29)" fill="#845CFF"/>
  <circle cx="1.5" cy="1.5" r="1.5" transform="matrix(-1 0 0 1 44.5 26)" fill="#845CFF"/>
  <circle cx="1.5" cy="1.5" r="1.5" transform="matrix(-1 0 0 1 44.5 49)" fill="#845CFF"/>
  <circle cx="1.5" cy="1.5" r="1.5" transform="matrix(-1 0 0 1 22.5 40.0002)" fill="#845CFF"/>
  <circle cx="1.5" cy="1.5" r="1.5" transform="matrix(-1 0 0 1 22.5 29.0002)" fill="#845CFF"/>
  <circle cx="1.5" cy="1.5" r="1.5" transform="matrix(-1 0 0 1 22.5 43.0002)" fill="#845CFF"/>
  <circle cx="1.5" cy="1.5" r="1.5" transform="matrix(-1 0 0 1 22.5 52.0002)" fill="#845CFF"/>
  <circle cx="1.5" cy="1.5" r="1.5" transform="matrix(-1 0 0 1 22.5 12.0002)" fill="#845CFF"/>
  <circle cx="1.5" cy="1.5" r="1.5" transform="matrix(-1 0 0 1 22.5 17.0002)" fill="#845CFF"/>
</svg>