<svg width="64" height="64" viewBox="0 0 64 64" fill="none" xmlns="http://www.w3.org/2000/svg">
<rect x="5" y="9" width="1" height="1" fill="#110529"/>
<rect x="5" y="12" width="1" height="1" fill="#110529"/>
<rect x="5" y="15" width="1" height="1" fill="#110529"/>
<rect x="5" y="18" width="1" height="1" fill="#110529"/>
<rect x="5" y="21" width="1" height="1" fill="#110529"/>
<rect x="5" y="24" width="1" height="1" fill="#110529"/>
<rect x="5" y="27" width="1" height="1" fill="#110529"/>
<rect x="5" y="30" width="1" height="1" fill="#110529"/>
<rect x="5" y="33" width="1" height="1" fill="#110529"/>
<rect x="5" y="36" width="1" height="1" fill="#110529"/>
<rect x="5" y="39" width="1" height="1" fill="#110529"/>
<rect x="5" y="42" width="1" height="1" fill="#110529"/>
<rect x="5" y="45" width="1" height="1" fill="#110529"/>
<rect x="5" y="48" width="1" height="1" fill="#110529"/>
<rect x="5" y="51" width="1" height="1" fill="#110529"/>
<rect x="5" y="54" width="1" height="1" fill="#110529"/>
<rect x="5" y="57" width="54" height="1" fill="#110529"/>
<circle cx="28.5" cy="26.5" r="1.5" fill="white" stroke="#110529"/>
<circle cx="25.5" cy="33.5" r="2.5" fill="white" stroke="#110529"/>
<circle cx="20" cy="24" r="3" fill="white" stroke="#110529"/>
<circle cx="12.5" cy="34.5" r="1.5" fill="#C1ADFF" stroke="#110529"/>
<circle cx="42.5" cy="37.5" r="1.5" fill="#C1ADFF" stroke="#110529"/>
<circle cx="49" cy="43" r="2" fill="white" stroke="#110529"/>
<circle cx="40.5" cy="44.5" r="3.5" fill="white" stroke="#110529"/>
<circle cx="50" cy="34" r="3" fill="#C1ADFF" stroke="#110529"/>
<circle cx="21.5" cy="47.5" r="4.5" fill="#C1ADFF" stroke="#110529"/>
<circle cx="40" cy="22" r="7" fill="#C1ADFF" stroke="#110529"/>
<circle cx="47" cy="23" r="4" fill="white" stroke="#110529"/>
</svg>
