<svg xmlns="http://www.w3.org/2000/svg" width="64" height="64" viewBox="0 0 64 64" fill="none">
  <path d="M29 53L29 19.5C29 19.2239 29.2239 19 29.5 19L43 19C43.2761 19 43.5 19.2239 43.5 19.5L43.5 28" stroke="#110529"/>
  <path d="M36.5 41L36.5 28.5C36.5 28.2239 36.7239 28 37 28L49.75 28C50.0261 28 50.25 28.2239 50.25 28.5L50.25 37" stroke="#845CFF"/>
  <path d="M50.25 37L50.25 28.5C50.25 28.2239 50.0261 28 49.75 28L43.5 28" stroke="#110529"/>
  <path d="M46.5 47L46.5 37.5C46.5 37.2239 46.7239 37 47 37L53.5 37C53.7761 37 54 37.2239 54 37.5L54 53" stroke="#110529"/>
  <path d="M20 37L20 28.5C20 28.2239 19.7761 28 19.5 28L9.5 28C9.22386 28 9 28.2239 9 28.5L9 53" stroke="#845CFF"/>
  <path d="M39 53L39 41.5C39 41.2239 38.7761 41 38.5 41L34.5 41C34.2239 41 34 41.2239 34 41.5L34 53" stroke="#845CFF"/>
  <path d="M49 53L49 47.5C49 47.2239 48.7761 47 48.5 47L44.5 47C44.2239 47 44 47.2239 44 47.5L44 53" stroke="#110529"/>
  <path d="M16.5 47L16.5 37.5C16.5 37.2239 16.7239 37 17 37L23.5 37C23.7761 37 24 37.2239 24 37.5L24 53" stroke="#845CFF"/>
  <path d="M14 53L14 47.5C14 47.2239 14.2239 47 14.5 47L18.5 47C18.7761 47 19 47.2239 19 47.5L19 53" stroke="#845CFF"/>
  <path d="M36.5 19L36.5 10.5C36.5 10.2239 36.2761 10 36 10L25.5 10" stroke="#110529"/>
  <path d="M14.5 28L14.5 10.5C14.5 10.2239 14.7239 10 15 10L25 10" stroke="#845CFF"/>
  <path d="M24 53L24 37.5C24 37.2239 23.7761 37 23.5 37L20 37" stroke="#110529"/>
  <circle cx="50.25" cy="37" r="1" fill="#110529"/>
  <circle cx="46.5" cy="47" r="1" fill="#110529"/>
  <circle cx="44" cy="53" r="1" fill="#110529"/>
  <circle cx="54" cy="53" r="1" fill="#110529"/>
  <circle cx="49" cy="53" r="1" fill="#110529"/>
  <circle cx="29" cy="53" r="1" fill="#110529"/>
  <circle cx="9" cy="53" r="1" fill="#845CFF"/>
  <circle cx="14" cy="53" r="1" fill="#845CFF"/>
  <circle cx="19" cy="53" r="1" fill="#845CFF"/>
  <circle cx="24" cy="53" r="1" fill="#110529"/>
  <circle cx="34" cy="53" r="1" fill="#845CFF"/>
  <circle cx="39" cy="53" r="1" fill="#845CFF"/>
  <circle cx="36.5" cy="19" r="1" fill="#110529"/>
  <circle cx="25.5" cy="10" r="1" fill="#845CFF"/>
  <circle cx="14.5" cy="28" r="1" fill="#845CFF"/>
  <circle cx="16.5" cy="47" r="1" fill="#845CFF"/>
  <circle cx="36.5" cy="41" r="1" fill="#845CFF"/>
  <circle cx="20" cy="37" r="1" fill="#845CFF"/>
  <circle cx="43.5" cy="28" r="1" fill="#845CFF"/>
</svg>