<svg xmlns="http://www.w3.org/2000/svg" width="64" height="64" viewBox="0 0 64 64" fill="none">
  <path d="M12.0607 30.8536C11.8654 30.6583 11.8654 30.3417 12.0607 30.1464L14.1464 28.0607C14.3417 27.8654 14.6583 27.8654 14.8536 28.0607L16.9393 30.1464C17.1346 30.3417 17.1346 30.6583 16.9393 30.8536L14.8536 32.9393C14.6583 33.1346 14.3417 33.1346 14.1464 32.9393L12.0607 30.8536Z" fill="white" stroke="#110529"/>
  <path d="M17.0607 34.8536C16.8654 34.6583 16.8654 34.3417 17.0607 34.1464L19.1464 32.0607C19.3417 31.8654 19.6583 31.8654 19.8536 32.0607L21.9393 34.1464C22.1346 34.3417 22.1346 34.6583 21.9393 34.8536L19.8536 36.9393C19.6583 37.1346 19.3417 37.1346 19.1464 36.9393L17.0607 34.8536Z" fill="white" stroke="#110529"/>
  <path d="M17.0607 53.8536C16.8654 53.6583 16.8654 53.3417 17.0607 53.1464L19.1464 51.0607C19.3417 50.8654 19.6583 50.8654 19.8536 51.0607L21.9393 53.1464C22.1346 53.3417 22.1346 53.6583 21.9393 53.8536L19.8536 55.9393C19.6583 56.1346 19.3417 56.1346 19.1464 55.9393L17.0607 53.8536Z" fill="white" stroke="#110529"/>
  <path d="M20.0607 40.8536C19.8654 40.6583 19.8654 40.3417 20.0607 40.1464L22.1464 38.0607C22.3417 37.8654 22.6583 37.8654 22.8536 38.0607L24.9393 40.1464C25.1346 40.3417 25.1346 40.6583 24.9393 40.8536L22.8536 42.9393C22.6583 43.1346 22.3417 43.1346 22.1464 42.9393L20.0607 40.8536Z" fill="white" stroke="#110529"/>
  <path d="M14.0607 45.8536C13.8654 45.6583 13.8654 45.3417 14.0607 45.1464L16.1464 43.0607C16.3417 42.8654 16.6583 42.8654 16.8536 43.0607L18.9393 45.1464C19.1346 45.3417 19.1346 45.6583 18.9393 45.8536L16.8536 47.9393C16.6583 48.1346 16.3417 48.1346 16.1464 47.9393L14.0607 45.8536Z" fill="white" stroke="#110529"/>
  <path d="M15.0607 24.8536C14.8654 24.6583 14.8654 24.3417 15.0607 24.1464L17.1464 22.0607C17.3417 21.8654 17.6583 21.8654 17.8536 22.0607L19.9393 24.1464C20.1346 24.3417 20.1346 24.6583 19.9393 24.8536L17.8536 26.9393C17.6583 27.1346 17.3417 27.1346 17.1464 26.9393L15.0607 24.8536Z" fill="white" stroke="#110529"/>
  <path d="M10.0607 20.8536C9.8654 20.6583 9.8654 20.3417 10.0607 20.1464L12.1464 18.0607C12.3417 17.8654 12.6583 17.8654 12.8536 18.0607L14.9393 20.1464C15.1346 20.3417 15.1346 20.6583 14.9393 20.8536L12.8536 22.9393C12.6583 23.1346 12.3417 23.1346 12.1464 22.9393L10.0607 20.8536Z" fill="white" stroke="#110529"/>
  <path d="M25.0607 24.8536C24.8654 24.6583 24.8654 24.3417 25.0607 24.1464L27.1464 22.0607C27.3417 21.8654 27.6583 21.8654 27.8536 22.0607L29.9393 24.1464C30.1346 24.3417 30.1346 24.6583 29.9393 24.8536L27.8536 26.9393C27.6583 27.1346 27.3417 27.1346 27.1464 26.9393L25.0607 24.8536Z" fill="white" stroke="#110529"/>
  <path d="M20.0607 20.8536C19.8654 20.6583 19.8654 20.3417 20.0607 20.1464L22.1464 18.0607C22.3417 17.8654 22.6583 17.8654 22.8536 18.0607L24.9393 20.1464C25.1346 20.3417 25.1346 20.6583 24.9393 20.8536L22.8536 22.9393C22.6583 23.1346 22.3417 23.1346 22.1464 22.9393L20.0607 20.8536Z" fill="white" stroke="#110529"/>
  <path d="M15.0607 16.8536C14.8654 16.6583 14.8654 16.3417 15.0607 16.1464L17.1464 14.0607C17.3417 13.8654 17.6583 13.8654 17.8536 14.0607L19.9393 16.1464C20.1346 16.3417 20.1346 16.6583 19.9393 16.8536L17.8536 18.9393C17.6583 19.1346 17.3417 19.1346 17.1464 18.9393L15.0607 16.8536Z" fill="white" stroke="#110529"/>
  <path d="M18.0607 10.8536C17.8654 10.6583 17.8654 10.3417 18.0607 10.1464L20.1464 8.06066C20.3417 7.8654 20.6583 7.8654 20.8536 8.06066L22.9393 10.1464C23.1346 10.3417 23.1346 10.6583 22.9393 10.8536L20.8536 12.9393C20.6583 13.1346 20.3417 13.1346 20.1464 12.9393L18.0607 10.8536Z" fill="white" stroke="#110529"/>
  <path d="M20.0607 28.8536C19.8654 28.6583 19.8654 28.3417 20.0607 28.1464L22.1464 26.0607C22.3417 25.8654 22.6583 25.8654 22.8536 26.0607L24.9393 28.1464C25.1346 28.3417 25.1346 28.6583 24.9393 28.8536L22.8536 30.9393C22.6583 31.1346 22.3417 31.1346 22.1464 30.9393L20.0607 28.8536Z" fill="white" stroke="#110529"/>
  <path d="M36.0607 33.1464C35.8654 33.3417 35.8654 33.6583 36.0607 33.8536L38.1464 35.9393C38.3417 36.1346 38.6583 36.1346 38.8536 35.9393L40.9393 33.8536C41.1346 33.6583 41.1346 33.3417 40.9393 33.1464L38.8536 31.0607C38.6583 30.8654 38.3417 30.8654 38.1464 31.0607L36.0607 33.1464Z" fill="#DEDBFF" stroke="#110529"/>
  <path d="M41.0607 29.1464C40.8654 29.3417 40.8654 29.6583 41.0607 29.8536L43.1464 31.9393C43.3417 32.1346 43.6583 32.1346 43.8536 31.9393L45.9393 29.8536C46.1346 29.6583 46.1346 29.3417 45.9393 29.1464L43.8536 27.0607C43.6583 26.8654 43.3417 26.8654 43.1464 27.0607L41.0607 29.1464Z" fill="#DEDBFF" stroke="#110529"/>
  <path d="M41.0607 10.1464C40.8654 10.3417 40.8654 10.6583 41.0607 10.8536L43.1464 12.9393C43.3417 13.1346 43.6583 13.1346 43.8536 12.9393L45.9393 10.8536C46.1346 10.6583 46.1346 10.3417 45.9393 10.1464L43.8536 8.06066C43.6583 7.8654 43.3417 7.8654 43.1464 8.06066L41.0607 10.1464Z" fill="#DEDBFF" stroke="#110529"/>
  <path d="M44.0607 23.1464C43.8654 23.3417 43.8654 23.6583 44.0607 23.8536L46.1464 25.9393C46.3417 26.1346 46.6583 26.1346 46.8536 25.9393L48.9393 23.8536C49.1346 23.6583 49.1346 23.3417 48.9393 23.1464L46.8536 21.0607C46.6583 20.8654 46.3417 20.8654 46.1464 21.0607L44.0607 23.1464Z" fill="#DEDBFF" stroke="#110529"/>
  <path d="M38.0607 18.1464C37.8654 18.3417 37.8654 18.6583 38.0607 18.8536L40.1464 20.9393C40.3417 21.1346 40.6583 21.1346 40.8536 20.9393L42.9393 18.8536C43.1346 18.6583 43.1346 18.3417 42.9393 18.1464L40.8536 16.0607C40.6583 15.8654 40.3417 15.8654 40.1464 16.0607L38.0607 18.1464Z" fill="#DEDBFF" stroke="#110529"/>
  <path d="M39.0607 39.1464C38.8654 39.3417 38.8654 39.6583 39.0607 39.8536L41.1464 41.9393C41.3417 42.1346 41.6583 42.1346 41.8536 41.9393L43.9393 39.8536C44.1346 39.6583 44.1346 39.3417 43.9393 39.1464L41.8536 37.0607C41.6583 36.8654 41.3417 36.8654 41.1464 37.0607L39.0607 39.1464Z" fill="#DEDBFF" stroke="#110529"/>
  <path d="M34.0607 43.1464C33.8654 43.3417 33.8654 43.6583 34.0607 43.8536L36.1464 45.9393C36.3417 46.1346 36.6583 46.1346 36.8536 45.9393L38.9393 43.8536C39.1346 43.6583 39.1346 43.3417 38.9393 43.1464L36.8536 41.0607C36.6583 40.8654 36.3417 40.8654 36.1464 41.0607L34.0607 43.1464Z" fill="#DEDBFF" stroke="#110529"/>
  <path d="M49.0607 39.1464C48.8654 39.3417 48.8654 39.6583 49.0607 39.8536L51.1464 41.9393C51.3417 42.1346 51.6583 42.1346 51.8536 41.9393L53.9393 39.8536C54.1346 39.6583 54.1346 39.3417 53.9393 39.1464L51.8536 37.0607C51.6583 36.8654 51.3417 36.8654 51.1464 37.0607L49.0607 39.1464Z" fill="#DEDBFF" stroke="#110529"/>
  <path d="M44.0607 43.1464C43.8654 43.3417 43.8654 43.6583 44.0607 43.8536L46.1464 45.9393C46.3417 46.1346 46.6583 46.1346 46.8536 45.9393L48.9393 43.8536C49.1346 43.6583 49.1346 43.3417 48.9393 43.1464L46.8536 41.0607C46.6583 40.8654 46.3417 40.8654 46.1464 41.0607L44.0607 43.1464Z" fill="#DEDBFF" stroke="#110529"/>
  <path d="M39.0607 47.1464C38.8654 47.3417 38.8654 47.6583 39.0607 47.8536L41.1464 49.9393C41.3417 50.1346 41.6583 50.1346 41.8536 49.9393L43.9393 47.8536C44.1346 47.6583 44.1346 47.3417 43.9393 47.1464L41.8536 45.0607C41.6583 44.8654 41.3417 44.8654 41.1464 45.0607L39.0607 47.1464Z" fill="#DEDBFF" stroke="#110529"/>
  <path d="M42.0607 53.1464C41.8654 53.3417 41.8654 53.6583 42.0607 53.8536L44.1464 55.9393C44.3417 56.1346 44.6583 56.1346 44.8536 55.9393L46.9393 53.8536C47.1346 53.6583 47.1346 53.3417 46.9393 53.1464L44.8536 51.0607C44.6583 50.8654 44.3417 50.8654 44.1464 51.0607L42.0607 53.1464Z" fill="#DEDBFF" stroke="#110529"/>
  <path d="M44.0607 35.1464C43.8654 35.3417 43.8654 35.6583 44.0607 35.8536L46.1464 37.9393C46.3417 38.1346 46.6583 38.1346 46.8536 37.9393L48.9393 35.8536C49.1346 35.6583 49.1346 35.3417 48.9393 35.1464L46.8536 33.0607C46.6583 32.8654 46.3417 32.8654 46.1464 33.0607L44.0607 35.1464Z" fill="#DEDBFF" stroke="#110529"/>
</svg>