<svg width="64" height="64" viewBox="0 0 64 64" fill="none" xmlns="http://www.w3.org/2000/svg">
<rect x="15.5" y="9.00024" width="1" height="1" fill="#110529"/>
<rect x="15.5" y="12.0002" width="1" height="1" fill="#110529"/>
<rect x="15.5" y="15.0002" width="1" height="1" fill="#110529"/>
<rect x="15.5" y="18.0002" width="1" height="1" fill="#110529"/>
<rect x="15.5" y="21.0002" width="1" height="1" fill="#110529"/>
<rect x="15.5" y="24.0002" width="1" height="1" fill="#110529"/>
<rect x="15.5" y="27.0002" width="1" height="1" fill="#110529"/>
<rect x="15.5" y="30.0002" width="1" height="1" fill="#110529"/>
<rect x="15.5" y="33.0002" width="1" height="1" fill="#110529"/>
<rect x="15.5" y="36.0002" width="1" height="1" fill="#110529"/>
<rect x="15.5" y="39.0002" width="1" height="1" fill="#110529"/>
<rect x="15.5" y="42.0002" width="1" height="1" fill="#110529"/>
<rect x="15.5" y="45.0002" width="1" height="1" fill="#110529"/>
<rect x="15.5" y="48.0002" width="1" height="1" fill="#110529"/>
<rect x="15.5" y="51.0002" width="1" height="1" fill="#110529"/>
<rect x="15.5" y="54.0002" width="1" height="1" fill="#110529"/>
<rect x="47.5" y="9.00024" width="1" height="1" fill="#110529"/>
<rect x="47.5" y="12.0002" width="1" height="1" fill="#110529"/>
<rect x="47.5" y="15.0002" width="1" height="1" fill="#110529"/>
<rect x="47.5" y="18.0002" width="1" height="1" fill="#110529"/>
<rect x="47.5" y="21.0002" width="1" height="1" fill="#110529"/>
<rect x="47.5" y="24.0002" width="1" height="1" fill="#110529"/>
<rect x="47.5" y="27.0002" width="1" height="1" fill="#110529"/>
<rect x="47.5" y="30.0002" width="1" height="1" fill="#110529"/>
<rect x="47.5" y="33.0002" width="1" height="1" fill="#110529"/>
<rect x="47.5" y="36.0002" width="1" height="1" fill="#110529"/>
<rect x="47.5" y="39.0002" width="1" height="1" fill="#110529"/>
<rect x="47.5" y="42.0002" width="1" height="1" fill="#110529"/>
<rect x="47.5" y="45.0002" width="1" height="1" fill="#110529"/>
<rect x="47.5" y="48.0002" width="1" height="1" fill="#110529"/>
<rect x="47.5" y="51.0002" width="1" height="1" fill="#110529"/>
<rect x="47.5" y="54.0002" width="1" height="1" fill="#110529"/>
<path d="M16 42.5C31.754 42.5003 32.2463 21.5002 48 21.5002" stroke="#110529"/>
<path d="M11 33.0002H16M21 33.0002H16M16 33.0002V52.0002M16 52.0002H21M16 52.0002H11" stroke="#110529"/>
<circle cx="2" cy="2" r="2" transform="matrix(-1 0 0 1 18 40.5)" fill="white" stroke="#110529"/>
<path d="M43.0001 12.0001H48.0001M53.0001 12.0001H48.0001M48.0001 12.0001V31.0001M48.0001 31.0001H53.0001M48.0001 31.0001H43.0001" stroke="#110529"/>
<circle cx="2" cy="2" r="2" transform="matrix(-1 0 0 1 50.0001 19.5)" fill="white" stroke="#110529"/>
</svg>
