<svg width="64" height="64" viewBox="0 0 64 64" fill="none" xmlns="http://www.w3.org/2000/svg">
<rect x="0.5" y="-0.5" width="7" height="27" rx="0.5" transform="matrix(1 0 0 -1 10 57)" fill="white" stroke="#110529"/>
<rect x="0.5" y="-0.5" width="7" height="15" rx="0.5" transform="matrix(1 0 0 -1 22 57)" fill="white" stroke="#110529"/>
<rect x="0.5" y="-0.5" width="7" height="47" rx="0.5" transform="matrix(1 0 0 -1 34 57)" fill="white" stroke="#110529"/>
<rect x="0.5" y="-0.5" width="7" height="33" rx="0.5" transform="matrix(1 0 0 -1 46 57)" fill="white" stroke="#110529"/>
<rect x="5" y="9" width="1" height="1" fill="#110529"/>
<rect x="5" y="12" width="1" height="1" fill="#110529"/>
<rect x="5" y="15" width="1" height="1" fill="#110529"/>
<rect x="5" y="18" width="1" height="1" fill="#110529"/>
<rect x="5" y="21" width="1" height="1" fill="#110529"/>
<rect x="5" y="24" width="1" height="1" fill="#110529"/>
<rect x="5" y="27" width="1" height="1" fill="#110529"/>
<rect x="5" y="30" width="1" height="1" fill="#110529"/>
<rect x="5" y="33" width="1" height="1" fill="#110529"/>
<rect x="5" y="36" width="1" height="1" fill="#110529"/>
<rect x="5" y="39" width="1" height="1" fill="#110529"/>
<rect x="5" y="42" width="1" height="1" fill="#110529"/>
<rect x="5" y="45" width="1" height="1" fill="#110529"/>
<rect x="5" y="48" width="1" height="1" fill="#110529"/>
<rect x="5" y="51" width="1" height="1" fill="#110529"/>
<rect x="5" y="54" width="1" height="1" fill="#110529"/>
<rect x="5" y="57" width="54" height="1" fill="#110529"/>
<rect x="0.5" y="-0.5" width="7" height="19" transform="matrix(1 0 0 -1 10 57)" fill="#DEDBFF" stroke="#110529"/>
<rect x="0.5" y="-0.5" width="7" height="7" transform="matrix(1 0 0 -1 10 57)" fill="#C1ADFF" stroke="#110529"/>
<rect x="0.5" y="-0.5" width="7" height="11" transform="matrix(1 0 0 -1 22 57)" fill="#DEDBFF" stroke="#110529"/>
<rect x="0.5" y="-0.5" width="7" height="39" transform="matrix(1 0 0 -1 34 57)" fill="#DEDBFF" stroke="#110529"/>
<rect x="0.5" y="-0.5" width="7" height="28" transform="matrix(1 0 0 -1 46 57)" fill="#DEDBFF" stroke="#110529"/>
<rect x="0.5" y="-0.5" width="7" height="3" transform="matrix(1 0 0 -1 22 57)" fill="#C1ADFF" stroke="#110529"/>
<rect x="0.5" y="-0.5" width="7" height="19" transform="matrix(1 0 0 -1 34 57)" fill="#C1ADFF" stroke="#110529"/>
<rect x="0.5" y="-0.5" width="7" height="11" transform="matrix(1 0 0 -1 46 57)" fill="#C1ADFF" stroke="#110529"/>
</svg>
