<svg xmlns="http://www.w3.org/2000/svg" width="64" height="64" viewBox="0 0 64 64" fill="none">
  <path d="M22.9998 58.9998C23.0001 55.1426 23.1359 53.6921 31.3754 48.714C35.223 46.3894 36.8559 42.5181 35.5641 39.0712C34.8019 37.0375 33.3625 35.5604 31.9152 34.0751C30.5625 32.687 29.2029 31.2917 28.3828 29.4283C27.1666 26.665 28.5549 24.6994 29.9229 22.7625C30.4644 21.9958 31.0027 21.2337 31.375 20.4283C32.2326 18.5734 32.172 16.2283 30.1776 14.6426C29.284 13.9322 28.4819 13.3322 27.7668 12.7974C24.4424 10.311 23 9.23223 23 4.99976C23 9.23223 21.5576 10.311 18.2332 12.7974C17.5181 13.3322 16.716 13.9322 15.8224 14.6426C13.828 16.2283 13.7674 18.5734 14.625 20.4283C14.9973 21.2337 15.5356 21.9959 16.0771 22.7625C17.4451 24.6994 18.8334 26.665 17.6172 29.4283C16.7971 31.2917 15.4375 32.687 14.0848 34.0751C12.6375 35.5604 11.1981 37.0375 10.4359 39.0712C9.14409 42.5181 10.777 46.3894 14.6246 48.714C22.8641 53.6921 22.9994 55.1426 22.9998 58.9998Z" fill="white" stroke="#110529"/>
  <path d="M49.6938 34.1331C51.6656 31.2338 56.3926 27.3086 52.52 24.0157C48.6474 20.7227 46 20.5712 46 15.9998C46 20.5712 43.3523 20.7226 39.4803 24.0157C35.6083 27.3087 40.3316 31.2338 42.3055 34.1331C44.2793 37.0324 39.5856 38.6513 42.7926 41.2125C45.9996 43.7737 45.9996 47.9998 45.9996 47.9998C45.9996 47.9998 45.9996 43.7737 49.2087 41.2125C52.4178 38.6513 47.7219 37.0324 49.6938 34.1331Z" fill="#DEDBFF" stroke="#110529"/>
  <rect x="45" y="25" width="2" height="8" rx="1" fill="#110529"/>
  <path d="M23 15.9998L23 47.9998" stroke="#110529"/>
  <path d="M46 21.9995L46 37.9995" stroke="#110529"/>
  <rect x="22" y="30" width="2" height="14" rx="1" fill="#110529"/>
  <circle cx="2" cy="2" r="2" transform="matrix(-1 0 0 1 25 36.9995)" fill="white" stroke="#110529"/>
  <circle cx="2" cy="2" r="2" transform="matrix(-1 0 0 1 48 26.9995)" fill="white" stroke="#110529"/>
</svg>